<?xml version="1.0" encoding="utf-8"?>
<!-- Generator: Adobe Illustrator 18.1.1, SVG Export Plug-In . SVG Version: 6.00 Build 0)  -->
<svg version="1.1" id="Camada_1" xmlns="http://www.w3.org/2000/svg" xmlns:xlink="http://www.w3.org/1999/xlink" x="0px" y="0px"
	 viewBox="0 0 310 50" enable-background="new 0 0 310 50" xml:space="preserve">
<g>
	<path d="M29.1,35H12.4L8,49H2L17.5,3.1h6.6L39.7,49h-6.2L29.1,35z M27.6,30.3l-2.2-7c-1.6-5.1-3.1-10.2-4.5-15.5h-0.3
		c-1.5,5.3-2.9,10.4-4.6,15.5l-2.2,7H27.6z"/>
	<path d="M62.9,2.2c5.5,0,9.8,2.7,12.5,5.7l-3.3,3.7C69.7,9,66.8,7.3,63,7.3c-8.8,0-14.6,7.1-14.6,18.6c0,11.6,5.5,18.8,14.3,18.8
		c4.3,0,7.6-1.8,10.5-5.1l3.3,3.6c-3.6,4.2-8.1,6.7-13.9,6.7C51,49.8,42.4,41,42.4,26C42.4,11.3,51.1,2.2,62.9,2.2z"/>
	<path d="M80,25.8c0-14.7,8.1-23.6,19.7-23.6c11.5,0,19.6,9,19.6,23.6c0,14.8-8.1,24-19.6,24C88.1,49.8,80,40.6,80,25.8z
		 M113.2,25.8c0-11.4-5.4-18.5-13.6-18.5C91.4,7.3,86,14.4,86,25.8c0,11.5,5.4,18.9,13.7,18.9C107.8,44.7,113.2,37.3,113.2,25.8z"/>
	<path d="M154,49l-11.1-19.4h-8.3V49h-5.9V3.1h14.4c9.3,0,16,3.4,16,12.9c0,7.1-4.1,11.4-10.3,13l11.7,20H154z M134.7,24.8h7.7
		c7.1,0,11.1-2.9,11.1-8.9c0-6-3.9-8.2-11.1-8.2h-7.7V24.8z"/>
	<path d="M169.1,3.1h11.5c14.1,0,21.7,8.2,21.7,22.8c0,14.6-7.6,23.2-21.4,23.2h-11.8V3.1z M180.2,44.2c10.8,0,16.1-6.8,16.1-18.4
		c0-11.6-5.3-18-16.1-18H175v36.4H180.2z"/>
	<path d="M211.9,3.1h26.5V8h-20.6v14.4h17.4v5h-17.4V44h21.3v5h-27.2V3.1z"/>
	<path d="M248.5,3.1h5.9V49h-5.9V3.1z"/>
	<path d="M284.7,41c2.2,0,4.1,1.8,4.1,4.5c0,2.5-1.9,4.3-4.1,4.3c-2.3,0-4.2-1.8-4.2-4.3C280.5,42.8,282.4,41,284.7,41z M281.9,8.7
		l-0.1-6.6h5.8l-0.1,6.6l-0.8,26.5h-4L281.9,8.7z"/>
	<path d="M305,41c2.2,0,4.1,1.8,4.1,4.5c0,2.5-1.9,4.3-4.1,4.3c-2.3,0-4.2-1.8-4.2-4.3C300.8,42.8,302.6,41,305,41z M302.2,8.7
		L302,2.1h5.8l-0.1,6.6l-0.8,26.5h-4L302.2,8.7z"/>
</g>
</svg>
