<?xml version="1.0" encoding="utf-8"?>
<!-- Generator: Adobe Illustrator 18.1.1, SVG Export Plug-In . SVG Version: 6.00 Build 0)  -->
<svg version="1.1" id="Camada_1" xmlns="http://www.w3.org/2000/svg" xmlns:xlink="http://www.w3.org/1999/xlink" x="0px" y="0px"
	 viewBox="0 0 153 34" enable-background="new 0 0 153 34" xml:space="preserve">
<g>
	<path fill="#0A0807" d="M145.3,18.2c-6.9-1.5-9.5-4.3-9.2-9.4c0.3-4.5,1.9-9.4,7.2-8c3.5,0.9,8.2,4.8,8.6,7.8
		C152.4,11.5,147.7,15,145.3,18.2z"/>
	<path fill="#100D0D" d="M1,24.1c2.9-2.3,6.6-7.1,8.5-6.5c3.8,1.3,6.7,5.5,9.9,8.5c-2.8,2.6-5.4,7.1-8.4,7.4
		c-3.1,0.2-6.6-3.6-9.9-5.7C1.1,26.5,1,25.3,1,24.1z"/>
</g>
</svg>
