<?xml version="1.0" encoding="utf-8"?>
<!-- Generator: Adobe Illustrator 18.1.1, SVG Export Plug-In . SVG Version: 6.00 Build 0)  -->
<svg version="1.1" id="Camada_1" xmlns="http://www.w3.org/2000/svg" xmlns:xlink="http://www.w3.org/1999/xlink" x="0px" y="0px"
	 viewBox="0 0 1200.5 3000.6" enable-background="new 0 0 1200.5 3000.6" xml:space="preserve">
<g opacity="0.2">
	<path fill="#5DB473" d="M893.7,1965c4.1-10.4,6.8-21.6,12.6-30.9c9.7-15.6,21.1-30.2,32.5-44.6c3.5-4.4,9.3-7.1,16.2-12.2
		c-0.5,6.2-0.8,9.2-1.1,12.7c1.5,0.1,3.1,0.7,4.5,0.3c9.9-2.7,19.3-10.1,27.3,5.2c3.4,6.5,14.6,9,25.1,14.9
		c-12.7,23.3-25.4,46.5-38,69.6c0-7.8,0.1-15.6,0.1-23.4c0.1-9.5-4-11.6-12.4-7.7c-8.9,4.1-18.1,7.7-27.2,11.5
		c8.2-11.6,16.5-23.2,24.7-34.8c-1-0.7-2-1.4-3.1-2.2c-8,10.6-16.2,21.2-23.9,32c-0.5,0.7,1.4,3.2,2.2,4.9c1.5,1.2,3.4,3.8,4.4,3.5
		c9.7-3.1,19.3-6.6,32.8-11.5c-3,12.4-5.1,21-7.2,29.5c-1,1.9-2,3.8-3,5.6c-11.3,10-17.4,26-34.2,29.7c-0.7,5.9-1.4,11.8-2.1,18.2
		c-8.3,1.9-8.3,1.9-5.8-21.8c-2.1,0.8-3.7,1.6-5.3,2c-1.8,0.5-3.6,0.8-6.6-0.7c2.7-2.5,5.4-4.9,9.1-8.3c-2.5-3.4-5-6.8-9.9-13.4
		c-1.8,11-3,18-4.3,26.2c-8,0.1-7.4-5.8-6.3-11.2c2.6-12.7,0.3-26.2,6.2-38.4c8.2-1.5,16.4-3,24.5-4.6c-0.3-1.3-0.5-2.5-0.8-3.8
		C914.5,1962.6,904.1,1963.8,893.7,1965z"/>
	<path fill="#007B40" d="M1034.6,1943c10.8,15.1,21.5,30.1,33.5,46.9c14.5-10.6,29.9-21.9,45-32.9c-11-32.5-44.5-83.7-64.8-98.5
		c6.5-5.2,13.2-9.6,18.6-15.3c6.1-6.4,11.8-13.6,16.2-21.3c1.6-2.9,0.3-9.2-2-11.9c-1.6-1.8-8.3-1.4-11,0.5
		c-8.7,6-16.7,13.1-24.9,19.9c-9.3,7.7-18.4,15.6-27.6,23.4c-1.1-0.6-2.2-1.3-3.3-1.9c0.8-7.8,2.1-15.7,2.5-23.5
		c0.9-19.7,1.9-39.4,1.9-59.1c0-4-3.1-9.4-6.4-11.9c-19.1-14.1-40.5-23.2-64-26.9c0-0.7,0-1.4,0-2.1c28.7-2,50.9,13.2,72.7,28.6
		c2.7,1.9,3.5,8,3.5,12.2c0.3,23.7,0.2,47.3,0.2,71.7c5.5-4.8,11.7-10.5,18.2-15.8c8.5-7,16.7-14.9,26.2-20
		c4.5-2.4,13.5-1.5,17.5,1.7c3.2,2.5,4.4,12.4,2,16.1c-7.9,12.6-17.8,23.9-25.5,33.8c16.9,28.4,34.2,57.8,51.8,87.1
		c5.7,9.5,4.5,16.1-5.3,22.3c-12.1,7.6-23.2,16.9-35,25.1c-8.2,5.7-14.2,5.4-18.8-5.6c-4-9.7-10.8-18.3-16.4-27.3
		C1037.8,1953.1,1036.2,1948.1,1034.6,1943z"/>
	<path fill="#007B40" d="M861.7,1802.4c-41.1,0.8-65.6,22.8-74,64.7c-2.9,14.4-8.1,28.4-12.4,42.5c-0.6,1.8-1.9,3.4-3.7,6.8
		c-21.1-25.1-41.4-49.2-61.7-73.3c-1,0.4-2,0.9-3,1.3c4.1,12.2,7.4,24.9,12.6,36.7c7,15.9,15.6,31.2,23.5,46.8
		c-3.6-1.8-9.2-2.6-10.5-5.4c-9.1-19.7-17.9-39.5-25.5-59.8c-3.3-8.9-3.7-18.9-3.6-29.5c15.8,7.8,22.8,23.5,33.8,35.3
		c11.3,12.2,21.8,25.1,34.1,39.4c5-19,9.7-37.1,14.5-55.3c10.1-38.7,54.1-63.8,93.1-53.1c-1,0.9-2,1.8-3.1,2.7
		C871.1,1802.4,866.4,1802.4,861.7,1802.4z"/>
	<path fill="#007B40" d="M748.2,1928.1c42.4,5.1,79.4-7.7,112.1-34.3c2.2-1.8,4.8-3.1,7.3-4.5c0.6-0.3,1.5,0.1,5.3,0.5
		c-5.3,25.6-10.6,50.9-16,76.9c10,1.2,19.2,2.2,28.3,3.3c-10.7,1.3-21.5,2.6-35.7,4.3c5.9-27,11.1-50.8,17.1-78
		c-6.3,4.2-10.2,6.5-13.8,9.3c-27.4,20.7-58.2,29.9-92.4,27.6C756.3,1932.8,752.3,1929.8,748.2,1928.1z"/>
	<path fill="#007B40" d="M1034.6,1943c1.6,5.1,3.2,10.1,4.8,15.2c-0.9,13.7-1.3,27.4-2.8,41c-0.5,4.2-3.2,11-6,11.5
		c-21.1,4.4-42.4,7.6-64.9,11.4c0-9.4,0-17,0-25.4c-10.5,11.3-20.1,21.7-29.7,32.1c-1-0.8-2.1-1.6-3.1-2.5c1.1-2.2,2.2-4.5,3.3-6.7
		c8.1-10.8,16.2-21.5,24.3-32.3c1-1.9,2-3.8,3-5.6c2.3,2.7,4.7,5.4,7,8c0,8.1,0,16.2,0,26.4c19.9-3.3,38.3-5.9,56.5-9.9
		c2.6-0.6,5.3-7.6,5.5-11.7c0.5-13.5-0.5-27-0.4-40.5C1032,1950.4,1033.7,1946.7,1034.6,1943z"/>
	<path fill="#007B40" d="M875.9,1802.4c1-0.9,2-1.8,3.1-2.7c4.4,0.8,8.7,1.5,14.1,2.5c1-9.2,1.9-17.9,3-26.6c0.4-3.2,1-6.4,1.8-9.6
		c8.5-36.6,12.3-39.4,50.3-37.6c0,0.7,0,1.4,0,2.1c-33,0.4-37.7,4-44.4,36.7c-1.8,8.7-2.6,17.8-2.4,26.7c0.1,4.2,3.5,8.4,5.9,13.7
		c-0.7,0.9-3.4,4.3-6.1,7.6c-0.8,1.3-1.6,2.6-2.4,3.9c-1.6-3.2-3.2-6.4-4.9-9.6C887.9,1807.1,881.9,1804.7,875.9,1802.4z"/>
	<path fill="#007B40" d="M893.7,1965c10.4-1.2,20.8-2.4,31.2-3.6c0.3,1.3,0.5,2.5,0.8,3.8c-8.2,1.5-16.4,3-24.5,4.6
		c-4.8,3.2-9.5,5.7-12.3-2.2C890.5,1966.7,892.1,1965.9,893.7,1965z"/>
	<path fill="#5DB473" d="M862.1,1854c-8.9-2-18.4-11-16.4-18.5c1.6-5.8,7.9-10.2,12.2-15.3c6.9,6.5,13.9,13,20.8,19.5
		C873.2,1844.5,867.7,1849.2,862.1,1854z"/>
	<path fill="#007B40" d="M970.4,1989.8c-2.3-2.7-4.7-5.3-7-8c2.1-8.6,4.2-17.1,7.2-29.5c-13.6,4.8-23.1,8.4-32.8,11.5
		c-1,0.3-2.9-2.2-4.4-3.5l0,0c9.1-3.8,18.2-7.4,27.2-11.5c8.4-3.9,12.5-1.7,12.4,7.7c-0.1,7.8-0.1,15.6-0.1,23.4
		C972.1,1983.3,971.2,1986.6,970.4,1989.8z"/>
</g>
<g opacity="0.2">
	<path fill="#EF4A34" d="M409.8,718.2c1.4,1.2,2.7,2.5,4.2,3.6c10.5,7.4,11.6,10.9,7.1,22.9c-12.3,33-24.7,66-36.7,99.2
		c-9.2,25.6-17.8,51.5-26.8,77.2c-3,8.8-6.5,17.4-9.2,26.3c-0.8,2.7-0.4,6.2,0.6,9c7.8,21.3,16.9,42.3,18.3,65.3
		c0.5,7.7,0.9,15.6-0.3,23.1c-1.6,10-20.9,16.1-28.3,9.3c-1.6-1.4-2-4.2-2.7-6.4c-1.8-5.8-3.5-11.7-5.2-17.5
		c-0.7,0.1-1.4,0.1-2.1,0.2c0,4.1,0,8.1,0,12.2c0,12.2-7.3,19.4-19.3,19.6c-5.4,0.1-7.7-1.9-7.4-7.6c0.5-9.9,0.5-19.7,0.7-29.6
		c0-0.2-0.2-0.4-0.8-1.3c-7.3,4-15,6.7-16.9,16.8c-2,10.4-5.8,20.5-8.1,30.9c-3.5,16.1-5.6,18.1-21.8,18.1c-6.1,0-12.2,0-20.7,0
		c3-23.4,4.7-45.7,9.2-67.5c2.1-10.3,4.3-20.2,4.1-30.6c1,4.8,2.1,9.6,3.1,14.4c-2.8,26-5.6,52-8.3,77.6c5.7,0.4,9.6,0.5,13.5,0.9
		c8.2,0.8,12.1-2.2,14-9.8c3-12.1,6.6-24.1,9.5-36.3c1.6-6.4,3.1-12,10.5-14.5c6-2.1,11.5-5.9,19.1-10.1c0,15.4,0,28.2,0,41
		c9.6,1.5,12.4-0.5,12.5-8.5c0-3.2-0.4-6.5,0.2-9.6c1.4-7.3,0.2-15.8,7.9-20.7c0.4-0.3,0.7-0.5,1.2-0.6c3.5,8.9,7.2,17.7,10.4,26.7
		c3.2,8.8,6.3,10.5,15.7,7.5c1.5-3.8,3-7.5,4.5-11.3c-1-10.9-0.7-22.1-3.4-32.5c-4.5-16.9-11.2-33.3-16.6-50c-0.9-2.7-0.9-6.2,0-8.9
		c4.4-13.6,9.2-27.1,13.8-40.6c2.7-7.5,5.4-15.1,8.2-22.6c0.9-1.3,2.1-2.5,2.5-4c5.1-15.6,10.1-31.2,15.1-46.9
		c5.4-13.3,12.5-26.2,15.7-40c2.5-10.8,13.9-20.9,4.6-33.4c-6.1-2.4-9.8-0.4-11.1,6.5c-0.8,3.9-2.4,7.6-3.7,11.4
		c-5,14.5-10,28.9-15,43.4c-4.4,11.9-8.8,23.8-13.1,35.7c-3.7,5.4-7.9,10.5-10.9,16.3c-3.9,7.4-6.8,15.2-10.1,22.9
		c-1.9,3.9-4.2,7.7-5.7,11.8c-4.6,12.4-8.4,25.3-13.8,37.3c-1.6,3.6-7.7,7-11.8,7.1c-10,0.4-20.2-1.6-30.3-1.9
		c-6.2-0.2-12.4,1.1-18.5,1.7c-7-1-13.9-2.1-20.9-3.1c-16.9,0.5-33.9,0.7-50.8,1.8c-7.8,0.5-15.4,2.9-23.1,4.4
		c-3.4,0.5-6.8,0.9-10.2,1.6c-7.9,1.5-15.7,3.2-23.5,4.8c-11.3,1.5-22.6,3-33.9,4.4c-19.7,3.1-40.2,2.2-58.4,12.3
		c15.7-1.9,31.4-3.8,47-5.7c20.7,2.8,41.4,4,61.7-2.8c3.1-0.5,6.2-1,9.3-1.5c6.9-0.6,13.8-1.3,20.8-1.9c3.2,0,6.4,0,9.6,0
		c4.2,0,8.4,0,13.8,0c-1.8,4-2.8,6.2-3.8,8.4c-0.2,4.7-0.3,9.4-0.5,14.2c-1.2,1-2.3,2.1-3.5,3.1c0-6.1,0-12.1,0-19.3
		c-24.1,2.4-46.5,5.1-69.1,6.8c-11.9,0.9-24-0.1-36,0.1c-5.5,0.1-11,1.3-16.5,1.7c-5.6,0.4-11,6.9-17,0.3c-0.8-0.9-4.5,1.2-6.8,1.2
		c-7.8,0.1-15.5-0.2-23.3-0.3c-0.2-1.1-0.4-2.1-0.7-3.2c2.2-1.6,4.1-3.8,6.5-4.5c14.5-4.4,28.9-9.7,43.7-12.4
		c30-5.5,60.1-9.8,90.3-14.3c27.6-4.2,55.1-6.4,83.1-2.8c12.2,1.6,25-1.3,37.5-1.6c7.3-0.2,14.8,0.1,22,1.1c4.4,0.7,6.5-0.6,8-4.2
		c2.9-7.2,7.1-14.1,8.5-21.6c3.9-21.6,13.5-40.3,25.8-58c3.4-5,6-10.8,8.1-16.5c9.5-26.7,18.6-53.5,27.9-80.3c0.5-1.5,0.8-3,1.3-5.4
		c-9.5-1.5-18.8-2.1-27.6-4.6c-11-3.1-18.3-11.6-24.3-20.9c-0.6-1,1.1-4.5,2.6-5.6c13.5-10,28-17.8,45.6-17
		c9.1-0.5,17.9-0.3,24.4,7.7C405.9,718.4,408.2,718,409.8,718.2z M366.7,748.6c8.2,0.3,16.5,4.6,24.6-1.1c0.6-0.5,2.9,1.4,4.5,2.2
		c1.7,0.9,3.3,2.3,5.1,2.5c9.2,1.2,15.6-7.8,13.9-19.5c-5.1-3.6-9.8-7.8-15.3-10.8c-12.3-6.9-25.3-6.9-38.3-1.6
		c-4.3,1.7-8.6,3.6-12.6,6c-2.2,1.4-5.3,4.4-5,6.2C344.7,738.5,360.2,748.6,366.7,748.6z"/>
	<path fill="#EF4A34" d="M191,991.2c1.2-1,2.3-2.1,3.5-3.1c0.6,1.1,1.2,2.2,1.7,3.2c-0.4,1.7-0.6,3.6-1.4,5.2
		c-7.5,13.9-15.1,27.7-22.6,41.5c-1.1,2.6-2.1,5.2-3.6,8.7c7.1,1.8,13.3,3.7,19.8,5c3.6,0.7,7.3,0.4,11,0.6
		c7.1,0.7,9.3-2.3,10.1-9.5c1.2-11,3.8-22,7-32.6c2.6-8.7,7.6-16.8,10.5-25.4c3.5-10.5,4.3-11.2,14.2-6.1c0.5,0.6,1.1,1.2,1.6,1.7
		c4.4,2.2,8.8,4.4,13.1,6.6c-3.1,5.5-6.6,10.9-3.6,17.6c-0.5,0.4-1,0.9-1.6,1.3c-1-4.8-2.1-9.6-3.1-14.4c-4-2.5-8-4.9-13.6-8.4
		c-5.5,18.8-10.8,36.6-16,54.4c-0.8,2.8-1.3,5.7-2,8.6c-3.9,15.9-4,16.2-20.5,13.4c-11.7-2-23.3-5.1-36.6-8.1
		C169.6,1029.5,177.6,1009,191,991.2z"/>
	<path fill="#F07E4C" d="M409.8,718.2c-1.6-0.2-3.9,0.2-4.6-0.7c-6.5-8-15.4-8.1-24.4-7.7c10.2-2.1,20.3-5.9,32.7-3
		c-3.2,3.5-5,5.6-7.2,7.9C407.4,716,408.6,717.1,409.8,718.2z"/>
	<path fill="#F07E4C" d="M250.8,1005.8c0.5-0.4,1-0.9,1.6-1.3c6.3-11.3,12.6-22.6,18.9-33.9c-0.9-0.5-1.8-1-2.6-1.5
		c-1.9,3-3.6,6.2-5.7,9.1c-2.1,3-4.6,5.8-6.9,8.7c-4.4-2.2-8.8-4.4-13.1-6.6c5.3-2.6,16.8-21.1,16.4-26.6c0-0.4-1.3-0.7-2-1
		c0-0.4,0-0.9,0-1.3c6.2-0.6,12.4-1.8,18.5-1.7c10.1,0.3,20.2,2.3,30.3,1.9c4.2-0.1,10.2-3.6,11.8-7.1c5.5-12.1,9.2-24.9,13.8-37.3
		c1.5-4.1,3.8-7.9,5.7-11.8c2.7-0.6,5.4-1.2,9.5-2.1c-0.4,5.9-0.7,11-1,14.7c3.1-0.6,6.3-1.2,9.4-1.8c-4.7,13.5-9.5,27-13.8,40.6
		c-0.9,2.7-0.9,6.2,0,8.9c5.4,16.7,12.1,33.1,16.6,50c2.8,10.4,2.4,21.6,3.4,32.5c-3.6-0.6-7.2-1.2-10.3-1.8
		c-0.4,4.1-0.8,8.1-1.2,12.7c2.3,0.1,4.6,0.3,6.9,0.4c-9.4,3-12.6,1.3-15.7-7.5c-3.2-9-6.9-17.8-10.4-26.7c0-7.3,0-14.6,0-21.8
		c-0.9,0-1.8,0.1-2.7,0.1c0.5,7.4,1,14.9,1.5,22.3c-7.7,5-6.5,13.4-7.9,20.7c-0.6,3.1-0.2,6.4-0.2,9.6c-0.1,8-2.9,10.1-12.5,8.5
		c0-12.7,0-25.6,0-41c-7.6,4.1-13.1,7.9-19.1,10.1c-7.4,2.6-8.9,8.2-10.5,14.5c-3,12.1-6.5,24.1-9.5,36.3c-1.9,7.6-5.8,10.6-14,9.8
		c-3.9-0.4-7.8-0.5-13.5-0.9C245.2,1057.7,248,1031.7,250.8,1005.8z M310.4,964c-0.8-0.4-1.7-0.8-2.5-1.2
		c-7.4,19-14.8,38.1-22.3,57.1c0.7,0.3,1.4,0.6,2.1,0.8C295.3,1001.9,302.9,983,310.4,964z M281.8,1002.5c1,0.3,1.9,0.7,2.9,1
		c5.8-8.7,7.4-18.9,9.8-28.8c-0.8-0.3-1.6-0.6-2.4-0.8C288.6,983.4,285.2,993,281.8,1002.5z M262.2,1053.8c0.8,0.1,1.6,0.2,2.4,0.3
		c1.9-10.3,3.8-20.6,5.8-30.8c-0.8-0.1-1.5-0.2-2.3-0.4C266.1,1033.2,264.1,1043.5,262.2,1053.8z M332.1,930.3
		c1.1,0.4,2.2,0.8,3.4,1.2c2-8.5,3.9-16.9,5.9-25.4c-0.7-0.2-1.5-0.4-2.2-0.6C336.8,913.7,334.5,922,332.1,930.3z M255.5,1082.1
		c1.2,0.2,2.5,0.5,3.7,0.7c1.1-7,2.3-14,3.4-21c-0.5-0.1-1.1-0.2-1.6-0.3C259.2,1068.4,257.3,1075.3,255.5,1082.1z"/>
	<path fill="#F07E4C" d="M257.3,951.3c0,0.4,0,0.9,0,1.3c-5.4,8.6-10.7,17.2-16.1,25.9c-9.9-5.1-10.7-4.4-14.2,6.1
		c-2.9,8.7-7.9,16.7-10.5,25.4c-3.2,10.6-5.8,21.6-7,32.6c-0.8,7.3-3.1,10.2-10.1,9.6c1.5-7.2-8.1-6.9-8.4-12.1c-3.6,0-7,0-12.1,0
		c-0.1,0.2-1.6,2.3-3.3,4.9c-1.7-3.5-2.5-5.3-3.3-7c7.6-13.8,15.2-27.6,22.6-41.5c0.8-1.5,0.9-3.4,1.4-5.2
		c2.3-5.1,4.7-10.2,7.6-16.6c-4-0.4-6.4-0.6-8.9-0.8c1-2.2,2-4.5,3.8-8.4c-5.4,0-9.6,0-13.8,0c4.4-1,8.8-2.1,13.2-3.1
		c2.1-1.6,4.1-3.1,6.2-4.7c8.9-1.7,17.7-3.3,26.5-5.2c2-0.4,3.7-2.1,5.6-3.1c0-0.4,0-0.8,0-1.1C243.4,949.3,250.3,950.3,257.3,951.3
		z M243.6,959.1c-0.8-0.5-1.5-0.9-2.3-1.4c-3.1,4.7-6.3,9.4-9.4,14.2c1.1,0.7,2.2,1.3,3.3,2C238,969,240.8,964.1,243.6,959.1z"/>
	<path fill="#F07E4C" d="M366.7,748.6c-6.5,0-22-10.2-23-16.1c-0.3-1.8,2.8-4.8,5-6.2c3.9-2.5,8.2-4.3,12.6-6
		c13-5.2,25.9-5.3,38.3,1.6c5.4,3,10.2,7.2,15.3,10.8c-9.7,3.3-19.3,6.7-29,9.9C379.4,744.7,373,746.6,366.7,748.6z"/>
	<path fill="#F07E4C" d="M204.3,957.7c-2.1,1.6-4.1,3.1-6.2,4.7c-8.7,0.5-17.4,0.9-26.2,1.4c-9.5,0.6-19,1.1-28.5,1.7
		c0,0.7,0.1,1.3,0.1,2c3.7,0,7.4,0,11,0c-3.1,0.5-6.2,1-9.3,1.5c-5-2.6-9.9-5.2-14.9-7.8c20.1-1,40-4,59.7-6.8c-9.2,0-18.4,0-27.5,0
		c7.7-1.5,15.3-3.9,23.1-4.4c16.9-1.1,33.9-1.2,50.8-1.8c0,0.4,0,0.8,0,1.1c-14.3-2-27,3.6-40.1,8.4
		C199,957.7,201.7,957.7,204.3,957.7z"/>
	<path fill="#F07E4C" d="M363.5,883.5c-1.8-0.8-3.7-1.6-6.9-3c2.4-6.6,4.9-13.6,7.6-21.2c-1.8-1-3.8-2-5.8-3.1
		c4.4-11.9,8.8-23.8,13.1-35.7c2,0,3.9,0,5.4,0c2.9,4.2-5,10.9,4.1,12.2c-5,15.6-10,31.3-15.1,46.9
		C365.6,881,364.4,882.2,363.5,883.5z"/>
	<path fill="#F07E4C" d="M130.3,961.2c5,2.6,9.9,5.2,14.9,7.8c-20.3,6.7-41,5.6-61.7,2.8c3.9-1.2,7.9-2.4,11.7-3.8
		c0.2-0.1-0.2-1.9-0.4-2.9c11.3-1.5,22.6-3,33.9-4.4C129.3,960.9,129.8,961.1,130.3,961.2z"/>
</g>
<g opacity="0.2">
	<path fill="#F07E4C" d="M233.3,1667c-2-3.1-6-6.4-5.7-9.2c1.9-15.8,4-31.7,7.8-47.1c4.4-17.9,10.8-35.2,16.2-52.9
		c1.1-3.7,1.5-7.6,0.1-12.8c-3.1,2.7-6.5,5.1-9.1,8.1c-28.2,32.8-56.1,65.8-84.5,98.4c-5.4,6.3-12.5,11.1-17.4,15.4
		c-7.5-14.7-14-27.2-20.3-39.7c-15-29.7-30.1-59.3-45-89.1c-9-17.9-4.1-32.6,15.1-37.2c29.5-7.1,59.6-11.4,89.4-17.2
		c33-6.4,66.1-12.5,98.7-20.4c9.1-2.2,16.9-10.2,25.2-15.6c3.3-2.2,6.5-4.6,9.7-6.9c-4.7,17.3-0.5,32.1,12.3,44.6
		c-16.5,4.8-20.2,16.2-19.1,32.3c1.5,21.4,1.6,43,0.7,64.5c-0.6,14.6-3.9,29.1-5.9,43.7c-0.6,0.2-1.1,0.4-1.6,0.7
		c-1.9-2.6-3.8-5.3-5.7-7.9c1-32.7,2.1-65.4,3-98.2c0-1-1.3-2-1.9-2.9c0.1-7.4,0.2-14.7,0.3-22.1c-0.6-0.3-1.2-0.6-1.7-0.9
		c-2,4.4-4,8.9-6,13.3c-6.8-5.7-7.5,0.1-8.2,4.6c-3.7,23.9-7.3,47.9-10.6,71.8c-1,7.5-1.2,15-1.7,22.6c-2.1-0.6-4.2-1.2-6.2-1.8
		c-0.6-1.8-1.2-3.6-1.8-5.5c0.3-7.2,0.6-14.4,0.9-21.6c-1.5-0.2-2.9-0.4-4.4-0.6c-1.9,6.6-3.9,13.2-5.8,19.8
		c-4.6,19.6-9.2,39.1-13.7,58.7C235.3,1659.7,234.3,1663.3,233.3,1667z M179.7,1519.7c1.2,0.4,2.3,0.8,3.5,1.1
		c-8.7,7.4-16.7,16.1-26.4,22c-11.8,7.2-25.2,11.7-37.6,18c-2,1-2.4,5.1-3.5,7.7c0.2,1.3,0.4,2.6,0.6,3.9c1.6-1.2,3.2-2.5,4.9-3.7
		c4.1,2.6,8.2,5.1,12.3,7.7c4-1.3,8.8-1.6,11.8-4.1c17.6-14.8,34.7-30.2,51.9-45.4c8.7-8,17.3-16,26-24.1c5.1-5,10.1-10,15.2-15
		c-0.7-0.8-1.4-1.6-2.1-2.5c-4.2,3-8.4,6-12.5,9c-5.6,1.3-11.1,2.5-16.7,3.8c3.2-2.8,6.4-5.5,9.6-8.3c-0.6-0.7-1.2-1.3-1.8-2
		c-17.8,13.4-35.5,26.7-53.3,40.1c0.5,0.7,1,1.4,1.5,2.2C168.7,1526.8,174.2,1523.3,179.7,1519.7z M192.9,1496.6
		c-0.5-1.1-1-2.2-1.4-3.4c-17.2,5.8-28.7,20.5-43.7,29.8c0.7,1.1,1.4,2.1,2.1,3.2C164.2,1516.4,178.6,1506.5,192.9,1496.6z
		 M84.4,1532.8c16.2,12.9,21.3-4.6,30.6-8.6C105.4,1526.9,95.8,1529.6,84.4,1532.8z M117.5,1598c4.6,9.1,8.2,16,12.5,24.3
		c2.5-3.9,4.2-6.8,6.6-10.6c-3.8,0.4-6.4,0.6-10,1c1.9-4.5,3.2-7.7,4.9-12C126.7,1599.8,123,1599.1,117.5,1598z M150.3,1646.5
		c-2.4-5.6-3.6-8.5-4.6-10.8c-3.6-0.1-6.9-0.1-10.5-0.2c2.9,5.7,5.6,10.9,8.7,16.9C147.3,1649.3,149.9,1647,150.3,1646.5z
		 M133.9,1589.7c-0.3-0.9-0.6-2-0.7-2c-2.3,0.3-4.5,0.7-6.8,1.1c-1.1-4.1-2.1-7.7-3.3-12c-3.1,4-5.5,7.1-8.1,10.4
		C120.9,1594.8,126.6,1598.6,133.9,1589.7z"/>
	<path fill="#F07E4C" d="M314.4,1440.1c21.7-12.1,30.9-33.8,43.1-53.7c11.3-18.4,27.1-34,40.9-50.8c1.5,1.7,3,3.5,4.5,5.2
		c-3.4,4.7-6.3,9.9-10.4,14c-16.8,17.1-29.7,36.6-38.1,59.4c5.2-3.7,9.8-8,13.9-12.7c12.7-14.3,24.5-29.6,38.3-42.8
		c7.8-7.5,12.5-13.8,7.9-24.3c3.8-0.5,10.1-2.5,11-1c2.3,3.5,3.6,9.1,2.4,12.9c-1.7,5.4-5.3,10.7-9.3,14.9
		c-12.2,13.1-25,25.7-38.9,39.8c5.5,0.5,8.6,0.8,11.7,1.2c0.1,0.4,0.3,0.9,0.5,1.3c-1.5,3.1-2.9,6.1-4.4,9.2
		c-0.7,0.3-1.3,0.6-1.9,1.1c-13.1,4.8-25.7,10.2-30,26c3.6,2.5,6.7,4.9,10.1,6.9c21.6,12.4,25.6,11.2,36.2-10.9
		c3-0.4,5.9-0.8,8.9-1.2c-1.4,7,2.8,5,6.9,4.9c19.1-0.6,38.2-0.8,57.2-0.9c1.8,0,3.6,1.7,5.5,2.6c-3.2,6.4-6.4,12.9-9.6,19.3
		c-0.3,0.8-0.7,1.7-1,2.5c-2.6,2-5.2,3.9-7.8,5.9c-27.3,1.7-54.7,2.8-81.9,5.4c-12.8,1.2-25.4,5.4-38.1,8.1
		c-3.6,0.8-7.5,0.7-11.2,1.1c10.1-9.1,8.3-20.4,5.4-31.7C332.7,1437.5,327.9,1435.1,314.4,1440.1z M394.9,1461.4
		c24-4.5,47.1,3.7,69.5-7.2C452.3,1444.5,408,1448.6,394.9,1461.4z"/>
	<path fill="#F07E4C" d="M287.8,1507.8c2-4.4,4-8.9,6-13.3c0.6,0.3,1.2,0.6,1.7,0.9c-0.1,7.4-0.2,14.7-0.3,22.1
		c-1.3,2.6-3.5,5.2-3.7,7.9c-1.8,30.9-3.4,61.8-5,92.7c-0.8,8.8-1.7,17.5-2.5,26.3c0.9,12.4,1.9,24.8,2.8,37.2c2,2.5,4,5.1,6,7.6
		c0.1,0.6,0.3,1.1,0.6,1.6c-10.3,8.5-12.7,8.2-15.2-4.6c-2.4-12.4-4.1-25.4-3.2-37.9c3.1-44.6,7.4-89,11.3-133.5
		C286.6,1512.5,287.3,1510.2,287.8,1507.8z"/>
	<path fill="#02587B" d="M293.4,1690.8c-0.3-0.5-0.5-1-0.6-1.6c2.3-20.9,4.7-41.8,7-62.7c0.5-0.3,1-0.5,1.6-0.7
		c3.5,3.8,6.9,7.6,10.4,11.4c-9.4,10.2-10,34.7-2.4,46.3c5.9,9.1,10.2,19.3,15.1,29c-1.2,1.4-2.3,2.7-3.5,4.1
		c-4.5-2.2-10-3.5-13.3-6.9C302.2,1704.3,298.1,1697.3,293.4,1690.8z"/>
	<path d="M314.4,1440.1c13.4-5,18.3-2.6,22,11.5c3,11.3,4.7,22.5-5.4,31.7c-1.8,0.7-3.5,1.4-5.3,2.2c-12.9-12.4-17-27.3-12.3-44.6
		C313.7,1440.4,314,1440.2,314.4,1440.1z"/>
	<path fill="#02587B" d="M252.2,1650.2c4.2,12.8,8.6,25.4,12.3,38.3c1.1,4,0.1,8.6,0.1,13c-1.3,0.4-2.5,0.8-3.8,1.3
		c-8.1-11.8-16.3-23.6-24.4-35.4C241.7,1661.7,246.9,1656,252.2,1650.2z"/>
	<path d="M252.2,1650.2c-5.3,5.7-10.6,11.5-15.8,17.2c-1-0.1-2-0.3-3-0.4c1-3.7,1.9-7.3,2.9-11c11-15.6,20.8-31.9,24.7-51
		c2.1,0.6,4.2,1.2,6.2,1.8C262.2,1621.3,257.2,1635.8,252.2,1650.2z"/>
	<path fill="#02587B" d="M392.1,1403.4c-0.2-0.4-0.4-0.9-0.5-1.3c6.2-8.2,12.5-16.4,20.2-26.5c6.7,15.5-0.7,24.7-5.8,34.4
		C401.4,1407.8,396.8,1405.6,392.1,1403.4z"/>
	<path fill="#F07E4C" d="M471,1460.2c3.2-6.4,6.4-12.9,9.6-19.3c2.5,0.9,4.9,1.8,7.4,2.7c1.6,2.4,3.1,4.8,4.7,7.3
		c-1.6,3.5-3.3,7-4.9,10.5c-2.4,0.5-4.7,1-7.1,1.5C477.4,1462,474.2,1461.1,471,1460.2z"/>
	<path fill="#02587B" d="M409,1337.1c-2,1.2-4,2.4-6,3.7c-1.5-1.7-3-3.5-4.5-5.2c-0.3-7.9-1.1-15.8-0.7-23.6
		c0.1-3.1,2.8-6.1,5.4-11.6C405.5,1315.1,407.3,1326.1,409,1337.1z"/>
	<path fill="#02587B" d="M462.2,1468.6c2.6-2,5.2-3.9,7.8-5.9c5.2,10.8,10.5,21.7,15.7,32.5c-1.4,0.8-2.9,1.5-4.3,2.3
		C475,1487.9,468.6,1478.2,462.2,1468.6z"/>
	<path d="M392.1,1403.4c4.6,2.2,9.3,4.4,13.9,6.6c0,2.3,0,4.6,0,6.9c-1,1.7-2.1,3.3-3.1,5c-1.1,0-2.3,0-3.4-0.1
		c-4-3.1-7.9-6.2-11.9-9.2C389.2,1409.5,390.7,1406.4,392.1,1403.4z"/>
	<path d="M403,1421.8c1-1.7,2.1-3.3,3.1-5c3.1,0.6,6.1,1.3,10.9,2.3c-2.2,5.5-4.1,10.4-6,15.3c-3,0.4-5.9,0.8-8.9,1.2
		C402.4,1431,402.7,1426.4,403,1421.8z"/>
	<path fill="#02587B" d="M492.6,1450.8c-1.6-2.4-3.1-4.8-4.7-7.3c9.3,1.2,18.6,2.4,27.9,3.5c0.5,2.5,1,4.9,1.5,7.4
		C509.1,1453.3,500.9,1452.1,492.6,1450.8z"/>
	<path fill="#02587B" d="M480.6,1462.9c2.4-0.5,4.7-1,7.1-1.5c5.8,3.7,11.7,7.4,17.5,11.1c-0.7,1.4-1.4,2.8-2.2,4.2
		C494,1475.5,486.7,1470.6,480.6,1462.9z"/>
	<path fill="#EF4A34" d="M223.8,1494.6c4.2-3,8.4-6,12.5-9c0.7,0.8,1.4,1.6,2.1,2.5c-5.1,5-10.1,10-15.2,15
		c-10.7,8.1-21.4,16.2-32,24.2c-19.2,16.4-38.4,32.8-57.7,49.3c-4.1-2.6-8.2-5.1-12.3-7.7c-1.8-0.1-3.6-0.1-5.5-0.2
		c1.1-2.7,1.5-6.8,3.5-7.7c12.4-6.3,25.8-10.8,37.6-18c9.7-5.9,17.6-14.6,26.4-22c3.1-1.1,6.6-1.6,9.1-3.4
		C203,1510,213.3,1502.2,223.8,1494.6z"/>
	<path d="M286.6,1618.1c2.5,0.2,5,0.3,7.6,0.5c1.9,2.6,3.8,5.3,5.7,7.9c-2.3,20.9-4.7,41.8-7,62.7c-2-2.5-4-5.1-6-7.6
		c-0.9-12.4-1.9-24.8-2.8-37.2C284.9,1635.6,285.8,1626.9,286.6,1618.1z"/>
	<path fill="#02587B" d="M261,1605.1c-3.9,19.1-13.7,35.3-24.7,51c4.6-19.6,9.2-39.1,13.7-58.7c3.1,0.8,6.2,1.5,9.2,2.3
		C259.8,1601.4,260.4,1603.2,261,1605.1z"/>
	<path fill="#F07E4C" d="M223.8,1494.6c-10.4,7.7-20.8,15.5-31.4,22.9c-2.6,1.8-6.1,2.3-9.1,3.4c-1.2-0.4-2.3-0.8-3.5-1.1
		c9.1-7.1,18.2-14.2,27.4-21.3C212.6,1497.1,218.2,1495.9,223.8,1494.6z"/>
	<path fill="#EF4A34" d="M207.1,1498.4c-9.1,7.1-18.2,14.2-27.4,21.3c-5.5,3.5-11.1,7.1-16.6,10.6c-0.5-0.7-1-1.4-1.5-2.2
		c17.8-13.4,35.5-26.7,53.3-40.1c0.6,0.7,1.2,1.3,1.8,2C213.5,1492.9,210.3,1495.6,207.1,1498.4z"/>
	<path fill="#F07E4C" d="M115.7,1568.6c1.8,0.1,3.6,0.1,5.5,0.2c-1.6,1.2-3.2,2.5-4.9,3.7C116.1,1571.2,115.9,1569.9,115.7,1568.6z"
		/>
	<path fill="#02587B" d="M399.6,1421.8c-4.2,2.6-8.3,5.1-15.4,9.5c0.7-7.7,1.2-12.7,1.6-17.7c0.6-0.4,1.2-0.8,1.9-1.1
		C391.7,1415.6,395.7,1418.7,399.6,1421.8z"/>
	<path fill="#F2E5DF" d="M284.1,1644.4c0.9,12.4,1.9,24.8,2.8,37.2C286,1669.2,285,1656.8,284.1,1644.4z"/>
</g>
<g opacity="0.2">
	<path fill="#EF4A34" d="M907.2,1215.7c9.4-0.7,18.9-1.8,28.3-1.9c12-0.1,24.2-0.5,35.9,1.5c14.4,2.4,28.4,7.1,42.5,11
		c5.4,1.5,10.1,1.7,15.4-1.4c8.9-5.2,18.7-7.4,29.8-4c-3.4,8.6-6.6,16.5-10.2,25.4c7.3,3.9,14.5,7.6,21.5,11.5
		c7.2,4.1,14.2,8.7,21.5,12.7c1.5,0.9,3.8,0.8,5.6,0.7c9.9-0.5,19.9-1.3,29.8-1.6c1.9-0.1,3.9,1.7,5.8,2.6c-0.9,1.7-1.4,3.7-2.7,5.1
		c-5.7,6.7-11.5,13.2-17.3,19.7c0.2,0.8,0.3,1.6,0.5,2.4c3.2,0.6,6.5,1.9,9.7,1.7c5.2-0.3,10.3-1.7,15.5-2.2
		c6.5-0.7,12.6,0.5,18,5.8c-7.2,7.2-14.2,14.2-21.8,21.8c8.6,0.2,16.4,0.3,24.2,0.5c7.3,0.2,14.8-2.8,21.9-0.1
		c0.3,0.8,0.6,1.6,0.9,2.5c-12.7,12.3-25.4,24.7-37.7,36.5c0.8,11.5-0.3,24,3,35.1c5.1,17-1.7,32.1-3.3,48
		c-1.1,10.8-1.8,21.7-0.9,32.5c1.5,19.7-0.2,38.3-10.4,55.9c-4.3,7.3-5.6,16.3-9.3,24.1c-5.6,11.8-11.9,23.3-18.2,34.8
		c-0.8,1.5-3.5,2.1-5.4,3.1c-0.6-1.9-1.7-3.9-1.6-5.8c0.2-5.2,1.5-10.4,1.3-15.6c-0.4-9.2-0.1-18.8-2.7-27.5
		c-4.3-13.9-11.6-26.9-11.2-42.2c-7.2,8.4-13.8,16.3-20.6,23.9c-1.3,1.4-3.8,1.8-5.7,2.6c-0.6-1.8-1.7-3.6-1.6-5.4
		c0.7-14.3-0.6-28.1-8-40.8c-1.3-2.2-1.8-5.2-1.9-7.8c-0.5-12.2-0.8-24.4-1.1-36.6c0.5-1.8,1-3.5,1.5-5.3c2.2-1.4,4.4-2.8,6.6-4.1
		c-0.5,9.2-1.1,18.5-1.4,27.7c-0.3,12.8,2.3,24.9,7.6,36.8c2.8,6.4,2.6,14.1,3.8,21.6c9.5-6.2,14.5-15.4,17.6-25.3
		c4.4-13.6,7.5-27.6,11.5-41.3c0.6-2,2.6-3.5,4-5.2c1.2,1.9,3.5,3.9,3.3,5.6c-0.8,8.8-1.3,17.7-3.7,26.1
		c-6.1,21.4-6.3,41.8,3.9,62.2c6.4,12.7,6,26.8,3.9,42.5c1.9-2.4,3-3.3,3.5-4.4c2.2-4.7,4.4-9.5,6.3-14.3
		c5.6-13.9,10.9-27.8,16.5-41.7c4.7-11.6,6.8-23.7,5.1-36c-2.9-21.6-0.2-42.5,4.7-63.5c1.4-6.1,0.1-12.8-0.1-19.2
		c0-1.1-0.5-2.2-0.6-3.3c-1.2-13.7-2.4-27.4-3.5-40c10.9-9.9,22.1-20.1,34.6-31.5c-11.6-0.1-21.5-1.1-31.2-0.1
		c-9.3,0.9-18.4,3.7-27.7,5.7c-0.1-0.6-0.2-1.2-0.3-1.9c11.7-9.4,23.3-18.8,35-28.2c-0.5-1.1-0.9-2.1-1.4-3.2
		c-5.3,0.6-10.7,0.9-16,1.9c-7.5,1.3-14.5,2.4-21-3.7c-3.4-3.1-3.8-5.4-1.3-8.5c3.2-4.1,6.7-8,10.1-11.9c1.6-1.8,3.3-3.6,4.9-5.4
		c-0.2-0.6-0.4-1.2-0.6-1.8c-7.5,0.7-15.1,0.6-22.4,2.2c-6.1,1.3-10.1,0.4-15.2-3.7c-7.7-6.1-17-10.1-25.7-15
		c-4.7-2.7-9.6-5.2-14.3-8c-2.9-1.7-3.8-3.7-1.8-7.2c3.1-5.4,5.4-11.3,8-17c-0.4-0.6-0.9-1.3-1.3-1.9c-6.2,2.2-12.8,3.7-18.5,6.9
		c-5.1,2.8-9.2,4.1-15,1.8c-6.9-2.7-15-2.7-21.6-5.8c-20.9-9.8-43.2-5.6-64.8-7.7c-7.7-0.7-15.7,1.7-23.5,2.7
		C906.7,1219.7,907,1217.7,907.2,1215.7z"/>
	<path fill="#EF4A34" d="M827.6,1217.3c-15-4.9-30.5-3.3-45.9-3.2c-14.7,0.1-29.4,0.2-44.2,0.7c-9.3,0.3-18.5,1.4-27.8,1.8
		c-10.8,0.4-21.7,0.7-32.5,0.7c-13.9-0.1-23.2-7.7-30.1-19.1c-5.6-9.4-1.7-15.2,10.1-16.2c17.8-1.5,35.6-3.2,53.4-5.6
		c13.5-1.8,17.2-8.9,12-21.7c-0.6-1.6-2.5-3.3-4.2-3.7c-4.8-1.3-9.7-2.1-15.2-3.2c-1.3,6.9-1.1,15.6-11.1,14.4
		c-9.5-1.1-5.5-9.9-7.4-15.8c-4.6-0.9-9.4-1.8-15-3c-0.6,2.7-0.7,5.6-1.8,8.1c-2.1,4.9-4.6,9.6-7.3,14.2c-0.6,1.1-3.1,1.6-4.5,1.4
		c-0.7-0.1-1.6-2.6-1.5-3.9c0.4-7.4,1-14.9,1.6-22.5c-5.6-1.5-10.9-2.5-16-4.3c-6.7-2.4-7.7-5.8-3.2-11.2
		c6.8-8.2,13.3-16.8,21.2-23.8c4-3.5,10.6-5.3,16.2-5.7c11.2-0.8,22.1,1.5,32.3,6.6c6.1,3,12.5,5.1,19.7,8c3.1-9.9,12.5-18.1,8-30.6
		c-0.6-1.8,1.4-6.5,2.6-6.7c3-0.4,7.2,0,9.3,1.9c10.3,9.3,22,17.8,23.5,33.4c0.2,1.7,1.2,3.4,1.9,5.1c0.2,0.6,0.7,1.1,1.6,2.3
		c3.2-4.6,6.1-9.1,9.3-13.2c7.3-9.4,10-9.8,20.2-3.7c12.2,7.4,13.4,9.9,11.1,23.7l-0.5,0.4c-1.8,1.1-3.7,2.2-5.6,3.3
		c-0.2-0.6-0.5-1.2-0.7-1.8c3.5-13,2.4-14.7-8.1-21.5c-5.2-3.3-7.8-1.6-10.6,2.3c-4.3,5.8-8.6,11.7-12.7,17.7
		c-3,4.3-5.5,3.4-7.3-0.8c-2.9-7.1-6.5-14.2-8-21.7c-2.4-11.2-12.8-14.1-18.7-22.2c-0.3,5.5,0.2,10.1-1,14.1
		c-1.8,6.1-4.6,11.9-7.4,17.5c-2.5,4.9-6.3,7.5-12.1,4.8c-7.6-3.5-15.1-7.5-23.1-10.1c-11-3.6-23.4-7.4-33.4-0.1
		c-9.2,6.7-16,16.8-24.6,26.1c2.8,1.1,4.1,2,5.3,2c14.6,0.2,28,8.7,43.1,6.1c4.2-0.7,8.8,1,14.1,1.8c3.7,1.1,8.3,3.5,13.1,3.8
		c9.7,0.6,14.2,4.8,15.7,14.6c1.7,11.7-2.6,20.4-14.3,22c-18.8,2.7-37.8,4.3-56.7,6.4c-3,0.3-5.9,1-9,1.5
		c2.6,10.1,14.3,21.7,22.8,23c19.7,3.1,38.9-1.1,58.2-2.8c5.8,0,11.5,0,17.3,0c1.6,0.5,3.2,1.4,4.8,1.4c7.9-0.2,15.8-0.5,23.7-0.9
		c19.4-1,38.9-2.3,57.8,4c-0.7,0.8-1.5,1.5-2.2,2.3C831.7,1216.4,829.7,1216.9,827.6,1217.3z M689.5,1146.3
		c1.3,4.2,2.4,7.5,3.4,10.8c1.9-3,3.7-6,6.3-10.2C695,1146.6,693.1,1146.5,689.5,1146.3z"/>
	<path fill="#EF4A34" d="M747.7,1273.7c5-4.6,10-9.3,15.2-14.1c-3.2-0.2-6.8-0.2-10.2-0.9c-2-0.4-3.7-1.8-5.5-2.8
		c1.3-1.4,2.4-3.4,4-4c8-2.8,16.2-5.2,24.4-7.7c-1.6,1.7-3.3,3.4-4.9,5.1c-1.1-0.3-2.1-0.5-3.2-0.8c0.5,0.6,0.9,1.2,1.4,1.8
		c-2.1,0.7-4.2,1.5-7.6,2.7c5.8,1.6,10.6,3,17.4,4.9c-8.6,5-15.2,8.8-21.8,12.6c0.3,0.6,0.5,1.1,0.8,1.7c2.2-0.6,4.5-1.4,6.7-1.9
		c9.1-1.9,18.1-3.7,27.2-5.6c2.4-0.5,5-0.7,7.3-1.5c18.8-5.9,37.6-11.9,56.4-17.8c3.3-1,6.7-1.6,10-2.3c0.4,0.8,0.7,1.6,1.1,2.4
		c-21.3,15-42.6,30-65.1,46c9.7,2.3,17.5-2.9,27.9-2c-6.4,5.2-11.3,9.2-16.2,13.1c0.1,0.3,0.1,0.7,0.2,1c2.4-0.7,4.8-1.2,7.1-2.2
		c13.9-5.6,27.8-11,41.4-17.2c6.7-3.1,12.8-7.6,19-11.7c6.1-4.1,7.3-3.9,9.7,2.8c2.1,6,3.3,12.3,5.9,18.1c4.6,10.5,9.8,20.8,14.9,31
		c1.2,2.4,2.9,4.4,4.4,6.7c-4.1,4.1-7.3,2.4-9.2-1.1c-5.9-10.9-11.7-21.9-16.8-33.2c-2.8-6.1-4-12.9-5.5-18.3
		c-24.7,10.5-49,21-73.4,31.1c-3.2,1.3-7.1,1.3-10.6,1.8c-0.4-0.7-0.7-1.5-1.1-2.2c3.6-3.7,7.3-7.3,10.9-11
		c-0.2-0.6-0.4-1.2-0.6-1.9c-3.9,0.9-7.8,2-11.8,2.5c-3.7,0.4-8.2,3.2-10.4-2.6l0-0.1c18.1-13.2,36.2-26.4,54.4-39.6
		c-0.4-0.8-0.7-1.6-1.1-2.4c-8.5,2.5-17,5.1-25.5,7.6c-8.4,2.5-16.8,5.3-25.3,7.5c-9.4,2.4-18.8,4.3-28.3,6.5
		c-3.7,0.2-7.5,0.4-11.9,0.7C749.2,1276.4,748.4,1275.1,747.7,1273.7z"/>
	<path fill="#EF4A34" d="M830,1123.4c0.3-0.3,0.7-0.7,1.1-0.8c5.2-2.1,10.7-5.6,15.6-0.1c4.8,5.4,2.2,11-0.7,16.3
		c-1.6,3-3.2,5.9-5.8,10.5c5.3-2.2,9.1-3.9,13-5.4c8.3-3.1,16.6-3.4,23.8,2.6c2.3,1.9,4.4,5.8,4.3,8.7c-0.3,13.8-9.7,22.1-19.6,30.5
		c4.7,2.8,9.5,5.6,14.2,8.4c0.1,0.2,0.2,0.4,0.2,0.7c-3.1,0.3-6.3,0.5-5.1,5.1c-2.2-0.4-4.5-0.8-6.7-1.2c1.3-1,2.6-2,3.7-2.8
		c-6.4-5.5-12.4-10.8-18.4-16c0.5-0.6,0.9-1.3,1.4-1.9c1.5,0.1,3.1-0.2,4.4,0.3c3.8,1.4,6.4,0.5,8.7-2.8c2.1-2.9,5.6-5.1,6.9-8.3
		c2.1-5.2,5.4-12.1,3.5-16.1c-2.6-5.5-10.3-5.5-16.6-4c-2.2,0.5-4.3,1.4-6.4,2.2c-3.6,1.5-6.9,3.5-10.6,4.6
		c-2.6,0.8-5.6,0.5-10.1,0.8c4.1-7.7,7.3-13.3,10.1-19.2c1.1-2.4,1.7-5.1,2-7.7c0.1-0.9-1.2-2.3-2.2-2.8c-0.7-0.3-2.7,0.4-2.9,1
		c-2.6,8.4-10.5,8.5-16.8,11.3c1-1.7,1.9-3.4,2.4-4.4c-2.6,0.2-5.4,0.4-8.3,0.6l0,0c6.8-2.7,13.7-5.4,21.6-8.5
		C833.8,1124.4,831.9,1123.9,830,1123.4z"/>
	<path fill="#F07E4C" d="M893.9,1224.2c-12,3-23.9,6-35.9,9l-0.3-0.6c-1.4-7.6-4.3-14.3-11.9-17.8c5.9-3.5,11.7-7,17.6-10.4
		c2.4-1,4.7-2.1,7.1-3.1c4.5,3.9,9.1,7.8,13.6,11.7c-6.3,3-12.6,6.1-19.2,9.2c4.6,3,23.2-1.6,25.8-6c0.1-0.2,0-0.4,0-0.7
		c1,0.3,2,0.6,3,0.9C893.8,1219,893.8,1221.6,893.9,1224.2z"/>
	<path fill="#F07E4C" d="M768.8,1250.3c-0.5-0.6-0.9-1.2-1.4-1.8c1.1,0.3,2.1,0.5,3.2,0.8c9.3-2.2,18.6-4.5,27.9-6.7
		c9.7-2.4,18.3-9.7,29.4-6.7c2.7,0.7,6.4,1.5,8.3,0.2c6.8-4.4,14.2-3.4,21.5-3.6l0.3,0.6c-17.6,7.9-35.2,15.9-52.8,23.7
		c-0.2,0.1-1.1-1.2-2-2.2c4.1-2.6,7.9-5,11.8-7.4c-0.1-0.5-0.2-1.1-0.4-1.6c-7.6,1.3-15.1,2.7-22.7,4
		C784.2,1251,776.6,1254.7,768.8,1250.3z"/>
	<path fill="#EF4A34" d="M857.6,1232.6c-7.3,0.2-14.7-0.9-21.5,3.6c-1.9,1.3-5.6,0.5-8.3-0.2c-11.1-3-19.6,4.3-29.4,6.7
		c-9.3,2.3-18.6,4.5-27.9,6.7c1.6-1.7,3.3-3.4,4.9-5.1c8.8-3,17.7-5.9,26.5-8.9c1.7,0.3,3.6,1.1,5.1,0.8c13.4-2.9,26.8-6.1,42.6-9.7
		c-4.8-3-8-5-11.2-7.1c-1.6-1.1-3.2-2.2-4.8-3.3c0.7-0.8,1.5-1.5,2.2-2.3l0,0c2.5,3.2,5.5,2.4,8.6,1.2c0.4-0.2,0.8-0.3,1.3-0.1
		C853.3,1218.3,856.2,1225,857.6,1232.6z"/>
	<path fill="#F07E4C" d="M893.7,1216.4c-1-0.3-2-0.6-3-0.9c-1.9-0.9-3.9-1.8-5.8-2.7c1.3-0.7,2.6-1.4,2.6-1.4
		c-3.6-5.6-6.9-10.8-10.3-16c-0.2-0.3-0.8-0.4-1.2-0.6c-0.1-0.2-0.1-0.4-0.2-0.7c4.3-1.3,8.5-3,12.8-3.9c2-0.4,4.3,1,6.5,1.6
		c-1.3,1.9-2.6,3.7-4,5.7c5.4,2.1,13.5-5.3,19.5,4.5c-7,1.7-13.5,3.3-19.9,4.9c0.7,1,1.5,1.9,2.2,2.9c0.4,1.7,0.9,3.4,1.3,5.1
		C894.2,1215.5,894,1216,893.7,1216.4z"/>
	<path fill="#F07E4C" d="M833.8,1216c1.6,1.1,3.2,2.3,4.8,3.3c3.2,2.1,6.5,4.1,11.2,7.1c-15.9,3.6-29.2,6.8-42.6,9.7
		c-1.6,0.3-3.4-0.5-5.1-0.8c2.6-1.7,5-3.6,7.8-5c6.7-3.3,14.6-5,17.8-13.1C829.7,1216.9,831.7,1216.4,833.8,1216z"/>
	<path fill="#EF4A34" d="M893.7,1216.4c0.2-0.5,0.5-0.9,0.7-1.4c4.3,0.2,8.5,0.4,12.8,0.6c-0.3,2-0.5,4-0.8,6.1
		c-4.2,0.8-8.4,1.6-12.6,2.5C893.8,1221.6,893.8,1219,893.7,1216.4z"/>
	<path fill="#F07E4C" d="M813.9,1122.6c4,0.8,8.1,1.6,12.1,2.4c-3.6,2.9-7.2,5.7-10.8,8.6l0,0c-1,0.3-2,0.6-3.3,1
		c0.5-4.1,1-7.9,1.5-11.6L813.9,1122.6z"/>
	<path fill="#EF4A34" d="M815.3,1133.6c3.6-2.9,7.2-5.7,10.8-8.6c1.3-0.6,2.6-1.1,3.9-1.7c1.9,0.5,3.8,1,6.8,1.8
		C828.9,1128.3,822.1,1131,815.3,1133.6z"/>
	<path fill="#F07E4C" d="M732.3,1209.2c3.2-3.2,6.2-6.5,9.5-9.5c4-3.7,8.3-7.2,12.3-10.9c0.6-0.6,0.3-2.1,0.6-3
		c0.5-1.4,0.7-3.4,1.8-4.1c12.7-7.5,25.5-14.7,38.3-22c0.2-0.1,0.8,0.3,2.2,0.8c-3.6,5.2-7,10.2-10.9,15.8c1.4,0.2,3.4,0.4,5.3,0.7
		c1.7,0.3,3.3,0.7,5,1.1c-0.5,1.8-1,3.5-1.5,5.5c5.8,3.7,6,4.4,0.1,8.4c-4.2,2.9-9,5.2-13.6,7.5c-1.2,0.6-2.9,1.3-3.9,0.8
		c-11.9-5-18.6,5.8-27.9,8.8C743.9,1209.2,738.1,1209.2,732.3,1209.2z M781.5,1186.3c-0.3-0.7-0.7-1.4-1-2.1
		c-6.9,3.2-13.8,6.5-20.6,9.7c0.4,0.8,0.8,1.6,1.1,2.3C768.9,1195.4,774.8,1189.9,781.5,1186.3z M793.3,1189.8
		c-0.4-0.9-0.9-1.7-1.3-2.6c-6.1,2.9-12.3,5.8-18.4,8.6c0.5,1,1,2,1.5,3C781.1,1195.8,787.2,1192.8,793.3,1189.8z"/>
	<path fill="#F07E4C" d="M805.7,1142.8c-3.5,0.4-7.1,0.7-10.6,1.3c-4.9,0.8-9.8,2.1-14.7,2.8c-1.7,0.2-3.5-0.5-5.2-0.8
		c1.2-6-5.9-3.7-7.7-7.8c12.7-6.3,25.1-13.1,39.6-13.9c0.2,0.6,0.5,1.2,0.7,1.8c-1.9,2.2-3.7,4.5-5.3,6.4
		C803.6,1135.9,804.6,1139.4,805.7,1142.8z"/>
	<path fill="#EF4A34" d="M805.7,1142.8c-1-3.5-2.1-7-3-10.2c1.6-1.9,3.4-4.1,5.3-6.4c1.9-1.1,3.7-2.2,5.6-3.3
		c-0.5,3.8-1,7.6-1.5,11.6c1.4-0.4,2.4-0.7,3.3-1c2.8-0.2,5.7-0.4,8.3-0.6c-0.5,1-1.5,2.7-2.4,4.4c-3.1,1.7-6.2,3.6-9.5,4.9
		C809.9,1143,807.7,1142.7,805.7,1142.8z"/>
	<path fill="#F07E4C" d="M835.9,1213.7c9.5-5,18.9-9.9,28.4-14.9c2.2,0.4,4.5,0.8,6.7,1.2c-0.2,0.4-0.3,0.8-0.5,1.3
		c-2.4,1-4.7,2.1-7.1,3.1c-6.4,2.8-12.9,5.6-19.3,8.5c-0.1,0.1,0.3,1.4,0.4,2.1C841.4,1216.1,838.4,1216.9,835.9,1213.7z"/>
	<path fill="#EF4A34" d="M870.5,1201.2c0.2-0.4,0.4-0.8,0.5-1.3c-1.2-4.6,2-4.8,5.1-5.1c0.4,0.2,1,0.3,1.2,0.6
		c3.4,5.2,6.7,10.4,10.3,16c0,0-1.3,0.7-2.6,1.4c-0.3,0.2-0.6,0.3-0.9,0.1C879.5,1209,875,1205.1,870.5,1201.2z"/>
</g>
<g opacity="0.2">
	<path fill="#7EC5D8" d="M842.3,2467.2c14.9,5.7,26.5,1.7,36.1-11.1c7.8,4.5,15.5,8.5,22.8,13.2c2.1,1.4,2.5,5.4,4.7,6.7
		c7,4.2,14.1,10.2,21.6,10.8c5.2,0.4,13-5.6,16.3-10.8c7.1-11.3,0.7-22.1-12.7-23.5c-6.6-0.7-13.4-0.1-20.1-0.1
		c-2.5-6.5-5.1-13-7.8-20c16.8-1.4,32.5,13.6,52.2,3.7c-13.3-11.7-16.1-31.7-36.2-35.1c-0.1-0.5,0-1,0.3-1.5
		c1.7-5.2,2.9-10.7,5-15.7c4.1-9.7,7.5-20.1,13.5-28.5c6.6-9.2,14.4-8.8,20,0.9c6.8,11.8,11.4,24.9,16.7,37
		c12.3-12,27.7-23.2,48.9-20.1c3.2,0.5,8.7,4.7,8.4,6.4c-3.2,17.7,4.5,36.8-6.3,53.6c-1.4,2.1-1.8,4.8-2.6,7.3
		c5-2.1,8.3-5.4,11.7-8.4c12.9-11.3,37.6-14.4,49.1-6.3c11.3,8,15,30.3,7.3,47.1c-6.9,15.1-19.6,23.7-34.4,30.7
		c-21.7,10.4-42.7,22.3-62.8,33c12.2,30.3,33.6,44.6,66.1,41.6c0.7-4.9,0.3-11,2.7-15.6c2.3-4.3,7.3-7.5,11.8-9.9
		c1.2-0.7,6.5,2.8,7.1,5c6.3,25.6,13,50.8,39.2,64.4c-9.7,9.9-28.2,10.2-35.3,1.2c-5.9-7.5-12.1-8-20.1-5.7
		c-4.1,1.2-8.5,3.3-12.4,2.7c-22.2-3.7-40,7.6-59.5,14.9c-18.5,6.9-39,8.3-58.3,13.5c-36.1,9.6-68.5,2.9-98.6-18.8
		c-30.7-22.1-62.2-43.3-92.7-65.7c-18.5-13.6-36.2-28.4-53.3-43.7c-9.8-8.7-7-16.4,5.9-19c4.9-1,10.2-1,15.3-0.6
		c12.1,1,24.2,2.6,40.6,4.5c-17.7-16.9-33.5-31.2-48.2-46.5c-5.4-5.6-14.3-12.7-7.6-21.9c6.8-9.4,16.9-5,25.9-2.2
		c3.2,1,6.5,2.2,9.4,4c20,12.1,40.2,24,59.7,36.9c16.1,10.6,15.9,11,31.2-1.9c4.2-3.5,9.4-5.7,14.2-8.6
		C838.8,2465.6,840.6,2466.4,842.3,2467.2z M882,2493.3c-9.3,0.1-19.5-0.5-27.5,3.2c-8.4,3.9-14.6,12.7-20,21.1
		c-4.1,0.3-8.2,0.6-12.3,0.9c-0.1,0.9-0.3,1.8-0.4,2.7c2.9,1.9,5.8,3.9,8.6,5.7c-0.2,12-6.3,25.3,9,32.7c2,7.2,2,18.9,6.3,20.7
		c10.1,4.4,19-1.2,22.1-12.9c2.5,0.1,5.1,0.2,7.6,0.3c0.2,3.7,0.5,7.3,0.8,11.7c6.2,0,11.5,0,16.8,0c0.7-0.8,1.5-1.7,2.2-2.5
		c-3.1-2.8-6.2-5.7-9.4-8.5c14.9-0.5,30.7,3.7,43.4-8.3c1.2,4.2,2.4,8.4,3.8,13.4c5.4-5,9.5-8.8,14.9-13.8c-1.6-2.6-3.6-5.9-5.6-9.3
		C943.5,2510.5,928.8,2492.6,882,2493.3z M943.5,2365.7c-1.8,4.7-3.2,8.4-4.6,12.1c1.1-0.3,2.2-0.6,3.3-0.9
		c4.1,9.7,8.1,19.4,12.3,29.5C960.3,2390.7,956,2377.9,943.5,2365.7z M1009.5,2495.4c-1.4-1-2.7-2-4.1-3c-5,6.7-10,13.5-15,20.2
		c1.6,1.1,3.1,2.2,4.7,3.4C999.9,2509.2,1004.7,2502.3,1009.5,2495.4z"/>
	<path fill="#02587B" d="M798.5,2402.2L798.5,2402.2c14.3,9.9,28.7,19.7,43.2,29.7c-9.4,8.3-12,19.8-4.6,32.9
		c1.7,0.8,3.5,1.6,5.2,2.4c0.2-2.5,0.4-5,0.6-7.6c-6-15.7-0.3-24.5,14.8-22.8c2.7-1.6,5.3-3.3,8.5-5.2c2.2,5,3.9,8.8,5.6,12.5
		c0.5-16.3,13.5-17.5,23.5-19.7c20.9-4.4,21-3.7,23.8-23.6c-0.1-0.5,0-1,0.3-1.5c-12.1-3.1-24.2-6.2-36.4-9.3
		c-2.3,1.8-4.5,3.6-5.1,4.1c-7.6-3.5-14-6.5-20.4-9.5c-9.7-0.6-19.3-1.8-29-1.6C814.2,2383.4,801.7,2391.9,798.5,2402.2z"/>
	<path fill="#02587B" d="M843.6,2459.4l0.7,0.1c7.7,10.6,16.2,4.5,22.5-0.6c8-6.5,2.2-12.4-3.8-17.1c-1.8-1.7-3.6-3.3-5.4-5
		c2.7-1.6,5.3-3.3,8.5-5.2c2.2,5,3.9,8.8,5.6,12.5c0.5-16.3,13.5-17.5,23.5-19.7c20.9-4.4,21-3.7,23.8-23.6
		c20.1,3.4,22.9,23.4,36.2,35.1c-19.7,9.9-35.4-5.1-52.2-3.7c2.7,7,5.3,13.6,7.8,20c6.7,0,13.5-0.6,20.1,0.1
		c13.5,1.4,19.8,12.2,12.7,23.5c-3.3,5.2-11.1,11.3-16.3,10.8c-7.5-0.6-14.7-6.6-21.6-10.8c-2.1-1.3-2.6-5.3-4.7-6.7
		c-7.3-4.7-15-8.8-22.8-13.2c-9.5,12.7-21.1,16.8-36.1,11.1c0.2-2.5,0.4-5,0.6-7.6L843.6,2459.4z M938.9,2469.9
		c0.7-11.2-11.2-8.6-17.5-11.6c-1.3-0.6-10.3,8.6-9.4,11.4c1.6,5.2,7.8,8.9,14.7,15.9C932.4,2478.6,938.7,2474.4,938.9,2469.9z"/>
	<path fill="#02587B" d="M839.3,2559.6c-15.2-7.4-9.2-20.6-9-32.7c-2.7-1.8-5.6-3.8-8.6-5.7c0.1-0.9,0.3-1.8,0.4-2.7
		c4.1-0.3,8.2-0.6,12.3-0.9c5.4-8.5,11.6-17.2,20-21.1c7.9-3.7,18.2-3.1,27.5-3.2c46.8-0.6,61.5,17.3,60.4,57.1
		c-4.4,3.2-8.8,6.4-13.2,9.6c-12.7,12-28.5,7.7-43.4,8.3c-3.5-0.2-6.9-0.4-10.4-0.6c-2.5-0.1-5.1-0.2-7.6-0.3
		C858.3,2564.8,848.8,2562.2,839.3,2559.6z M921.3,2517.9c2.2-0.9,4.4-1.7,8.7-3.3c-22.4-19.3-46.9-17.2-71-12.8
		c-6.1,1.1-10.9,9.2-16.3,14.1c0.8,1.2,1.7,2.3,2.5,3.5c20.4,0,40.7,0,61.1,0C911.3,2518.9,916.3,2518.4,921.3,2517.9z
		 M929.3,2550.1c9.8-5,5.3-14.3,4.4-21.7c-1.1-8.9-8.3-4.7-13.2-4.5c-21.7,1-43.4,2.7-65.1,3.3c-10.2,0.3-17,2.1-18.2,14.1
		c-1.1,12,6.1,14.7,15.1,16.3c13.4,2.2,26.8,4.1,44.7,6.9C906,2560.5,917.9,2555.9,929.3,2550.1z"/>
	<path fill="#7EC5D8" d="M926.7,2485.6c5.8-7.1,12-11.2,12.3-15.7c0.7-11.2-11.2-8.6-17.5-11.6c-1.3-0.6-10.3,8.6-9.4,11.4
		C913.6,2474.9,919.8,2478.6,926.7,2485.6z"/>
	<path fill="#7EC5D8" d="M863,2441.8c-6.2,5.9-12.4,11.8-18.7,17.7c7.7,10.6,16.2,4.5,22.5-0.6
		C874.9,2452.4,869.1,2446.5,863,2441.8z"/>
	<path fill="#7EC5D8" d="M921.3,2517.9c2.2-0.9,4.4-1.7,8.7-3.3c-22.4-19.3-46.9-17.2-71-12.8c-6.1,1.1-10.9,9.2-16.3,14.1
		c0.8,1.2,1.7,2.3,2.5,3.5c20.4,0,40.7,0,61.1,0c-9.3,0-18.7,0-28,0c8-4.4,16.2-6.3,24.1-8.9C911,2507.7,917.2,2509.9,921.3,2517.9z
		"/>
</g>
<g opacity="0.2">
	<path fill="#5DB473" d="M331,2511.6l0.4-0.3c-1.6-14.2-3.2-28.4-4.8-42.6c-0.5-1.2-1.4-2.3-1.6-3.6c-3.4-25.4-6.8-50.9-10-76.3
		c-0.1-1,1.1-2.3,1.6-3.4c-2-1.1-4-2.2-5.9-3.3c0.1,9.1-0.4,18.3,0.3,27.4c1.8,24.2,3.4,48.4,6.3,72.5c4.8,39.2,10.6,78.2,16,117.4
		c16.4-2.1,32.8-4.3,49.8-6.5c3.7,13.9,7.2,27.2,10.2,38.3c-5.4,3.3-9.2,5.6-14.7,9c-0.1,0-2.9-0.4-5.3-0.8c-2,4-3.7,7.3-6.4,12.5
		c-12.1-11.8-22.8-22.3-33.6-32.8c-1.7,7.1,4.7,12.4,2.9,20.8c-2.5,11.2,0,23.6,0.4,35.5c0.3,2.9,0.6,5.7,0.9,8.6
		c1.2,2.1,2.3,4.1,3.5,6.2c8.3,1.3,16.6,3.1,24.3-2.1c1.4-1.3,2.9-2.6,4.5-4.1c-3.1-1.5-5.5-2.7-9.6-4.7c13.7,0.9,25.4,1.7,37.1,2.4
		c2.1,0,4.1-0.1,6.2-0.1c1.1-8.1,2.1-16.2,3.3-24.9c1.9,1.5,3.7,2.9,7.8,6c-6.4-75-12.6-147.8-18.8-221.2
		c10.7-2.9,14.3-10,14.6-21.1c0.2-7.1,4.9-14,7.4-21c0.8-2.4,1.1-4.9,1.6-7.4c-1.1-0.5-2.3-1.1-3.4-1.6c-3,7.2-6,14.3-9.2,21.7
		c-9.8-3.1-9.6-11.4-10.3-18.7c-0.7-7-0.1-14.1-1.8-21.2c-7.8,9.4,0,20.5-4,30.8c-5.3,2.2-9.4,1.6-11.7-5.2c-1-3-3.5-5.5-5.4-8.2
		c-0.8,1.5-1.6,3-2.5,4.5c0.8,6.7,8.1,13.6-0.2,19.7c-7.5-6.8-15.1-13.8-22.8-20.7c-1,1-1.9,2-2.9,2.9c1.2,1.5,2.2,3.2,3.5,4.6
		c8.3,8.4,16.8,16.6,25.1,25.1c1,1,1,3.1,1.2,4.7c1.8,21.6,3.8,43.1,5.3,64.7c0.9,11.9,1.1,23.9,1.6,35.8c0.5,1.2,1,2.3,1.5,3.5
		c4.6,12,9.2,24,2.1,36.6c-1.5,2.9-2.3,6.9-4.7,8.5c-5.7,3.9-12.4,9.5-18.3,9.1c-8.3-0.6-17-4.9-21.5-13.6c-1.3-2.6-3.3-5.2-3.6-8
		C335,2548.5,333.1,2530,331,2511.6z"/>
	<path fill="#F07E4C" d="M329,2612.7c-0.1,4.1-0.2,8.2-0.3,12.4c0.2,10.9,0.4,21.8,0.6,32.7c-12.8-0.1-25.6-0.1-38.5-0.2
		c-12.4,1.5-24.8,3-37.2,4.4c-9.6,1.1-19.2,2-28.7,3.4c-6.7,1-13.2,3.2-19.9,4c-19.4,2.2-35.5-6.7-51.3-16.3c-0.5-4-1-8-1.6-12.1
		c7.6-16.3,23.3-20.6,38.4-25.8c2.4-0.8,4.8-2.2,6.9-3.7c1.7-1.3,3-4.4,4.5-4.5c32.3-0.8,64.6-1.7,96.8-1.8c9.9,0,19.8,2.1,29.8,3.2
		C328.8,2609.8,328.9,2611.2,329,2612.7z M262,2646.9c0,0.8-0.1,1.6-0.1,2.4c18.1,0.9,36.1,1.8,54.2,2.8c0.1-1.2,0.1-2.4,0.2-3.5
		C298.3,2646,280.1,2647.5,262,2646.9z"/>
	<path fill="#7EC5D8" d="M365.1,2688c-7.7,5.2-16,3.3-24.3,2.1c-2.3,1.5-4.7,3.1-8.7,5.7c11.7-1.5,12.1,5.2,13.1,12.6
		c6,45.2,12.4,90.4,18.7,135.7c1.6-1.8,3.1-3.7,5.3-6.3c1.5,3.3,2.4,5.5,3.8,8.6c1.7-3.3,2.8-5.4,3.9-7.5c1.1,0,2.2,0,3.2,0
		c0.8,6.1,2.6,12.3,2.1,18.2c-0.8,9.4-3.1,18.6-4.9,28.5c5.8-0.5,10.3-1,14.8-1.4c-0.3-7.6-0.2-15.2-1.1-22.7
		c-3.1-26.2-6.4-52.4-9.9-78.6c-2.1-15.5-5.1-30.8-7.3-46.3c-1.5-10.3-2.3-20.6-3.3-30.9c-0.3-2.6,0-5.2,0-7.8
		c1-0.2,1.9-0.4,2.9-0.7c1.6,2.7,3.9,5.1,4.6,8c4.9,20.9,16.3,39.7,15.7,62.6c-0.4,15,5.6,30.1,8.7,45.2c0.4,1.7,0.7,3.3,1.1,5
		c6,2.4,11.8,4.6,12,12.7c0.4,16,1.2,32,1.9,48c-2.6,7.7,3.8,7.9,8.1,9.8c0.2-4.4,0.4-8.8,0.6-13.3c-2-15.8-4.5-31.6-6-47.5
		c-1.9-20.4-3.1-40.9-4.2-61.4c-0.6-11-0.3-22.1-0.3-33.2c-0.6-2-1.1-4-1.7-6c-2.3-14.5-4.6-29-7.1-43.5c-0.2-0.9-2.1-1.5-3.2-2.2
		c-2.1,0-4.1,0.1-6.2,0.1c-3.5,1.8-6.9,4.6-10.6,5.2C379.6,2687.9,372.3,2687.7,365.1,2688z"/>
	<path fill="#F07E4C" d="M294.3,2688.3c-20.6,1.8-41.2,3.8-61.8,4.9c-14.9,0.8-29.9,1.3-44.7-0.2c-7.6-0.7-18.8-0.3-19.1-13.6
		c0-1.3-3.6-2.6-5.6-3.6c-3.2-1.5-6.5-2.8-9.5-4.1c1.4-4,2.5-7.2,3.6-10.4c1,0.1,2.3-0.1,2.9,0.5c25.6,19.9,55.2,12.7,83.7,12.2
		c13.5-0.2,27.1-2.7,40.5-4.6c13.3-1.9,26.5-4.3,39.8-6.6c2.8,0.2,5.6,0.5,8.4,0.7c1.3,4,2.7,8,4,11.9c0.3,2.9,0.6,5.7,0.9,8.6
		C323,2685.4,308.7,2687,294.3,2688.3z M189.5,2684.8c-0.1,1.3-0.2,2.6-0.3,3.9c11.1,0.8,22.2,1.6,33.2,2.5c0.1-1.2,0.3-2.5,0.4-3.7
		C211.7,2686.6,200.6,2685.7,189.5,2684.8z M327.4,2678.2c0-0.5,0-1,0-1.6c-10.3,0-20.7,0-31,0c0,0.5,0,1,0,1.6
		C306.7,2678.2,317,2678.2,327.4,2678.2z"/>
	<path fill="#007B40" d="M157.2,2661.2c1,0.1,2.3-0.1,2.9,0.5c25.6,19.9,55.2,12.7,83.7,12.2c13.5-0.2,27.1-2.7,40.5-4.6
		c13.3-1.9,26.5-4.3,39.8-6.5c-11.1-1.7-22.2-3.4-33.3-5.1c-12.4,1.5-24.8,3-37.2,4.4c-9.6,1.1-19.2,2-28.7,3.4
		c-6.7,1-13.2,3.2-19.9,4c-19.4,2.2-35.5-6.7-51.3-16.3c0,1.3,0,2.6,0,4C155,2658.4,156.1,2659.8,157.2,2661.2z"/>
	<path fill="#007B40" d="M329,2606.1c1.4-2.3,2.9-4.6,4.3-6.8c-5.4-39.1-11.2-78.2-16-117.4c-2.9-24.1-4.5-48.3-6.3-72.5
		c-0.7-9.1-0.2-18.3-0.3-27.4c-2.1,0.5-4.2,1-6.4,1.4c2.8,32.5,5.3,65,8.4,97.5c1.6,17.2,4.1,34.3,6.1,51.5
		c-0.1,5.1-0.7,10.3,0,15.2c2,13.5,4.6,27,6.8,40.5c0.5,2.9,0.1,5.9,0.6,8.7C326.9,2600,328.1,2603,329,2606.1z"/>
	<path fill="#5DB473" d="M392.2,2884.3c-4.5,0.4-9,0.8-14.8,1.4c1.8-9.9,4.2-19.1,4.9-28.5c0.5-6-1.3-12.2-2.1-18.2
		c-1.1,0-2.2,0-3.2,0c-1.1,2.1-2.2,4.2-3.9,7.5c-1.4-3.1-2.3-5.3-3.8-8.6c-2.2,2.6-3.8,4.4-5.3,6.3c-0.3,0.8-0.6,1.6-0.9,2.4
		c2.7,13.6,5,27.2,8.2,40.6c1.3,5.2,4.2,10.2,6.9,14.9c1.8,3.2,4.4,5.8,6.7,8.7c0,0,0.4,0.2,0.4,0.2c3.3-2.2,6.7-4.3,10-6.5
		C395.6,2897.5,402.7,2889.5,392.2,2884.3z"/>
	<path fill="#5DB473" d="M425.4,2888.6c-4.4-1.9-10.7-2.2-8.1-9.8c-4.6-20.2-9.3-40.4-13.9-60.6c-0.4-1.7-0.7-3.3-1.1-5
		c-1.2,2-3.2,3.8-3.4,5.9c-3.2,26.3-0.2,52.1,7.7,77.3c3,9.7,11.6,10.2,18.9,2.2C425.4,2895.2,425.4,2891.9,425.4,2888.6z"/>
	<path fill="#5DB473" d="M385,2910.7c-2.3-2.9-4.9-5.5-6.7-8.7c-2.7-4.8-5.7-9.7-6.9-14.9c-3.2-13.4-5.6-27.1-8.2-40.6
		c-1.2,11.2-2.3,22.5-3.7,33.6c-1.3,10.5-3,20.9-4.8,33.4C363.2,2917.5,374.1,2916,385,2910.7z"/>
	<path fill="#7EC5D8" d="M383.3,2534.2c-0.5-1.2-1-2.3-1.5-3.5c-13.8-6.4-27.8-7.5-42.2-1.2c-1.6-4.8-3.1-9.1-4.6-13.3
		c1.8,14.8,3.3,29.7,5.8,44.4c0.8,4.9,4.3,9.4,6.6,14.1c-2.1-6.8-4.1-13.5-6.4-20.8c3.2-1,4.9-2.1,6.3-1.9c11.3,1.9,22.6,4,33.8,6.5
		c1.1,0.2,1.4,3.8,2.1,5.8c0.1,0.8,0.1,1.6,0.2,2.4c0-5.4-0.1-10.8-0.1-16.2c-10.2-0.7-20.4-1.4-30-2c2.4-4.5,4.3-8.3,6.3-12
		c-4.1-1.1-8.2-2.1-13-3.4c14.9-9.5,31.3-2.7,36.4,14C383,2542.8,383.2,2538.5,383.3,2534.2z"/>
	<path fill="#5DB473" d="M318.9,2532.4c-2.1-17.1-4.5-34.3-6.1-51.5c-3.1-32.5-5.6-65-8.4-97.5c-9.8,1.1-7.2,9.7-6.9,14.4
		c2.6,30.5,5.4,60.9,9.8,91.2C309.4,2503.8,314.9,2518,318.9,2532.4z"/>
	<path fill="#5DB473" d="M425.4,2888.6c0,3.3,0,6.6,0,9.9c1.8,5.1,4.1,7.3,10,4.2c10.5-5.7,19.7-18.8,18.7-29.8
		c-4.5,1.3-8.8,2.3-12.9,3.9c-4.3,1.7-8.3,4-13,6.3c-0.8-3-1.5-5.4-2.2-7.8C425.8,2879.7,425.6,2884.1,425.4,2888.6z"/>
	<path fill="#7EC5D8" d="M316.7,2385.4c-0.6,1.1-1.8,2.3-1.6,3.4c3.2,25.4,6.6,50.9,10,76.3c0.2,1.2,1,2.4,1.6,3.6
		c0.2-8.3,0.3-16.6,0.5-25c-2.1-17.3-4.1-34.6-6.4-51.8C320.4,2389.6,318.1,2387.5,316.7,2385.4z"/>
	<path fill="#7EC5D8" d="M327.1,2443.7c-0.2,8.3-0.3,16.6-0.5,25c1.6,14.2,3.2,28.4,4.8,42.6c0.5-9.8,1.9-19.6,1.2-29.3
		C331.7,2469.1,329,2456.4,327.1,2443.7z"/>
	<path fill="#7EC5D8" d="M347.4,2574.7c-2.3-4.7-5.8-9.2-6.6-14.1c-2.5-14.7-3.9-29.6-5.8-44.4c-1.3-1.5-2.7-3.1-4-4.6
		c2,18.4,4,36.9,6.2,55.3c0.3,2.8,2.4,5.3,3.6,8c2.7,0.7,5.4,1.4,8.1,2.1C348.5,2576.2,347.9,2575.5,347.4,2574.7z"/>
	<path fill="#7EC5D8" d="M395.4,2904.4c-3.3,2.2-6.7,4.3-10,6.5c3.9,7,1,17.3,10,22.3C395.4,2923,395.4,2913.7,395.4,2904.4z"/>
	<path fill="#007B40" d="M153.9,2657c0-1.3,0-2.6,0-4c-0.5-4-1-8-1.6-12.1c-1.2-3.8-2.3-7.7-4.1-13.5
		C143.3,2642.5,145.3,2650.8,153.9,2657z"/>
	<path fill="#86C397" d="M371.1,2393.9c0.8-1.5,1.6-3,2.5-4.5c-0.4-3.2-0.2-6.6-1.4-9.5c-0.9-2.2-3.3-3.9-5.1-5.8
		c-0.4,2.3-1.7,4.9-1.1,6.9C367.2,2385.5,369.3,2389.7,371.1,2393.9z"/>
	<path fill="#7EC5D8" d="M349,2576.9c-2.7-0.7-5.4-1.4-8.1-2.1c4.5,8.7,13.2,13.1,21.5,13.6c5.9,0.4,12.6-5.3,18.3-9.1
		c2.4-1.6,3.2-5.6,4.7-8.5c-1.2,0.1-2.3,0.1-3.5,0.2c0.5-1.5,0.9-2.9,1.4-4.4c-0.1-0.8-0.1-1.6-0.2-2.4c-1.6,1.6-3.6,3.1-4.8,4.9
		c-1.3,1.9-1.3,5.1-2.9,6.4C366.4,2583,358.9,2583.2,349,2576.9z"/>
	<path fill="#007B40" d="M333.2,2619c-1.4-2.1-2.8-4.3-4.2-6.4c-0.1,4.1-0.2,8.2-0.3,12.4c0.8,11.4,1.6,22.8,2.4,34.3
		c0.5,1.4,0.9,2.7,1.4,4.1c1.3,4,2.7,8,4,11.9c-0.4-11.9-2.9-24.2-0.4-35.5C338,2631.5,331.5,2626.2,333.2,2619z"/>
	<path fill="#5DB473" d="M365.1,2688c7.2-0.3,14.4-0.2,21.5-1.2c3.7-0.6,7.1-3.4,10.6-5.2c-11.7-0.8-23.4-1.5-37.1-2.4
		c4.1,2,6.5,3.2,9.6,4.7C368,2685.4,366.6,2686.7,365.1,2688z"/>
	<path fill="#7EC5D8" d="M383.3,2566.7c-0.5,1.5-0.9,2.9-1.4,4.4c1.2-0.1,2.3-0.1,3.5-0.2c7.1-12.6,2.6-24.6-2.1-36.6
		c-0.2,4.3-0.3,8.6-0.5,12.9c0.1,1.1,0.2,2.3,0.3,3.4C383.2,2555.9,383.3,2561.3,383.3,2566.7z"/>
	<path fill="#EF4A34" d="M316.2,2648.5c-18-2.5-36.2-1-54.3-1.6c0,0.8-0.1,1.6-0.1,2.4c18.1,0.9,36.1,1.8,54.2,2.8
		C316.1,2650.9,316.2,2649.7,316.2,2648.5z"/>
	<path fill="#007B40" d="M332.5,2663.3c-0.5-1.4-0.9-2.7-1.4-4.1c-0.6-0.5-1.2-1-1.8-1.5c-12.8-0.1-25.6-0.1-38.5-0.2
		c11.1,1.7,22.2,3.4,33.3,5.1C326.9,2662.9,329.7,2663.1,332.5,2663.3z"/>
	<path fill="#007B40" d="M329.3,2657.7c0.6,0.5,1.2,1,1.8,1.5c-0.8-11.4-1.6-22.8-2.4-34.3C328.9,2635.9,329.1,2646.8,329.3,2657.7z
		"/>
	<path fill="#5DB473" d="M403.4,2818.1c4.6,20.2,9.3,40.4,13.9,60.6c-0.6-16-1.4-32-1.9-48C415.2,2822.6,409.4,2820.4,403.4,2818.1z
		"/>
	<path fill="#EF4A34" d="M222.9,2687.5c-11.1-0.9-22.2-1.8-33.3-2.7c-0.1,1.3-0.2,2.6-0.3,3.9c11.1,0.8,22.2,1.6,33.2,2.5
		C222.6,2689.9,222.7,2688.7,222.9,2687.5z"/>
	<path fill="#EF4A34" d="M296.3,2678.2c10.4,0,20.7,0,31.1,0c0-0.5,0-1,0-1.6c-10.3,0-20.7,0-31,0
		C296.4,2677.2,296.4,2677.7,296.3,2678.2z"/>
</g>
<g opacity="0.2">
	<path fill="#F07E4C" d="M295.7,2144.9c-12.2,3.2-25.5,4.4-36.5,10.1c-20.7,10.8-41.2,12-63.6,7.5c-18.7-3.8-37.9-5.3-56.9-7.7
		c-0.7-0.3-1.4-0.7-2.2-1c6.4-4.7,6.2-12.2-0.1-18.8c-3.3-3.4-6.2-7.1-9.2-10.7c5.3-0.7,10.6-1.4,15.9-2.1c14.3,1.5,28.7,4.3,43,4.3
		c22.5,0,45.7-0.5,66.1-11.3c5.9-3.1,8.1-13.3,12-20.2c12.9,3.7,25.7,7.5,38.6,11.2c-1.5,11.9-3,23.9-4.6,35.8
		C297.4,2143,296.5,2143.9,295.7,2144.9z M257.2,2142.2c-2.6-4.1-5.4-8.4-7.8-12.2c-8.7,1.2-17.7,3.4-26.6,3.5
		c-15.9,0.1-28.6,5.9-39.2,18.3C209.9,2158.5,234.9,2159.5,257.2,2142.2z"/>
	<path fill="#F07E4C" d="M400.9,2117.3c-2,9.2-3.3,18.6-6.1,27.5c-3.9,12.2-8.9,24-14.1,37.6c9.9-0.8,18.8-1.3,27.6-2.3
		c15.6-1.7,30.7-1.5,41.8,11.9c3.3,3.9,7.8,11.3,6.3,13.8c-2.9,4.8-9.7,10.1-14.8,10c-16.5-0.6-33-2.9-49.2-5.9
		c-10.4-1.9-20.3-6-30.5-9c-2.2-0.6-4.5-1.1-6.7-1.1c-6.1-0.1-16.3,2-17.4-0.3c-5.1-10.5-12.1-21.1-8.4-34.4
		c2.9-10.2,4.2-20.8,6.2-31.2c0.5-0.8,0.9-1.6,1.4-2.4c6-5.5,12.1-11,18.1-16.4c0.7,0.4,1.4,0.6,2.1,0.6c5.4,16.5,10.8,33,16.4,50
		c8.8,1,14-8.6,21-40.9C396.7,2122.3,398.8,2119.8,400.9,2117.3z M367.1,2193.3c0.4,0.9,0.7,1.7,1.1,2.6c10.1,3.3,19.9,7.6,30.2,9.6
		c14.4,2.8,29,4.2,43.7,5.6c2.7,0.2,7.1-2.1,8.2-4.4c0.9-2-1.3-6.2-3.2-8.4c-7.8-9.1-17.7-13.9-30.1-12.9
		c-11.7,0.9-23.5,1.2-35.2,2.6C376.8,2188.5,372,2191.4,367.1,2193.3z"/>
	<path fill="#F07E4C" d="M416.7,1907.7c4.5-7.4,8.1-15.6,13.8-21.9c3.9-4.4,10.5-6.3,16-9.3c1.5,1.2,3,2.5,4.5,3.7
		c-3.8,10.6-6.3,22.1-11.9,31.7c-5.4,9.3-4.6,15.8,4.1,23.7c13.5-35.6,26.9-70.3,39.7-105.2c1.5-4,0.4-9.6-0.9-13.9
		c-2.9-9.2-6.7-18-10.1-27c3.3,1.9,8.2,3.1,9.5,5.9c3.4,7.1,5.4,14.9,7.4,22.5c0.9,3.5,1.7,7.7,0.7,10.9
		c-5.4,16.9-11,33.8-17.4,50.4c-8,20.7-17,41-24.9,61.8c-1.8,4.7-0.9,10.4-1.6,15.6c-3.2,23.6-15.3,41.5-34.7,54.9
		c-2.9,2-4.9,5.2-7.4,7.8c3.3,2,6.3,4.7,9.9,5.9c4.6,1.6,9.5,1.9,14.3,2.8c-6.7,0.8-13.5,1.6-18.6,2.2c0.5,14.3,1,29.2,1.5,44.1
		c-1.8,1.7-3.6,3.5-5.4,5.2c-4.9-2.8-9.8-5.7-16.7-9.6c6.1,0,10,0,14.4,0c4.2-15.5,3.1-30-4.8-43.6c-1.7-3-5.6-4.6-8.6-6.9
		c2.8-2.3,5.1-5.6,8.3-6.9c23.9-9.9,35.6-28.8,40.9-53c2.6-11.9-1.1-21-7.8-28.1c-8.5,4.5-16,8.5-23.5,12.5c-1-1-2-2-3-3.1
		c2.6-9.5,5.1-19.1,7.7-28.6C413.7,1910.8,415.2,1909.3,416.7,1907.7z"/>
	<path fill="#F07E4C" d="M416.7,1907.7c-1.5,1.5-3,3.1-4.4,4.6c-12.3-4.8-23.2-2.8-31.7,4.9c2.2,5.9,5.8,10.7,5.5,15.3
		c-1.6,26.3-3.7,52.6-26.3,71.2c-10.1,1.6-9-5.5-9.1-11.8c17.8-20.3,18.4-31.3,2.7-51.7c0-0.6,0-1.2-0.1-1.8
		c11.6-12.5,20.7-27.7,39.2-32.5c3.6-1,5.4-9.2,8-14.1c0.9,0.8,1.9,1.7,2.8,2.5c-0.9,3.2-1.8,6.5-2.9,10.6
		C405.9,1905.9,411.3,1906.8,416.7,1907.7z"/>
	<path fill="#F07E4C" d="M431.4,2076.7c7.6-1.3,15.2-2.5,24.2-4c-3.2-2.7-5.5-4.7-7.8-6.8c8.1-1.2,11-3.8,5.9-12.3
		c-2.4-4-0.9-10.5-1.1-15.5c-3.8-2.3-7.9-4.7-12-7.1c13.6,3.2,19.6-5.1,26.2-15.2c5.5-8.4,14.2-15,22.2-21.5
		c2.6-2.1,7.5-1.3,11.4-1.8c0.8,1,1.5,1.9,2.3,2.9c-5.7,8.4-11.5,16.9-17.7,26.1c8,2,15.4,5.4,13.8,16.6
		c-1.9,13.6-12.2,25.4-25.4,28.2c5.8-7.6,12.7-14.7,17-23c1.9-3.7,0.2-12.1-2.8-14.5c-2.9-2.2-9.8,0.7-17.6,1.6
		c4.9,4.3,6.5,5.8,7.3,6.5c-4.5,2.6-10.2,4-11.9,7.4c-2.4,4.8-2.6,11.1-2.3,16.7c0.1,2.3,4,4.4,6.2,6.5
		C459.1,2081,445.6,2080.3,431.4,2076.7z M466.7,2023.2c1.3,1.2,2.6,2.3,3.9,3.5c8-8.9,16-17.7,24-26.6c-1.5-1.4-3.1-2.7-4.6-4.1
		C482.3,2005,474.5,2014.1,466.7,2023.2z"/>
	<path fill="#F07E4C" d="M403.1,1894.3c-0.9-0.8-1.9-1.7-2.8-2.5c16.7-31,33-62.1,50.3-92.7c2.5-4.4,9.1-6.4,13.9-9.5
		c-11.5,19.3-23.1,38.5-34.5,57.8C420.8,1862.9,412,1878.6,403.1,1894.3z"/>
	<path fill="#F07E4C" d="M335,2021.4c0.7,0.2,1.4,0.6,2,1.1c0.3,1.1,0.4,2.3,0.9,3.2c15.5,27.9,11,37.6-18,47.4
		c-12.6,4.2-17,9.7-14.9,21.9c0.3,1.5,0,3,0,4.5c-9.4-2.5-18.9-4.9-28.3-7.6c-5.7-1.6-6.8-5.2-3.8-10.3c5-8.4,10-16.7,14.6-25.3
		c4.4-8.2,8.3-16.6,12.7-25.5c-10.6,4.3-19.3,9.6-28.8,11.3c-12.9,2.3-26.2,1.8-39.4,2.6c2.7-3.2,5.4-6.4,8.1-9.6
		c-1.1,0.3-2.1,0.6-3.2,0.9c-1.6-3-4-6-4.5-9.2c-0.7-4.4-0.1-9.1,0-13.6c2.1-0.9,4.2-1.8,6.3-2.7c3.5,0.7,7,2,10.5,2.1
		c12.1,0.2,24.1-0.2,36.2,0.1c12.5,0.2,25.4-2.7,36.5,6.8C324.8,2021.9,330.6,2020.9,335,2021.4z"/>
	<path fill="#EF4A34" d="M238.7,2010.5c-2.1,0.9-4.2,1.8-6.3,2.7c-1.6,2.2-4.1,4.1-4.7,6.5c-1.3,5.2-1.7,10.6-2.4,15.9
		c-0.8-7.7-1.6-15.4-2.4-23.1c3.1-13.6-2.5-30.9-12.2-37.7c-7,11.3-4.1,25.7,7.8,38.1c1,2,2.1,4,4.7,9.1c-6.7-3.2-10.3-4.9-14-6.7
		c-6.7-4.8-13.2-10-20.2-14.3c-2.1-1.2-5.8,0.3-8.8,0.5c1.1,2.9,1.3,7.2,3.4,8.5c6.7,4.1,14,7.1,21.1,10.5c4.8,1.3,9.6,2.5,15.4,4.1
		c-8.4,2.4-15.2,4.2-21.9,6.1c-3.7,0.7-8.2,0.3-10.8,2.3c-3.7,2.8-6.1,7.5-9.1,11.3c-1,1.5-2,3.1-3,4.6c-13-5-2.6-10.9-0.7-17
		c-1.6-1.4-3.4-3.1-6.5-5.8c5.5-3.2,10.1-5.8,12.4-7.1c-2.6-6.4-7.9-13-7-18.7c1.1-7.1,9.7-6.8,28-0.3c-3.3-18.8-1.3-28.4,7-30
		c12.8-2.6,15.3,8.2,20,17.5c2.5-2.8,4.2-5.5,6.7-7.3c5.1-3.7,10.3-8.8,16-9.9c6.1-1.1,12.9,1.8,19.3,2.9c-2.2,5.3-3.2,11.9-7,15.8
		C256,1997,247,2003.4,238.7,2010.5z"/>
	<path fill="#F07E4C" d="M106.7,2072.1c2.3,7.6,4.6,15.2,6.9,22.8c-0.1,4.6-0.2,9.1-0.2,13.7c-4.7-3.8-10.3-7-14-11.6
		c-5.8-7.3-9.6-16.2-15.5-23.3c-11.7-14.2-12.1-33.5,0-47.4c3,3.1,5.9,6.2,8.9,9.4c7.4,3.8,10.4,9.3,9.9,18
		C102.5,2059.7,105.3,2066,106.7,2072.1z"/>
	<path fill="#EF4A34" d="M232.1,2044.6c13.1-0.7,26.5-0.3,39.4-2.6c9.4-1.7,18.2-7,28.8-11.3c-4.4,8.9-8.3,17.3-12.7,25.5
		c-4.6,8.6-9.6,16.9-14.6,25.3c-3.1,5.1-2,8.7,3.8,10.3c9.4,2.7,18.9,5.1,28.3,7.6c5.3,1.6,10.5,3.9,16,4.5
		c14.5,1.8,29.1,2.8,43.6,4.1c10.5,1.2,20.9,2.3,31.4,3.5c0,1.3-0.1,2.6-0.1,3.8c-6.7,0-13.4,0-20.2,0c-6-0.7-12.1-1.3-18.1-2
		c-13.2-1.6-26.3-3.2-39.5-4.9c-5.1-0.7-10.2-1.6-15.3-2.4c-12.9-3.7-25.7-7.5-38.6-11.2c0.4-3.9,0-8.2,1.4-11.6
		c3.6-8.5,8-16.6,12.2-24.9c2.4-3.8,4.9-7.6,8.7-13.7c-11.2,1.7-19.2,3-27.3,4.2C250.1,2047.5,241.1,2046.1,232.1,2044.6z"/>
	<path fill="#EF4A34" d="M353.2,1940.2c15.7,20.5,15.1,31.4-2.7,51.7c-3.7,2.4-7.5,4.8-11.2,7.2c-0.8-0.1-1.6-0.2-2.3-0.3
		c-5.7-14.8,1.7-28.7,4.1-42.7C342,1950.3,349,1945.5,353.2,1940.2z"/>
	<path fill="#F07E4C" d="M136.5,2153.7c-4.7,0.8-9.4,1.6-14.1,2.4c-11.9,3.6-11.1,17.6-19.6,23.8c2,1.4,4.1,2.8,6.1,4.2
		c-1.3,1.7-2.5,4.5-4.1,4.8c-4.7,0.7-9.9,1.5-14.3,0.2c-10.2-3.1-20.5-6.6-29.8-11.7c-5.9-3.2-11.6-8.8-14.6-14.8
		c-12.1-23.7-11.8-49.3-7.3-74.5c2.7-15.1,8.3-29.8,13.5-44.4c5.1-14.4,15.1-22.4,31.4-19.4c0,0.7,0.1,1.3,0.3,2
		c-12.1,13.9-11.7,33.1,0,47.4c5.9,7.2,9.7,16,15.5,23.3c3.7,4.7,9.2,7.8,14,11.6c0.7,1.6,1.4,3.2,2.1,4.8c0.6,3.6,1.3,7.2,2.1,11.7
		c4-1.2,6.8-2,9.5-2.8c-0.3,0.6-0.3,1.2,0,1.8c3.1,3.6,6,7.3,9.2,10.7C142.8,2141.5,142.9,2149,136.5,2153.7z"/>
	<path fill="#F07E4C" d="M364.7,2108.2c-14.6-1.3-29.1-2.4-43.6-4.1c-5.4-0.7-10.7-3-16-4.5c0-1.5,0.2-3.1,0-4.5
		c-2.2-12.2,2.3-17.6,14.9-21.9c29-9.7,33.5-19.5,18-47.4c-0.5-0.9-0.6-2.2-0.9-3.2c16.2,2.1,32.4,3.8,48.5,6.4
		c6.1,1,14.5,1.4,8.9,12.7c-8.8,17.8-16.2,36.2-24.3,54.3C368.3,2100,366.5,2104.1,364.7,2108.2z"/>
	<path fill="#F07E4C" d="M359.7,2003.7c-1.8,1.2-3.6,2.5-7.2,4.9c10.2,4,19.2,7.5,28.2,11c-13.6,4.9-31.6-4-41.4-20.6
		c3.7-2.4,7.5-4.8,11.2-7.2C350.6,1998.1,349.5,2005.3,359.7,2003.7z"/>
</g>
<g opacity="0.2">
	<path fill="#F07E4C" d="M977.1,790.2c-5.7,13.6-16.1,17.9-30.2,16.3c-16.9-1.9-33.9-2.7-50.8-5.1c-3.7-0.5-7-5.7-10.1-9.1
		c-8.1-8.6-15.6-17.9-24.2-25.9c-2.4-2.2-10.5-2.7-11.5-1.1c-11.3,17.5-16,3.5-20.8-4.4c-11.1-18.2-21.8-36.6-32-55.3
		c-3.2-5.8-4.4-12.7-7-20.9c8.3-0.5,14.3-0.9,20.5-1.3c-7-24.1,13.2-25.9,25.8-28.9c39.1-9.4,78.9-16.1,118.5-23.8
		c-6.6-1.3-13.1-2.6-19.7-3.9c-37.5,7.6-75.2,14.6-112.4,23.2c-8.5,2-15.7,9.7-23.6,14.7c-4.7,4.1-9.3,8.1-14,12.2
		c-0.8,7.4-3.7,15.4-1.9,22.1c3.1,11.8,9.2,22.8,14.5,35.2c-4.9,1.4-9,2.5-13.1,3.8c-26.4,8.4-50.6-3.1-75.4-8.7
		c-1.6,1.4-3.2,2.8-4.8,4.2c29.2,11.4,58.7,19.7,90.5,11.7c4.2-1.1,11.9,0,13.4,2.7c9.2,16.1,17.4,32.8,25.2,49.7
		c4.5,9.6,6.6,20.4,11.7,29.7c6.5,11.9,18.4,21.1,31.1,14.8c10.3-5.1,22.5-15,13.8-33.5c25.4,2.3,48.4,4.3,71.3,6.3
		c1.6,7.6,3,14.8,4.5,22.1c2.9-6.5,5.8-12.9,8.7-19.4c2.2,1.1,4.5,2.3,6.7,3.4c-2.3-5.1-4.6-10.3-7.6-16.9
		c2.4-2.6,6.2-6.8,10.8-11.8C981.7,791.5,979.4,790.8,977.1,790.2z"/>
	<path fill="#F07E4C" d="M975.1,817.6c-2.9,6.5-5.8,12.9-8.7,19.4c4.2,29.8,23.7,47.6,52.6,48.2c18.6,0.4,34.7-17.7,31.7-36.2
		c-1.4-8.6-3.9-17.1-6.2-26.6c12.4-0.5,24.1-1.1,35.9-1.6c-3.7-1.5-7.3-3.8-11.1-4.2c-14.7-1.9-28.3-2.5-35.4-20.5
		c-5-12.8-35.3-21.3-48.8-16.7c-3.5,1.2-5.3,7-7.9,10.7c2.3,0.6,4.6,1.3,7.9,2.1c-4.6,5-8.4,9.2-10.8,11.8c3,6.6,5.3,11.8,7.6,16.9
		c7.5,24,15.3,47.7,47.2,51.3c-8.9,3-17.5,4.8-24.8,2.6C983.3,868.6,974.8,850.6,975.1,817.6z"/>
	<path fill="#F07E4C" d="M1020,634.6c40.5,11.3,56.5,36.4,50.5,77.6c-0.9,6.3,1.5,13.3,3.2,19.7c7.2,26.9,15,53.7,21.9,80.7
		c0.5,2.1-4.6,5.7-7,8.6c6.5,2,13.1,3.9,22.2,6.7c-3.6-15.5-6.5-26.9-8.9-38.3c-2.3-11-4-22.2-5.4-30.1c14.2-6,28.4-10.6,40.9-18.1
		c4-2.4,5.1-12.7,4.5-19.1c-2.2-27.7-25.1-43.1-61.2-41.8c-0.8-2.2-2-4.5-2.4-6.9c-1.5-9,0.3-23.2-4.6-26.1
		c-13.8-8-30.3-11.4-45.7-16.6C1025.4,632,1022.7,633.3,1020,634.6z"/>
	<path fill="#F07E4C" d="M704.7,733.5c1.6-1.4,3.2-2.8,4.8-4.2c-16.6-6.3-26.9-17-27.3-34.5c8.7-1.3,22-1.2,22.4-3.6
		c1.9-10.2,0-21.1-0.5-33.7c7.6-0.8,18.8-1.9,30-3c4.1-1.4,8.1-2.7,12.2-4.1c-13.7-0.4-27.5-2-41.1-0.8c-21.8,2-38,14.8-41.2,30.2
		c-2.6,12.4,14.5,43.2,28.3,50C696.1,731.8,700.6,732.3,704.7,733.5z"/>
	<path fill="#F07E4C" d="M1020,634.6c2.7-1.3,5.4-2.6,8.1-3.8c-30.9-1.3-61.8-2.7-92.7-4c6.6,1.3,13.1,2.6,19.7,3.9
		C976.8,632,998.4,633.3,1020,634.6z"/>
	<path fill="#F07E4C" d="M746.3,650.5c-4.1,1.4-8.1,2.7-12.2,4.1c7.3,2,15,3,21.8,6.1c10.2,4.6,19.7,10.7,29.6,16.1
		c4.7-4.1,9.3-8.1,14-12.2C781.7,659.9,764,655.2,746.3,650.5z"/>
	<path fill="#EF4A34" d="M975.1,817.6c-0.3,33,8.2,51,29.1,57.3c7.3,2.2,15.8,0.4,24.8-2.6c-31.9-3.6-39.7-27.3-47.2-51.3
		C979.6,819.9,977.3,818.7,975.1,817.6z"/>
</g>
</svg>
