<?xml version="1.0" encoding="utf-8"?>
<!-- Generator: Adobe Illustrator 18.1.1, SVG Export Plug-In . SVG Version: 6.00 Build 0)  -->
<svg version="1.1" id="Camada_1" xmlns="http://www.w3.org/2000/svg" xmlns:xlink="http://www.w3.org/1999/xlink" x="0px" y="0px"
	 viewBox="0 0 360 51" enable-background="new 0 0 360 51" xml:space="preserve">
<g>
	<g>
		<path fill="#FFFFFF" d="M359.6,28.5c-0.3,1.4-0.6,2.9-1.1,4.3c-1.9,6.1-4.9,11.5-10.9,14.5c-3,1.5-6.4,2-9.7,2.1
			c-6.2,0.1-12.5,0-18.7,0c-1.1,0-1.8-0.2-1.2-1.6c1.7,0,3.4,0,5.2,0c0-15,0-29.9,0-44.9c-1.7,0-3.4,0-5.1,0
			c-0.5-1.2-0.3-1.7,0.9-1.7c6.6,0,13.3-0.2,19.9,0.1c11,0.5,18.5,7.4,20.4,18.4c0.1,0.6,0.3,1.2,0.4,1.8
			C359.6,23.8,359.6,26.1,359.6,28.5z M330.4,2.6c0,15.4,0,30.2,0,45.1c3.1,0,6,0.2,8.9,0c6.4-0.6,10.5-4.5,11.5-10.9
			c1.1-7,1.2-14,0.3-21c-0.8-6.9-4.1-11.1-10-12.2C337.7,2.8,334.1,2.9,330.4,2.6z"/>
		<path fill="#FFFFFF" d="M180.5,2.9c-1.8,0-3.5,0-5.3,0c-0.4-1.1-0.3-1.7,0.9-1.6c7.8,0,15.6-0.1,23.4,0.2c2.4,0.1,4.9,0.8,7.1,1.8
			c3.7,1.6,5.8,4.7,5.7,8.8c0,4.4-1.9,7.7-6,9.4c-2.6,1.1-5.4,1.6-8.1,2.4c0.1,0.1,0.4,0.2,0.7,0.3c0.1,0,0.2,0.1,0.3,0.1
			c8.8,2.7,11.7,6.8,11.3,16c-0.1,1.5,0,3.1,0.2,4.7c0.4,2.6,1.9,3.6,4.5,3.3c1.1-0.1,2.2-0.4,3.3-0.6c0.4,1,0.3,1.8-0.9,2
			c-2.4,0.3-4.7,1-7.1,0.8c-4.4-0.3-7-3.2-7.5-7.6c-0.4-3.8-0.8-7.7-1.3-11.5c-0.5-3.6-2.6-6-6.1-6.6c-2.5-0.5-5.2-0.4-7.9-0.6
			c0,8.1,0,15.8,0,23.7c1.8,0,3.6,0,5.3,0c0.5,1.3,0.1,1.7-1,1.7c-5.2,0-10.5,0-15.7,0c-1.1,0-1.6-0.3-1.1-1.6c1.7,0,3.5,0,5.3,0
			C180.5,32.8,180.5,17.9,180.5,2.9z M187.7,22.8c3.8-0.3,7.4-0.4,10.9-0.9c2.8-0.4,4.8-2.4,5.2-5.2c0.4-2.8,0.4-5.6,0.1-8.4
			c-0.2-2.1-1.6-3.8-3.7-4.6c-4.1-1.5-8.3-0.7-12.6-0.9C187.7,9.5,187.7,15.9,187.7,22.8z"/>
		<path fill="#FFFFFF" d="M88.2,47.7c1.8,0,3.5,0,5.3,0c0-15,0-29.8,0-44.9c-1.8,0-3.5,0-5.2,0c-0.5-1.2-0.2-1.7,0.9-1.7
			c7.4,0,14.8,0,22.2,0.1c3,0,6,0.7,8.7,2.2c3.2,1.9,5.1,4.6,5.1,8.4c0,4-1.4,7.4-5.1,9.1c-2.9,1.3-6.1,2-8.9,2.9
			c0,0,0.3,0.2,0.7,0.3c0.6,0.2,1.3,0.4,1.9,0.6c7,2.5,9.8,6.6,9.7,14.2c0,1.9,0,3.9,0.2,5.8c0.4,2.7,1.9,3.7,4.6,3.4
			c1.1-0.1,2.2-0.4,3.2-0.6c0.5,1.2,0.1,1.7-1,2c-2.6,0.7-5.2,1.3-7.9,0.7c-3.7-0.8-6.1-3.4-6.5-7.1c-0.5-3.9-0.8-7.8-1.3-11.6
			c-0.6-4.2-2.8-6.5-7-7.1c-2.3-0.3-4.6-0.3-7.1-0.4c0,8,0,15.7,0,23.7c1.8,0,3.6,0,5.4,0c0.4,1.2,0.1,1.7-1,1.7
			c-5.3,0-10.6,0-15.9,0C88,49.4,87.9,48.9,88.2,47.7z M100.6,22.8c3.7-0.3,7.2-0.3,10.6-0.8c3-0.4,5.1-2.4,5.6-5.4
			c0.4-2.7,0.4-5.4,0.1-8.1c-0.2-2.1-1.5-3.8-3.5-4.6c-4.2-1.7-8.5-0.9-12.8-1C100.6,9.5,100.6,15.9,100.6,22.8z"/>
		<path fill="#FFFFFF" d="M0.6,47.7c1.8,0,3.5,0,5.3,0c0-15,0-29.8,0-44.9c-1.5,0-3,0.1-4.4,0C1.1,2.7,0.8,2.2,0.4,2
			c0.3-0.2,0.7-0.7,1-0.7c7.2,0,14.5-0.1,21.7,0.2c2.6,0.1,5.3,1,7.6,2.2C37.9,7.6,38,17.3,31,21.5c-1.9,1.1-4.1,1.8-6,2.5
			c1.6,0.5,3.5,1,5.2,1.8c7.5,3.5,9.8,11.7,5.1,17.8c-2.4,3.1-5.8,4.5-9.4,5.2c-1.9,0.4-3.9,0.6-5.8,0.6c-6.1,0.1-12.1,0-18.2,0
			C0.8,49.4,0,49.3,0.6,47.7z M13,48c3.6-0.2,7-0.3,10.4-0.7c3-0.4,5-2.4,5.3-5.4c0.4-3.3,0.4-6.6,0.2-9.9c-0.2-2.7-1.8-4.8-4.4-5.8
			C20.9,24.6,17,25,13,25C13,32.6,13,40,13,48z M13.1,23.4c3.3-0.2,6.5-0.2,9.7-0.5c2.5-0.3,4.3-1.9,4.9-4.4c0.9-3.4,1-6.8,0.1-10.2
			c-0.5-2-1.7-3.5-3.6-4.4c-3.6-1.6-7.4-0.9-11.1-1C13.1,9.8,13.1,16.4,13.1,23.4z"/>
		<path fill="#FFFFFF" d="M68.6,16.1c0,6,0,11.9,0,17.9c-1.1,0.4-1.6,0.1-1.7-1c0-0.8-0.2-1.7-0.4-2.5c-0.6-2.5-2.2-4.1-4.8-4.6
			c-1.6-0.3-3.3-0.4-5.1-0.6c0,7.5,0,14.9,0,22.2c0,0,0.1,0.2,0.2,0.2c4.9-0.1,9.8-0.1,14.7-0.4c3.4-0.2,5.7-2.4,6.8-5.6
			c0.5-1.4,1-2.9,1.2-4.3c0.2-1.2,0.7-1.7,2.1-1.3c-0.1,1.4-0.2,2.9-0.3,4.3c-0.2,2.6-0.4,5.1-0.5,7.7c0,0.9-0.3,1.4-1.4,1.4
			c-11.9,0-23.7,0-35.6,0c-0.2,0-0.3-0.1-0.6-0.1c0-0.4-0.1-0.9-0.1-1.5c2.1,0,4.1,0,6.2,0c0-15,0-29.9,0-44.9c-2,0-4,0-6,0
			C43,1.8,43,1.2,44.2,1.2c11.6,0,23.3,0,34.9,0c0.2,0,0.3,0.1,0.5,0.2c0,3.8,0,7.5,0,11.3c-1,0.4-1.5,0.3-1.7-0.9
			c-0.2-1.2-0.6-2.4-1-3.5c-1.1-2.7-3.1-4.7-6-5c-4.7-0.5-9.4-0.6-14.2-0.8c0,7.2,0,13.9,0,21c2.4,0,4.9,0.3,7.2-0.8
			c2.3-1.1,2.7-3.4,3.1-5.6C67,16.2,67.3,15.6,68.6,16.1z"/>
		<path fill="#FFFFFF" d="M269.5,47.8c1.8,0,3.5,0,5.4,0c0-15,0-29.8,0-44.9c-1.8,0-3.6,0-5.3,0c-0.4-1.2-0.2-1.7,0.9-1.7
			c4,0,8,0,12,0.1c0.6,0,1.3,0.7,1.7,1.2c5.8,9.7,11.5,19.5,17.2,29.3c0.8,1.3,1.5,2.6,2.5,4.3c0-11.3,0-22.1,0-33.1
			c-1.7,0-3.5,0-5.2,0c-0.1-0.2-0.3-0.3-0.4-0.5c0.3-0.4,0.6-1.2,1-1.2c4.1-0.1,8.2-0.1,12.4-0.1c0,0.6,0,1,0,1.5
			c-1.8,0-3.5,0-5.4,0c0,15.9,0,31.7,0,47.5c-1.5,0.6-2.1,0-2.7-1c-8.4-14.3-16.8-28.7-25.2-43c-0.3-0.5-0.6-0.9-1.1-1.7
			c0,14.6,0,28.9,0,43.2c1.8,0,3.5,0,5.2,0c0.3,1.1,0.2,1.7-1,1.7c-3.7,0-7.4,0-11,0C269.3,49.4,269.1,48.9,269.5,47.8z"/>
		<path fill="#FFFFFF" d="M154.3,2.9c0,15,0,29.9,0,44.9c2,0,3.8,0,5.7,0c0.3,1.1,0.2,1.7-1,1.7c-5.5,0-11,0-16.6,0
			c-1.2,0-1.5-0.4-1.1-1.6c1.8,0,3.7,0,5.7,0c0-15,0-29.9,0-45.1c-2.5,0.2-5,0.2-7.4,0.5c-2.1,0.3-3.5,1.8-4.2,3.8
			c-0.8,2.1-1.3,4.4-1.8,6.6c-0.3,1.2-0.7,1.8-2.2,1.3c0.3-4.5,0.5-9,0.8-13.6c12.4,0,24.7,0,37.3,0c0,4.6,0,9,0,13.7
			c-0.3,0-0.8,0.1-1.4,0.1c-0.8-4.3-1.4-8.6-5.6-11C160.1,2.6,157.2,2.8,154.3,2.9z"/>
		<path fill="#FFFFFF" d="M229.8,47.8c2.2,0,4.1,0,6,0c0.4,1,0.4,1.7-0.9,1.7c-4,0-7.9,0-11.9,0c-1.2,0-1.2-0.6-1-1.6
			c1.4,0,2.7-0.1,4,0c1.3,0.1,1.7-0.5,2.1-1.6c4.4-13.4,8.9-26.9,13.3-40.3c0.5-1.4,1-2.7,1.3-4.1c0.3-1.1,0.8-1.4,1.9-1.3
			c1.1,0,1.5,0.3,1.9,1.4c4.5,14.4,9,28.8,13.6,43.2c1.1,3.3,0.3,2.6,3.7,2.7c0.7,0,1.3,0,2,0c0.2,0.9,0.4,1.6-0.9,1.6
			c-5.6,0-11.2,0-17,0c0-0.5-0.1-1-0.1-1.6c1.9,0,3.8,0,5.8,0c-1.2-3.9-2.3-7.6-3.5-11.3c-0.5-1.5-0.7-3.5-1.7-4.4
			c-1-0.8-3-0.3-4.5-0.3c-2.6,0-5.1,0-7.7,0c-0.5,0-1.3,0.4-1.4,0.7C233.1,37.5,231.5,42.5,229.8,47.8z M247.9,29.8
			c-2-6.5-3.9-12.8-5.8-19.1c-0.1,0-0.2,0-0.3,0c-2.1,6.3-4.1,12.7-6.2,19.2C239.9,29.8,243.8,29.8,247.9,29.8z"/>
	</g>
</g>
</svg>
