<?xml version="1.0" encoding="utf-8"?>
<!-- Generator: Adobe Illustrator 18.1.1, SVG Export Plug-In . SVG Version: 6.00 Build 0)  -->
<svg version="1.1" id="Camada_1" xmlns="http://www.w3.org/2000/svg" xmlns:xlink="http://www.w3.org/1999/xlink" x="0px" y="0px"
	 viewBox="0 0 135 35" enable-background="new 0 0 135 35" xml:space="preserve">
<pattern  x="-295.7" y="-1378" width="30" height="30" patternUnits="userSpaceOnUse" id="Nova_amostra_de_padrão_2" viewBox="0 -30 30 30" overflow="visible">
	<g>
		<polygon fill="none" points="0,0 30,0 30,-30 0,-30 		"/>
		<polygon fill="#F07E4C" points="30,0 0,0 0,-30 30,-30 		"/>
	</g>
</pattern>
<g>
	
	<path fill="#F07E4C" d="M58,35c0-0.1,0-0.2,0-0.4c-2.2-4.8-4.3-9.6-6.5-14.4c2,3.7,4.1,7.4,6.2,11.1c0.3,0.5,1,0.1,0.7-0.5
		c-2.6-5.4-5.1-10.9-7.6-16.3c3.6,6.6,7.2,13.1,11.3,19.4c0.3,0.5,0.9,0.1,0.7-0.5C60,27,57.1,20.6,54.3,14.2c3,5.7,6,11.3,9,17
		c0.3,0.5,0.9,0.1,0.7-0.5c-2.2-5-4.2-10-6.2-15.1c3.3,6.5,7,12.8,11,18.7c0.3,0.4,0.9-0.1,0.6-0.6c-3.1-6.9-6.2-13.9-9.3-20.8
		c3.3,6.2,6.5,12.4,9.8,18.5c0.3,0.5,1,0.1,0.7-0.5l-8.5-18.1c3.7,6.5,7.4,13,11.2,19.4c0.3,0.5,1,0.1,0.7-0.5l-8.2-17.8
		c3.5,6.4,7.2,12.7,11.3,18.6c0.3,0.4,0.9-0.1,0.7-0.6C73.4,23.6,69,15.2,65.5,6.2C70.2,14.6,75,23,79.7,31.3c0.3,0.5,1,0.1,0.7-0.5
		l-7.6-15.6c3.7,6.3,7.4,12.6,11.3,18.7c0.3,0.5,1,0,0.7-0.5C80.6,25.7,76.3,18,72.6,10c4.2,7.4,8.5,14.8,12.7,22.1
		c0.3,0.5,1,0.1,0.7-0.5c-3.2-6.7-6.3-13.4-9.5-20.1c4.3,7.4,8.5,14.7,12.8,22.1c0.3,0.5,1,0.1,0.7-0.5c-2.8-5.8-5.7-11.6-8.5-17.3
		l9.8,17c0.3,0.5,1,0,0.7-0.5c-3.8-7.3-7.3-14.9-10.3-22.7c4.6,8.5,9.5,16.8,14.7,24.7l1.1,0c-4.4-7.3-8.3-15.1-12.1-22.9
		c4.4,6.8,8.8,13.6,13.1,20.3c0.3,0.5,1.1,0,0.8-0.5c-3.6-6-7-12.2-10.1-18.5c3.6,6.3,7.2,12.5,10.8,18.8c0.3,0.5,1,0.1,0.8-0.5
		c-2.6-5.4-5.2-10.8-7.8-16.2l9.9,16.8c0.3,0.5,1.1,0,0.8-0.5c-3.5-6.4-6.7-12.9-9.7-19.6c3.9,6.6,7.9,13.1,12.1,19.4
		c0.3,0.5,1-0.1,0.7-0.6c-3.2-5.9-6.2-12-9.1-18.1c4,7,8.1,13.9,12.1,20.9c0.3,0.6,1.1,0.1,0.8-0.5c-2.9-6.1-5.8-12.2-8.8-18.2
		c3.3,5.7,6.6,11.4,9.9,17.1c0.3,0.6,1.1,0.1,0.8-0.5c-2-4.2-4-8.4-6-12.6c3,5.1,6,10.1,9.3,14.9c0.3,0.5,1-0.1,0.7-0.7
		c-4.2-7.6-8.3-15.2-12.1-23c4.9,7.4,9.5,15,13.7,22.9c0.3,0.6,1.1,0.1,0.8-0.5c-1.9-4.3-3.9-8.5-5.8-12.8c2.4,4.2,4.9,8.4,7.7,12.3
		c0.3,0.5,1-0.1,0.7-0.7c-1.8-3.8-3.5-7.5-5.3-11.3l6.8,12.5c0.3,0.5,1,0.2,0.8-0.4c-2.7-8.4-6.6-16-10.6-23.5
		c0.4,0.6,0.7,1.2,1.1,1.8c1.5,2.4,3,4.9,4.5,7.3c2.9,4.9,5.8,9.9,8.5,15c0.3,0.5,1,0.1,0.7-0.5c-2.1-4.6-4.3-9.3-6.4-13.9
		c2.2,4.2,4.4,8.4,6.7,12.6c0.3,0.5,1,0,0.7-0.5c-2.4-4.7-4.7-9.3-6.9-14.1c2.5,4.9,5.2,9.7,8.2,14.2c0,0,0,0,0,0l0,0
		c0,0,0,0.1,0.1,0.1c0.3,0.5,0.9-0.1,0.7-0.6c-1.2-2.5-2.3-5-3.5-7.5c1.7,3,3.4,6,5.1,9c0.3,0.5,1,0.1,0.7-0.5
		c-1.8-4.9-3.7-9.7-5.8-14.5c0.5,1,1.1,2.1,1.6,3.1c1.5,3.2,3,6.3,4.8,9.3c0.3,0.5,1.1,0.1,0.8-0.5c-1.5-2.9-3-5.7-4.4-8.6
		c-0.9-1.9-1.8-3.9-2.6-5.9c1.3,2.4,2.7,4.8,4.1,7.2c0.3,0.4,1,0.2,0.8-0.4c-1.4-4-2.8-8-4.2-11.9c1.6,3.1,3.3,6.1,5,9.1
		c0.3,0.5,1,0.2,0.8-0.4c-1.1-3.5-2.3-6.9-3.5-10.4c0.7,1.3,1.5,2.5,2.2,3.8c0.4,0.6,1,0.1,0.8-0.6c-0.7-2-1.4-4.1-2.1-6.2
		c0.4,0.4,0.7,0.8,1,1.3c0.3,0.5,0.9,0,0.8-0.5c-0.2-0.9-0.3-1.8-0.5-2.7c-0.1-0.7-1.1-0.4-0.9,0.3c0,0.2,0.1,0.5,0.1,0.7
		c-0.4-0.4-0.9-0.8-1.3-1.2c-0.3-0.3-0.8,0.2-0.7,0.6c0.4,1.2,0.8,2.4,1.2,3.7c-0.8-1.4-1.7-2.8-2.5-4.2c-0.3-0.6-1-0.1-0.8,0.5
		c1.4,3.5,2.7,7.1,3.9,10.7c-2.1-3.8-4.1-7.7-6-11.6c-0.2-0.5-1-0.2-0.8,0.4c1.7,4.8,3.4,9.6,5.1,14.5c-2.5-4.3-4.8-8.8-6.8-13.5
		c-0.3-0.6-1-0.1-0.8,0.5c0.7,1.9,1.4,3.7,2.2,5.6c-1.4-2.6-2.7-5.3-4.1-7.9c-0.3-0.5-1-0.1-0.7,0.5c3.7,8.1,7.4,16.2,10.6,24.5
		c-4.1-7.2-8-14.5-11.7-22.1c-0.3-0.5-0.9-0.1-0.7,0.5c3,6.5,6,12.9,8.9,19.3c-4-6.9-7.5-14.2-11.1-21.4c-0.3-0.5-0.9-0.1-0.7,0.5
		c1,2.7,2.1,5.3,3.2,7.8c-1.2-2.2-2.3-4.4-3.5-6.5c-0.3-0.5-0.9-0.1-0.7,0.5c2.8,6,5.5,12.1,8.3,18.1c-3.8-6.5-7.7-13-11.9-19.2
		c-0.2-0.3-0.6,0.1-0.5,0.4c0.3,0.5,0.6,1.1,0.9,1.6c-0.3,0.1-0.5,0.4-0.3,0.8c3.5,6.4,7,12.8,9.7,19.7c-3.8-7-7.5-14-11.3-20.9
		c-0.3-0.6-1.1-0.1-0.8,0.5c3.1,6.7,6.3,13.4,9.4,20.2c-4.3-6.7-8-13.9-11.7-21.2c-0.3-0.6-1.1-0.1-0.8,0.5
		c2.6,5.8,5.3,11.5,7.9,17.3c-3.7-6.3-7.6-12.5-11.8-18.4c-0.3-0.5-0.9,0.1-0.7,0.7c2.5,5.5,5.2,10.8,7.9,16
		c-3.1-5.2-6-10.5-8.8-15.9c-0.3-0.6-1.1-0.1-0.8,0.5c2.4,5.3,4.9,10.6,7.4,15.9c-3.4-5.8-6.8-11.7-10.2-17.5
		c-0.3-0.6-1.1-0.1-0.8,0.5c2.9,6,5.8,12.1,8.7,18.1c-3.7-6.3-7.3-12.6-11-19c-0.3-0.6-1-0.1-0.8,0.5c2.8,6.3,5.8,12.5,8.9,18.7
		c-3.8-6-7.5-12.2-11-18.4c-0.3-0.6-1-0.1-0.8,0.5c2,4.7,4,9.3,6.2,13.9c-2.5-4.3-5.1-8.6-7.6-12.9c-0.3-0.5-1-0.1-0.8,0.5
		c2.4,5,4.8,10,7.2,15c-3.4-6-6.9-11.9-10.3-17.9c-0.3-0.5-1-0.1-0.8,0.5c2.4,5.3,4.9,10.5,7.6,15.6c-3-4.7-6-9.3-9.1-14
		c-0.3-0.5-1-0.1-0.7,0.5c2.3,4.9,4.7,9.8,7.1,14.6C85.5,14.6,82.3,8.8,79.3,3c-0.2-0.5-1-0.2-0.8,0.4c0,0,0,0.1,0,0.1l0,0
		c0,0,0,0,0,0c2.1,6,4.5,11.8,7.1,17.5C82.3,15.3,79,9.6,75.7,3.9c-0.3-0.5-1-0.1-0.7,0.5c2.9,5.9,5.8,11.8,8.6,17.6
		c-3.9-6.7-7.8-13.5-11.7-20.2c-0.3-0.5-1-0.1-0.7,0.5c3.1,6.5,6.2,13,9.3,19.6c-3.6-6.3-7.3-12.7-10.9-19c-0.3-0.5-1-0.1-0.7,0.5
		c2.1,5.3,4.6,10.5,7.1,15.5c-3.2-5.4-6.3-10.8-9.3-16.3c-0.3-0.5-1-0.1-0.7,0.5c2.5,5.1,5,10.2,7.5,15.3
		c-3.3-5.7-6.5-11.5-9.8-17.2c-0.2-0.4-1-0.2-0.8,0.4c0,0,0,0.1,0,0.1l0,0c0,0,0,0,0,0c2.6,7.7,6,15,9.6,22.1
		C68.1,16.4,64,8.7,60,1.1c-0.3-0.5-1-0.1-0.7,0.5c3.4,7.3,6.7,14.6,10.1,21.9c-3.8-6.7-7.7-13.4-11.5-20c-0.3-0.5-1-0.1-0.7,0.5
		l5.4,11.5c-2.6-4.9-5.2-9.8-7.7-14.7c-0.3-0.5-1-0.1-0.7,0.5c4.2,9.3,8.3,18.6,12.5,27.9C61.3,21,56.7,12.2,52.9,3
		c-0.2-0.6-0.9-0.1-0.7,0.5c2.4,6.4,4.9,12.8,7.4,19.1c-3.5-6.6-7-13.2-10.5-19.8c-0.3-0.5-0.9-0.1-0.7,0.5
		C52.2,11.6,56,20,59.7,28.4c-5-8.1-9.4-16.7-13.9-25.2c-0.3-0.5-0.9-0.1-0.7,0.5c2.6,5.9,5.2,11.8,7.9,17.6
		c-3.7-6.8-7.2-13.8-10.5-21c-0.2-0.5-0.9-0.1-0.7,0.5c3.1,7,6.3,13.9,9.4,20.9c-3.6-7-7.2-13.9-10.9-20.9c-0.3-0.5-0.9-0.1-0.7,0.5
		c2.5,6.7,5.5,13.2,8.6,19.6c-3.8-6.4-7.6-12.8-11.3-19.2c-0.3-0.5-1,0-0.7,0.5C40.5,10.2,44.4,18.5,48,27c-3.5-6-6.8-12.1-9.9-18.3
		c-1.2-2.6-2.5-5.2-3.8-7.8c-0.3-0.5-0.9-0.1-0.7,0.5c1.2,2.6,2.5,5.2,3.8,7.8c2.6,5.5,5.2,11.1,7.7,16.8c-2.7-4.4-5.4-8.9-7.9-13.5
		c-2-4.1-4.1-8.2-6.3-12.2c-0.3-0.5-0.9-0.1-0.7,0.5c2,4.1,4.1,8.2,6.3,12.2c2.3,4.5,4.4,9.1,6.6,13.7c-5.1-8-10.1-16.2-15-24.4
		c-0.3-0.5-1,0-0.7,0.5c3.9,7.5,7.8,15,11.6,22.5C34.8,18.4,30.6,11.7,26.3,5c-0.3-0.5-1,0-0.7,0.5c4.5,7.3,8.7,14.8,12.5,22.6
		C32.1,19.6,27,10.3,22,0.9c-0.3-0.5-0.9-0.1-0.7,0.5c3.7,8.2,7.9,16,12.1,23.7C27.9,17.4,22.7,9.3,18.1,0.8c-0.3-0.5-0.9,0-0.7,0.4
		l10.8,19.9c-4.4-7-8.7-13.9-13.1-20.9c-0.3-0.4-0.9,0-0.6,0.4l11.3,20.7L14.3,3.3c-0.3-0.4-0.9,0-0.6,0.4l12.7,22.3
		C20.9,18.1,15.7,9.8,11,1.1c-0.3-0.5-0.9,0-0.6,0.4c3.5,7,7.2,13.8,11.2,20.4C17,15.1,12.6,8,8.7,0.6C8.4,0.2,7.9,0.6,8.1,1
		c3.3,7.9,7.4,15.1,11.7,22.2C15,16.3,10.5,9.1,6.3,1.7c-0.2-0.4-0.8,0-0.6,0.4c4,7.3,8,14.5,12.1,21.8C12.7,16.1,7.6,8.3,2.5,0.5
		C2.3,0.2,1.9,0.6,2,0.9c0.4,0.8,1.9,3.7,3.8,7.3C4.2,5.8,2.7,3.3,1.2,0.8C0.9,0.4,0.4,0.8,0.6,1.2c0.1,0.3,0.3,0.7,0.4,1
		C1,2.3,0.9,2.5,1,2.7c0.7,1.6,1.5,3.1,2.3,4.6c2.5,5.5,5.3,10.8,8.2,15.9C7.7,17.7,4.1,12.1,0.7,6.3C0.5,5.9-0.1,6.1,0,6.6
		C2.9,15.9,9.6,22.4,13.5,31C8.9,24.8,4.9,18,1.4,10.8c-0.2-0.4-0.7,0-0.5,0.4C1,11.6,1.2,12,1.4,12.3c0,0.2,0.2,0.6,0.5,1.1
		c1.1,2.4,2.2,4.7,3.4,7.1c0.5,1,1.1,2.2,1.7,3.4c-2.2-3.2-4.3-6.5-6.4-9.8c-0.2-0.3-0.7,0-0.5,0.3c0.2,0.5,0.5,0.9,0.7,1.3
		c0.1,0.2,0.3,0.6,0.6,1.1c0.9,1.8,1.9,3.6,2.8,5.4c0.8,1.5,1.7,3.3,2.6,5c-0.3-0.4-0.6-0.7-0.9-1.1c-1.9-2.5-3.6-5.2-5.2-7.9
		c-0.2-0.3-0.6,0-0.4,0.3c1.1,2.8,2.4,5.4,3.9,7.9c-1.1-1.4-2.2-2.8-3.2-4.3c-0.2-0.2-0.5,0.1-0.4,0.3c0.1,0.2,1.2,2.6,2.1,4.6
		c-0.8-0.9-1.5-1.7-1.8-2c-0.2-0.2-0.5,0.1-0.3,0.3C1.3,26.5,3,28.7,3,29.7c0-0.2-0.1-0.4-0.2-0.6c0-0.4-0.2-0.8-0.7-1
		c0,0,0,0-0.1,0c-0.4-0.4-0.8-0.9-1-1.2c-0.1-0.2-0.4,0-0.3,0.2c0.1,0.4,0.2,0.7,0.4,1c-0.1,0.1-0.2,0.2-0.3,0.4l-0.5-0.5
		c-0.1-0.2-0.4,0-0.3,0.2c0.2,0.3,0.3,0.7,0.5,1c-0.1,0.5,0,1,0.2,1.4c0.1,0.2,0.4,0,0.3-0.2c0-0.1,0-0.2,0-0.3
		c0.1,0.3,0.3,0.5,0.4,0.8c0,0.1,0.1,0.1,0.2,0.1C1.8,31.1,2,31,2.2,30.8c0.2,0.3,0.3,0.4,0.3,0.4c0.1,0.2,0.4-0.1,0.3-0.3
		c-0.1-0.1-0.2-0.3-0.3-0.5c0.1-0.2,0.2-0.4,0.3-0.6c0.4,0.5,0.8,0.9,0.9,1c0.2,0.2,0.4-0.1,0.3-0.3c-0.3-0.5-2.2-4.2-2.3-4.1
		c0,0,3.4,4.9,3.4,4.8c0.2,0.3,0.5,0,0.4-0.3c-0.8-1.4-1.5-2.8-2.3-4.2c-0.2-0.4-0.7-1.3-1.1-2c0.7,0.9,1.7,1.9,2.2,2.5
		c1,1.2,1.9,2.3,2.9,3.4c0.2,0.2,0.5-0.1,0.3-0.4c-1.6-2.1-3-4.3-4.3-6.6c-0.3-0.5-0.5-1.1-0.8-1.7C4.8,25.5,7.3,29,10,32.2
		c0.2,0.2,0.6-0.1,0.4-0.4C8.7,29,7,26.1,5.3,23.1C5,22.6,4.7,22,4.4,21.4c3,4.3,6.9,9.4,7.4,10.1c0.3,0.3,0.6-0.1,0.4-0.5
		c-1.3-2-2.6-4-3.8-6.1c1.9,3,4,5.9,6.1,8.7c0.3,0.3,0.6-0.1,0.5-0.5C11.9,24.4,5.5,18.1,1.9,9.6c4.9,7.9,10,15.6,15.4,23.1
		c0.2,0.3,0.8-0.1,0.5-0.5c-3-4.6-5.8-9.3-8.4-14.2c2.7,4.2,5.5,8.3,8.5,12.2c0.2,0.3,0.7-0.1,0.5-0.4c-0.5-0.9-1.1-1.8-1.6-2.7
		c1.4,1.8,2.9,3.4,4.5,4.9c0.3,0.3,0.8-0.2,0.5-0.6c-4.3-5.8-8.5-11.8-12.6-17.9c-1-1.9-2.1-3.9-3.1-5.8C6,7.4,5.8,7,5.6,6.6
		C6.4,7.7,7.3,8.9,8,10c1.5,2.3,3,4.5,4.5,6.8c3.2,4.9,6.4,9.9,9.7,14.8c0.2,0.4,0.8,0,0.5-0.4c-2.6-4.7-5.2-9.4-7.8-14.1
		c3.6,5.5,7.3,10.8,11.2,15.9c0.3,0.3,0.8-0.1,0.5-0.5c-4.9-7.6-9.8-15.2-14-23.4c4.6,7.9,9.6,15.4,15,22.6c0.3,0.4,0.8-0.1,0.6-0.5
		c-2.7-4.1-5.2-8.4-7.7-12.6c3.1,4.9,6.4,9.6,9.8,14.2c0.3,0.4,0.8-0.1,0.6-0.5L21.5,16c3.2,4.9,6.4,9.9,9.5,14.8
		c0.3,0.4,0.9,0,0.6-0.4c-3.4-6.3-6.9-12.5-10.3-18.8c4.3,6.8,8.5,13.6,12.8,20.4c0.3,0.4,0.9,0,0.6-0.4c-2.7-4.9-5.3-9.8-8-14.7
		c3.1,4.7,6.3,9.3,9.7,13.7c0.3,0.4,0.8-0.1,0.6-0.6c-2.5-4.5-5.1-9.1-7.5-13.7c3.2,5.5,6.7,10.8,10.5,15.8c0.3,0.4,0.8-0.1,0.6-0.6
		c-1.6-3.5-3.3-6.9-5.1-10.3c2.6,4.2,5.2,8.3,7.9,12.5c0.3,0.5,1,0.1,0.7-0.5c-3.4-6.6-6.8-13.2-10.2-19.8
		c3.8,6.2,7.7,12.4,11.6,18.5c0.3,0.5,0.9,0.1,0.7-0.5c-1.3-2.8-2.5-5.6-3.9-8.4c1.6,2.6,3.2,5.2,4.8,7.7c0.3,0.5,0.9,0.1,0.7-0.5
		c-1.2-2.7-2.4-5.4-3.6-8.1c1.9,3.4,3.8,6.7,5.8,10c0.3,0.5,0.9,0.1,0.7-0.5c-2.6-6.5-5.5-13-8.5-19.3c3.6,6,7.2,12.1,10.7,18.1
		c0.3,0.5,1,0.1,0.7-0.5c-3.5-7-7-14-10.1-21.3c4.5,8.7,9,17.3,13.5,26L58,35z M14.9,25.2c-2.3-3.5-5.5-8.4-5.9-9.1
		c-1.7-2.9-3.4-5.8-4.9-8.8C3.9,7,3.8,6.7,3.7,6.4c3,4.5,5.6,9.3,8.5,13.9C13.2,22.2,14.1,23.8,14.9,25.2z M13.6,21.2
		c1.2,1.8,2.5,3.5,3.7,5.2C15.9,24.8,14.7,23,13.6,21.2z"/>
</g>
<path d="M135,31.5c0.1-5-0.1-10-0.6-15c0-0.2-0.1-0.4-0.1-0.6c-0.2-4.4-0.5-8.9-0.8-13.3c0.1,0,0.3,0,0.4,0c0.6,0,0.6-1,0-1
	c-0.2,0-0.4,0-0.6,0c-0.2-0.2-0.6-0.2-0.8,0c-0.1,0-0.3,0-0.4,0c0-0.1,0-0.1,0-0.2c0.5-0.1,0.5-0.9-0.1-1c0-0.1,0-0.2,0-0.4
	c0-0.3-0.4-0.3-0.4,0c0,0.1,0,0.2,0,0.4c-21.7,0.7-43.5,1-65.3,1c-21.9,0-43.7-0.7-65.6-0.9c-0.5,0-0.5,0.7,0,0.7
	C-0.1,6.4,0,11.7,0,16.8C0.1,21.9,0,27.5,1.2,32.5c0,0.1,0.1,0.1,0.1,0.1c0,0.2,0,0.3,0,0.5c0,0.1,0.1,0.2,0.2,0.2
	c0,0.1,0.1,0.3,0.3,0.3c21.7,1.2,43.7,0.9,65.4,1c21.8,0.2,43.6,0.2,65.4,0.2c0.6,0,0.6-1,0-1c-14.8,0-29.6,0-44.4-0.1
	c15-0.4,30-0.9,45-1.4c0.1,0.9,0.3,1.7,0.5,2.6c0,0.1,0.2,0.2,0.3,0.1c0.1,0.1,0.3,0.1,0.3-0.1c0-0.2,0.1-0.5,0.1-0.7
	c0.2-0.1,0.3-0.2,0.3-0.4c0-0.6,0-1.3,0-1.9C135,31.8,135,31.7,135,31.5z M1.3,25.4c-0.1-1.8-0.2-3.7-0.3-5.5
	c0.1,1.1,0.2,2.2,0.3,3.4C1.3,24,1.3,24.7,1.3,25.4z M132.5,2.7c0,0.4,0,0.8,0.1,1.2c-0.1,0.1-0.2,0.2-0.2,0.4c0,0,0,0.1,0,0.1
	c-0.1-0.6-0.1-1.1-0.2-1.7C132.3,2.7,132.4,2.7,132.5,2.7z M132.6,10.6c0.1,3.2,0.2,6.4,0.4,9.5c-0.1-0.8-0.2-1.7-0.2-2.5
	c-0.3-3.3-0.4-6.7-0.6-10C132.2,8.6,132.4,9.6,132.6,10.6z M130.6,1.6c0,0.1,0,0.2,0,0.2C110.2,3,89.8,2.9,69.4,2.6
	C89.8,2.6,110.2,2.2,130.6,1.6z M2.1,1.5c3.3,0.2,6.5,0.3,9.8,0.4C8.5,2,5.3,2.1,2,2.4C2,2.1,2,1.8,2.1,1.5z M1.9,32.9
	C1.9,32.9,1.9,32.9,1.9,32.9c-0.1-0.1-0.1-0.2-0.1-0.4c0,0,0,0,0,0c1.3,0.1,2.5,0.2,3.8,0.3C4.4,32.8,3.1,32.8,1.9,32.9z M68.2,33.1
	C46,33.3,24,32.5,1.9,31.8C2,27.4,2,23,2.1,18.6c0.1-4.8,0.4-9.7,0-14.5C2.1,4,2,3.9,2,3.9c0-0.2,0-0.5,0-0.7
	C12.7,3.4,23.4,2.9,34.1,3c11.1,0.1,22.2,0.3,33.3,0.5c21.1,0.4,42.1,0.5,63.2-0.7c0,5.3,0.7,10.7,1.2,15.9
	c0.4,4.1,0.8,8.3,1.5,12.5C111.6,32.1,89.9,32.8,68.2,33.1z M134,31.2c-0.1-1.4-0.3-2.8-0.4-4.3c0.1,0,0.1-0.1,0.1-0.2
	c0-1.5,0-2.9,0-4.4c0,0.6,0.1,1.2,0.1,1.8C134,26.5,134.1,28.9,134,31.2C134.1,31.2,134.1,31.2,134,31.2z"/>
</svg>
