<?xml version="1.0" encoding="utf-8"?>
<!-- Generator: Adobe Illustrator 18.1.1, SVG Export Plug-In . SVG Version: 6.00 Build 0)  -->
<svg version="1.1" id="Camada_1" xmlns="http://www.w3.org/2000/svg" xmlns:xlink="http://www.w3.org/1999/xlink" x="0px" y="0px"
	 viewBox="0 0 135 35" enable-background="new 0 0 135 35" xml:space="preserve">
<path fill="#F2F2F2" d="M135,31.5c0.1-5-0.1-10-0.6-15c0-0.2-0.1-0.4-0.1-0.6c-0.2-4.4-0.5-8.9-0.8-13.3c0.1,0,0.3,0,0.4,0
	c0.6,0,0.6-1,0-1c-0.2,0-0.4,0-0.6,0c-0.2-0.2-0.6-0.2-0.8,0c-0.1,0-0.3,0-0.4,0c0-0.1,0-0.1,0-0.2c0.5-0.1,0.5-0.9-0.1-1
	c0-0.1,0-0.2,0-0.4c0-0.3-0.4-0.3-0.4,0c0,0.1,0,0.2,0,0.4c-21.7,0.7-43.5,1-65.3,1c-21.9,0-43.7-0.7-65.6-0.9c-0.5,0-0.5,0.7,0,0.7
	C-0.1,6.4,0,11.7,0,16.8C0.1,21.9,0,27.5,1.2,32.5c0,0.1,0.1,0.1,0.1,0.1c0,0.2,0,0.3,0,0.5c0,0.1,0.1,0.2,0.2,0.2
	c0,0.1,0.1,0.3,0.3,0.3c21.7,1.2,43.7,0.9,65.4,1c21.8,0.2,43.6,0.2,65.4,0.2c0.6,0,0.6-1,0-1c-14.8,0-29.6,0-44.4-0.1
	c15-0.4,30-0.9,45-1.4c0.1,0.9,0.3,1.7,0.5,2.6c0,0.1,0.2,0.2,0.3,0.1c0.1,0.1,0.3,0.1,0.3-0.1c0-0.2,0.1-0.5,0.1-0.7
	c0.2-0.1,0.3-0.2,0.3-0.4c0-0.6,0-1.3,0-1.9C135,31.8,135,31.7,135,31.5z M1.3,25.4c-0.1-1.8-0.2-3.7-0.3-5.5
	c0.1,1.1,0.2,2.2,0.3,3.4C1.3,24,1.3,24.7,1.3,25.4z M132.5,2.7c0,0.4,0,0.8,0.1,1.2c-0.1,0.1-0.2,0.2-0.2,0.4c0,0,0,0.1,0,0.1
	c-0.1-0.6-0.1-1.1-0.2-1.7C132.3,2.7,132.4,2.7,132.5,2.7z M132.6,10.6c0.1,3.2,0.2,6.4,0.4,9.5c-0.1-0.8-0.2-1.7-0.2-2.5
	c-0.3-3.3-0.4-6.7-0.6-10C132.2,8.6,132.4,9.6,132.6,10.6z M130.6,1.6c0,0.1,0,0.2,0,0.2C110.2,3,89.8,2.9,69.4,2.6
	C89.8,2.6,110.2,2.2,130.6,1.6z M2.1,1.5c3.3,0.2,6.5,0.3,9.8,0.4C8.5,2,5.3,2.1,2,2.4C2,2.1,2,1.8,2.1,1.5z M1.9,32.9
	C1.9,32.9,1.9,32.9,1.9,32.9c-0.1-0.1-0.1-0.2-0.1-0.4c0,0,0,0,0,0c1.3,0.1,2.5,0.2,3.8,0.3C4.4,32.8,3.1,32.8,1.9,32.9z M68.2,33.1
	C46,33.3,24,32.5,1.9,31.8C2,27.4,2,23,2.1,18.6c0.1-4.8,0.4-9.7,0-14.5C2.1,4,2,3.9,2,3.9c0-0.2,0-0.5,0-0.7
	C12.7,3.4,23.4,2.9,34.1,3c11.1,0.1,22.2,0.3,33.3,0.5c21.1,0.4,42.1,0.5,63.2-0.7c0,5.3,0.7,10.7,1.2,15.9
	c0.4,4.1,0.8,8.3,1.5,12.5C111.6,32.1,89.9,32.8,68.2,33.1z M134,31.2c-0.1-1.4-0.3-2.8-0.4-4.3c0.1,0,0.1-0.1,0.1-0.2
	c0-1.5,0-2.9,0-4.4c0,0.6,0.1,1.2,0.1,1.8C134,26.5,134.1,28.9,134,31.2C134.1,31.2,134.1,31.2,134,31.2z"/>
</svg>
