<?xml version="1.0" encoding="utf-8"?>
<!-- Generator: Adobe Illustrator 18.1.1, SVG Export Plug-In . SVG Version: 6.00 Build 0)  -->
<svg version="1.1" id="Camada_1" xmlns="http://www.w3.org/2000/svg" xmlns:xlink="http://www.w3.org/1999/xlink" x="0px" y="0px"
	 viewBox="0 0 90 40" enable-background="new 0 0 90 40" xml:space="preserve">
<g>
	<path fill="#F2F2F2" d="M85.3,2.1l-0.7,0.3C84.8,3,85,3.6,85.2,4.2l0.7-0.6C85.7,3.1,85.5,2.6,85.3,2.1z"/>
	<path fill="#F2F2F2" d="M77.6,10.9l-1.1-3.4c0.4,1.1,0.8,2.2,1.2,3.3l0.6-0.5c-0.5-1.5-1.1-3-1.6-4.4l-1.1,0.5l1.6,5L77.6,10.9z"/>
	<path fill="#F2F2F2" d="M40,36.5c-1.8-6.9-3.5-13.7-5.3-20.6l-0.9-0.4c1.1,4.3,2.2,8.6,3.3,12.9c-1.4-4.4-2.8-8.9-4.2-13.3L32,14.7
		c2.1,6.8,4.3,13.6,6.4,20.4L40,36.5z"/>
	<path fill="#F2F2F2" d="M64.9,11c1,2.8,1.9,5.7,2.9,8.5l0.6-0.5c-0.9-2.8-1.9-5.5-2.8-8.3L64.9,11z"/>
	<path fill="#F2F2F2" d="M72.1,15.7c-0.8-2.3-1.6-4.6-2.4-6.8l-0.7,0.3c0.8,2.3,1.7,4.7,2.5,7.1L72.1,15.7z"/>
	<path fill="#F2F2F2" d="M65.3,21.7c-0.8-3.3-1.6-6.5-2.4-9.8l-0.7,0.3c0,0.2,0.1,0.4,0.1,0.6c-0.1-0.2-0.1-0.4-0.2-0.6l-0.7,0.3
		c1,3.3,2,6.6,2.9,9.9L65.3,21.7z"/>
	<path fill="#F2F2F2" d="M4,4.9c-0.4-1-0.7-2-1.1-2.9L1.8,1.4C2,2.1,2.1,2.7,2.3,3.3L4,4.9z"/>
	<path fill="#F2F2F2" d="M20.5,9.6c1.1,4.2,2.2,8.4,3.3,12.5l1,0.9c-0.7-2.7-1.4-5.3-2.1-8c0.9,2.8,1.8,5.7,2.7,8.5l1.1,1
		c-1.5-4.8-3-9.5-4.5-14.3L20.5,9.6z"/>
	<path fill="#F2F2F2" d="M54.1,15.8c1.3,4.1,2.5,8.3,3.7,12.5l1.1-0.9c-1-4.1-2-8.3-3.1-12.4l-0.7,0.3c0.7,2.9,1.5,5.9,2.2,8.9
		c-0.9-2.9-1.7-5.8-2.6-8.7L54.1,15.8z"/>
	<path fill="#F2F2F2" d="M61.9,24.7c-0.8-3.3-1.6-6.5-2.5-9.8c1,3.1,2,6.2,3,9.3l0.6-0.5c-1.1-3.5-2.2-6.9-3.4-10.4l-1.3,0.6
		c1,3.8,2,7.5,2.9,11.4L61.9,24.7z"/>
	<path fill="#F2F2F2" d="M63.7,23.1c-0.9-3.5-1.7-6.9-2.6-10.4L60.5,13c0.9,3.6,1.7,7.1,2.7,10.7L63.7,23.1z"/>
	<path fill="#F2F2F2" d="M82.5,6.6c-0.3-1-0.7-1.9-1-2.9l-0.7,0.3c0.3,1.1,0.7,2.2,1,3.2L82.5,6.6z"/>
	<path fill="#F2F2F2" d="M82.8,3.2l-1,0.5c0.4,0.9,0.7,1.8,1.1,2.7l1-0.9C83.5,4.7,83.1,3.9,82.8,3.2z"/>
	<path fill="#F2F2F2" d="M74.2,13.9l1.1-0.9c-0.6-1.9-1.3-3.8-1.9-5.6l-1,0.4C73,9.8,73.6,11.8,74.2,13.9z"/>
	<path fill="#F2F2F2" d="M69.3,18.2c-0.8-2.7-1.5-5.4-2.3-8.1l-0.6,0.3c0.8,2.8,1.6,5.6,2.4,8.3L69.3,18.2z"/>
	<path fill="#F2F2F2" d="M56.5,14.7L55.8,15c1.2,4,2.3,8,3.4,12l0.9-0.7c-1-4-1.9-7.9-2.9-11.9L56.5,14.7c0.2,0.4,0.3,0.8,0.4,1.2
		C56.7,15.5,56.6,15.1,56.5,14.7z"/>
	<path fill="#F2F2F2" d="M73.3,14.7l0.6-0.5c-0.8-2.1-1.5-4.1-2.3-6.1l-1.3,0.6c0.7,2.3,1.4,4.6,2.1,6.9l0.6-0.5
		c-0.6-2.1-1.2-4.2-1.9-6.3C71.8,10.8,72.5,12.8,73.3,14.7z"/>
	<path fill="#F2F2F2" d="M79.5,9.3c-0.5-1.3-1-2.7-1.5-4l-0.9,0.4c0.5,1.5,1,2.9,1.5,4.4L79.5,9.3z"/>
	<path fill="#F2F2F2" d="M74.1,7c0.6,1.8,1.1,3.7,1.7,5.5l1-0.9C76.2,10,75.6,8.3,75,6.6L74.1,7z"/>
	<path fill="#F2F2F2" d="M80.1,8.7L81,7.9c-0.4-1.1-0.9-2.3-1.3-3.4l-0.9,0.4C79.2,6.2,79.7,7.5,80.1,8.7z"/>
	<path fill="#F2F2F2" d="M83.1,3c0.3,0.8,0.5,1.6,0.8,2.4l0.7-0.6c-0.3-0.7-0.6-1.4-0.8-2L83.1,3z"/>
	<path fill="#F2F2F2" d="M67,20.3c-0.8-3-1.6-6.1-2.4-9.1l-0.7,0.3c0,0,0,0.1,0,0.1c0,0,0-0.1,0-0.1l-0.7,0.3c1,3,2,6.1,2.9,9.2
		L67,20.3z"/>
	<path fill="#F2F2F2" d="M86.4,1.6c0.1,0.4,0.2,0.9,0.3,1.3l0.5-0.4c-0.1-0.4-0.2-0.7-0.3-1.1L86.4,1.6z"/>
	<path fill="#F2F2F2" d="M8.8,9l2,1.8c-0.7-2.1-1.4-4.3-2.2-6.4L7.2,3.8C7.8,5.6,8.3,7.3,8.8,9z"/>
	<path fill="#F2F2F2" d="M22.2,20.9c-0.2-0.6-0.3-1.3-0.5-1.9c0.2,0.7,0.4,1.4,0.7,2.1l1.2,1L19.5,9.2l-1.3-0.6
		c1,3.7,2.1,7.5,3.1,11.3L22.2,20.9z"/>
	<path fill="#F2F2F2" d="M29.9,27.6l1,0.9c-1.1-4.2-2.2-8.4-3.3-12.5c1.4,4.3,2.7,8.7,4,13.1l1.1,0.9c-1.7-5.9-3.5-11.7-5.4-17.4
		l-1.7-0.7C27.1,17.1,28.5,22.3,29.9,27.6z"/>
	<path fill="#F2F2F2" d="M88.6,1.2c-0.1-0.2-0.1-0.4-0.2-0.5l-0.6,0.2C88,1.2,88,1.4,88.1,1.7L88.6,1.2z"/>
	<path fill="#F2F2F2" d="M60.5,26l0.6-0.5c-1.1-3.8-2.1-7.6-3.2-11.3l-0.7,0.3C58.3,18.3,59.4,22.1,60.5,26z"/>
	<path fill="#F2F2F2" d="M4.6,2.6c0.3,1.1,0.6,2.3,0.8,3.4l1.6,1.4C6.6,6.1,6.2,4.6,5.7,3.2L4.6,2.6z"/>
	<path fill="#F2F2F2" d="M67.1,10.1c0.9,2.6,1.8,5.2,2.7,7.8l1.1-0.9c-0.7-2.5-1.4-5-2.1-7.5L68,9.7c0.4,1.5,0.8,3.1,1.3,4.6
		c-0.5-1.5-1-3-1.5-4.5L67.1,10.1z"/>
	<path fill="#F2F2F2" d="M89.5,0.5L90,0c0,0,0,0,0,0l-0.6,0.3C89.4,0.3,89.5,0.4,89.5,0.5z"/>
	<path fill="#F2F2F2" d="M87.4,2.3l0.5-0.4c-0.1-0.3-0.2-0.5-0.3-0.8l-0.6,0.2C87.2,1.6,87.3,1.9,87.4,2.3z"/>
	<path fill="#F2F2F2" d="M1.1,1.1L0,0.6c0,0.3,0.1,0.5,0.2,0.8l1.4,1.2L1.1,1.1z"/>
	<path fill="#F2F2F2" d="M56.5,29.4c-1.1-4.4-2.2-8.9-3.2-13.3l-0.6,0.3c0.7,2.7,1.3,5.4,2,8.2c-0.8-2.7-1.5-5.3-2.3-8l-0.7,0.3
		c1.3,4.5,2.6,9,3.9,13.5L56.5,29.4z"/>
	<path fill="#F2F2F2" d="M48.1,18.4c0.7,2.7,1.3,5.4,2,8.1c-0.8-2.7-1.5-5.3-2.3-8l-1.2,0.5l1.9,7.6c-0.8-2.5-1.5-4.9-2.3-7.4
		l-0.7,0.3c1.6,5.1,3.2,10.3,4.8,15.4l0.9-0.8l-2.9-11.4c1.1,3.7,2.1,7.5,3.2,11.2l1-0.9c-1.2-5-2.4-10-3.6-15L48.1,18.4z"/>
	<path fill="#F2F2F2" d="M13.6,13.2c-0.8-2.6-1.6-5.1-2.4-7.7L9.9,5c0.6,2.2,1.1,4.3,1.7,6.5L13.6,13.2z"/>
	<path fill="#F2F2F2" d="M49.8,17.7c1.4,4.7,2.7,9.4,3.9,14.3l0.8-0.7c-1-4.8-2-9.6-3.1-14.3l-0.6,0.3c0.4,1.8,0.8,3.6,1.2,5.4
		c-0.5-1.8-1-3.5-1.5-5.2L49.8,17.7z"/>
	<path fill="#F2F2F2" d="M49,36c-1.4-5.4-2.7-10.8-4.1-16.2l-0.7,0.3l1.2,4.9c-0.5-1.7-1-3.3-1.5-5l-0.9-0.4
		c1.8,5.6,3.4,11.4,5.1,17.2L49,36z"/>
	<path fill="#F2F2F2" d="M18.6,17.7c-0.4-1.5-0.8-3-1.2-4.5c0.6,1.6,1.1,3.3,1.7,4.9l1.2,1.1c-1.3-3.8-2.6-7.6-3.9-11.3l-1.5-0.7
		c0.9,3.2,1.8,6.3,2.6,9.5L18.6,17.7z"/>
	<path fill="#F2F2F2" d="M22.6,10.6c1.4,4.7,2.8,9.4,4.1,14.2l1,0.9c-0.7-2.7-1.5-5.4-2.2-8c1,2.9,2.1,5.9,3.1,8.8l1.2,1.1
		C27.9,22.1,26,16.6,24,11.2L22.6,10.6z"/>
	<path fill="#F2F2F2" d="M15.5,14.9c-0.1-0.5-0.2-0.9-0.4-1.4c0.2,0.5,0.3,1,0.5,1.5l1.2,1c-1-3.1-2-6.2-3-9.3l-1.5-0.6
		c0.7,2.6,1.4,5.3,2.1,7.9L15.5,14.9z"/>
	<path fill="#F2F2F2" d="M36.5,16.7c1.3,4.6,2.6,9.3,3.7,14c-1.5-4.8-3-9.6-4.5-14.3L34.8,16c2.3,7.3,4.6,14.7,6.9,22l1.2,1.1
		c-1.6-7.3-3.4-14.3-5.3-21.2c2.4,7.3,4.7,14.7,6.9,22.1l0.7-0.6c-1.9-7-3.7-14-5.6-20.9c2.1,6.8,4.2,13.5,6.3,20.3l1-0.9
		c-1.3-6.3-2.8-12.5-4.3-18.5L41.7,19c1.5,5.6,2.8,11.2,4.1,17.1c-1.8-5.9-3.6-11.8-5.4-17.7l-1.8-0.8l1.5,5.5
		c-0.6-1.9-1.2-3.8-1.8-5.7L36.5,16.7z"/>
	<path fill="#F2F2F2" d="M33.7,31C32.5,25.4,31.3,20,30,14.7c1.9,6,3.8,12,5.7,18l1.4,1.3c-1.7-6.4-3.4-12.8-5.1-19.2l-0.9-0.4
		c0.7,2.7,1.4,5.4,2.1,8l-2.6-8.2l-1.7-0.8c1.4,5.5,2.7,11.1,3.9,16.8L33.7,31z"/>
</g>
</svg>
