<?xml version="1.0" encoding="utf-8"?>
<!-- Generator: Adobe Illustrator 18.1.1, SVG Export Plug-In . SVG Version: 6.00 Build 0)  -->
<svg version="1.1" id="Camada_1" xmlns="http://www.w3.org/2000/svg" xmlns:xlink="http://www.w3.org/1999/xlink" x="0px" y="0px"
	 viewBox="0 0 49 48.1" enable-background="new 0 0 49 48.1" xml:space="preserve">
<g>
	<g>
		<path fill="#F2F2F2" d="M42.9,48.2c1-1,2-2.1,2.8-3.2c0,0,0.1-0.1,0.1-0.1c0.8-1,1.6-1.9,2.4-2.9c0,0,0.1,0.1,0.1,0.1
			c0.2,0.2,0.4,0,0.2-0.2c-0.1-0.1-0.1-0.1-0.2-0.2c0-0.1-0.2-0.2-0.3-0.2c0,0-0.1-0.1-0.1-0.1c0,0,0,0,0,0c0.2,0.1,0.3,0,0.2-0.2
			c0,0,0-0.1,0.1-0.1c0.1-0.1-0.1-0.2-0.1-0.1c0,0-0.1,0-0.1,0.1c-7-6.7-13.9-13.5-20.7-20.3C20.5,13.7,13.8,6.7,7-0.2
			c-0.1-0.1-0.3,0-0.2,0.1C5.6,0.7,4.5,1.8,3.5,2.8C2.5,3.9,1.3,5,0.7,6.4c0,0,0,0,0,0.1c0,0-0.1,0.1-0.1,0.1c0,0,0,0.1,0,0.1
			c0,0,0,0.1,0,0.2c6.6,7.1,13.5,13.9,20.4,20.8c6.8,6.9,13.7,13.8,20.5,20.6c0.2,0.2,0.4,0,0.2-0.2c-4.7-4.6-9.3-9.3-13.9-14
			c4.8,4.6,9.6,9.3,14.4,13.9c-0.1,0.2-0.2,0.4-0.4,0.7c0,0,0,0.1,0.1,0.1c0,0.1,0.1,0.1,0.1,0.1c0.1,0,0.1-0.1,0.2-0.1
			c0.1,0,0.1,0,0.2,0C42.6,48.5,42.7,48.4,42.9,48.2C42.9,48.3,42.9,48.2,42.9,48.2z M2.2,5c0.3-0.4,0.7-0.8,1-1.2
			C3,4,2.8,4.3,2.6,4.5C2.5,4.7,2.3,4.8,2.2,5z M48,41.6c-0.1,0.1-0.1,0.2-0.2,0.3c0,0-0.1,0-0.1,0c0,0,0,0,0,0
			C47.7,41.8,47.8,41.7,48,41.6C47.9,41.6,47.9,41.6,48,41.6z M46.4,43.2c-0.6,0.7-1.2,1.4-1.8,2c0.1-0.2,0.3-0.4,0.4-0.6
			c0.6-0.8,1.2-1.5,1.8-2.2C46.7,42.7,46.6,43,46.4,43.2z M47.6,40.8C47.6,40.8,47.6,40.8,47.6,40.8c-6.7-6.1-13.1-12.6-19.4-19
			C34.6,28.2,41.1,34.5,47.6,40.8z M7.2,0.4c1,1.1,2,2.1,3,3.2c-1-1-2.1-2-3.2-3C7.1,0.5,7.2,0.4,7.2,0.4z M0.8,6.7
			C0.8,6.6,0.8,6.6,0.8,6.7C0.8,6.6,0.9,6.6,0.8,6.7L0.8,6.7C1.3,7,1.6,7.4,2,7.8C1.6,7.4,1.2,7,0.8,6.7z M21.6,27.5
			c-1-1-2.1-2-3.1-3.1c0,0,0,0,0.1-0.1c0.1-1.4,0.3-2.8,0.4-4.3c0,1.2,0,2.4,0,3.6c0,0.2,0.3,0.3,0.3,0.1c0.1-1.6,0.2-3.3,0.4-4.9
			c0,2.1,0,4.3,0.2,6.5c0,0.2,0.3,0.3,0.3,0.1c0.2-1.9,0.4-3.8,0.6-5.6c0,1.8-0.1,3.6-0.1,5.4c0,0.2,0.3,0.3,0.3,0.1
			c0.2-1.4,0.4-2.9,0.6-4.3c-0.1,2,0,4.1,0.2,6.3c0,0.2,0.3,0.2,0.3,0.1c0.2-2,0.4-4.1,0.6-6.1c0,2-0.1,3.9-0.1,5.9
			c0,0.2,0.3,0.3,0.3,0.1l0.4-5.4c0.1,2.1,0.1,4.3,0.2,6.4c0,0.2,0.3,0.3,0.3,0.1l0.5-5.3c0,2.1,0.1,4.2,0.3,6.3
			c0,0.2,0.3,0.2,0.3,0.1c0-2.7,0.1-5.3,0.5-7.8c0,2.7,0.1,5.5,0.1,8.2c0,0.2,0.3,0.3,0.3,0.1l0.3-4.8c0.1,2.1,0.2,4.2,0.3,6.4
			c0,0.2,0.3,0.3,0.3,0.1c0-2.5,0-5,0.2-7.4c0.1,2.4,0.1,4.9,0.2,7.3c0,0.2,0.3,0.3,0.3,0.1c0.1-2,0.3-4,0.4-6
			c0.1,2.4,0.1,4.9,0.2,7.3c0,0.2,0.3,0.3,0.3,0.1c0.1-1.8,0.2-3.5,0.3-5.3l0.1,5.6c0,0.2,0.3,0.3,0.3,0.1c0-2.3,0.2-4.6,0.6-6.7
			c0,2.7,0.1,5.5,0.3,8.3C27.2,33,24.4,30.3,21.6,27.5z M30.3,36c-0.1-2.5,0-4.9,0.1-7.3c0.2,2.4,0.4,4.8,0.6,7.2
			c0,0.2,0.3,0.3,0.3,0.1c-0.1-2-0.1-4,0-6c0.1,2.1,0.1,4.2,0.2,6.2c0,0.2,0.3,0.3,0.3,0.1c0.1-1.6,0.2-3.3,0.3-4.9l0.2,5.6
			c0,0.2,0.3,0.3,0.3,0.1c0-2.1,0.1-4.1,0.3-6c0.1,2.2,0.2,4.4,0.5,6.7c0,0.2,0.3,0.3,0.3,0.1c0-1.9,0.1-3.8,0.2-5.6
			c0.1,2.3,0.1,4.6,0.2,7c0,0.2,0.3,0.3,0.3,0.1c0.1-1.8,0.2-3.7,0.4-5.5c0.1,1.9,0.1,3.8,0.2,5.7c0,0.2,0.3,0.3,0.3,0.1
			c0.1-1.3,0.2-2.5,0.3-3.8c0,1.7,0.2,3.4,0.3,5.2c0,0.2,0.3,0.3,0.3,0.1c0-2.5,0-4.9,0.1-7.3c0.3,2.6,0.4,5.2,0.3,7.8
			c0,0.2,0.3,0.3,0.3,0.1c0.1-1.3,0.2-2.5,0.3-3.8c0,1.4,0.1,2.8,0.3,4.3c0,0.2,0.3,0.3,0.3,0.1c0.1-1.1,0.2-2.3,0.3-3.4l0,4
			c0,0.2,0.3,0.3,0.3,0.2c0.6-2.1,0.7-4.5,0.7-6.9c0,0.2,0,0.4,0,0.6c0.1,0.8,0.1,1.7,0.1,2.5c0.1,1.7,0.1,3.3,0.1,4.9
			c0,0.2,0.3,0.3,0.3,0.1c0.1-1.4,0.2-2.8,0.4-4.1c0,1.3,0,2.7-0.1,4c0,0.2,0.3,0.3,0.3,0.1c0.1-1.4,0.1-2.9,0.2-4.3
			c0,1.5,0,3.1,0.1,4.7l0,0l0,0c0,0,0,0,0,0c0,0.2,0.3,0.2,0.3,0.1c0.1-0.7,0.1-1.5,0.2-2.2c0,1,0,2,0.1,3c0,0.2,0.3,0.3,0.3,0.1
			c0.3-1.3,0.5-2.7,0.6-4c0,0.3,0,0.6,0,1c-0.1,0.9-0.1,1.9-0.1,2.9c0,0.2,0.3,0.3,0.3,0.1c0-0.9,0.1-1.8,0.1-2.7
			c0-0.6,0.1-1.2,0.2-1.7c0,0.8,0,1.6,0.1,2.4c0,0.2,0.3,0.3,0.3,0.2c0.2-1.1,0.5-2.1,0.7-3.2c0,1,0,2,0,3c0,0.2,0.3,0.3,0.3,0.2
			c0.2-0.9,0.4-1.8,0.6-2.7c0,0.4,0,0.8,0.1,1.3c0,0.2,0.3,0.3,0.3,0.1c0.1-0.5,0.2-1.1,0.4-1.6c0,0.2,0.1,0.3,0.1,0.5
			c0,0.2,0.3,0.3,0.3,0.1c0.1-0.2,0.2-0.4,0.3-0.6c0.1-0.2-0.2-0.4-0.3-0.2c0,0.1,0,0.1-0.1,0.2c-0.1-0.2-0.1-0.4-0.2-0.6
			c-0.1-0.1-0.3-0.2-0.3-0.1c-0.1,0.3-0.2,0.6-0.2,0.9c0-0.5,0-0.9-0.1-1.4c0-0.2-0.3-0.3-0.3-0.1c-0.2,1-0.4,1.9-0.6,2.9
			c0-1.2,0-2.5,0.1-3.7c0-0.2-0.3-0.3-0.3-0.2c-0.3,1.3-0.6,2.6-0.8,3.8c0-1.4,0-2.8,0.2-4.2c0-0.2-0.3-0.3-0.3-0.1
			c-0.1,0.5-0.2,1-0.3,1.5c0-0.8,0-1.7,0.1-2.5c0-0.2-0.3-0.3-0.3-0.1c-0.2,2.4-0.4,4.8-0.8,7.1c-0.1-2.4,0-4.7,0.1-7
			c0-0.2-0.3-0.3-0.3-0.1c-0.2,1.9-0.3,3.8-0.5,5.8c-0.1-2.3,0.1-4.5,0.2-6.7c0-0.2-0.3-0.3-0.3-0.1c-0.1,0.7-0.2,1.5-0.3,2.2
			c0-0.7,0-1.4,0-2.1c0-0.2-0.3-0.3-0.3-0.1c-0.2,1.8-0.3,3.6-0.5,5.4c-0.1-2.2-0.2-4.4-0.4-6.6c0-0.1-0.2-0.2-0.2-0.1
			c0,0.2,0,0.3,0,0.5c-0.1-0.1-0.2-0.1-0.2,0c0,2.1,0,4.1-0.3,6.1c0-2.2,0-4.5,0-6.7c0-0.2-0.3-0.3-0.3-0.1c-0.2,2-0.3,4-0.5,6
			c-0.2-2.4-0.1-4.6,0-6.9c0-0.2-0.3-0.3-0.3-0.1c-0.2,1.7-0.3,3.4-0.5,5.1c-0.1-2.1-0.2-4.3-0.5-6.5c0-0.2-0.3-0.3-0.3-0.1
			c-0.2,1.6-0.2,3.3-0.3,4.9c-0.1-1.7-0.1-3.5,0-5.2c0-0.2-0.3-0.3-0.3-0.1c-0.1,1.6-0.3,3.2-0.4,4.8c-0.1-1.9-0.1-3.9-0.2-5.8
			c0-0.2-0.3-0.3-0.3-0.1c-0.1,1.8-0.2,3.7-0.4,5.5c-0.1-2.1-0.1-4.2-0.2-6.3c0-0.2-0.3-0.3-0.3-0.1c-0.2,1.8-0.3,3.7-0.4,5.6
			c-0.2-2.1-0.2-4.2-0.3-6.2c0-0.2-0.3-0.3-0.3-0.1c-0.2,1.3-0.3,2.7-0.4,4.1c-0.1-1.4-0.1-2.9-0.2-4.3c0-0.2-0.3-0.3-0.3-0.1
			c-0.1,1.5-0.2,3-0.3,4.6c-0.1-2-0.1-4-0.2-5.9c0-0.2-0.3-0.3-0.3-0.1c-0.2,1.6-0.3,3.1-0.3,4.8c-0.1-1.6-0.3-3.3-0.4-4.9
			c0-0.2-0.3-0.3-0.3-0.1c-0.1,1.5-0.2,3-0.3,4.5c-0.1-1.9-0.1-3.7,0-5.6c0-0.1-0.3-0.3-0.3-0.2c0,0,0,0,0,0l0,0l0,0
			c-0.3,1.6-0.6,3.2-0.8,4.9c-0.1-1.9-0.1-3.8-0.2-5.7c0-0.2-0.3-0.3-0.3-0.1c-0.1,1.8-0.2,3.6-0.3,5.4c-0.1-2.2-0.1-4.5-0.2-6.7
			c0-0.2-0.3-0.3-0.3-0.1c-0.1,2-0.3,3.9-0.4,5.9c0-2.1-0.1-4.2-0.1-6.3c0-0.2-0.3-0.3-0.3-0.1c-0.2,1.5-0.3,3-0.4,4.6
			c-0.1-1.8-0.1-3.6-0.1-5.4c0-0.2-0.3-0.3-0.3-0.1c-0.1,1.6-0.2,3.1-0.3,4.7c0-1.9-0.1-3.8-0.1-5.7c0-0.1-0.3-0.3-0.3-0.2
			c0,0,0,0,0,0l0,0l0,0c-0.5,2-0.6,4.2-0.7,6.4c-0.1-2.5-0.1-4.9,0-7.4c0-0.2-0.3-0.3-0.3-0.1c-0.2,2.2-0.4,4.3-0.6,6.5
			c-0.1-2.2-0.1-4.4-0.2-6.6c0-0.2-0.3-0.3-0.3-0.1L23,22.6c0-1.6,0.1-3.1,0.1-4.7c0-0.2-0.3-0.3-0.3-0.1c-0.3,2.7-0.6,5.5-0.8,8.2
			c-0.2-2.9-0.1-5.6,0.2-8.2c0-0.2-0.3-0.3-0.3-0.1c-0.3,1.7-0.6,3.5-0.9,5.3c0-2.1,0.1-4.2,0.1-6.3c0-0.2-0.3-0.3-0.3-0.1
			c-0.2,2.5-0.5,4.9-0.7,7.4c-0.2-2.8-0.1-5.5,0-8.2c0-0.2-0.3-0.3-0.3-0.1c-0.2,1.7-0.4,3.4-0.5,5.2c0-2.2,0.1-4.4,0.3-6.5
			c0-0.2-0.3-0.3-0.3-0.1c-0.2,2.1-0.4,4.1-0.6,6.2c0.1-2.2,0.1-4.4,0.2-6.6c0-0.2-0.3-0.3-0.3-0.1c-0.3,1.8-0.5,3.8-0.6,5.7
			c-0.1-2.1-0.2-4.3-0.3-6.4c0-0.2-0.3-0.3-0.3-0.1c0,2.6-0.2,5.1-0.5,7.5c-0.1-2-0.1-4,0-5.9c0.1-0.8,0.1-1.6,0.1-2.4
			c0-0.2-0.3-0.3-0.3-0.1c-0.1,0.8-0.1,1.6-0.1,2.4c-0.1,1.7-0.3,3.3-0.4,5c-0.1-1.5-0.2-3-0.1-4.5c0.1-1.3,0.1-2.5,0.1-3.8
			c0-0.2-0.3-0.3-0.3-0.1c-0.1,1.3-0.1,2.5-0.1,3.8c-0.1,1.4-0.2,2.8-0.3,4.2c-0.2-2.8-0.4-5.6-0.5-8.4c0-0.2-0.3-0.3-0.3-0.1
			c-0.1,2.4-0.1,4.7-0.2,7.1c-0.2-2.3-0.3-4.7-0.5-7c0-0.2-0.3-0.3-0.3-0.1c0.2,2.5,0.2,5,0,7.3c-0.4-3.2-0.4-6.2-0.4-9.1
			c0-0.2-0.3-0.3-0.3-0.1c-0.2,2.4-0.3,4.9-0.2,7.4c-0.4-2.9-0.6-5.7-0.6-8.5C12.3,7,12,6.9,12,7l0,6.4c-0.2-2.4-0.3-4.8-0.5-7.3
			c0-0.1-0.3-0.3-0.3-0.1l0,6.7l-0.5-6.3c0-0.1-0.3-0.3-0.3-0.1l0.2,7.4c-0.3-2.9-0.5-5.8-0.5-8.6C10.2,5,9.9,4.8,9.9,5
			c-0.1,2.2-0.1,4.4,0,6.6C9.6,9.1,9.5,6.7,9.5,4.3c0-0.1-0.2-0.2-0.2-0.1C9,6.5,9,8.8,9.2,11.3c-0.3-2.5-0.5-5-0.5-7.5
			c0-0.1-0.2-0.2-0.2-0.1c0,2.4,0,4.7,0,7.1C8.2,8,8,5.3,7.7,2.5c0-0.1-0.2-0.2-0.2-0.1c0,0.2,0,1.1-0.1,2.3C7.4,3.9,7.3,3,7.3,2.2
			c0-0.1-0.2-0.2-0.2-0.1c0,0.1,0,0.2,0,0.3c0,0-0.1,0-0.1,0.1c0,0.5-0.1,0.9-0.1,1.4c-0.1,1.6-0.2,3.3-0.2,5c-0.2-2-0.4-4-0.5-5.9
			c0-0.1-0.2-0.2-0.2-0.1c-0.7,2.4,0.3,5.4,0,7.9C5.7,8.3,5.6,6,5.7,3.8c0-0.1-0.2-0.2-0.2-0.1c0,0.1,0,0.2,0,0.3c0,0,0,0.2,0,0.3
			C5.4,5.1,5.3,5.8,5.3,6.6c0,0.3,0,0.7-0.1,1.1C5.1,6.4,5,5.3,5,4.1C5,4,4.8,3.9,4.8,4.1c0,0.1,0,0.3,0,0.4c0,0.1,0,0.2,0,0.4
			c0,0.6,0,1.1,0,1.7c0,0.5,0,1,0,1.6c0-0.1-0.1-0.3-0.1-0.4c-0.1-1-0.2-1.9-0.2-2.8c0-0.1-0.2-0.2-0.2-0.1C4.1,5.6,4,6.4,4.1,7.2
			C4,6.7,3.9,6.1,3.8,5.6c0-0.1-0.1-0.1-0.2-0.1c0,0.1-0.1,0.8-0.1,1.4C3.5,6.6,3.4,6.2,3.3,6.1C3.3,6,3.2,6,3.2,6
			c0,0.3,0.1,1.2,0,1.3c0,0,0-0.1,0-0.2c0.1-0.1,0.1-0.2,0-0.4c0,0,0,0,0,0C3.1,6.6,3,6.5,3,6.3c0-0.1-0.1-0.1-0.1-0.1
			c0,0.1,0,0.2-0.1,0.3c-0.1,0-0.1,0-0.2,0l0-0.2c0-0.1-0.1-0.1-0.1,0c0,0.1,0,0.2,0,0.3C2.4,6.6,2.3,6.7,2.3,6.8
			c0,0.1,0.1,0.1,0.1,0c0,0,0,0,0.1,0c0,0.1,0,0.2,0,0.3c0,0,0,0.1,0,0.1c0.1,0,0.1,0.1,0.2,0.1c0,0.1,0,0.2,0,0.2
			c0,0.1,0.1,0.1,0.1,0c0,0,0-0.1,0-0.2c0.1,0,0.1,0,0.2,0c0.1,0.2,0.1,0.4,0.1,0.4c0,0.1,0.1,0.1,0.1,0c0-0.2,0-1.3,0-1.3
			c0,0,0.2,1.8,0.2,1.8c0,0.1,0.2,0.2,0.2,0.1c0-0.5,0-0.9,0-1.4c0-0.1,0-0.4,0-0.7c0,0.3,0.2,0.8,0.2,1C4,7.8,4.1,8.3,4.2,8.7
			c0,0.1,0.2,0.1,0.2,0C4.3,8,4.2,7.2,4.2,6.4c0-0.2,0-0.3,0-0.5c0.1,1.3,0.3,2.6,0.6,3.9C4.9,9.9,5,10,5,9.9C5,8.9,4.9,7.9,4.9,7
			c0-0.2,0-0.4,0-0.5C5.1,8,5.4,10,5.5,10.3c0,0.1,0.2,0.2,0.2,0C5.6,9.6,5.6,8.9,5.6,8.2c0.1,1.1,0.2,2.1,0.4,3.2
			c0,0.1,0.2,0.2,0.2,0.1c0.5-2.4-0.4-5.3-0.1-7.7c0.2,2.7,0.4,5.5,0.8,8.3c0,0.1,0.2,0.2,0.2,0.1C7,10.5,6.9,8.9,7,7.4
			c0.1,1.5,0.3,3,0.6,4.5c0,0.1,0.2,0.2,0.2,0.1c0-0.3,0-0.6,0-0.9c0.1,0.7,0.3,1.4,0.5,2.1c0,0.1,0.3,0.2,0.2,0
			C8.1,11,7.8,8.8,7.6,6.6c0-0.6,0-1.2,0-1.8c0-0.1,0-0.2,0-0.4c0.1,0.4,0.1,0.9,0.2,1.3C7.9,6.5,8,7.3,8,8.1
			c0.2,1.7,0.3,3.5,0.5,5.2c0,0.1,0.2,0.2,0.2,0.1c0-1.5,0-3.1,0-4.6c0.2,1.9,0.4,3.9,0.7,5.9c0,0.1,0.2,0.2,0.2,0.1
			c-0.2-2.7-0.4-5.3-0.3-7.9c0.1,2.6,0.3,5.3,0.8,8.1c0,0.1,0.3,0.2,0.3,0.1c-0.1-1.5-0.2-2.9-0.2-4.3c0.1,1.7,0.3,3.4,0.6,5.2
			c0,0.1,0.3,0.2,0.3,0.1l-0.1-5.4c0.1,1.7,0.3,3.5,0.4,5.2c0,0.1,0.3,0.3,0.3,0.1c0-2,0-4,0-6.1c0.2,2.4,0.3,4.7,0.5,7.1
			c0,0.2,0.3,0.3,0.3,0.1c0-1.6,0-3.1,0-4.7c0.1,1.7,0.4,3.4,0.6,5.1c0,0.1,0.3,0.2,0.3,0.1c0-1.5,0-3,0-4.4
			c0.1,1.8,0.2,3.7,0.5,5.7c0,0.2,0.3,0.2,0.3,0.1c0.1-1,0.1-2.1,0.2-3.2c0.1,1.4,0.2,2.9,0.3,4.3c0,0.2,0.3,0.3,0.3,0.1
			c0.1-2.1,0.1-4.1,0.2-6.2c0.1,2.1,0.3,4.3,0.4,6.4c0,0.2,0.3,0.3,0.3,0.1c0.1-0.8,0.2-1.7,0.2-2.5c0,0.9,0.1,1.8,0.2,2.7
			c0,0.2,0.3,0.3,0.3,0.1c0.1-0.8,0.2-1.6,0.3-2.4c0,1.1,0,2.2,0.1,3.3c0,0.2,0.3,0.3,0.3,0.1c0.3-1.8,0.5-3.7,0.6-5.6
			c0.1,2,0.2,4.1,0.2,6.1c0,0.2,0.3,0.3,0.3,0.1c0.1-2.2,0.2-4.3,0.4-6.4c-0.1,2.7-0.1,5.5-0.2,8.2C12.5,18.4,6.8,12.4,1,6.4
			C2,5.6,2.9,4.7,3.8,3.8c1-0.9,2.1-1.8,2.9-2.9c0,0,0-0.1,0-0.1c0.1,0,0.1-0.1,0.2-0.1c3.3,3.4,6.8,6.7,10.1,10.1
			c3.5,3.5,6.9,7,10.4,10.6c6.5,6.7,13.1,13.4,20,19.7c-1.1,1.1-1.9,2.4-2.8,3.6c-0.7,1-1.4,1.9-2.1,3C38.4,43.7,34.4,39.9,30.3,36z
			 M7.4,10.1c-0.1-1.3-0.3-3-0.3-3.2C7.1,6,7.1,5,7.1,4.1c0-0.1,0-0.2,0-0.3C7.3,5.4,7.3,7,7.4,8.6C7.4,9.1,7.4,9.7,7.4,10.1z
			 M7.7,9.1c0.1,0.6,0.2,1.3,0.2,1.9C7.8,10.4,7.7,9.7,7.7,9.1z M42.7,47.9c0.3-0.3,0.5-0.7,0.7-1c0,0,0.1,0,0.1,0
			c0.3-0.3,0.6-0.6,0.9-0.9c-0.1,0.1-0.2,0.3-0.3,0.4C43.6,46.9,43.2,47.4,42.7,47.9L42.7,47.9z"/>
	</g>
</g>
<g>
	<g>
		<path fill="#F2F2F2" d="M48.5,5.8c-1-1-2.1-2-3.2-2.8c0,0-0.1-0.1-0.1-0.1c-1-0.8-1.9-1.6-2.9-2.4c0,0,0.1-0.1,0.1-0.1
			c0.2-0.2,0-0.4-0.2-0.2c-0.1,0.1-0.1,0.1-0.2,0.2c-0.1,0-0.2,0.2-0.2,0.3c0,0-0.1,0.1-0.1,0.1c0,0,0,0,0,0c0.1-0.2,0-0.3-0.2-0.2
			c0,0-0.1,0-0.1-0.1c-0.1-0.1-0.2,0.1-0.1,0.1c0,0,0,0.1,0.1,0.1c-6.7,7-13.5,13.9-20.3,20.7C14,28.2,7,34.9,0.1,41.7
			c-0.1,0.1,0,0.3,0.1,0.2c0.7,1.3,1.9,2.3,2.9,3.3c1.1,1,2.1,2.2,3.5,2.8c0,0,0,0,0.1,0c0,0,0.1,0.1,0.1,0.1c0,0,0.1,0,0.1,0
			c0,0,0.1,0,0.2,0c7.1-6.6,13.9-13.5,20.8-20.4C34.7,20.8,41.6,14,48.4,7.1c0.2-0.2,0-0.4-0.2-0.2c-4.6,4.7-9.3,9.3-14,13.9
			c4.6-4.8,9.3-9.6,13.9-14.4c0.2,0.1,0.4,0.2,0.7,0.4c0,0,0.1,0,0.1-0.1C49,6.7,49,6.7,49,6.6c0-0.1-0.1-0.1-0.1-0.2
			c0-0.1,0-0.1,0-0.2C48.8,6.1,48.7,6,48.5,5.8C48.5,5.8,48.5,5.8,48.5,5.8z M5.2,46.6c-0.4-0.3-0.8-0.7-1.2-1
			c0.3,0.2,0.5,0.4,0.8,0.6C5,46.3,5.1,46.4,5.2,46.6z M41.9,0.8C42,0.8,42.1,0.9,42.2,1c0,0,0,0.1,0,0.1c0,0,0,0,0,0
			C42.1,1,41.9,0.9,41.9,0.8C41.8,0.8,41.9,0.8,41.9,0.8z M43.5,2.3c0.7,0.6,1.4,1.2,2,1.8C45.3,4,45.2,3.8,45,3.7
			c-0.8-0.6-1.5-1.2-2.2-1.8C43,2,43.2,2.2,43.5,2.3z M41.1,1.1C41.1,1.1,41.1,1.2,41.1,1.1c-6.1,6.7-12.6,13.1-19,19.4
			C28.4,14.1,34.8,7.7,41.1,1.1z M0.6,41.5c1.1-1,2.1-2,3.2-3c-1,1-2,2.1-3,3.2C0.8,41.6,0.7,41.6,0.6,41.5z M6.9,47.9
			C6.9,47.9,6.9,47.9,6.9,47.9C6.9,47.9,6.9,47.9,6.9,47.9L6.9,47.9c0.3-0.4,0.7-0.8,1.2-1.2C7.7,47.1,7.3,47.5,6.9,47.9z
			 M27.8,27.1c-1,1-2,2.1-3.1,3.1c0,0,0,0-0.1-0.1c-1.4-0.1-2.8-0.3-4.3-0.4c1.2,0,2.4,0,3.6,0c0.2,0,0.3-0.3,0.1-0.3
			c-1.6-0.1-3.3-0.2-4.9-0.4c2.1,0,4.3,0,6.5-0.2c0.2,0,0.3-0.3,0.1-0.3c-1.9-0.2-3.8-0.4-5.6-0.6c1.8,0,3.6,0.1,5.4,0.1
			c0.2,0,0.3-0.3,0.1-0.3c-1.4-0.2-2.9-0.4-4.3-0.6c2,0.1,4.1,0,6.3-0.2c0.2,0,0.2-0.3,0.1-0.3c-2-0.2-4.1-0.4-6.1-0.6
			c2,0,3.9,0.1,5.9,0.1c0.2,0,0.3-0.3,0.1-0.3l-5.4-0.4c2.1-0.1,4.3-0.1,6.4-0.2c0.2,0,0.3-0.3,0.1-0.3l-5.3-0.5
			c2.1,0,4.2-0.1,6.3-0.3c0.2,0,0.2-0.3,0.1-0.3c-2.7,0-5.3-0.1-7.8-0.5c2.7,0,5.5-0.1,8.2-0.1c0.2,0,0.3-0.3,0.1-0.3l-4.8-0.3
			c2.1-0.1,4.2-0.2,6.4-0.3c0.2,0,0.3-0.3,0.1-0.3c-2.5,0-5,0-7.4-0.2c2.4-0.1,4.9-0.1,7.3-0.2c0.2,0,0.3-0.3,0.1-0.3
			c-2-0.1-4-0.3-6-0.4c2.4-0.1,4.9-0.1,7.3-0.2c0.2,0,0.3-0.3,0.1-0.3c-1.8-0.1-3.5-0.2-5.3-0.3l5.6-0.1c0.2,0,0.3-0.3,0.1-0.3
			c-2.3,0-4.6-0.2-6.7-0.6c2.7,0,5.5-0.1,8.3-0.3C33.3,21.5,30.5,24.3,27.8,27.1z M36.3,18.4c-2.5,0.1-4.9,0-7.3-0.1
			c2.4-0.2,4.8-0.4,7.2-0.6c0.2,0,0.3-0.3,0.1-0.3c-2,0.1-4,0.1-6,0c2.1-0.1,4.2-0.1,6.2-0.2c0.2,0,0.3-0.3,0.1-0.3
			c-1.6-0.1-3.3-0.2-4.9-0.3l5.6-0.2c0.2,0,0.3-0.3,0.1-0.3c-2.1,0-4.1-0.1-6-0.3c2.2-0.1,4.4-0.2,6.7-0.5c0.2,0,0.3-0.3,0.1-0.3
			c-1.9,0-3.8-0.1-5.6-0.2c2.3-0.1,4.6-0.1,7-0.2c0.2,0,0.3-0.3,0.1-0.3c-1.8-0.1-3.7-0.2-5.5-0.4c1.9-0.1,3.8-0.1,5.7-0.2
			c0.2,0,0.3-0.3,0.1-0.3c-1.3-0.1-2.5-0.2-3.8-0.3c1.7,0,3.4-0.2,5.2-0.3c0.2,0,0.3-0.3,0.1-0.3c-2.5,0-4.9,0-7.3-0.1
			c2.6-0.3,5.2-0.4,7.8-0.3c0.2,0,0.3-0.3,0.1-0.3c-1.3-0.1-2.5-0.2-3.8-0.3c1.4,0,2.8-0.1,4.3-0.3c0.2,0,0.3-0.3,0.1-0.3
			c-1.1-0.1-2.3-0.2-3.4-0.3l4,0c0.2,0,0.3-0.3,0.2-0.3c-2.1-0.6-4.5-0.7-6.9-0.7c0.2,0,0.4,0,0.6,0c0.8-0.1,1.7-0.1,2.5-0.1
			c1.7-0.1,3.3-0.1,4.9-0.1c0.2,0,0.3-0.3,0.1-0.3c-1.4-0.1-2.8-0.2-4.1-0.4c1.3,0,2.7,0,4,0.1c0.2,0,0.3-0.3,0.1-0.3
			c-1.4-0.1-2.9-0.1-4.3-0.2c1.5,0,3.1,0,4.7-0.1l0,0l0,0c0,0,0,0,0,0c0.2,0,0.2-0.3,0.1-0.3c-0.7-0.1-1.5-0.1-2.2-0.2
			c1,0,2,0,3-0.1c0.2,0,0.3-0.3,0.1-0.3c-1.3-0.3-2.7-0.5-4-0.6c0.3,0,0.6,0,1,0c0.9,0.1,1.9,0.1,2.9,0.1c0.2,0,0.3-0.3,0.1-0.3
			c-0.9,0-1.8-0.1-2.7-0.1c-0.6,0-1.2-0.1-1.7-0.2c0.8,0,1.6,0,2.4-0.1c0.2,0,0.3-0.3,0.2-0.3c-1.1-0.2-2.1-0.5-3.2-0.7c1,0,2,0,3,0
			c0.2,0,0.3-0.3,0.2-0.3c-0.9-0.2-1.8-0.4-2.7-0.6C42,4,42.5,4,42.9,4c0.2,0,0.3-0.3,0.1-0.3c-0.5-0.1-1.1-0.2-1.6-0.4
			c0.2,0,0.3-0.1,0.5-0.1c0.2,0,0.3-0.3,0.1-0.3c-0.2-0.1-0.4-0.2-0.6-0.3c-0.2-0.1-0.4,0.2-0.2,0.3c0.1,0,0.1,0,0.2,0.1
			C41.2,3,41,3.1,40.8,3.1c-0.1,0.1-0.2,0.3-0.1,0.3c0.3,0.1,0.6,0.2,0.9,0.2c-0.5,0-0.9,0-1.4,0.1c-0.2,0-0.3,0.3-0.1,0.3
			c1,0.2,1.9,0.4,2.9,0.6c-1.2,0-2.5,0-3.7-0.1c-0.2,0-0.3,0.3-0.2,0.3c1.3,0.3,2.6,0.6,3.8,0.8c-1.4,0-2.8,0-4.2-0.2
			c-0.2,0-0.3,0.3-0.1,0.3c0.5,0.1,1,0.2,1.5,0.3c-0.8,0-1.7,0-2.5-0.1c-0.2,0-0.3,0.3-0.1,0.3c2.4,0.2,4.8,0.4,7.1,0.8
			c-2.4,0.1-4.7,0-7-0.1c-0.2,0-0.3,0.3-0.1,0.3c1.9,0.2,3.8,0.3,5.8,0.5c-2.3,0.1-4.5-0.1-6.7-0.2c-0.2,0-0.3,0.3-0.1,0.3
			c0.7,0.1,1.5,0.2,2.2,0.3c-0.7,0-1.4,0-2.1,0c-0.2,0-0.3,0.3-0.1,0.3c1.8,0.2,3.6,0.3,5.4,0.5c-2.2,0.1-4.4,0.2-6.6,0.4
			c-0.1,0-0.2,0.2-0.1,0.2c0.2,0,0.3,0,0.5,0c-0.1,0.1-0.1,0.2,0,0.2c2.1,0,4.1,0,6.1,0.3c-2.2,0-4.5,0-6.7,0
			c-0.2,0-0.3,0.3-0.1,0.3c2,0.2,4,0.3,6,0.5c-2.4,0.2-4.6,0.1-6.9,0c-0.2,0-0.3,0.3-0.1,0.3c1.7,0.2,3.4,0.3,5.1,0.5
			c-2.1,0.1-4.3,0.2-6.5,0.5c-0.2,0-0.3,0.3-0.1,0.3c1.6,0.2,3.3,0.2,4.9,0.3c-1.7,0.1-3.5,0.1-5.2,0c-0.2,0-0.3,0.3-0.1,0.3
			c1.6,0.1,3.2,0.3,4.8,0.4c-1.9,0.1-3.9,0.1-5.8,0.2c-0.2,0-0.3,0.3-0.1,0.3c1.8,0.1,3.7,0.2,5.5,0.4c-2.1,0.1-4.2,0.1-6.3,0.2
			c-0.2,0-0.3,0.3-0.1,0.3c1.8,0.2,3.7,0.3,5.6,0.4c-2.1,0.2-4.2,0.2-6.2,0.3c-0.2,0-0.3,0.3-0.1,0.3c1.3,0.2,2.7,0.3,4.1,0.4
			c-1.4,0.1-2.9,0.1-4.3,0.2c-0.2,0-0.3,0.3-0.1,0.3c1.5,0.1,3,0.2,4.6,0.3c-2,0.1-4,0.1-5.9,0.2c-0.2,0-0.3,0.3-0.1,0.3
			c1.6,0.2,3.1,0.3,4.8,0.3c-1.6,0.1-3.3,0.3-4.9,0.4c-0.2,0-0.3,0.3-0.1,0.3c1.5,0.1,3,0.2,4.5,0.3c-1.9,0.1-3.7,0.1-5.6,0
			c-0.1,0-0.3,0.3-0.2,0.3c0,0,0,0,0,0l0,0l0,0c1.6,0.3,3.2,0.6,4.9,0.8c-1.9,0.1-3.8,0.1-5.7,0.2c-0.2,0-0.3,0.3-0.1,0.3
			c1.8,0.1,3.6,0.2,5.4,0.3c-2.2,0.1-4.5,0.1-6.7,0.2c-0.2,0-0.3,0.3-0.1,0.3c2,0.1,3.9,0.3,5.9,0.4c-2.1,0-4.2,0.1-6.3,0.1
			c-0.2,0-0.3,0.3-0.1,0.3c1.5,0.2,3,0.3,4.6,0.4c-1.8,0.1-3.6,0.1-5.4,0.1c-0.2,0-0.3,0.3-0.1,0.3c1.6,0.1,3.1,0.2,4.7,0.3
			c-1.9,0-3.8,0.1-5.7,0.1c-0.1,0-0.3,0.3-0.2,0.3c0,0,0,0,0,0l0,0l0,0c2,0.5,4.2,0.6,6.4,0.7c-2.5,0.1-4.9,0.1-7.4,0
			c-0.2,0-0.3,0.3-0.1,0.3c2.2,0.2,4.3,0.4,6.5,0.6c-2.2,0.1-4.4,0.1-6.6,0.2c-0.2,0-0.3,0.3-0.1,0.3l3.4,0.3
			c-1.6,0-3.1-0.1-4.7-0.1c-0.2,0-0.3,0.3-0.1,0.3c2.7,0.3,5.5,0.6,8.2,0.8c-2.9,0.2-5.6,0.1-8.2-0.2c-0.2,0-0.3,0.3-0.1,0.3
			c1.7,0.3,3.5,0.6,5.3,0.9c-2.1,0-4.2-0.1-6.3-0.1c-0.2,0-0.3,0.3-0.1,0.3c2.5,0.2,4.9,0.5,7.4,0.7c-2.8,0.2-5.5,0.1-8.2,0
			c-0.2,0-0.3,0.3-0.1,0.3c1.7,0.2,3.4,0.4,5.2,0.5c-2.2,0-4.4-0.1-6.5-0.3c-0.2,0-0.3,0.3-0.1,0.3c2.1,0.2,4.1,0.4,6.2,0.6
			c-2.2-0.1-4.4-0.1-6.6-0.2c-0.2,0-0.3,0.3-0.1,0.3c1.8,0.3,3.8,0.5,5.7,0.6c-2.1,0.1-4.3,0.2-6.4,0.3c-0.2,0-0.3,0.3-0.1,0.3
			c2.6,0,5.1,0.2,7.5,0.5c-2,0.1-4,0.1-5.9,0c-0.8-0.1-1.6-0.1-2.4-0.1c-0.2,0-0.3,0.3-0.1,0.3c0.8,0.1,1.6,0.1,2.4,0.1
			c1.7,0.1,3.3,0.3,5,0.4c-1.5,0.1-3,0.2-4.5,0.1c-1.3-0.1-2.5-0.1-3.8-0.1c-0.2,0-0.3,0.3-0.1,0.3c1.3,0.1,2.5,0.1,3.8,0.1
			c1.4,0.1,2.8,0.2,4.2,0.3c-2.8,0.2-5.6,0.4-8.4,0.5c-0.2,0-0.3,0.3-0.1,0.3c2.4,0.1,4.7,0.1,7.1,0.2c-2.3,0.2-4.7,0.3-7,0.5
			c-0.2,0-0.3,0.3-0.1,0.3c2.5-0.2,5-0.2,7.3,0c-3.2,0.4-6.2,0.4-9.1,0.4c-0.2,0-0.3,0.3-0.1,0.3c2.4,0.2,4.9,0.3,7.4,0.2
			c-2.9,0.4-5.7,0.6-8.5,0.6c-0.2,0-0.3,0.3-0.1,0.3l6.4,0c-2.4,0.2-4.8,0.3-7.3,0.5c-0.1,0-0.3,0.3-0.1,0.3l6.7,0L6.7,38
			c-0.1,0-0.3,0.3-0.1,0.3l7.4-0.2c-2.9,0.3-5.8,0.5-8.6,0.5c-0.1,0-0.3,0.2-0.1,0.3c2.2,0.1,4.4,0.1,6.6,0
			c-2.5,0.3-4.9,0.4-7.3,0.4c-0.1,0-0.2,0.2-0.1,0.2c2.2,0.3,4.6,0.3,7,0.1c-2.5,0.3-5,0.5-7.5,0.5c-0.1,0-0.2,0.2-0.1,0.2
			c2.4,0,4.7,0,7.1,0c-2.8,0.2-5.5,0.5-8.3,0.7c-0.1,0-0.2,0.2-0.1,0.2c0.2,0,1.1,0,2.3,0.1c-0.9,0.1-1.7,0.1-2.6,0.2
			c-0.1,0-0.2,0.2-0.1,0.2c0.1,0,0.2,0,0.3,0c0,0,0,0.1,0.1,0.1c0.5,0,0.9,0.1,1.4,0.1C5.7,42,7.4,42,9.1,42c-2,0.2-4,0.4-5.9,0.5
			c-0.1,0-0.2,0.2-0.1,0.2c2.4,0.7,5.4-0.3,7.9,0C8.6,43,6.3,43.1,4.1,43C4,43,3.9,43.2,4,43.2c0.1,0,0.2,0,0.3,0c0,0,0.2,0,0.3,0
			c0.7,0.1,1.4,0.1,2.2,0.1c0.3,0,0.7,0,1.1,0.1c-1.2,0.1-2.3,0.2-3.5,0.3c-0.1,0-0.2,0.2-0.1,0.2c0.1,0,0.3,0,0.4,0
			c0.1,0,0.2,0,0.4,0c0.6,0,1.1,0,1.7,0c0.5,0,1,0,1.6,0c-0.1,0-0.3,0.1-0.4,0.1c-1,0.1-1.9,0.2-2.8,0.2c-0.1,0-0.2,0.2-0.1,0.2
			c0.8,0.1,1.6,0.2,2.4,0.1c-0.6,0.1-1.1,0.2-1.6,0.3c-0.1,0-0.1,0.1-0.1,0.2c0.1,0,0.8,0.1,1.4,0.1c-0.4,0.1-0.7,0.2-0.8,0.2
			c-0.1,0-0.1,0.2-0.1,0.2c0.3,0,1.2-0.1,1.3,0c0,0-0.1,0-0.2,0c-0.1-0.1-0.2-0.1-0.4,0c0,0,0,0,0,0c-0.2,0-0.4,0.1-0.5,0.1
			c-0.1,0-0.1,0.1-0.1,0.1c0.1,0,0.2,0,0.3,0.1c0,0.1,0,0.1,0,0.2l-0.2,0c-0.1,0-0.1,0.1,0,0.1c0.1,0,0.2,0,0.3,0
			c0.1,0.1,0.2,0.2,0.3,0.2c0.1,0,0.1-0.1,0-0.1c0,0,0,0,0-0.1c0.1,0,0.2,0,0.3,0c0,0,0.1,0,0.1,0c0-0.1,0.1-0.1,0.1-0.2
			c0.1,0,0.2,0,0.2,0c0.1,0,0.1-0.1,0-0.1c0,0-0.1,0-0.2,0c0-0.1,0-0.1,0-0.2C7.8,45.6,8,45.6,8,45.6c0.1,0,0.1-0.1,0-0.1
			c-0.2,0-1.3,0-1.3,0c0,0,1.8-0.2,1.8-0.2c0.1,0,0.2-0.2,0.1-0.2c-0.5,0-0.9,0-1.4,0c-0.1,0-0.4,0-0.7,0c0.3,0,0.8-0.2,1-0.2
			c0.5-0.1,0.9-0.2,1.4-0.3c0.1,0,0.1-0.2,0-0.2c-0.8,0.1-1.6,0.2-2.3,0.2c-0.2,0-0.3,0-0.5,0c1.3-0.1,2.6-0.3,3.9-0.6
			c0.1,0,0.2-0.2,0.1-0.2c-1,0.1-2,0.1-2.9,0.1c-0.2,0-0.4,0-0.5,0c1.6-0.2,3.6-0.5,3.8-0.6c0.1,0,0.2-0.2,0-0.2
			c-0.7,0.1-1.4,0.1-2.1,0.1c1.1-0.1,2.1-0.2,3.2-0.4c0.1,0,0.2-0.2,0.1-0.2c-2.4-0.5-5.3,0.4-7.7,0.1c2.7-0.2,5.5-0.4,8.3-0.8
			c0.1,0,0.2-0.2,0.1-0.2c-1.6,0.1-3.2,0.2-4.8,0.2c1.5-0.1,3-0.3,4.5-0.6c0.1,0,0.2-0.2,0.1-0.2c-0.3,0-0.6,0-0.9,0
			c0.7-0.1,1.4-0.3,2.1-0.5c0.1,0,0.2-0.3,0-0.2c-2.2,0.3-4.4,0.6-6.6,0.8c-0.6,0-1.2,0-1.8,0c-0.1,0-0.2,0-0.4,0
			c0.4-0.1,0.9-0.1,1.3-0.2c0.8-0.1,1.6-0.1,2.4-0.2c1.7-0.2,3.5-0.3,5.2-0.5c0.1,0,0.2-0.2,0.1-0.2c-1.5,0-3.1,0-4.6,0
			c1.9-0.2,3.9-0.4,5.9-0.7c0.1,0,0.2-0.2,0.1-0.2c-2.7,0.2-5.3,0.4-7.9,0.3c2.6-0.1,5.3-0.3,8.1-0.8c0.1,0,0.2-0.3,0.1-0.3
			c-1.5,0.1-2.9,0.2-4.3,0.2c1.7-0.1,3.4-0.3,5.2-0.6c0.1,0,0.2-0.3,0.1-0.3l-5.4,0.1c1.7-0.1,3.5-0.3,5.2-0.4
			c0.1,0,0.3-0.3,0.1-0.3c-2,0-4,0-6.1,0c2.4-0.2,4.7-0.3,7.1-0.5c0.2,0,0.3-0.3,0.1-0.3c-1.6,0-3.1,0-4.7,0
			c1.7-0.1,3.4-0.4,5.1-0.6c0.1,0,0.2-0.3,0.1-0.3c-1.5,0-3,0-4.4,0c1.8-0.1,3.7-0.2,5.7-0.5c0.2,0,0.2-0.3,0.1-0.3
			c-1-0.1-2.1-0.1-3.2-0.2c1.4-0.1,2.9-0.2,4.3-0.3c0.2,0,0.3-0.3,0.1-0.3c-2.1-0.1-4.1-0.1-6.2-0.2c2.1-0.1,4.3-0.3,6.4-0.4
			c0.2,0,0.3-0.3,0.1-0.3c-0.8-0.1-1.7-0.2-2.5-0.2c0.9,0,1.8-0.1,2.7-0.2c0.2,0,0.3-0.3,0.1-0.3c-0.8-0.1-1.6-0.2-2.4-0.3
			c1.1,0,2.2,0,3.3-0.1c0.2,0,0.3-0.3,0.1-0.3c-1.8-0.3-3.7-0.5-5.6-0.6c2-0.1,4.1-0.2,6.1-0.2c0.2,0,0.3-0.3,0.1-0.3
			c-2.2-0.1-4.3-0.2-6.4-0.4c2.7,0.1,5.5,0.1,8.2,0.2C18.6,36.3,12.7,42,6.7,47.7c-0.8-0.9-1.7-1.8-2.6-2.7c-0.9-1-1.8-2.1-2.9-2.9
			c0,0-0.1,0-0.1,0C1,42,1,41.9,1,41.9c3.4-3.3,6.7-6.8,10.1-10.1c3.5-3.5,7-6.9,10.6-10.4c6.7-6.5,13.4-13.1,19.7-20
			c1.1,1.1,2.4,1.9,3.6,2.8c1,0.7,1.9,1.4,3,2.1C44,10.3,40.2,14.4,36.3,18.4z M10.4,41.3c-1.3,0.1-3,0.3-3.2,0.3
			c-1,0.1-1.9,0.1-2.9,0c-0.1,0-0.2,0-0.3,0c1.6-0.2,3.2-0.2,4.8-0.3C9.4,41.3,10,41.3,10.4,41.3z M9.4,41.1
			c0.6-0.1,1.3-0.2,1.9-0.2C10.7,40.9,10,41,9.4,41.1z M48.1,6c-0.3-0.3-0.7-0.5-1-0.7c0,0,0-0.1,0-0.1c-0.3-0.3-0.6-0.6-0.9-0.9
			c0.1,0.1,0.3,0.2,0.4,0.3C47.2,5.1,47.7,5.5,48.1,6L48.1,6z"/>
	</g>
</g>
</svg>
