<?xml version="1.0" encoding="utf-8"?>
<!-- Generator: Adobe Illustrator 18.1.1, SVG Export Plug-In . SVG Version: 6.00 Build 0)  -->
<svg version="1.1" id="Camada_1" xmlns="http://www.w3.org/2000/svg" xmlns:xlink="http://www.w3.org/1999/xlink" x="0px" y="0px"
	 viewBox="0 0 231 150" enable-background="new 0 0 231 150" xml:space="preserve">
<g>
	<g>
		<path fill="#FFFFFF" d="M88.5,72c-2.5,5.9-6.8,9.3-13.1,9.8c-6.3,0.5-11-2.3-14.5-7.6c0,0.3,0,0.5,0,0.6c0,1.9,0,3.7,0,5.6
			c0,0.4-0.1,0.7-0.6,0.8c-3.6,0.9-7.2,1.1-10.7-0.2c-3.6-1.3-5.9-3.9-7.5-7.2c-2-4.3-2.3-8.7-0.2-13c1.4-2.9,3.5-5.3,6.3-6.9
			c3.1-1.7,6.5-2.1,10-1.4c0.2,0.1,0.4,0.1,0.4,0.4c0,2.5,0,5.1,0,7.6c0,0,0,0.1,0,0.1c-0.9,0-1.8-0.1-2.7-0.1
			c-4.7,0.1-6.4,3.7-6.1,7.2c0.2,2.5,1.5,4.4,3.9,5.4c1.5,0.7,3.1,0.7,4.8,0.4c0.6-0.1,1.2-0.3,1.9-0.4c-1.9-4.7-1.8-9.2,0.6-13.6
			c2-3.6,5-5.9,8.9-7.2c7.1-2.3,15.4,1.1,18.6,9.1c0-0.2,0-0.3,0-0.5c0-2.5,0-5,0-7.4c0-0.4,0.1-0.6,0.5-0.7c2.3-0.4,4.5-1,6.8-1.2
			c3-0.3,6-0.1,8.8,1.1c2.9,1.2,4.4,3.8,4,6.9c-0.2,1.8-1,3.3-2.6,4.2c-0.1,0-0.1,0.1-0.2,0.2c0.2,0.1,0.4,0.2,0.6,0.2
			c2.3,0.7,3.3,2.4,3.4,4.7c0.1,1.7,0,3.4,0,5.2c0,2.1,0,4.3,0,6.4c0,0.4-0.1,0.6-0.6,0.6c-2.6,0-5.1,0-7.7,0c-0.2,0-0.3,0-0.6,0
			c0-0.2,0-0.4,0-0.6c0-2.8,0-5.6,0-8.5c0-0.6-0.1-1.3-0.3-1.9c-0.2-0.8-0.7-1.2-1.5-1.2c-0.3,0-0.4-0.1-0.4-0.4c0-2.2,0-4.4,0-6.6
			c0-0.3,0-0.4,0.3-0.5c0.5-0.2,0.8-0.7,0.8-1.3c0-0.5-0.3-0.9-0.9-1c-0.5-0.1-0.9-0.1-1.4-0.1c-0.1,0-0.3,0.2-0.3,0.3
			c-0.1,0.2,0,0.4,0,0.6c0,6.9,0,13.7,0,20.6c0,0.7,0,0.7-0.7,0.7c-2.5,0-5.1,0-7.6,0c-0.5,0-0.6-0.1-0.6-0.6c0-2.6,0-5.2,0-7.8
			C88.5,72.4,88.5,72.3,88.5,72z M80.6,66.9c0-1.7-0.5-3.2-1.6-4.5c-1.5-1.8-4.1-2.8-6.2-2.1c-2.6,0.8-4.3,2.5-4.8,5.1
			c-0.6,2.9,0.5,5.2,2.8,6.8c1.7,1.2,3.6,1.5,5.5,0.8C79.1,72.1,80.6,69.7,80.6,66.9z"/>
		<path fill="#FFFFFF" d="M160.5,70.3c0,3.3,0,6.6,0,9.9c0,0.7,0,0.7-0.7,0.7c-2.5,0-5,0-7.5,0c-0.2,0-0.4,0-0.6,0
			c0-0.2,0-0.4,0-0.6c0-9.3,0-18.6,0-27.9c0-0.7,0-0.7,0.7-0.7c2.5,0,5.1,0,7.6,0c0.5,0,0.6,0.1,0.6,0.6c0,3.7,0,7.4,0,11.2
			c1.1-4.3,3.6-7.6,7.4-9.8c3.8-2.2,7.9-2.7,12.1-1.3c6.6,2.2,10.8,8.5,10.4,15.4c-0.5,7-5.4,12.6-12.2,13.9c-4,0.8-7.7,0-11.1-2.2
			C163.7,77.3,161.5,74.2,160.5,70.3z M169,66.8c0,3.4,2.5,6.2,5.8,6.6c2.8,0.4,5.6-1.4,6.5-4c0.8-2.3,0.5-4.4-0.8-6.4
			c-1.3-2-4-3.1-6.3-2.7C171.3,60.9,169,63.7,169,66.8z"/>
		<path fill="#FFFFFF" d="M133.4,98.3c-0.2,0-0.4,0-0.6,0c-3,0-6,0-9,0c-0.5,0-0.6-0.1-0.6-0.6c0.1-3.3,0.1-6.7,0.2-10
			c0.1-5.2,0.2-10.4,0.3-15.6c0-0.3,0-0.6,0-0.9c-0.1-1.6-0.6-2.2-2.2-2.5c0-0.2,0-0.3,0-0.5c0-2.1,0-4.3,0-6.4c0-0.3,0-0.5,0.4-0.6
			c0.5-0.2,0.7-0.7,0.7-1.2c0-0.5-0.2-0.9-0.7-1c-0.6-0.2-1.2-0.2-1.9-0.3c0,0.3,0,0.5,0,0.7c0,7,0,13.9,0,20.9c0,0.7,0,0.7-0.7,0.7
			c-2.5,0-5.1,0-7.6,0c-0.4,0-0.6-0.1-0.6-0.5c0-9,0-18,0-27c0-0.3,0-0.5,0.3-0.6c2.4-0.4,4.7-1,7.1-1.2c3-0.3,6,0,8.8,1.1
			c3.8,1.5,4.6,5.2,3.8,8c-0.3,1.1-0.9,2.2-2.6,3.2c0.2,0.1,0.4,0.2,0.6,0.3c2.3,0.7,3.3,2.4,3.4,4.7c0.1,3.3,0.2,6.7,0.3,10
			c0.2,6.2,0.4,12.4,0.6,18.6C133.4,97.8,133.4,98,133.4,98.3z"/>
		<path fill="#FFFFFF" d="M148.8,51.8c0,2.7,0,5.4,0,8.1c-2,0-4,0-6,0c0,0.6,0,1.2,0,1.8c1.5,0,2.9,0,4.4,0c0,0.2,0,0.3,0,0.5
			c0,2,0,3.9,0,5.9c0,0.4-0.1,0.6-0.5,0.5c-1.1,0-2.2,0-3.3,0c-0.2,0-0.4,0-0.6,0c0,1.5,0,2.8,0,4.3c0.2,0,0.4,0,0.6,0
			c2.3,0,4.5,0,6.8,0c0.5,0,0.6,0.2,0.6,0.6c0,2.3,0,4.7,0,7c0,0.2,0,0.3,0,0.6c-0.2,0-0.4,0-0.6,0c-5.2,0-10.4,0-15.6,0
			c-0.5,0-0.6-0.1-0.6-0.7c0-9.3,0-18.6,0-28c0-0.5,0.2-0.6,0.7-0.6c4.6,0,9.1,0,13.7,0C148.4,51.8,148.6,51.8,148.8,51.8z"/>
		<path fill="#FFFFFF" d="M145.2,98.3c0-1.6,0-3,0-4.5c0-0.9,0-1.8,0-2.7c0-0.8-0.6-1.3-1.4-0.9c-0.1,0-0.2,0.3-0.2,0.5
			c0,1.9,0,3.8,0,5.7c0,0.5,0,1.1,0,1.6c0,0.3-0.1,0.4-0.4,0.4c-1,0-2,0-3,0c-0.4,0-0.5-0.1-0.5-0.5c0-2.3,0-4.5,0-6.8
			c0-0.8-0.6-1.2-1.4-0.9c-0.1,0.1-0.2,0.3-0.2,0.5c0,2.3,0,4.6,0,6.9c0,0.8,0.1,0.7-0.8,0.7c-1,0-2,0-3.1,0c0-0.2,0-0.4,0-0.5
			c0-3.3,0-6.6,0-10c0-0.4,0.1-0.6,0.5-0.7c1.5-0.5,2.9-0.9,4.5-0.8c0.8,0,1.6,0.2,2.2,0.7c0.1,0.1,0.4,0.1,0.6,0
			c1.2-0.5,2.4-0.8,3.7-0.8c1.8,0.1,3,1.1,3.3,2.9c0.1,0.4,0.1,0.7,0.1,1.1c0,2.5,0,5,0,7.5c0,0.5-0.1,0.6-0.6,0.6
			C147.5,98.3,146.4,98.3,145.2,98.3z"/>
		<path fill="#FFFFFF" d="M107.3,90.1c-0.8,0-1.5,0.1-1.9,0.8c-0.4,0.8-0.3,1.6-0.1,2.4c0.3,1.1,1.2,1.6,2.7,1.2c0-3.8,0-7.7,0-11.6
			c0.1,0,0.3-0.1,0.4-0.1c1,0,2.1,0,3.1,0c0.3,0,0.4,0.1,0.4,0.4c0,4.6,0,9.3,0,13.9c0,0.2-0.2,0.4-0.3,0.5c-1.8,0.7-3.7,1-5.7,0.7
			c-2.5-0.3-4.2-2-4.6-4.5c-0.3-1.7-0.1-3.3,0.7-4.9c0.9-1.8,2.9-2.9,4.9-2.6c0.2,0,0.4,0.1,0.4,0.4
			C107.3,87.8,107.3,88.9,107.3,90.1z"/>
		<path fill="#FFFFFF" d="M174.2,86.4c0.9,0,1.6-0.2,2.4-0.1c2,0.2,3.1,1.3,3.2,3.3c0.1,1.4,0,2.8,0,4.2c0,1.3,0,2.7,0,4
			c0,0.4-0.1,0.5-0.5,0.5c-0.9,0-1.8,0-2.7,0c-0.5,0-0.7-0.1-0.7-0.6c0-2.1,0-4.2,0-6.3c0-0.1,0-0.2,0-0.3c0-1-0.5-1.4-1.5-1.1
			c-0.1,0-0.3,0.3-0.3,0.5c0,2.1,0,4.1,0,6.2c0,0.4,0,0.8,0,1.2c0,0.3-0.1,0.4-0.4,0.4c-1.1,0-2.1,0-3.2,0c-0.3,0-0.4-0.1-0.4-0.4
			c0,0,0-0.1,0-0.1c0-4.9,0-9.7,0-14.6c0-0.4,0.1-0.5,0.5-0.5c1,0,2,0,3,0c0.4,0,0.5,0.1,0.5,0.5C174.2,84.3,174.2,85.4,174.2,86.4z
			"/>
		<path fill="#FFFFFF" d="M169.6,98.3c-0.2,0-0.3,0-0.5,0c-1,0-1.9,0-2.9,0c-0.4,0-0.5-0.1-0.5-0.5c0-2.1,0-4.2,0-6.3
			c0-0.3,0-0.6,0-0.9c0-0.5-0.3-0.6-0.7-0.7c-0.9,0-1,0-1,0.9c0,2.2,0,4.5,0,6.7c0,0.2,0,0.4,0,0.7c-1.2,0-2.4,0-3.6,0
			c-0.1,0-0.2-0.2-0.2-0.3c0-0.3,0-0.6,0-0.9c0-3.1,0-6.1,0-9.2c0-0.5,0.2-0.7,0.6-0.8c1.6-0.5,3.2-1.1,5-0.9
			c0.8,0.1,1.6,0.3,2.3,0.5c0.8,0.3,1.3,1,1.5,1.8c0.1,0.4,0.2,0.9,0.2,1.3c0,2.7,0,5.4,0,8C169.6,98,169.6,98.1,169.6,98.3z"/>
		<path fill="#FFFFFF" d="M152.2,89.8c0-1,0-2,0-2.9c0-0.1,0.1-0.3,0.3-0.3c1.7-0.3,3.4-0.5,5.1,0.1c1,0.4,1.6,1.1,1.8,2.1
			c0.1,0.6,0.2,1.2,0.2,1.8c0,2.2,0,4.4,0,6.6c0,0.4-0.1,0.5-0.4,0.7c-1.5,0.6-3,0.6-4.5,0.5c-0.5,0-1,0-1.5-0.1
			c-2.4-0.1-4.1-2.1-3.7-4.5c0.5-2.9,2.8-3.9,5.4-3.4c0.1,0,0.3,0.2,0.3,0.3c0,0.9,0,1.8,0,2.7c-0.4,0-0.8,0-1.1,0.1
			c-0.2,0.1-0.6,0.3-0.6,0.5c-0.1,0.4,0.3,0.6,0.6,0.6c0.5,0.1,0.9,0.1,1.4,0c0.1,0,0.3-0.2,0.3-0.4c0-1.2,0-2.4,0-3.6
			c0-0.7-0.3-0.9-1-1C153.8,89.8,153,89.8,152.2,89.8z"/>
		<path fill="#FFFFFF" d="M185.7,93.4c-0.6,0.1-1,0.1-1.4,0.3c-0.5,0.2-0.5,0.6-0.1,0.9c0.6,0.4,1.3,0.3,2,0.2
			c0.1,0,0.2-0.2,0.2-0.3c0-1.2,0-2.4,0-3.6c0-0.6-0.3-0.9-1-0.9c-0.8,0-1.6,0-2.4,0c0-0.1,0-0.3,0-0.4c0-0.7,0-1.5,0-2.2
			c0-0.5,0.2-0.6,0.6-0.7c1.3-0.2,2.7-0.3,4,0c1.7,0.4,2.5,1.3,2.7,3c0,0.5,0.1,1,0.1,1.6c0,2,0,4,0,6c0,0.5-0.2,0.6-0.6,0.8
			c-1.4,0.5-2.9,0.5-4.4,0.5c-0.5,0-1,0-1.5-0.1c-2.7-0.1-4.5-2.7-3.5-5.3c0.9-2.5,3-3,5.2-2.6c0.1,0,0.3,0.2,0.3,0.3
			C185.7,91.6,185.7,92.5,185.7,93.4z"/>
		<path fill="#FFFFFF" d="M114.9,89.8c0-1,0-2,0-3c0-0.1,0.1-0.3,0.2-0.3c1.7-0.3,3.5-0.5,5.2,0.1c1,0.4,1.5,1.2,1.8,2.2
			c0.1,0.5,0.1,0.9,0.1,1.4c0,2.3,0,4.6,0,6.9c0,0.3-0.1,0.5-0.4,0.6c-0.7,0.2-1.4,0.4-2.2,0.5c-1.4,0.1-2.7,0.1-4.1,0
			c-1.8-0.1-3.3-1.5-3.5-3.3c-0.2-2.2,0.8-4,2.7-4.5c0.8-0.2,1.8-0.1,2.6-0.1c0.1,0,0.3,0.2,0.3,0.3c0,0.9,0,1.8,0,2.7
			c-0.5,0.1-0.9,0.1-1.3,0.2c-0.2,0-0.4,0.3-0.4,0.5c0,0.2,0.2,0.5,0.4,0.6c0.5,0.1,1.1,0.1,1.6,0.1c0.1,0,0.3-0.2,0.3-0.4
			c0-1.2,0-2.4,0-3.6c0-0.6-0.2-0.8-0.8-0.9c-0.5-0.1-1-0.1-1.5-0.1C115.7,89.8,115.3,89.8,114.9,89.8z"/>
		<path fill="#FFFFFF" d="M189.2,83.2c0,0.7,0,1.4,0,2.1c0,0.1-0.2,0.3-0.4,0.4c-0.8,0.3-1.7,0.3-2.5,0c-1.6-0.7-2.2-0.6-3.6-0.2
			c0-0.7,0-1.4,0-2.1c0-0.1,0.2-0.3,0.3-0.3c0.8-0.3,1.6-0.4,2.4-0.1C187.2,83.7,187.4,83.7,189.2,83.2z"/>
	</g>
</g>
</svg>
