<?xml version="1.0" encoding="utf-8"?>
<!-- Generator: Adobe Illustrator 18.1.1, SVG Export Plug-In . SVG Version: 6.00 Build 0)  -->
<svg version="1.1" id="Camada_1" xmlns="http://www.w3.org/2000/svg" xmlns:xlink="http://www.w3.org/1999/xlink" x="0px" y="0px"
	 viewBox="0 0 105.4 100.5" enable-background="new 0 0 105.4 100.5" xml:space="preserve">
<g>
	<path fill="#F2F2F2" d="M101.8,3.2c0.4,0.3,0.7,0.7,1.1,0.9c2.8,1.9,3,2.9,1.9,6c-3.2,8.7-6.5,17.3-9.6,26
		c-2.4,6.7-4.7,13.5-7,20.2c-0.8,2.3-1.7,4.6-2.4,6.9c-0.2,0.7-0.1,1.6,0.2,2.4c2,5.6,4.4,11.1,4.8,17.1c0.1,2,0.2,4.1-0.1,6.1
		c-0.4,2.6-5.5,4.2-7.4,2.4c-0.4-0.4-0.5-1.1-0.7-1.7c-0.5-1.5-0.9-3.1-1.4-4.6c-0.2,0-0.4,0-0.6,0.1c0,1.1,0,2.1,0,3.2
		c0,3.2-1.9,5.1-5.1,5.1c-1.4,0-2-0.5-1.9-2c0.1-2.6,0.1-5.2,0.2-7.8c0-0.1-0.1-0.1-0.2-0.4c-1.9,1-3.9,1.8-4.4,4.4
		c-0.5,2.7-1.5,5.4-2.1,8.1c-0.9,4.2-1.5,4.7-5.7,4.7c-1.6,0-3.2,0-5.4,0c0.8-6.1,1.2-12,2.4-17.7c0.6-2.7,1.1-5.3,1.1-8
		c0.3,1.3,0.5,2.5,0.8,3.8c-0.7,6.8-1.5,13.6-2.2,20.3c1.5,0.1,2.5,0.1,3.5,0.2c2.1,0.2,3.2-0.6,3.7-2.6c0.8-3.2,1.7-6.3,2.5-9.5
		c0.4-1.7,0.8-3.1,2.7-3.8c1.6-0.6,3-1.6,5-2.6c0,4,0,7.4,0,10.7c2.5,0.4,3.2-0.1,3.3-2.2c0-0.8-0.1-1.7,0.1-2.5
		c0.4-1.9,0.1-4.1,2.1-5.4c0.1-0.1,0.2-0.1,0.3-0.1c0.9,2.3,1.9,4.6,2.7,7c0.8,2.3,1.7,2.7,4.1,2c0.4-1,0.8-2,1.2-3
		c-0.3-2.8-0.2-5.8-0.9-8.5c-1.2-4.4-2.9-8.7-4.4-13.1c-0.2-0.7-0.2-1.6,0-2.3c1.1-3.6,2.4-7.1,3.6-10.6c0.7-2,1.4-4,2.1-5.9
		c0.2-0.3,0.5-0.7,0.7-1c1.3-4.1,2.6-8.2,4-12.3c1.4-3.5,3.3-6.9,4.1-10.5c0.7-2.8,3.6-5.5,1.2-8.8c-1.6-0.6-2.6-0.1-2.9,1.7
		c-0.2,1-0.6,2-1,3c-1.3,3.8-2.6,7.6-3.9,11.4c-1.1,3.1-2.3,6.2-3.4,9.4c-1,1.4-2.1,2.8-2.9,4.3c-1,1.9-1.8,4-2.6,6
		c-0.5,1-1.1,2-1.5,3.1c-1.2,3.3-2.2,6.6-3.6,9.8c-0.4,0.9-2,1.8-3.1,1.9c-2.6,0.1-5.3-0.4-7.9-0.5c-1.6,0-3.2,0.3-4.9,0.4
		c-1.8-0.3-3.7-0.5-5.5-0.8c-4.4,0.1-8.9,0.2-13.3,0.5c-2,0.1-4,0.8-6.1,1.2c-0.9,0.1-1.8,0.2-2.7,0.4c-2.1,0.4-4.1,0.8-6.2,1.2
		c-3,0.4-5.9,0.8-8.9,1.2c-5.2,0.8-10.5,0.6-15.3,3.2c4.1-0.5,8.2-1,12.3-1.5c5.4,0.7,10.9,1,16.2-0.7c0.8-0.1,1.6-0.3,2.4-0.4
		c1.8-0.2,3.6-0.3,5.4-0.5c0.8,0,1.7,0,2.5,0c1.1,0,2.2,0,3.6,0c-0.5,1-0.7,1.6-1,2.2c0,1.2-0.1,2.5-0.1,3.7
		c-0.3,0.3-0.6,0.5-0.9,0.8c0-1.6,0-3.2,0-5.1c-6.3,0.6-12.2,1.3-18.1,1.8c-3.1,0.2-6.3,0-9.4,0c-1.4,0-2.9,0.3-4.3,0.5
		c-1.5,0.1-2.9,1.8-4.5,0.1c-0.2-0.2-1.2,0.3-1.8,0.3c-2,0-4.1,0-6.1-0.1C0.1,72,0.1,71.8,0,71.5c0.6-0.4,1.1-1,1.7-1.2
		c3.8-1.2,7.6-2.5,11.5-3.3c7.9-1.5,15.8-2.6,23.7-3.8c7.2-1.1,14.4-1.7,21.8-0.7c3.2,0.4,6.6-0.3,9.8-0.4c1.9-0.1,3.9,0,5.8,0.3
		c1.1,0.2,1.7-0.2,2.1-1.1c0.8-1.9,1.9-3.7,2.2-5.7c1-5.7,3.5-10.6,6.8-15.2c0.9-1.3,1.6-2.8,2.1-4.3c2.5-7,4.9-14,7.3-21
		c0.1-0.4,0.2-0.8,0.4-1.4c-2.5-0.4-4.9-0.5-7.2-1.2c-2.9-0.8-4.8-3-6.4-5.5c-0.2-0.3,0.3-1.2,0.7-1.5c3.5-2.6,7.3-4.7,12-4.4
		c2.4-0.1,4.7-0.1,6.4,2C100.8,3.3,101.4,3.2,101.8,3.2z M90.5,11.2c2.1,0.1,4.3,1.2,6.4-0.3c0.2-0.1,0.8,0.4,1.2,0.6
		c0.4,0.2,0.9,0.6,1.3,0.7c2.4,0.3,4.1-2.1,3.6-5.1c-1.3-1-2.6-2-4-2.8c-3.2-1.8-6.6-1.8-10-0.4c-1.1,0.5-2.3,0.9-3.3,1.6
		c-0.6,0.4-1.4,1.2-1.3,1.6C84.7,8.5,88.8,11.2,90.5,11.2z"/>
	<path fill="#F2F2F2" d="M44.4,74.8c0.3-0.3,0.6-0.5,0.9-0.8c0.2,0.3,0.3,0.6,0.5,0.8c-0.1,0.5-0.1,1-0.4,1.4
		c-2,3.6-3.9,7.3-5.9,10.9c-0.3,0.7-0.6,1.4-0.9,2.3c1.9,0.5,3.5,1,5.2,1.3c0.9,0.2,1.9,0.1,2.9,0.1c1.9,0.2,2.4-0.6,2.7-2.5
		c0.3-2.9,1-5.8,1.8-8.6c0.7-2.3,2-4.4,2.8-6.7c0.9-2.8,1.1-2.9,3.7-1.6c0.1,0.2,0.3,0.3,0.4,0.5c1.1,0.6,2.3,1.1,3.4,1.7
		c-0.8,1.4-1.7,2.8-0.9,4.6c-0.1,0.1-0.3,0.2-0.4,0.3c-0.3-1.3-0.5-2.5-0.8-3.8c-1-0.6-2.1-1.3-3.6-2.2c-1.5,4.9-2.8,9.6-4.2,14.3
		c-0.2,0.7-0.3,1.5-0.5,2.2c-1,4.2-1,4.3-5.4,3.5c-3.1-0.5-6.1-1.3-9.6-2.1C38.8,84.8,40.9,79.5,44.4,74.8z"/>
	<path fill="#F2F2F2" d="M101.8,3.2c-0.4,0-1,0.1-1.2-0.2c-1.7-2.1-4-2.1-6.4-2c2.7-0.5,5.3-1.5,8.6-0.8c-0.8,0.9-1.3,1.5-1.9,2.1
		C101.1,2.6,101.5,2.9,101.8,3.2z"/>
	<path fill="#F2F2F2" d="M60.1,78.6c0.1-0.1,0.3-0.2,0.4-0.3c1.7-3,3.3-5.9,5-8.9c-0.2-0.1-0.5-0.3-0.7-0.4c-0.5,0.8-1,1.6-1.5,2.4
		c-0.6,0.8-1.2,1.5-1.8,2.3c-1.1-0.6-2.3-1.1-3.4-1.7c1.4-0.7,4.4-5.5,4.3-7c0-0.1-0.3-0.2-0.5-0.3c0-0.1,0-0.2,0-0.3
		c1.6-0.2,3.2-0.5,4.9-0.4c2.6,0.1,5.3,0.6,7.9,0.5c1.1,0,2.7-0.9,3.1-1.9c1.4-3.2,2.4-6.5,3.6-9.8c0.4-1.1,1-2.1,1.5-3.1
		c0.7-0.2,1.4-0.3,2.5-0.5c-0.1,1.6-0.2,2.9-0.3,3.8c0.8-0.2,1.6-0.3,2.5-0.5c-1.2,3.5-2.5,7.1-3.6,10.6c-0.2,0.7-0.2,1.6,0,2.3
		c1.4,4.4,3.2,8.7,4.4,13.1c0.7,2.7,0.6,5.7,0.9,8.5c-0.9-0.2-1.9-0.3-2.7-0.5c-0.1,1.1-0.2,2.1-0.3,3.3c0.6,0,1.2,0.1,1.8,0.1
		c-2.5,0.8-3.3,0.3-4.1-2c-0.8-2.4-1.8-4.7-2.7-7c0-1.9,0-3.8,0-5.7c-0.2,0-0.5,0-0.7,0c0.1,1.9,0.3,3.9,0.4,5.8
		c-2,1.3-1.7,3.5-2.1,5.4c-0.2,0.8,0,1.7-0.1,2.5c0,2.1-0.8,2.6-3.3,2.2c0-3.3,0-6.7,0-10.7c-2,1.1-3.4,2.1-5,2.6
		c-1.9,0.7-2.3,2.1-2.7,3.8c-0.8,3.2-1.7,6.3-2.5,9.5c-0.5,2-1.5,2.8-3.7,2.6c-1-0.1-2-0.1-3.5-0.2C58.6,92.2,59.4,85.4,60.1,78.6z
		 M75.7,67.7c-0.2-0.1-0.4-0.2-0.7-0.3c-1.9,5-3.9,10-5.8,15c0.2,0.1,0.4,0.1,0.6,0.2C71.8,77.6,73.8,72.6,75.7,67.7z M68.2,77.8
		c0.3,0.1,0.5,0.2,0.8,0.3c1.5-2.3,1.9-5,2.6-7.5c-0.2-0.1-0.4-0.1-0.6-0.2C70,72.8,69.1,75.3,68.2,77.8z M63.1,91.2
		c0.2,0,0.4,0,0.6,0.1c0.5-2.7,1-5.4,1.5-8.1c-0.2,0-0.4-0.1-0.6-0.1C64.1,85.8,63.6,88.5,63.1,91.2z M81.4,58.8
		c0.3,0.1,0.6,0.2,0.9,0.3c0.5-2.2,1-4.4,1.5-6.6c-0.2-0.1-0.4-0.1-0.6-0.2C82.6,54.5,82,56.7,81.4,58.8z M61.3,98.6
		c0.3,0.1,0.7,0.1,1,0.2c0.3-1.8,0.6-3.7,0.9-5.5c-0.1,0-0.3-0.1-0.4-0.1C62.3,95.1,61.8,96.8,61.3,98.6z"/>
	<path fill="#F2F2F2" d="M61.8,64.3c0,0.1,0,0.2,0,0.3c-1.4,2.3-2.8,4.5-4.2,6.8c-2.6-1.3-2.8-1.2-3.7,1.6c-0.8,2.3-2.1,4.4-2.8,6.7
		c-0.8,2.8-1.5,5.7-1.8,8.6c-0.2,1.9-0.8,2.7-2.7,2.5c0.4-1.9-2.1-1.8-2.2-3.2c-0.9,0-1.8,0-3.2,0c0,0-0.4,0.6-0.9,1.3
		c-0.4-0.9-0.7-1.4-0.9-1.8c2-3.6,4-7.2,5.9-10.9c0.2-0.4,0.2-0.9,0.4-1.4c0.6-1.3,1.2-2.7,2-4.4c-1-0.1-1.7-0.1-2.3-0.2
		c0.3-0.6,0.5-1.2,1-2.2c-1.4,0-2.5,0-3.6,0c1.2-0.3,2.3-0.5,3.5-0.8c0.5-0.4,1.1-0.8,1.6-1.2c2.3-0.4,4.7-0.9,7-1.4
		c0.5-0.1,1-0.5,1.5-0.8c0-0.1,0-0.2,0-0.3C58.2,63.8,60,64.1,61.8,64.3z M58.2,66.4c-0.2-0.1-0.4-0.2-0.6-0.4
		c-0.8,1.2-1.6,2.5-2.5,3.7c0.3,0.2,0.6,0.3,0.9,0.5C56.7,69,57.5,67.7,58.2,66.4z"/>
	<path fill="#F2F2F2" d="M90.5,11.2c-1.7,0-5.8-2.7-6-4.2c-0.1-0.5,0.7-1.3,1.3-1.6c1-0.6,2.2-1.1,3.3-1.6c3.4-1.4,6.8-1.4,10,0.4
		c1.4,0.8,2.7,1.9,4,2.8c-2.5,0.9-5.1,1.7-7.6,2.6C93.8,10.2,92.1,10.7,90.5,11.2z"/>
	<path fill="#F2F2F2" d="M47.9,66c-0.5,0.4-1.1,0.8-1.6,1.2c-2.3,0.1-4.6,0.2-6.9,0.4c-2.5,0.1-5,0.3-7.5,0.4c0,0.2,0,0.3,0,0.5
		c1,0,1.9,0,2.9,0c-0.8,0.1-1.6,0.3-2.4,0.4c-1.3-0.7-2.6-1.4-3.9-2c5.3-0.3,10.5-1,15.6-1.8c-2.4,0-4.8,0-7.2,0c2-0.4,4-1,6.1-1.2
		c4.4-0.3,8.9-0.3,13.3-0.5c0,0.1,0,0.2,0,0.3c-3.7-0.5-7.1,1-10.5,2.2C46.5,66,47.2,66,47.9,66z"/>
	<path fill="#F2F2F2" d="M89.7,46.6c-0.5-0.2-1-0.4-1.8-0.8c0.6-1.7,1.3-3.6,2-5.6c-0.5-0.3-1-0.5-1.5-0.8c1.1-3.1,2.3-6.2,3.4-9.4
		c0.5,0,1,0,1.4,0c0.8,1.1-1.3,2.9,1.1,3.2c-1.3,4.1-2.6,8.2-4,12.3C90.2,45.9,89.9,46.2,89.7,46.6z"/>
	<path fill="#F2F2F2" d="M28.5,66.9c1.3,0.7,2.6,1.4,3.9,2c-5.3,1.8-10.7,1.5-16.2,0.7c1-0.3,2.1-0.6,3.1-1c0.1,0-0.1-0.5-0.1-0.8
		c3-0.4,5.9-0.8,8.9-1.2C28.2,66.9,28.4,66.9,28.5,66.9z"/>
</g>
</svg>
