<?xml version="1.0" encoding="utf-8"?>
<!-- Generator: Adobe Illustrator 18.1.1, SVG Export Plug-In . SVG Version: 6.00 Build 0)  -->
<svg version="1.1" id="Camada_1" xmlns="http://www.w3.org/2000/svg" xmlns:xlink="http://www.w3.org/1999/xlink" x="0px" y="0px"
	 viewBox="0 0 332.8 192.6" enable-background="new 0 0 332.8 192.6" xml:space="preserve">
<g>
	<path fill="#F2F2F2" d="M154.3,38.5c4.6-2.2,9.1-4.7,13.9-6.6c6-2.4,12.1-5.1,18.3-6.5c7.7-1.7,15.7-2.1,23.5-3
		c3-0.3,5.4-1.2,7.5-3.8c3.4-4.4,7.9-7.5,14.2-8c0,5,0,9.6,0,14.8c4.4,0.5,8.8,0.9,13.1,1.5c4.5,0.6,8.9,1.5,13.4,2.1
		c0.9,0.1,2-0.3,3-0.8c4.9-2.2,9.7-4.6,14.6-6.8c1-0.4,2.3,0.1,3.5,0.2c-0.1,1,0,2.1-0.3,3.1c-1.5,4.5-3.1,8.9-4.7,13.4
		c0.2,0.4,0.5,0.7,0.7,1.1c1.7-0.3,3.6-0.4,5.2-1.1c2.5-1.2,4.8-2.9,7.3-4.2c3.1-1.7,6.4-2.3,10.2-0.7c-2.2,5.1-4.3,10-6.6,15.3
		c4.3-1.6,8.3-3.1,12.3-4.6c3.7-1.4,6.9-4.4,11-4.5c0.3,0.4,0.6,0.7,1,1.1c-3.9,8.7-7.8,17.5-11.6,25.9c2.7,5.6,4.6,12.1,8.6,17
		c6,7.5,5.6,16.4,8,24.8c1.6,5.6,3.5,11.3,6.1,16.5c4.7,9.6,7.6,19.3,6,30.2c-0.7,4.5,0.4,9.3,0.2,14c-0.4,7.1-1.3,14.1-2.1,21.1
		c-0.1,0.9-1.4,1.8-2.1,2.6c-0.7-0.9-1.6-1.6-2-2.6c-0.9-2.7-1.3-5.5-2.5-8.1c-2-4.5-3.8-9.4-6.9-13.3c-4.9-6.1-11.2-11.2-14.1-19
		c-1.9,5.6-3.6,10.9-5.6,16.1c-0.4,1-1.5,1.6-2.3,2.4c-0.7-0.8-1.6-1.5-1.9-2.4c-2.5-7.3-6-14-12.2-18.9c-1.1-0.9-2-2.2-2.6-3.6
		c-2.7-6-5.3-12.1-7.9-18.1c-0.1-1-0.2-2-0.3-3c0.8-1.1,1.6-2.3,2.5-3.4c1.6,4.7,3.1,9.5,4.9,14.2c2.4,6.5,6.2,12.1,11.2,17
		c2.7,2.6,4.1,6.6,6.2,10.1c3.5-5,4.2-10.6,3.8-16.3c-0.5-7.7-1.8-15.4-2.5-23.1c-0.1-1.1,0.6-2.3,1-3.4c1,0.7,2.5,1.2,2.8,2.2
		c1.4,4.6,2.9,9.2,3.4,13.9c1.2,11.9,5.2,22.3,14.5,30.4c5.8,5.1,8.4,12.3,10.5,20.6c0.5-1.6,0.8-2.2,0.9-2.9
		c0.2-2.8,0.3-5.6,0.3-8.5c0-8.1-0.1-16.2-0.1-24.2c0-6.8-1.3-13.3-4.7-19.1c-5.8-10.2-8.6-21.3-10.4-32.8c-0.5-3.3-2.5-6.4-3.9-9.6
		c-0.2-0.6-0.7-1-1-1.6c-3.4-6.6-6.7-13.3-9.8-19.4c3.5-7.2,7.1-14.5,11-22.8c-5.8,2.3-11,3.8-15.7,6.2c-4.5,2.3-8.5,5.6-12.8,8.4
		c-0.2-0.3-0.4-0.6-0.5-0.9c4-7.1,7.9-14.1,11.9-21.2c-0.4-0.4-0.9-0.9-1.3-1.3c-2.6,1.4-5.2,2.6-7.7,4.2c-3.5,2.2-6.8,4.1-11.3,2.4
		c-2.3-0.9-3-1.9-2.4-4c0.8-2.7,1.8-5.3,2.7-8c0.4-1.2,0.9-2.5,1.4-3.7c-0.2-0.3-0.4-0.5-0.6-0.8c-3.6,1.8-7.5,3.3-10.8,5.6
		c-2.8,1.9-5,2.2-8.4,1.2c-5.1-1.5-10.6-1.7-15.9-2.4c-2.9-0.4-5.9-0.7-8.8-1.2c-1.8-0.3-2.7-1.1-2.4-3.3c0.5-3.3,0.4-6.8,0.6-10.1
		c-0.3-0.2-0.7-0.5-1-0.7c-2.7,2.4-5.7,4.5-7.9,7.2c-2,2.4-3.8,3.9-7.2,3.9c-4,0-8.1,1.7-12,1.4c-12.4-0.7-22.8,5.8-34.1,9.1
		c-4,1.2-7.5,4-11.3,6.1C154.9,40.7,154.6,39.6,154.3,38.5z"/>
	<path fill="#F2F2F2" d="M114.7,55.4c-8.5,0.5-16,4.5-23.7,7.6c-7.4,3-14.7,6-22,9.2c-4.6,2-9,4.4-13.6,6.5
		c-5.4,2.4-10.7,4.7-16.2,6.9c-7,2.7-13.2,0.8-19-3.6c-4.7-3.6-3.9-7.3,1.8-10.2c8.6-4.3,17.2-8.8,25.7-13.5
		c6.4-3.6,6.8-7.9,1.7-13.3c-0.6-0.7-1.9-1.1-2.9-1c-2.7,0.3-5.3,0.9-8.3,1.5c0.7,3.7,2.6,8-2.7,9.5c-5,1.4-4.7-3.9-6.9-6.4
		c-2.5,0.5-5.1,1-8.1,1.5c0.3,1.4,0.8,3,0.7,4.4c-0.1,2.9-0.4,5.8-0.8,8.6c-0.1,0.7-1.2,1.4-2,1.6c-0.4,0.1-1.3-1-1.6-1.7
		c-1.3-3.8-2.5-7.7-3.7-11.6c-3.1,0.4-6,1-8.9,1.1c-3.8,0.2-5-1.4-3.8-5c1.8-5.5,3.3-11.1,5.9-16.2c1.3-2.6,4.3-4.8,7-6.1
		c5.5-2.6,11.4-3.7,17.6-3.2c3.6,0.3,7.3,0.1,11.5,0.1c-0.4-5.6,2.7-11.6-2.1-17c-0.7-0.8-0.6-3.5,0-3.9c1.4-0.8,3.6-1.5,5.1-0.9
		c7,2.6,14.6,4.5,18.5,12.1c0.4,0.8,1.3,1.5,2,2.2c0.2,0.2,0.6,0.4,1.3,0.8c0.7-3,1.2-5.8,2-8.5c1.8-6.2,3-7,9.4-5.9
		c7.6,1.3,8.7,2.3,10.4,9.7c0,0-0.2,0.3-0.2,0.3c-0.7,0.9-1.4,1.8-2.1,2.8c-0.2-0.3-0.5-0.5-0.7-0.8c-0.8-7.3-1.7-7.9-8.4-9.1
		c-3.3-0.6-4.2,0.8-4.9,3.3c-1,3.8-1.9,7.6-2.8,11.4c-0.6,2.8-2.1,2.8-3.8,1.1c-2.9-3-6.1-5.8-8.4-9.3C54,5.1,48.2,5.7,43.7,2.8
		c0.9,2.8,2.1,5,2.3,7.3c0.3,3.4,0.1,6.9-0.2,10.3c-0.3,2.9-1.7,5-5.1,4.8c-4.5-0.2-9.1-0.7-13.6-0.4c-6.3,0.4-13.2,1-16.8,6.7
		c-3.3,5.2-4.7,11.7-7.1,18c1.7,0,2.4,0.2,3.1,0c7.4-2.8,15.8-1.2,22.9-5.6c2-1.2,4.6-1.3,7.5-2c2.1-0.2,4.9,0.1,7.3-0.7
		c5-1.6,8.1-0.4,10.8,4.2c3.2,5.5,2.8,10.8-2.8,13.9c-8.9,5.1-18.1,9.7-27.2,14.6c-1.4,0.8-2.8,1.7-4.2,2.6c3.3,4.6,11.5,8,16.1,7
		c10.5-2.4,19.3-8.3,28.7-13.1c2.9-1.2,5.8-2.3,8.7-3.5c0.9-0.1,1.9,0.1,2.7-0.3c3.9-1.7,7.8-3.4,11.7-5.2c9.6-4.4,19.1-9,29.8-9.6
		c-0.2,0.5-0.4,1.1-0.6,1.6C116.6,54.1,115.6,54.7,114.7,55.4z M31.1,47.4c1.5,1.8,2.7,3.3,3.9,4.7c0.3-1.9,0.7-3.7,1.1-6.4
		C33.9,46.5,32.9,46.8,31.1,47.4z"/>
	<path fill="#F2F2F2" d="M85.9,99.7c1.6-3.3,3.2-6.7,4.8-10.1c-1.7,0.5-3.4,1.2-5.3,1.6c-1.1,0.2-2.2-0.2-3.3-0.3
		c0.4-0.9,0.5-2.2,1.2-2.8c3.5-3,7.1-5.9,10.7-8.8c-0.5,1.2-1,2.4-1.4,3.5c-0.6,0.1-1.2,0.2-1.8,0.2c0.4,0.2,0.7,0.4,1.1,0.6
		c-0.9,0.8-1.8,1.6-3.3,2.9c3.2-0.3,5.9-0.6,9.7-1c-3.3,4.2-5.9,7.5-8.4,10.7c0.3,0.2,0.5,0.5,0.8,0.7c1-0.8,2-1.6,3-2.3
		c4.2-2.8,8.4-5.5,12.5-8.3c1.1-0.7,2.4-1.4,3.4-2.2c8.3-6.7,16.5-13.5,24.8-20.3c1.4-1.2,3-2.1,4.6-3.2c0.3,0.3,0.7,0.6,1,1
		c-7.7,11.8-15.3,23.6-23.5,36.2c5.3-0.8,8.2-5,13.6-6.6c-2.2,3.9-3.8,6.9-5.5,9.9c0.1,0.2,0.2,0.3,0.3,0.5c1-0.8,2.2-1.6,3.1-2.5
		c5.8-5.6,11.8-11.1,17.4-16.9c2.8-2.9,4.9-6.4,7.2-9.7c2.2-3.3,2.9-3.4,5.4-0.5c2.3,2.6,4.2,5.5,6.6,7.9c4.4,4.4,9.1,8.5,13.7,12.6
		c1.1,1,2.4,1.6,3.6,2.5c-1.2,2.9-3.2,2.7-4.8,1.3c-5.2-4.3-10.3-8.6-15.1-13.3c-2.6-2.5-4.6-5.7-6.5-8.1
		c-10.3,10.3-20.4,20.4-30.6,30.4c-1.4,1.3-3.3,2.1-5,3.1c-0.3-0.3-0.7-0.6-1-0.9c1.1-2.6,2.2-5.1,3.3-7.7c-0.2-0.3-0.4-0.5-0.7-0.8
		c-1.8,1.2-3.5,2.6-5.4,3.6c-1.8,1-3.5,3.3-5.7,0.8l0,0c6.5-10.3,12.9-20.5,19.4-30.8c-0.3-0.3-0.7-0.7-1-1c-3.8,3-7.5,6-11.3,9
		c-3.7,3-7.4,6-11.2,8.9c-4.2,3.1-8.6,6-12.9,8.9c-1.8,0.9-3.7,1.7-5.9,2.7C87.2,100.8,86.5,100.3,85.9,99.7z"/>
	<path fill="#F2F2F2" d="M97,7.7c0.1-0.2,0.2-0.5,0.4-0.6c2.2-2.1,4.2-5,7.8-3.2c3.5,1.7,3.3,5.1,2.9,8.3c-0.2,1.8-0.4,3.6-0.8,6.5
		c2.2-2.2,3.8-3.8,5.5-5.3c3.6-3.2,7.7-5,12.4-3.5c1.6,0.5,3.4,2,3.9,3.5c2.6,7-0.4,13.1-3.7,19.2c2.9,0.4,5.9,0.9,8.8,1.4
		c0.1,0.1,0.2,0.2,0.2,0.3c-1.5,0.8-3.1,1.5-1.5,3.6c-1.2,0.2-2.4,0.5-3.6,0.7c0.5-0.8,0.9-1.5,1.3-2.1c-4.3-1.5-8.4-2.9-12.4-4.4
		c0.1-0.4,0.2-0.8,0.3-1.3c0.8-0.3,1.5-0.7,2.3-0.7c2.2,0,3.3-1.1,3.8-3.2c0.5-1.9,1.8-3.7,1.8-5.5c0-3,0.3-7.2-1.5-8.8
		c-2.4-2.2-6.3-0.7-9.1,1.3c-1,0.7-1.9,1.6-2.8,2.4c-1.5,1.5-2.8,3.1-4.4,4.4c-1.2,0.9-2.7,1.4-4.9,2.4c0.5-4.7,1-8.2,1.2-11.7
		c0.1-1.4-0.2-2.9-0.5-4.3c-0.1-0.5-1.1-0.9-1.7-0.9c-0.4,0-1.3,0.7-1.3,1.1c0.4,4.7-3.6,6.4-6.2,9c0.1-1,0.3-2.1,0.4-2.7
		c-1.3,0.6-2.6,1.3-4,2l0,0c2.9-2.7,5.8-5.4,9.1-8.6C99.1,7.5,98.1,7.6,97,7.7z"/>
	<path fill="#F2F2F2" d="M149.3,45.5c-5.4,3.9-10.8,7.8-16.2,11.7l-0.3-0.2c-2.2-3.6-5-6.3-9.5-6.6c2.3-2.9,4.5-5.9,6.8-8.8
		c1-1,2-2,2.9-3c3.1,1,6.1,2.1,9.2,3.1c-2.6,2.8-5.1,5.6-7.8,8.5c2.9,0.6,11.4-5.5,11.8-8.2c0-0.1-0.1-0.2-0.1-0.3
		c0.6,0,1.1-0.1,1.7-0.1C148.3,42.9,148.8,44.2,149.3,45.5z"/>
	<path fill="#F2F2F2" d="M91.8,83.7c-0.4-0.2-0.7-0.4-1.1-0.6c0.6-0.1,1.2-0.2,1.8-0.2c4.2-3,8.4-6,12.6-9c4.4-3.2,7.2-8.5,13.4-9.3
		c1.5-0.2,3.5-0.5,4.2-1.6c2.5-3.6,6.4-4.5,10.1-6.1l0.3,0.2c-7.2,7.5-14.5,15-21.8,22.5c-0.1,0.1-0.8-0.4-1.4-0.7
		c1.5-2.1,3-4.1,4.4-6.1c-0.2-0.2-0.3-0.5-0.5-0.7c-3.5,2.2-7.1,4.4-10.6,6.6C99.7,81,96.6,84.4,91.8,83.7z"/>
	<path fill="#F2F2F2" d="M132.8,57c-3.6,1.6-7.5,2.5-10.1,6.1c-0.7,1-2.7,1.4-4.2,1.6c-6.2,0.7-9,6.1-13.4,9.3c-4.2,3-8.4,6-12.6,9
		c0.5-1.2,1-2.4,1.4-3.5c3.8-3.3,7.7-6.5,11.5-9.8c0.9-0.2,2-0.2,2.7-0.6c6.1-4.2,12.2-8.4,19.4-13.4c-3-0.6-5-0.9-7.1-1.3
		c-1-0.2-2-0.5-3.1-0.7c0.2-0.5,0.4-1.1,0.6-1.6l0,0c1.9,1.1,3.3,0.1,4.6-1.1c0.2-0.2,0.4-0.3,0.6-0.3
		C127.8,50.7,130.6,53.4,132.8,57z"/>
	<path fill="#F2F2F2" d="M147.7,41.6c-0.6,0-1.1,0.1-1.7,0.1c-1.1-0.1-2.3-0.1-3.4-0.2c0.5-0.6,1.1-1.2,1-1.2c-2.9-2.1-5.7-4-8.4-6
		c-0.2-0.1-0.5-0.1-0.7-0.1c-0.1-0.1-0.2-0.2-0.2-0.3c1.9-1.5,3.6-3.2,5.7-4.5c0.9-0.6,2.4-0.4,3.6-0.5c-0.3,1.2-0.5,2.4-0.8,3.7
		c3.1,0,5.7-5.4,10.7-1.7c-3.2,2.3-6.1,4.4-9,6.5c0.6,0.3,1.1,0.7,1.7,1c0.6,0.8,1.1,1.5,1.7,2.3C147.8,41.1,147.7,41.4,147.7,41.6z
		"/>
	<path fill="#F2F2F2" d="M117.5,53.5c1,0.2,2,0.5,3.1,0.7c2,0.4,4.1,0.8,7.1,1.3c-7.2,5-13.3,9.3-19.4,13.4
		c-0.7,0.5-1.8,0.4-2.7,0.6c1-1.4,1.8-2.8,2.9-4.1c2.7-3,6.3-5.4,6.3-10.1C115.6,54.7,116.6,54.1,117.5,53.5z"/>
	<path fill="#F2F2F2" d="M147.7,41.6c0-0.3,0-0.6,0.1-0.8c2.2-0.8,4.4-1.5,6.6-2.3c0.3,1.1,0.6,2.1,0.8,3.2
		c-1.9,1.3-3.9,2.5-5.8,3.8C148.8,44.2,148.3,42.9,147.7,41.6z"/>
	<path fill="#F2F2F2" d="M88.8,10.6c2.2-0.4,4.4-0.8,6.6-1.2c-1.2,2.2-2.5,4.3-3.7,6.5l0,0c-0.4,0.3-0.9,0.7-1.5,1.2
		c-0.6-2.2-1.1-4.2-1.6-6.2L88.8,10.6z"/>
	<path fill="#F2F2F2" d="M91.7,15.8c1.2-2.2,2.5-4.3,3.7-6.5c0.5-0.5,1.1-1.1,1.6-1.6c1.1-0.1,2.1-0.3,3.8-0.5
		C97.5,10.4,94.6,13.1,91.7,15.8z"/>
	<path fill="#F2F2F2" d="M65.2,70.4c0.9-2.2,1.8-4.5,2.9-6.7c1.3-2.7,2.7-5.3,4-8c0.2-0.4-0.3-1.1-0.3-1.7c-0.1-0.8-0.3-1.9,0.1-2.4
		c4.9-6.3,9.8-12.5,14.8-18.7c0.1-0.1,0.4,0,1.3,0c-0.8,3.3-1.5,6.5-2.3,10.1c0.7-0.2,1.8-0.5,2.8-0.7c0.9-0.2,1.8-0.3,2.7-0.4
		c0.1,1,0.2,2,0.3,3c3.6,0.7,3.9,1,1.7,4.2c-1.5,2.3-3.5,4.4-5.3,6.5c-0.5,0.5-1.2,1.2-1.8,1.2c-7-0.1-8.2,6.7-12.2,10
		C71,68.1,68.1,69.3,65.2,70.4z M85.3,49.1c-0.3-0.3-0.6-0.6-0.9-0.9c-2.8,3-5.6,6-8.4,9c0.3,0.3,0.7,0.6,1,0.9
		C80.8,56.1,82.7,52.2,85.3,49.1z M91.9,48.4c-0.4-0.3-0.8-0.7-1.2-1c-2.5,2.7-5,5.4-7.5,8c0.4,0.4,0.9,0.8,1.3,1.2
		C87,53.9,89.4,51.2,91.9,48.4z"/>
	<path fill="#F2F2F2" d="M88.7,22.4c-1.7,0.9-3.4,1.8-5,2.7c-2.3,1.4-4.5,3-6.8,4.3c-0.8,0.5-1.8,0.5-2.8,0.7
		c-0.6-3.3-3.7-0.7-5.4-2.4c5.1-5.7,10-11.6,17.1-14.9c0.2,0.3,0.5,0.5,0.7,0.8c-0.5,1.5-1,3-1.4,4.3C86.3,19.3,87.5,20.8,88.7,22.4
		z"/>
	<path fill="#F2F2F2" d="M88.7,22.4c-1.2-1.5-2.5-3.1-3.6-4.5c0.4-1.3,0.9-2.8,1.4-4.3c0.7-0.9,1.4-1.8,2.1-2.8c0.5,2,1,4,1.6,6.2
		c0.6-0.5,1-0.8,1.5-1.2c1.4-0.7,2.8-1.4,4-2c-0.1,0.6-0.2,1.6-0.4,2.7c-1.2,1.5-2.4,3-3.8,4.4C90.9,21.6,89.7,21.9,88.7,22.4z"/>
	<path fill="#F2F2F2" d="M118.1,51.9c3.8-4.4,7.5-8.8,11.3-13.2c1.2-0.2,2.4-0.5,3.6-0.7c0,0.2,0,0.5,0,0.7c-1,1-2,2-2.9,3
		c-2.7,2.7-5.4,5.4-8,8.1c-0.1,0.1,0.4,0.6,0.6,1C121.4,52,120,53,118.1,51.9z"/>
	<path fill="#F2F2F2" d="M133,38.7c0-0.2,0-0.5,0-0.7c-1.5-2.1,0.1-2.8,1.5-3.6c0.2,0,0.5,0,0.7,0.1c2.8,1.9,5.5,3.9,8.4,6
		c0,0-0.5,0.6-1,1.2c-0.1,0.2-0.2,0.2-0.4,0.2C139.1,40.8,136,39.7,133,38.7z"/>
</g>
</svg>
