<?xml version="1.0" encoding="utf-8"?>
<!-- Generator: Adobe Illustrator 18.1.1, SVG Export Plug-In . SVG Version: 6.00 Build 0)  -->
<svg version="1.1" id="Camada_1" xmlns="http://www.w3.org/2000/svg" xmlns:xlink="http://www.w3.org/1999/xlink" x="0px" y="0px"
	 viewBox="0 0 93.9 69.7" enable-background="new 0 0 93.9 69.7" xml:space="preserve">
<g>
	<path fill="#F2F2F2" d="M43.1,53.7c0.9-2.3,1.5-4.9,2.9-7c2.2-3.5,4.8-6.8,7.3-10.1c0.8-1,2.1-1.6,3.7-2.8
		c-0.1,1.4-0.2,2.1-0.2,2.9c0.3,0,0.7,0.2,1,0.1c2.2-0.6,4.4-2.3,6.2,1.2c0.8,1.5,3.3,2,5.7,3.4c-2.9,5.3-5.7,10.5-8.6,15.8
		c0-1.8,0-3.5,0-5.3c0-2.1-0.9-2.6-2.8-1.8c-2,0.9-4.1,1.7-6.1,2.6c1.9-2.6,3.7-5.2,5.6-7.9c-0.2-0.2-0.5-0.3-0.7-0.5
		c-1.8,2.4-3.7,4.8-5.4,7.2c-0.1,0.2,0.3,0.7,0.5,1.1c0.3,0.3,0.8,0.9,1,0.8c2.2-0.7,4.4-1.5,7.4-2.6c-0.7,2.8-1.2,4.7-1.6,6.7
		c-0.2,0.4-0.5,0.9-0.7,1.3c-2.6,2.3-3.9,5.9-7.7,6.7c-0.2,1.3-0.3,2.7-0.5,4.1c-1.9,0.4-1.9,0.4-1.3-4.9c-0.5,0.2-0.8,0.4-1.2,0.5
		c-0.4,0.1-0.8,0.2-1.5-0.2c0.6-0.6,1.2-1.1,2.1-1.9c-0.6-0.8-1.1-1.5-2.2-3c-0.4,2.5-0.7,4.1-1,5.9c-1.8,0-1.7-1.3-1.4-2.5
		c0.6-2.9,0.1-5.9,1.4-8.7c1.9-0.3,3.7-0.7,5.6-1c-0.1-0.3-0.1-0.6-0.2-0.9C47.8,53.1,45.4,53.4,43.1,53.7z"/>
	<path fill="#F2F2F2" d="M74.9,48.7c2.4,3.4,4.9,6.8,7.6,10.6c3.3-2.4,6.8-4.9,10.2-7.5C90.2,44.5,82.6,32.9,78,29.5
		c1.5-1.2,3-2.2,4.2-3.5c1.4-1.5,2.7-3.1,3.7-4.8c0.4-0.6,0.1-2.1-0.5-2.7c-0.4-0.4-1.9-0.3-2.5,0.1c-2,1.4-3.8,3-5.6,4.5
		c-2.1,1.8-4.2,3.5-6.3,5.3c-0.3-0.1-0.5-0.3-0.7-0.4c0.2-1.8,0.5-3.5,0.6-5.3c0.2-4.5,0.4-8.9,0.4-13.4c0-0.9-0.7-2.1-1.4-2.7
		c-4.3-3.2-9.2-5.2-14.5-6.1c0-0.2,0-0.3,0-0.5c6.5-0.4,11.5,3,16.5,6.5c0.6,0.4,0.8,1.8,0.8,2.8c0.1,5.4,0,10.7,0,16.2
		c1.2-1.1,2.6-2.4,4.1-3.6c1.9-1.6,3.8-3.4,5.9-4.5c1-0.5,3.1-0.3,4,0.4c0.7,0.6,1,2.8,0.5,3.7c-1.8,2.9-4,5.4-5.8,7.6
		c3.8,6.4,7.7,13.1,11.7,19.7c1.3,2.1,1,3.6-1.2,5c-2.7,1.7-5.3,3.8-7.9,5.7c-1.9,1.3-3.2,1.2-4.3-1.3c-0.9-2.2-2.4-4.1-3.7-6.2
		C75.7,51,75.3,49.8,74.9,48.7z"/>
	<path fill="#F2F2F2" d="M35.8,16.9C26.5,17,21,22,19.1,31.5c-0.6,3.3-1.8,6.4-2.8,9.6c-0.1,0.4-0.4,0.8-0.8,1.5
		c-4.8-5.7-9.4-11.1-14-16.6c-0.2,0.1-0.4,0.2-0.7,0.3c0.9,2.8,1.7,5.6,2.9,8.3c1.6,3.6,3.5,7.1,5.3,10.6c-0.8-0.4-2.1-0.6-2.4-1.2
		c-2.1-4.5-4-8.9-5.8-13.5c-0.8-2-0.8-4.3-0.8-6.7c3.6,1.8,5.2,5.3,7.7,8c2.6,2.8,4.9,5.7,7.7,8.9c1.1-4.3,2.2-8.4,3.3-12.5
		c2.3-8.8,12.2-14.4,21.1-12c-0.2,0.2-0.5,0.4-0.7,0.6C38,16.9,36.9,16.9,35.8,16.9z"/>
	<path fill="#F2F2F2" d="M10.1,45.3c9.6,1.2,18-1.7,25.4-7.8c0.5-0.4,1.1-0.7,1.7-1c0.1-0.1,0.3,0,1.2,0.1
		C37.2,42.4,36,48.2,34.7,54c2.3,0.3,4.3,0.5,6.4,0.7c-2.4,0.3-4.9,0.6-8.1,1c1.3-6.1,2.5-11.5,3.9-17.7c-1.4,0.9-2.3,1.5-3.1,2.1
		c-6.2,4.7-13.2,6.8-20.9,6.2C12,46.4,11.1,45.7,10.1,45.3z"/>
	<path fill="#F2F2F2" d="M74.9,48.7c0.4,1.1,0.7,2.3,1.1,3.4c-0.2,3.1-0.3,6.2-0.6,9.3c-0.1,0.9-0.7,2.5-1.4,2.6
		c-4.8,1-9.6,1.7-14.7,2.6c0-2.1,0-3.8,0-5.7c-2.4,2.6-4.5,4.9-6.7,7.3c-0.2-0.2-0.5-0.4-0.7-0.6c0.3-0.5,0.5-1,0.8-1.5
		c1.8-2.4,3.7-4.9,5.5-7.3c0.2-0.4,0.5-0.8,0.7-1.3c0.5,0.6,1.1,1.2,1.6,1.8c0,1.8,0,3.7,0,6c4.5-0.7,8.7-1.3,12.8-2.2
		c0.6-0.1,1.2-1.7,1.2-2.7c0.1-3.1-0.1-6.1-0.1-9.2C74.4,50.4,74.7,49.5,74.9,48.7z"/>
	<path fill="#F2F2F2" d="M39,16.9c0.2-0.2,0.5-0.4,0.7-0.6c1,0.2,2,0.3,3.2,0.6c0.2-2.1,0.4-4.1,0.7-6c0.1-0.7,0.2-1.5,0.4-2.2
		c1.9-8.3,2.8-8.9,11.4-8.5c0,0.2,0,0.3,0,0.5c-7.5,0.1-8.5,0.9-10,8.3c-0.4,2-0.6,4-0.6,6c0,1,0.8,1.9,1.3,3.1
		c-0.2,0.2-0.8,1-1.4,1.7c-0.2,0.3-0.4,0.6-0.5,0.9c-0.4-0.7-0.7-1.5-1.1-2.2C41.7,17.9,40.4,17.4,39,16.9z"/>
	<path fill="#F2F2F2" d="M43.1,53.7c2.4-0.3,4.7-0.5,7.1-0.8c0.1,0.3,0.1,0.6,0.2,0.9c-1.9,0.3-3.7,0.7-5.6,1
		c-1.1,0.7-2.1,1.3-2.8-0.5C42.3,54,42.7,53.9,43.1,53.7z"/>
	<path fill="#F2F2F2" d="M35.9,28.5c-2-0.4-4.2-2.5-3.7-4.2c0.4-1.3,1.8-2.3,2.8-3.5c1.6,1.5,3.1,2.9,4.7,4.4
		C38.4,26.4,37.2,27.5,35.9,28.5z"/>
	<path fill="#F2F2F2" d="M60.4,59.3c-0.5-0.6-1.1-1.2-1.6-1.8c0.5-1.9,0.9-3.9,1.6-6.7c-3.1,1.1-5.2,1.9-7.4,2.6
		c-0.2,0.1-0.7-0.5-1-0.8l0,0c2.1-0.9,4.1-1.7,6.1-2.6c1.9-0.9,2.8-0.4,2.8,1.8c0,1.8,0,3.5,0,5.3C60.8,57.8,60.6,58.5,60.4,59.3z"
		/>
</g>
</svg>
