<?xml version="1.0" encoding="utf-8"?>
<!-- Generator: Adobe Illustrator 18.1.1, SVG Export Plug-In . SVG Version: 6.00 Build 0)  -->
<svg version="1.1" id="Camada_1" xmlns="http://www.w3.org/2000/svg" xmlns:xlink="http://www.w3.org/1999/xlink" x="0px" y="0px"
	 viewBox="0 0 117 117" enable-background="new 0 0 117 117" xml:space="preserve">
<g>
	<g>
		<g>
			<path fill="#F2F2F2" d="M113.5,75.5c-1,2.7-1.8,5.1-2.9,7.3c-3.4,7.2-8.1,13.5-14,18.7c-3.7,3.3-7.9,6-12.4,8.3
				c-4.7,2.4-9.7,4-14.8,5.1c-1.5,0.3-3.1,0.4-4.6,0.6c-2.6,0.2-5.3,0.6-7.9,0.5c-6.9-0.4-13.7-1.6-20.1-4.4
				c-3.6-1.6-7.1-3.4-10.4-5.5c-2.3-1.4-4.2-3.4-6.3-5.2c-1.2-1.1-2.4-2.3-3.5-3.4c-5-5-8.7-10.9-11.1-17.5
				C4.1,76.2,3.1,72.4,2,68.5c-0.4-1.5-0.3-3.2-0.5-4.8c-0.1-1.5-0.3-2.9-0.5-4.4C1,58.9,1,58.4,1,58c0.8-6.3,1.2-12.5,3.5-18.5
				c2.1-5.5,4.5-10.7,8.2-15.3c2.1-2.6,4.2-5.3,6.7-7.6c3.3-3.2,7-5.8,11-8c3.9-2.2,8.1-3.9,12.4-5.2c6.9-2.1,14.1-2.6,21.2-2
				c8.5,0.7,16.5,3.4,23.8,7.7c3.1,1.8,5.8,4.3,8.7,6.5c3.1,2.4,5.6,5.3,7.9,8.4c2,2.8,3.7,5.7,5.3,8.8c1.3,2.6,2.4,5.4,3.4,8.1
				c2.1,5.7,3,11.5,2.8,17.6c-0.1,4.8,0.4,4.3-4.4,4.3c-22.9,0-45.7,0-68.6,0c-0.6,0-1.2,0-1.8,0c-1.3-0.1-2,0.6-1.8,1.9
				c0.3,3.1,0.6,6.2,1,9.3c0.4,3.1,0.8,6.2,1.5,9.3c1.4,6.3,3.3,12.4,6.9,17.7c2.8,4.2,6.9,6.4,12.1,6.4c9.4,0.1,17.9-2.9,25.5-8.4
				c2.6-1.9,5.2-3.8,7.5-6.1c2.3-2.4,4.3-5.1,6.1-7.9c1.7-2.7,3-5.7,4.4-8.6c0.5-1.1,1-2,2.3-1.8C108.8,74.8,111,75.1,113.5,75.5z
				 M58.8,54.5c5.6,0,11.3,0,16.9,0c2.2,0,2.6-0.7,2.3-2.8c-0.4-2.6-0.6-5.2-1-7.8c-0.4-2.8-0.5-5.6-1.2-8.3
				c-1.2-4.5-2.5-9-4.1-13.5c-1.4-3.9-3.6-7.4-6.7-10.2c-2.5-2.2-5.3-3.4-8.7-2.3c-3.1,1-5.4,3.3-7.1,5.9c-3.2,4.9-5.5,10.3-6.7,16
				c-0.8,3.6-1.4,7.2-1.9,10.8c-0.5,3.2-0.8,6.5-1,9.7c-0.1,2,0.2,2.3,2.3,2.3C47.4,54.5,53.1,54.5,58.8,54.5z M76.5,13
				c0.4,1,0.6,1.6,0.9,2.2c0.4,0.8,1,1.5,1.3,2.3c2.5,6.3,4.8,12.7,5.7,19.5c0.7,5.2,1.3,10.5,1.9,15.7c0.2,1.5,0.9,2.1,2.4,2
				c1.1-0.1,2.1-0.2,3.2-0.2c4.3,0,8.6,0,12.9,0c2.1,0,2.5-0.4,2.5-2.5c0-0.5,0-1-0.1-1.5c-0.8-4.1-1.8-8-3.5-11.8
				c-2.1-4.6-4.6-8.9-8.1-12.5c-2.9-3.1-6.2-5.9-9.6-8.5C83.4,15.6,80.4,13.7,76.5,13z M20.4,54.5L20.4,54.5c3,0,6,0,9,0
				c1.3,0,1.8-0.5,1.9-1.8c0.4-5,0.7-10,1.5-14.9c0.7-4.5,1.9-8.9,3.2-13.2c1-3.3,2.6-6.3,3.9-9.5c0.2-0.5,0.2-1.1,0.2-1.7
				c-0.6,0.1-1.4-0.1-1.9,0.2c-4.7,2.5-9,5.4-13,9c-4.5,4.1-8,8.9-10.7,14.3c-2.5,4.9-3.9,10.1-4.7,15.5c-0.2,1.6,0.2,2.2,1.9,2.2
				C14.6,54.5,17.5,54.5,20.4,54.5z M20.5,62.7L20.5,62.7c-3,0-6,0-9,0c-1.6,0-2,0.6-1.6,2.2c0.3,1.2,0.6,2.5,0.7,3.7
				c0.8,5.5,3.1,10.5,5.9,15.2c3,5,6.7,9.3,11.2,12.9c3.4,2.7,7.1,4.9,11,6.7c0.3,0.2,0.8,0,1.2,0c0-0.4,0-0.8-0.2-1.2
				c-1.8-4.5-3.9-8.9-5.2-13.6C32.6,81,31.2,73.1,31.2,65c0-2-0.3-2.3-2.3-2.3C26.1,62.7,23.3,62.7,20.5,62.7z"/>
		</g>
	</g>
</g>
</svg>
