<?xml version="1.0" encoding="utf-8"?>
<!-- Generator: Adobe Illustrator 18.1.1, SVG Export Plug-In . SVG Version: 6.00 Build 0)  -->
<svg version="1.1" id="Camada_1" xmlns="http://www.w3.org/2000/svg" xmlns:xlink="http://www.w3.org/1999/xlink" x="0px" y="0px"
	 viewBox="0 0 171.3 51" enable-background="new 0 0 171.3 51" xml:space="preserve">
<g>
	<g>
		<path fill="#FFFFFF" d="M45.6,19.4c8.8-6.1,17.9-5.9,27.2-2c4.1,1.7,6.2,5.1,6.3,9.6c0.1,6.6,0.2,13.2,0.4,19.9
			c0.1,2.1-0.7,2.9-2.8,2.8c-1.7-0.1-3.3-0.1-5,0c-1.7,0.1-2.3-0.7-2.3-2.4c0-4.9,0-9.8,0-14.6c0-7.7-5.1-12.1-12.8-11.1
			c-1.5,0.2-3,0.5-4.5,1c-4.7,1.6-6.9,4.6-7,9.6c0,4.9-0.1,9.8,0,14.6c0,2.1-0.8,2.9-2.9,2.8c-1.2-0.1-2.5,0-3.7,0
			c-3.2,0-3.4-0.1-3.4-3.3c0-7,0-14-0.1-21c0-3.3-0.1-3.4-3.4-3.5c-4,0-8-0.1-12-0.1c-2.7,0-3,0.3-3,3c0,7.2,0.1,14.4,0.1,21.6
			c0,2.9-0.3,3.2-3.1,3.2c-7.3,0-6.4,0.6-6.4-6.2c0-6.1,0-12.2,0-18.3c0-2.8-0.2-3.1-3-3c-2.2,0-2.7-1.1-2.6-3
			c0.1-2.9,0.2-3.2,2.7-3.3c1.7-0.1,2.6-0.5,2.8-2.5C7.8,6.2,11.6,2.2,18.7,1.1c5.4-0.9,10.7-0.9,16,0.4c4.3,1,7.7,3.2,9.4,7.3
			c0.9,2.1,0.3,2.8-1.9,2.9c-0.9,0-1.9-0.1-2.8,0c-2.4,0.2-4.1-0.4-5.7-2.6c-2.9-4.1-12.2-4-15.3-0.1c-0.8,1-1.3,2.3-1.6,3.5
			c-0.5,2.5,0.1,3.2,2.7,3.2c6.8,0,13.5,0,20.3-0.1C44.3,15.7,44.3,15.7,45.6,19.4z"/>
		<path fill="#FFFFFF" d="M113,45.6c-1.1,0.5-2,0.9-2.8,1.3c-7.3,3.5-14.8,3.9-22.5,1.2c-3.3-1.2-5.6-3.4-6.1-7
			c-0.7-5.2,2-8.8,7.3-9.5c5.7-0.7,11.4-1.2,17.1-1.8c1.6-0.2,3.2-0.3,4.7-0.8c2.9-1,3.5-3.9,1.3-6c-3.9-3.8-13.5-3.8-17.5-0.1
			c-0.2,0.1-0.3,0.3-0.4,0.5c-0.8,0.9-1.5,2.5-2.5,2.7c-2.5,0.4-5.1,0.3-7.6,0.2c-0.3,0-0.9-1.6-0.7-2.2c1.2-4.1,4.1-6.8,8.1-7.8
			c8.3-2.1,16.6-2.1,24.7,1c4.5,1.7,6.8,4.9,6.8,9.9c0,6.6,0.1,13.2,0.3,19.9c0.1,2.1-0.8,2.9-2.8,2.8c-1.4-0.1-2.8-0.1-4.1,0
			c-1.8,0.1-3-0.4-2.9-2.5C113.5,46.8,113.3,46.4,113,45.6z M100.5,45.5c5.1-0.4,8.9-1.7,11.5-5.2c1-1.4,1.1-3.5,1.4-5.3
			c0-0.3-1-1.1-1.5-1c-1.5,0.1-3,0.7-4.5,0.8c-3.8,0.5-7.7,0.8-11.5,1.3c-1.9,0.3-3.8,1.1-3.9,3.4c-0.1,2.1,1.1,3.6,3.1,4.3
			C97.1,44.6,99.2,45.1,100.5,45.5z"/>
		<path fill="#FFFFFF" d="M148.9,50.5c-4.7-0.3-9.3-0.8-13.7-2.6c-13.2-5.4-11.7-22.4-4-27.7c3.8-2.6,8.1-3.7,12.5-4.2
			c5.3-0.5,10.6-0.5,15.8,1.2c4,1.3,7.5,3.3,9.5,7.2c1.1,2.1,0.9,2.5-1.5,2.6c-1.2,0-2.3-0.1-3.5,0c-2.6,0.2-4.7-0.3-6.9-2.3
			c-4.5-4.1-14.2-3.5-18.6,0.7c-5.6,5.5-3.6,15.1,3.8,17.6c6.1,2.1,11.9,1.8,16.8-3.2c0.5-0.5,1.5-0.8,2.4-0.8c2.1-0.1,4.2,0,6.3,0
			c1.9,0,2.2,0.8,1.4,2.3c-2.5,4.9-6.9,7.2-11.9,8.3C154.5,50.1,151.7,50.2,148.9,50.5z"/>
	</g>
</g>
</svg>
