<?xml version="1.0" encoding="utf-8"?>
<!-- Generator: Adobe Illustrator 18.1.1, SVG Export Plug-In . SVG Version: 6.00 Build 0)  -->
<svg version="1.1" id="Camada_1" xmlns="http://www.w3.org/2000/svg" xmlns:xlink="http://www.w3.org/1999/xlink" x="0px" y="0px"
	 viewBox="0 0 360 150" enable-background="new 0 0 360 150" xml:space="preserve">
<g>
	<g>
		<path fill="#040000" d="M35.8,0C49,0,62.1,0,75.3,0c0,1.9,0,3.8,0,5.7c-0.8,2.8-1.5,5.7-2.4,8.5c-0.9,2.8-3.1,3.6-5.8,2.2
			c-0.8-0.4-1.5-1-2.5-1.8c-0.7,1.6-1.2,3.3-2.1,4.7c-0.5,0.8-1.8,1.7-2.7,1.7c-1.1-0.1-2.5-0.9-3-1.8c-0.6-1-0.5-2.5-0.7-3.9
			c-1,0.8-1.9,1.8-3,2.4c-1.4,0.7-2.9,1.1-4.4,1.6c-0.3-1.2-0.9-2.4-1-3.6c-0.2-2.4,0-4.8,0-7.2c-1.7,3.7-2.8,7.5-4.1,11.3
			c-0.4,1.1-1.3,2-2,3c-1.5-1.1-3.1-2.2-4.6-3.3c0.2-0.2,0.4-0.3,0.6-0.5c-0.6-0.7-1.3-1.3-1.9-2c-2.1-1.3-1.2,0.6-1.6,1.2
			c-1.1-0.1-2.1-0.2-3.4-0.3c0.2,1.7,0.2,3.3,0.6,4.9c0.3,1.1,1.1,1.8,2.3,0.5c1.7,2,3.1,4.1,5,5.8c2.7,2.4,5.4,4.7,9.7,4.6
			c2.9-0.1,5.9,0.7,8.8,0.9c2,0.1,4.1,0.2,6-0.3c3.4-0.8,6.5-1.2,8.9,1.1c1.4-0.9,2.5-1.7,3.7-2.4c0.6-0.3,1.6-0.4,1.9-0.8
			c1.4-2,2.9-3,4.6-1.4c3.9-1.8,7.4-3.4,11.5-5.3c0.6-2.5,1.3-5.9,2-8.8c-1-1.4-2.2-2.4-2.5-3.6c-0.3-1.2,0.2-2.5,0.3-3.8
			c-1.4,1.5-1.9,3.3-2.9,4.7c-0.7,0.9-2.3,1.5-3.5,1.5c-0.8,0-2-1.3-2.1-2.2c-0.2-1.2,0.3-2.6,0.5-3.9C85.7,6.3,86.3,3.1,87,0
			c7.4,0,14.8,0,22.2,0c0.2,0.4,0.3,0.8,0.5,1.2c2.9,7.3,6,14.5,8.5,21.9c2,6,3.1,12.2,4.6,18.4c0.4,2.8,0.8,5.5,1.3,8.3
			c-0.4,0.6-0.9,1.2-1.3,1.9c-0.4-0.4-0.8-0.9-1.3-1.1c-4.4-1-5.8-2.6-6.1-6.7c-0.1-1.7-0.4-3.5-0.6-5.3c-5.2,2.8-6.2-0.1-6-3.6
			c0.2-2.3,0.6-4.7,0.9-7c0.4-4.2,2.7-8.4,0-13.5c-0.7,2.1-1.2,3.6-1.7,5c0,0.2,0,0.3-0.1,0.4c-0.9,0.2-2.2,0.8-2.7,0.4
			c-1.6-1.3-1.7,0-2.2,0.8c-2,6-6.7,10.3-11.2,14.6c-0.8,0.7-3.1,3.5-5.1,1.1c-1.4,0.7-2.9,2.1-4,1.9c-2.1-0.4-3.4,0.5-4.9,1.3
			c-0.5,0.2-1,0.6-1.4,0.5c-3.6-1.1-7.2-1.4-11-0.3c-2.2,0.7-4.5,0.8-6.8,1.2c-4.2-0.9-8.9-0.3-12.2-2.9c-6.5,1.6-7.8-4.2-10.8-6.1
			c-1.2,1.4-2.3,2.6-3.3,3.7c-1.4-1.1-2.9-2.3-4.3-3.4c-0.2,1.6-0.4,3.5-0.7,5.4c-0.3,2-0.8,4-3.8,3.9c-0.4-1.2-0.9-2.3-1.3-3.4
			c-0.3,6-0.3,11.9-0.3,17.7c0,2.5-1.1,4.1-3.9,4.6c-1.1,0-2.1-0.1-3.2-0.1c-0.2-2.1-0.5-4.1-0.7-6.3c-0.6,0.2-1.1,0.4-1.6,0.7
			c-0.3-0.4-0.5-0.9-0.8-1.3c1-0.4,2.1-0.7,3.1-1.1c0.8-2.9,1.7-5.7,2.3-8.6c0.2-1-0.2-2.2-0.4-3.3c0-0.1-0.9,0-1.4,0
			c0.3-3.7,0.4-7.5,1-11.2c1.2-8.4,3.7-16.4,10.8-22.5c2.6-2.2,5.2-4.4,7.9-6.6C35.4,0.4,35.6,0.2,35.8,0z"/>
		<path fill="#F9B69B" d="M33.9,18.1c0.4-0.6-0.5-2.5,1.6-1.2c-0.1,0.6-0.1,1.3-0.2,1.9c-0.5,4.3,1.6,5.6,6.1,3.8c0.7-1,1.6-1.9,2-3
			c1.3-3.7,2.5-7.5,4.1-11.3c0,2.4-0.1,4.8,0,7.2c0.1,1.2,0.6,2.4,1,3.6c1.5-0.5,3.1-0.9,4.4-1.6c1.1-0.6,2-1.6,3-2.4
			c0.2,1.5,0.1,2.9,0.7,3.9c0.5,0.9,2,1.7,3,1.8c0.9,0.1,2.2-0.9,2.7-1.7c0.9-1.4,1.4-3,2.1-4.7c1.1,0.7,1.7,1.3,2.5,1.8
			c2.7,1.4,4.9,0.6,5.8-2.2c0.9-2.8,1.6-5.6,2.4-8.5c0,1-0.2,2.2,0.2,3.1c0.5,1.1,1.3,2.7,2.3,2.9c1.7,0.4,3.9,0.7,4.8-1.7
			c1.2-3.4,2.6-6.7,3.9-10c0.2,0,0.4,0,0.6,0c-0.6,3.1-1.2,6.3-1.9,9.4c-0.2,1.3-0.8,2.6-0.5,3.9c0.2,0.9,1.4,2.2,2.1,2.2
			c1.2,0,2.8-0.6,3.5-1.5c1.1-1.4,1.6-3.2,2.9-4.7c-0.1,1.3-0.6,2.7-0.3,3.8c0.3,1.2,1.5,2.2,2.5,3.6c-0.7,2.9-1.4,6.3-2,8.8
			c-4.1,1.9-7.6,3.5-11.5,5.3c-1.7-1.6-3.2-0.6-4.6,1.4C77,32.7,76,32.7,75.4,33c-1.2,0.7-2.3,1.5-3.7,2.4c-2.3-2.3-5.5-1.8-8.9-1.1
			c-1.9,0.4-4,0.4-6,0.3c-3-0.2-5.9-1-8.8-0.9c-4.3,0.1-7-2.2-9.7-4.6c-1.9-1.7-3.4-3.9-5-5.8C33.5,21.6,33.7,19.8,33.9,18.1z
			 M49.9,30.7c8,2.2,15.8,1.1,23.5-1.2c4-1.6,7.9-3.1,11.9-4.7c-0.2-0.4-0.3-0.7-0.5-1.1c-4.5,1.5-8.9,3.1-13.4,4.6
			c-2.4,0.5-4.8,1.3-7.2,1.3c-4.6,0-9.1-0.4-13.7-0.7c-0.8-0.3-1.6-0.7-2.4-0.8c-1.2-0.1-2.4,0.2-3.6,0.2c0,0.5,0,0.9,0,1.4
			C46.3,30.1,48.1,30.4,49.9,30.7z"/>
		<path fill="#060101" d="M86.3,0c-1.3,3.3-2.7,6.7-3.9,10c-0.9,2.4-3.1,2.1-4.8,1.7c-1-0.3-1.8-1.8-2.3-2.9c-0.4-0.9-0.1-2-0.2-3.1
			c0-1.9,0-3.8,0-5.7C79,0,82.6,0,86.3,0z"/>
		<path fill="#F9B69B" d="M18.1,60.8c2.8-0.5,3.9-2.1,3.9-4.6c0-5.8,0-11.7,0.3-17.7c0.4,1.1,0.8,2.2,1.3,3.4c3,0,3.5-1.9,3.8-3.9
			c0.3-1.9,0.5-3.8,0.7-5.4c1.4,1.1,2.9,2.3,4.3,3.4c1-1.2,2.1-2.3,3.3-3.7c2.9,2,4.2,7.7,10.8,6.1c3.3,2.6,7.9,2.1,12.2,2.9
			c0.6,0.2,1.2,0.4,1.9,0.6c-4.6,3-4.2,6.8-1.8,10.9c-1.2-1.1-2.4-2.1-4.2-3.6c1.3,3.9,2.4,7.5,3.6,11c1.3,3.3,2.5,6.7,3.8,10
			c0.2,0,0.3,0,0.5-0.1c0.1-0.7,0.2-1.4,0.3-2.1c0.2,0,0.5,0.1,0.7,0.1c-0.1,0.9-0.2,1.8-0.3,2.7c-12.2,2-24.3,4-36.5,6.1
			c-2.2,0.4-3.5,1.4-3.6,3.6c-0.1,1.8-0.1,3.5-0.2,5.3c0,1.1,0,2.2,0,3.3c-1.8,0-3.3,0-5.1,0c-0.3-1.9-0.7-3.8-1-5.6
			c-0.1-6.6-0.1-13.2-0.4-19.8C16.2,62.2,16.3,61.2,18.1,60.8z M38.9,70.9c4.6-0.4,9.1-0.8,13.3-3.6c-1-0.7-1.6-1.1-2.3-1.5
			c0.5-1.1,0.9-2.3,1.4-3.5c-2.8-1.7-6.3-1.7-9.6-0.7c-3.3,1-6.4,2.4-10,3.8c1.2,0.8,1.6,1.2,1.9,1.4c-1.7,1.5-3.3,2.8-5.6,4.8
			C32.3,71.4,35.6,71.2,38.9,70.9z"/>
		<path fill="#F9B69B" d="M77.7,39.9c1.5-0.7,2.8-1.7,4.9-1.3c1.1,0.2,2.6-1.2,4-1.9c2,2.4,4.3-0.4,5.1-1.1
			c4.5-4.3,9.2-8.6,11.2-14.6c0.2,0.2,0.5,0.5,0.7,0.7c0.7,0.6,1.3,1.4,2.1,1.5c0.4,0.1,1.2-0.9,1.6-1.6c0.3-0.5,0.3-1.2,0.4-1.9
			c0.1-0.1,0.1-0.3,0.1-0.4c0.3,0.8,0.9,1.6,1,2.4c0.3,2,0.5,4.1,0.7,6.1c-0.3,2.3-0.7,4.6-0.9,7c-0.3,3.5,0.7,6.5,6,3.6
			c0.2,1.9,0.4,3.6,0.6,5.3c0.3,4.1,1.7,5.6,6.1,6.7c0.5,0.1,0.8,0.7,1.3,1.1c1.4,7,2.8,14.1,4.2,21.1c-1.3,1-2.6,1.9-3.9,2.9
			c-1.1-3.2-1.8-6-3.1-8.6c-1.4-3-4.7-4.9-7.5-4.4c-11.3,1.7-22.6,3.6-33.7,5.3c0-5.4,0.1-10.7,0-16.1c-0.1-3.5-0.6-7-1-10.4
			C77.7,40.9,77.7,40.4,77.7,39.9z M92.5,56.8c0.4,0.6,0.8,1.1,1.3,1.7c-2.4,0.6-4.9,1.1-7.3,1.7c0,0.3,0,0.7,0.1,1
			c1.6,0.6,3.3,1.8,4.9,1.7c5.8-0.3,11.8-0.5,17.1-3.3c0.2,0,0.4,0,0.6,0c0.2-0.4,0.8-1,0.7-1.2c-0.6-0.9-1.4-1.8-2.1-2.6
			c1.2-0.8,2.3-1.5,3.8-2.5c-4.2-2.1-7.8-1.9-11.5-0.5C98,53,96.1,53,94.3,53.4c-1.3,0.3-2.3,1.3-3.5,2c0.4,0.4,0.7,0.9,1.1,1.3
			C92.1,56.8,92.3,56.8,92.5,56.8z"/>
		<path fill="#F9B69B" d="M12.5,55.1c0.5-0.2,1.1-0.4,1.6-0.7c0.3,2.1,0.5,4.2,0.7,6.3c0,2.4-0.2,4.9-0.1,7.3
			c0.1,5.1,0.4,10.3,0.6,15.4c-0.5,1.8-0.6,3.7-1.4,5.3c-0.8,1.4-2.4,2.5-3.6,3.7c-1-1.1-2.3-2-3-3.2c-0.6-1-0.4-2.4-0.5-3.6
			c0.2-6,0.3-12,0.5-18C7.6,63,8.5,58.5,12.5,55.1z"/>
		<path fill="#F7B69B" d="M122.8,41.5c1,0.2,2,0.3,3,0.5c0.9,1,2.2,1.8,2.6,2.9c2.7,7.3,5.3,14.7,7.7,22.2c0.3,0.9-0.2,2.5-1,3.2
			c-1.3,1.3-3.1,2.3-4.6,3.3c-2.3-0.5-3-1.9-2.9-3.9c-1.2-6.7-2.4-13.4-3.6-20C123.6,47,123.2,44.3,122.8,41.5z"/>
		<path fill="#2C2826" d="M12.5,55.1c-4,3.4-5,7.8-5.1,12.5c-0.2,6-0.3,12-0.5,18C6,85.8,5.2,86,4.3,86.2C5.1,77.8,5.7,69.4,6.6,61
			c0.3-3,1.8-5.8,5.1-7.1C12,54.3,12.3,54.7,12.5,55.1z"/>
		<path fill="#41322E" d="M15.4,83.4C15.2,78.3,15,73.1,14.8,68c-0.1-2.4,0-4.9,0.1-7.3c1.1,0,2.1,0.1,3.2,0.1
			c-1.7,0.3-1.9,1.4-1.8,2.9c0.2,6.6,0.3,13.2,0.4,19.8C16.2,83.4,15.8,83.4,15.4,83.4z"/>
		<path fill="#ECB199" d="M77.7,39.9c0,0.5,0,1,0,1.5c-1.4,0.8-2.9,1.6-4.3,2.4c-1.5-0.9-2.4-3.3-4.8-2.3c-1.8,0.7-3.4,1.8-4.4,2.4
			c-1.5-0.7-2.6-1.3-3.7-1.9c-0.6-0.2-1.2-0.4-1.9-0.6c2.3-0.4,4.6-0.6,6.8-1.2c3.7-1.2,7.3-0.9,11,0.3C76.7,40.5,77.3,40,77.7,39.9
			z"/>
		<path fill="#271C18" d="M124,49.8c1.2,6.7,2.4,13.4,3.6,20c-0.2,1-0.4,2-0.7,2.9c-1.4-7-2.8-14.1-4.2-21.1
			C123.2,51,123.6,50.4,124,49.8z"/>
		<path fill="#29211E" d="M109.7,27.9c-0.2-2-0.4-4.1-0.7-6.1c-0.1-0.8-0.7-1.6-1-2.4c0.5-1.4,1-2.9,1.7-5
			C112.4,19.5,110.1,23.7,109.7,27.9z"/>
		<path fill="#291D1B" d="M41.4,22.7c-4.5,1.8-6.6,0.5-6.1-3.8c0.1-0.6,0.1-1.3,0.2-1.9c0.6,0.7,1.3,1.3,1.9,2
			c-0.2,0.2-0.4,0.3-0.6,0.5C38.3,20.5,39.8,21.6,41.4,22.7z"/>
		<path fill="#373433" d="M14.9,52.8c0.2-4,0.4-7.9,0.6-11.9c0.5,0,1.4-0.1,1.4,0c0.2,1.1,0.6,2.3,0.4,3.3
			C16.6,47,15.7,49.9,14.9,52.8z"/>
		<path fill="#251B1A" d="M33.9,18.1c-0.2,1.7-0.3,3.4-0.5,5.1c-1.1,1.2-2,0.6-2.3-0.5c-0.4-1.6-0.4-3.2-0.6-4.9
			C31.7,18,32.8,18.1,33.9,18.1z"/>
		<path fill="#332620" d="M107.9,19.8c-0.1,0.6-0.1,1.3-0.4,1.9c-0.4,0.7-1.2,1.7-1.6,1.6c-0.8-0.1-1.4-1-2.1-1.5
			c-0.3-0.2-0.5-0.5-0.7-0.7c0.5-0.7,0.6-2.1,2.2-0.8C105.6,20.6,107,20,107.9,19.8z"/>
		<path fill="#3F2F2A" d="M50.6,28.9c4.6,0.3,9.1,0.7,13.7,0.7c2.4,0,4.8-0.8,7.2-1.3c0.7,0.4,1.3,0.8,2,1.2
			c-7.7,2.3-15.5,3.4-23.5,1.2C50.1,30.1,50.4,29.5,50.6,28.9z"/>
		<path fill="#533D34" d="M73.4,29.5c-0.7-0.4-1.3-0.8-2-1.2c4.5-1.5,8.9-3.1,13.4-4.6c0.2,0.4,0.3,0.7,0.5,1.1
			C81.3,26.4,77.4,27.9,73.4,29.5z"/>
		<path fill="#34211D" d="M50.6,28.9c-0.2,0.6-0.5,1.2-0.7,1.8c-1.8-0.3-3.6-0.6-5.3-0.9c0-0.5,0-0.9,0-1.4c1.2-0.1,2.4-0.3,3.6-0.2
			C49,28.2,49.8,28.6,50.6,28.9z"/>
		<path fill="#040000" d="M126.9,72.7c0.2-1,0.4-2,0.7-2.9c-0.2,1.9,0.5,3.4,2.9,3.9c1.5-1,3.2-2,4.6-3.3c0.7-0.8,1.3-2.3,1-3.2
			c-2.4-7.4-5-14.8-7.7-22.2c-0.4-1.1-1.7-2-2.6-2.9c2.6-0.5,4.2,0.7,4.9,2.8c2.9,7.7,6,15.4,8.2,23.3c0.7,2.5,2.8,2.5,4.2,4
			c-2.3,0.9-4.6,1.7-7.2,2.7c2.4,1,4.3,1.6,5.9,2.5c0.7,0.4,1.1,1.6,1.1,2.4c0,0.4-1.1,1-1.8,1.3c-1.9,0.7-4.8,0.7-5.7,1.9
			c-1.9,2.7-3.2,5.9-4,9c-0.8,3.1-0.5,6.4-0.9,9.6c-1.2,9.5-4.9,18-11.4,25.4c-3.9,4.4-9,7.3-14.6,9.3c-7.6,2.7-15.3,5.5-23.1,7.4
			c-13.3,3.1-26.8,2.9-40.2,0c-8.6-1.9-13.9-7.6-18.6-13.9c-3.9-5.2-5.8-10.9-6.7-17.1c-0.4-3.2-1.4-6.6-6-7.2
			c-2.9,0-3.2-2.6-4.9-3.9c-0.8-0.5-1.6-1.1-2.5-1.6c-3.3-1.6-3.4-2.8-0.3-4.8c-2.4-3.6-1.2-6.5,2.1-9C5.2,86,6,85.8,6.9,85.7
			c0.1,1.2,0,2.6,0.5,3.6c0.7,1.2,1.9,2.1,3,3.2c1.2-1.2,2.8-2.3,3.6-3.7c0.9-1.6,1-3.5,1.4-5.3c0.4,0,0.8,0,1.2,0
			c0.3,1.8,0.6,3.7,1,5.6c1.8,0,3.3,0,5.1,0c0-1.2,0-2.2,0-3.3c0-1.8,0.1-3.6,0.2-5.3c0.1-2.1,1.5-3.2,3.6-3.6
			c12.2-2,24.3-4,36.5-6.1c0.6,0,1.1-0.1,1.7-0.1c-1.2-4-2.4-7.8-3.6-11.7c0.4-0.4,0.8-0.7,1.2-1.1c2.4,8.3,6.8,16.1,6.8,25.4
			c1.8-0.4,3.4-0.7,4.9-1c2.1,0.1,2.5-0.9,2.4-2.6c-0.2-3.2-0.3-6.5-0.4-9.7c0.3-6.1,0.8-12.2,1-18.3c0.1-2.7-0.2-5.4-0.4-8.1
			c-1.1,1.3-2.3,2.7-3.4,4.1c-0.1,0-0.5-0.3-0.9-0.6c-0.2-0.5-0.4-1.1-0.7-1.6c0.6-0.6,1.2-1.1,1.9-1.7c1.4-0.8,2.9-1.6,4.3-2.4
			c0.3,3.5,0.9,7,1,10.4c0.2,5.4,0,10.7,0,16.1c11.1-1.7,22.4-3.6,33.7-5.3c2.8-0.4,6.1,1.4,7.5,4.4c1.2,2.6,2,5.5,3.1,8.6
			C124.4,74.6,125.6,73.7,126.9,72.7z M80.2,92.6c-0.8-0.4-1.6-0.9-2.4-1.3c-0.4-1.4-0.8-2.8-1.2-4.3c-2.8,0.3-5.4,0.6-8.1,0.9
			c-0.3,2.5,0.2,5-3.8,5.5c-10.7,1.3-21.4,3.2-32.1,4.7c-2.5,0.4-5.5,1.3-7.2-0.8c-1.8-2.2-3.9-2.1-6.6-2.3
			c0.8,6.9,3.9,12.6,8.5,17.5c2.8,3,6.1,5.5,9.2,8.3c1,0.9,2,2,3.2,3.3c1-3.1-0.4-4.7-2.4-6.3c-0.7-0.6-1.5-2.2-1.2-2.6
			c0.7-0.8,2.2-1.7,3.1-1.5c1.6,0.3,3.1,1.3,4.4,2.3c3.3,2.5,6.5,5.1,9.7,7.6c0.2-0.2,0.4-0.4,0.6-0.6c-3.2-4.2-6.4-8.4-9.6-12.5
			c0.2-0.3,0.4-0.6,0.6-0.8c4.7,1.7,9.2,3.9,14,6.6c-0.5-2.2-0.9-4.1-1.3-6.1c8.3,1.4,12.7,7.9,19.1,11.7c-1.6-3.6-3.6-7-5.2-10.4
			c-0.8-1.6-1-3.4-1.4-5.1c2,0.7,4.4,1,5.8,2.3C83,115.3,89,122.6,92.7,131c1.7-3.3,3.5-6.7,5.3-10.2c3.6-6.9,9.4-12.3,15.2-17.6
			c0.6-0.6,2.3-0.7,3.3-0.4c0.6,0.2,1.2,1.7,1.1,2.5c-0.2,1.3-0.9,2.5-1.5,3.6c-1,2-2.1,3.9-3.1,5.9c0.3,0.1,0.6,0.3,0.9,0.4
			c1.9-3.2,3.7-6.5,5.8-9.5c1.3-1.9,3.9-3.3,4.7-5.3c1-2.6,0.9-5.7,1.2-8.6c0.4-2.9,0.8-5.9,1.2-8.8c0.2-1.5,0.6-2.9,0.9-4.3
			c-0.3-0.1-0.6-0.3-0.9-0.4c-1,0.9-3,1.9-2.9,2.7c0.2,2.8-1.7,3-3.6,3.7c-11.2,3.7-22.9,5.7-34.6,7.4C83.9,92.2,82,92.4,80.2,92.6z
			 M115.1,66.9c-1.3,0-2.4-0.2-3.5,0c-9.8,1.7-19.7,3.4-29.5,5c-2.2,0.4-2.7,1.4-2.6,3.1c0.2,3.5,0.6,7,0.7,10.5
			c0,2.6,1,3.2,3.7,2.7c10.4-1.9,20.9-3.6,31.3-5.4c1.5-0.3,2.9-0.6,4.4-1C118.1,76.7,116.6,71.9,115.1,66.9z M63.8,74.2
			c-1.6,0.1-2.4,0.1-3.2,0.2c-8.8,1.5-17.7,2.9-26.5,4.4c-7.7,1.3-7.7,1.3-6.8,8.4c0.3,2.5,0.6,5,0.9,7.5c12.6-2,24.7-3.9,37.1-5.9
			C64.8,84,64.3,79.2,63.8,74.2z"/>
		<path fill="#EF4A34" d="M212.3,122.6c2.4-3.8,4.6-7.4,7.1-11c1.4-2,3.2-3.6,6.3-3.4c3.3,0.3,4.6,1.3,4.7,4.5
			c0.2,3.3,0,6.6,0.1,9.9c0.2,6.7,0.4,13.4,0.7,20.1c0.1,2.4-0.5,3.8-3.5,3.5c-2.6-0.3-4.1-0.9-4-3.8c0.3-8.6,0.3-17.2,0.4-25.8
			c0-0.6-0.1-1.2-0.2-1.8c-0.3-0.1-0.6-0.2-0.9-0.3c-2,4-4.5,8-6,12.2c-1.7,4.8-2.7,9.9-3.7,14.9c-0.3,1.6-0.6,2.9-2.6,2.5
			c-1.9-0.3-4.2-0.4-4.3-3.1c-0.3-5.3-0.7-10.6-1.1-15.8c-0.2-2-0.5-4.1-0.7-6.1c-0.3,0-0.5-0.1-0.8-0.1c-0.6,1.8-1.4,3.5-1.8,5.3
			c-1.7,6.6-3.3,13.2-5.1,19.8c-0.3,1-1.6,2.1-2.7,2.4c-2.6,0.7-3.7-0.2-3-2.7c3-11.2,6.2-22.4,9.4-33.6c0.7-2.5,2.8-3.2,5.4-3.2
			c2.7,0.1,3.7,1.7,4.2,3.8C210.9,114.7,211.5,118.5,212.3,122.6z"/>
		<path fill="#EF4A34" d="M164.4,82.3c-3.4,0.7-6.5,1.3-9.3,1.9c0.3,5.3,0.5,10.3,0.8,15.3c0.2,2.8-1.2,3.8-4.1,3.8
			c-2.8,0.1-4.2-0.6-4.3-3.4c-0.4-11.6-1-23.2-1.4-34.8c0-1.3-0.5-3.1,2-3c2.2,0.1,4,0.6,4.1,3.2c0.3,5,0.9,9.9,1.4,15
			c3.6-0.6,6.4-0.9,9.1-1.5c0.7-0.2,1.4-1.4,1.4-2.2c0-4.3-0.2-8.7-0.3-13c0-1.3-0.1-2.8,2.1-2.7c1.8,0.1,3.1,0.7,3.4,2.6
			c0.6,4.4,1.6,8.8,2,13.2c0.7,6.8,1.1,13.5,1.4,20.3c0.1,1.4-0.4,3.1-1.3,4.1c-0.8,0.9-2.9,1.8-3.9,1.4c-1-0.3-1.9-2.2-2-3.4
			c-0.4-4.8-0.5-9.6-0.7-14.4C164.7,84,164.5,83.3,164.4,82.3z"/>
		<path fill="#EF4A34" d="M256.6,79.7c6.1,2.1,9,6.6,12.2,10.8c2.7,3.5,2.1,4.8-1.8,7c-0.7,0.4-1.4,0.8-2.4,1.3
			c-1.3-2.3-2.4-4.6-3.9-6.6c-1.7-2.4-3.5-4.6-5.5-6.8c-1.6-1.8-3.6-1.7-5.9-0.9c-2.2,0.8-1.6,2.4-1.6,3.8c-0.1,2.3,0.1,4.5,0.1,6.8
			c0,1.7-2.4,3.8-4,3.3c-1.5-0.5-2.1-1.4-2-3c0.3-4.1-0.2-8.4,0.5-12.4c1.2-7,0.8-14.3,5.1-20.7c3.6-5.3,13.5-6.4,18-1.7
			c0.9,0.9,1.1,2.9,0.8,4.1C264.4,70.3,261.4,75.2,256.6,79.7z M249.3,77.4c4-4,7.2-8.5,8.7-13.8c0.2-0.7-0.7-2.3-1.3-2.3
			c-1-0.1-2.4,0.4-3.1,1.1C249.8,66.7,249,71.9,249.3,77.4z"/>
		<path fill="#EF4A34" d="M298.5,150c-1.1-0.4-3.3-0.8-5.2-1.9c-0.8-0.5-1.2-2.1-1.1-3.2c1-9.8,2.1-19.5,3.1-29.3
			c0.2-1.7,0.8-2.4,2.6-2.2c3,0.4,6,1,9.1,1.2c7.2,0.4,11.4,7.3,11,13.4c-0.3,3.7-1.1,7.5-2.2,11.1
			C314.3,144.7,306.3,149.7,298.5,150z M300.6,145.5c1.2-0.7,1.9-1,2.5-1.6c4.2-3.9,6.3-8.8,6.9-14.1c0.4-3.3-0.5-6.4-2.6-9
			c-1.6-2-3.3-4-6.8-3.9C300.6,126.4,300.6,135.8,300.6,145.5z"/>
		<path fill="#EF4A34" d="M205.2,82.1c1.4,4.7-0.8,8.9-3,13.1c-2.3,4.3-7.8,5.7-15.2,4.5c-5.2-0.8-7.3-4.4-8.5-8.3
			c-2.3-7-2-14,2.5-20.4c0.8-1.1,2.4-2.2,3.7-2.4c3-0.5,6.1-0.9,9.1-0.7c7.5,0.5,11.5,4.8,11.3,11.8
			C205.2,80.4,205.2,81.2,205.2,82.1z M184.2,82.4c0.7,6.1,1.9,9.5,4.5,12c1.6,1.5,3.1,1.6,4.3-0.1c1.9-2.7,4-5.5,5.2-8.5
			c1.9-4.7-1.3-11.2-6.1-13.5c-2.8-1.3-4.2-1.1-5.3,1.6C185.6,76.6,185,79.5,184.2,82.4z"/>
		<path fill="#EF4A34" d="M352.6,128.6c-1.1,3.4-1.6,7-3.4,10c-2.7,4.7-10.5,7.1-16.3,5.7c-10-2.5-13.6-7.5-12.1-16.9
			c0.3-1.7,0.5-3.4,1-5c1.8-6.2,5.7-9.1,14.5-7.8c1.2,0.2,2.4,0.4,3.6,0.5C347.5,116.2,352.1,121.3,352.6,128.6z M327.8,131.4
			c0.2,3.9,0.5,7,4,8.6c2.4,1.1,6.3-0.1,8.3-2.3c4.2-4.5,4.5-11.1,0.6-15.9c-1.7-2.2-3.8-3.8-7.2-2.8c-2.9,0.8-3.8,2.7-4.3,5
			C328.6,126.7,328.2,129.5,327.8,131.4z"/>
		<path fill="#EF4A34" d="M224.3,79.1c3.8,3.5,7.4,6.9,11,10.4c1.5,1.5,2.9,3.1,0.6,5.1c-1.3,1.1-5.1,0.8-6.3-0.7
			c-1.5-1.7-2.6-3.6-4.2-5.2c-1.7-1.7-3.5-3.5-5.6-4.7c-3-1.8-4.7-0.7-4.7,2.5c0,2.8,0.3,5.7-0.3,8.5c-0.3,1.3-1.8,2.8-3.2,3.6
			c-1.4,0.8-2.9,0.1-2.7-1.8c0.7-8.5,0.8-17,2.2-25.4c1.4-8.5,8.8-13,17.3-11.5c3.9,0.7,5.1,2.4,4.7,6c-0.6,4.8-3.8,8.2-7,11.7
			C225.3,78.2,224.6,78.8,224.3,79.1z M214.7,77.4c0.4,0.2,0.9,0.4,1.3,0.5c5.1-1.9,7.9-5.9,10.1-10.3c0.7-1.3,0.4-3,0.6-4.5
			c-2,0.2-4.1,0.4-6.1,0.8c-0.6,0.1-1.3,1-1.6,1.7C217.5,69.5,216.1,73.4,214.7,77.4z"/>
		<path fill="#EF4A34" d="M280.9,130.4c1.1-4.4,2.1-8.8,3.2-13.2c0.2-0.8,0.1-1.8,0.5-2.5c0.8-1.1,1.8-2.7,3-3
			c1.5-0.4,3.3,2.5,3,4.2c-1.6,7.7-3.2,15.4-4.8,23c-1,4.6-4.1,6-8.5,3.8c-1.1-0.5-2-1.9-2.3-3c-1.4-5.8-2.6-11.6-3.9-17.5
			c-0.1-0.4-0.2-0.9-1-1.4c-0.9,2.6-2.1,5.1-2.8,7.8c-1,3.8-1.8,7.8-2.5,11.7c-0.3,2-1.6,2.2-3.3,2c-1.8-0.2-2.1-1.2-1.7-2.6
			c2.1-7.1,4.2-14.2,6.5-21.2c0.5-1.4,0.1-3.4,2.6-4.1c3.3-1,5.3-0.8,6.6,2.1c1.7,4,2.8,8.2,4.1,12.3c0.1,0.4,0.2,0.9,0.2,1.3
			C280.3,130.4,280.6,130.4,280.9,130.4z"/>
		<path fill="#EF4A34" d="M323,90.6c0,3.2,0,6.4,0,9.7c0,1.8,0.9,2.3,2.7,2.1c2.4-0.3,4.9-0.6,7.3-0.6c0.8,0,1.5,0.9,2.3,1.4
			c-0.7,0.6-1.3,1.6-2,1.7c-3.5,0.7-7,1.4-10.6,1.5c-4.1,0.1-7.2-2.9-7.2-6.7c0-9.2,0.1-18.3,0.4-27.5c0-1,1.1-2.5,2.1-2.8
			c3.5-1.2,7-2,10.6-2.8c1.2-0.3,2.6-0.4,3.6,0c1.3,0.6,2.3,1.8,3.5,2.8c-1,0.6-2,1.5-3.1,1.9c-1.5,0.5-3.2,0.8-4.8,1.1
			c-5,1.2-5,1.2-5.1,6.1c0,2.1,0,4.1,0,6.4c2.2-0.3,4-0.7,5.8-0.8c1.6-0.1,3.3-0.1,4.8,0.2c0.9,0.2,1.6,1.3,2.4,1.9
			c-0.7,0.7-1.3,1.7-2.2,1.9C330.2,89.2,326.7,89.8,323,90.6z"/>
		<path fill="#EF4A34" d="M244.5,111.5c-0.9,4.6-2,9-2.5,13.3c-0.4,3.1-0.3,6.4,0.2,9.5c0.2,1.1,2.1,2.1,3.2,3.1
			c0.9-1,2.4-1.9,2.7-3c1.5-5.8,2.7-11.6,4-17.4c0.2-1,0.4-2.4,1.1-2.8c1.3-0.7,3-0.8,4.6-1.1c0.2,1.1,0.8,2.2,0.7,3.3
			c-0.9,5.9-1.8,11.8-2.9,17.6c-0.8,4.3-4.3,7.2-9,7.7c-4.6,0.5-8.3-1.6-10.4-5.5c-2.7-4.9-1.2-9.8-0.6-14.7
			c0.3-2.2,0.8-4.5,1.2-6.7c0.5-3.1,1.6-3.9,5-3.6C242.4,111.1,243.1,111.2,244.5,111.5z"/>
		<path fill="#EF4A34" d="M299.6,90.6c1.6-4.9,3.3-9.9,4.8-14.8c0.6-1.9,1-3.9,3.6-3.9c2.3,0,4.1,3,3.7,5.4
			c-0.3,1.4-0.7,2.7-1.3,4.1c-2.1,5.4-4.2,10.8-6.6,16.1c-0.9,2-1.4,4.7-5.1,4.3c-4.1-0.5-5.8-1.6-6.4-5.2c-1.1-6.5-2.1-13-3.1-19.6
			c-0.2-1.2-0.4-2.5-0.1-3.7c0.4-1.2,1.4-2.3,2.1-3.4c1.1,0.9,2.9,1.6,3.3,2.8c1.3,3.8,2.1,7.7,3.1,11.5c0.5,2.1,0.9,4.2,1.3,6.3
			C299.2,90.5,299.4,90.6,299.6,90.6z"/>
		<path fill="#EF4A34" d="M359.7,101c1,4-0.2,5.5-4,5.9c-0.8,0.1-1.6,0.1-2.5,0.1c-12,0.1-13-4.1-12.4-11.2c0.7-8.7,1.3-17.3,2-26
			c0.1-1.1,1.1-2.1,1.7-3.2c1.4,0.9,3.7,1.5,4.1,2.7c1.1,3,1.6,6.2,1.8,9.4c0.5,6.7,0.5,13.4,0.9,20.1c0.2,4.3,2.5,5.4,6.7,3.3
			C358.5,101.9,359,101.5,359.7,101z"/>
		<path fill="#EF4A34" d="M273.7,30.8c-5.2,0.9-6.4,1.8-6.9,5.7c-0.4,2.7-0.5,5.5-0.5,8.2c0,1.6-0.3,3-2.3,2.8
			c-1.6-0.2-3.2-0.9-3.2-3.1c0.1-4-0.1-7.9-0.2-11.9c0-0.7-0.4-1.4-0.6-2.1c-4.8,1.2-5.1,1.6-5.2,5.7c-0.1,3.8-0.3,7.5-0.3,11.3
			c0,1.7-1.1,2.4-2.6,2.5c-1.7,0.1-2.6-0.8-2.5-2.5c0.4-6.5,0.7-13,1.1-19.4c0.1-1.3,0.3-2.8,2.3-2.7c2.2,0.1,2.6,1.4,2.4,3.1
			c0,0.2,0.1,0.3,0.3,0.6c3.5-0.7,7.2-2.3,9.4,1.2c3.2-0.5,6.2-1.2,9.2-1.4c2.7-0.1,4.5,1.3,4.7,3.9c0.2,4.2,0.2,8.5,0.3,12.7
			c0,0.5-0.2,1.2-0.6,1.6c-0.8,0.7-1.9,1.8-2.8,1.7c-0.8-0.1-1.9-1.5-2-2.3c-0.2-3.2-0.1-6.4-0.1-9.6
			C273.7,34.8,273.7,32.9,273.7,30.8z"/>
		<path fill="#EF4A34" d="M165.2,119.4c-0.3-2.6-0.8-5.3-0.8-8c0-0.9,1.1-1.9,1.6-2.8c0.9,0.7,2.5,1.2,2.6,2
			c0.7,3.8,0.9,7.7,1.6,11.5c0.3,1.6,1.3,3.1,2,4.6c0.3-0.1,0.6-0.2,0.9-0.3c-0.1-0.7-0.1-1.4-0.2-2.1c-0.5-4.1,1.7-7.2,4.9-9.5
			c2.2-1.6,5.3-1.5,7.5,0c2.8,1.9,2.6,5,2.1,7.8c-1.1,6.1-4.7,7.8-11.3,6.4c-2.9-0.6-6.3-1.1-9.1,1.4c-2.4,2.2-7.4,2-10-0.1
			c-2.8-2.3-1.4-8.1,2.4-9.5C161.2,120.1,163.1,119.8,165.2,119.4z M184,120.6c-0.3-1.1-0.3-2.2-1-3c-0.4-0.5-1.8-0.9-2.4-0.6
			c-2.7,1.2-3.8,6.4-2.1,8.6c1.5,1.9,3.1,1.9,4-0.3C183.2,123.8,183.5,122.2,184,120.6z M159.2,127.3c1.2,0.6,2.8,2.1,3.6,1.8
			c1.3-0.6,2.8-2,3.1-3.3c0.3-1.1,1-3.5-1.9-3.6C161.8,122.1,159.6,124.6,159.2,127.3z"/>
		<path fill="#EF4A34" d="M175.7,49.5c0.1,4.9-1.8,7.6-6.2,8.7c-5.5,1.4-11.5-0.5-13.3-4.5c-2.4-5.3-2.7-10.8-1.7-16.4
			c0.5-2.5,2.1-3.7,5-4.5c8.6-2.2,13.2,2.9,14.5,8.7C174.7,44.1,175.2,46.8,175.7,49.5z M159,41.6c-0.2,0.1-0.4,0.1-0.7,0.2
			c1.2,4,2.2,8,3.7,11.9c0.4,1,2.6,2.1,3.8,2c1.2-0.1,3.1-1.5,3.3-2.6c1.3-5.4,0.8-10.8-2.3-15.6c-0.8-1.2-3.3-2.4-4.4-2.1
			c-1.4,0.4-2.5,2.4-3.4,3.9C158.7,39.7,159,40.8,159,41.6z"/>
		<path fill="#EF4A34" d="M283.6,77.6c-0.8,7.6-1.5,15.2-2.4,22.8c-0.2,1.5-0.1,3.6-3,3.5c-3.2-0.1-4.8-1.1-4.9-3.8
			c-0.1-3,0-6,0.3-9c0.7-6.2,1.6-12.4,2.5-18.5c0.3-2.1,1.4-3.5,4.1-3.1c2.6,0.4,3.2,1.9,3.1,4.1c-0.1,1.4,0,2.8,0,4.2
			C283.4,77.6,283.5,77.6,283.6,77.6z"/>
		<path fill="#EF4A34" d="M216.8,35.6c0,0.4,0.1,0-0.1-0.4c-0.5-1.3-1.1-2.5-1.6-3.8c-1.3,0.7-2.7,1.2-3.7,2.1
			c-1.7,1.5-3.1,1.4-4.8,0.2c1.7-3.5,4.8-5.3,8.4-4.9c3.4,0.4,5.6,2.3,6.3,6c0.7,3.3,1.1,6.7,1.8,10c0.2,1.1,1,2.1,1.2,3.2
			c0.2,1.1,0.1,2.2,0.2,3.3c-1.2-0.3-2.4-0.4-3.5-0.8c-0.6-0.2-1.1-0.8-1.7-1.4c-3,3.4-6.6,4.4-11,3c-3.8-1.2-5.3-4.3-2.7-7
			C208.7,41.8,212.6,39,216.8,35.6z M216.3,40.8c-2,2.5-4,4.9-5.9,7.4c-0.3,0.5,0,1.4,0.3,2.1c0.1,0.2,1.1,0.3,1.6,0.2
			C215,49.4,217.7,44.1,216.3,40.8z"/>
		<path fill="#EF4A34" d="M291.2,34.6c0-0.6,0-0.9,0-1.2c-0.6-4.5-0.7-4.6-5-2.3c-0.9,0.4-2,0.5-3.3,0.8c2.1-4.2,8.2-6.2,11.6-3.8
			c1.4,1,2.4,3.1,2.6,4.8c0.4,3.7,0.3,7.5,0.3,11.3c0,1.4-0.2,2.8-0.2,4.1c-3.3,0.6-6.6,1.5-10,1.8c-4.7,0.3-7.3-2.7-6.1-6.9
			C282.4,38.3,285,34.7,291.2,34.6z M291.1,37.8c-3.9,2.1-5.9,6.9-4.1,9.7C291,44.6,292,42.3,291.1,37.8z"/>
		<path fill="#EF4A34" d="M197,27.4c4.5-0.1,7.4,3.2,6.5,7.3c-1,4.1-2.9,7.7-7.4,9.4c-2,0.7-2.2,1.9-1.6,3.6c0.5,1.4,0.6,3,1.2,4.4
			c0.7,1.6,0.7,2.9-1.4,3.2c-1.8,0.3-3.6,0.1-4-2.1c-0.3-1.6-0.7-3.1-0.9-4.7c-0.5-4-1-8.1-1.2-12.1C187.6,30.7,190.9,27.5,197,27.4
			z M193.5,41.4c4-1.9,6-5,5.3-8.2c-0.3-1.1-1.4-2-2.1-3.1c-1.1,0.9-2.3,1.6-3.3,2.6c-0.4,0.4-0.5,1.3-0.4,1.9
			C193.1,36.9,193.3,39.1,193.5,41.4z"/>
		<path fill="#EF4A34" d="M311.5,47.7c1,0.4,1.2,0.5,1.3,0.6c1.7,1.6,3.4,2.9,5.6,0.7c1.8-1.7,1.4-5.2-0.7-6.9
			c-0.5-0.4-1-0.7-1.5-0.9c-5.1-2.5-6.1-7.8-1.7-11.2c1.4-1.1,4.6-0.9,6.8-0.4c1.7,0.4,3.1,2.1,4.3,3.4c0.3,0.3-0.7,2.1-1.4,2.3
			c-0.9,0.3-2.2-0.2-3.2-0.7c-1.1-0.6-2-1.6-2.9-2.4c-0.6,1.4-1.6,2.8-1.5,4.1c0.1,1.1,1.3,2.7,2.4,3c3.4,1.1,5.7,2.9,6.5,6.1
			c0.7,2.6-1.1,5.5-4,6.5c-4,1.4-8.3,0.6-9.7-1.9C311.6,49.5,311.7,48.8,311.5,47.7z"/>
		<path fill="#EF4A34" d="M228.1,36.2c0-2.2-0.1-4.3,0.1-6.5c0.1-0.8,1-1.5,1.5-2.3c1.1,0.7,3.1,1.3,3.2,2.2
			c1.1,5.7,1.8,11.4,2.7,17.1c0.3,2-0.6,2.9-2.5,3.1c-2,0.2-3.9,0-4.2-2.3c-0.5-3.7-0.8-7.5-1.1-11.3
			C227.9,36.2,228,36.2,228.1,36.2z"/>
		<path fill="#EF4A34" d="M302.2,29.6c5,0,5.3,0.3,5.2,4c0,4.9-0.2,9.8-0.1,14.7c0.1,1.8-1.2,2.4-2.3,2.2c-1.3-0.2-3.6-1.2-3.6-1.9
			C301.5,42.3,301.9,36,302.2,29.6z"/>
		<path fill="#EF4A34" d="M290.1,59.4c-1.8,2.2-3.5,4.6-5.6,6.6c-1.7,1.7-3.9,1.1-5.3-0.5c-0.6-0.6-0.8-2.3-0.3-2.7
			c2.2-2.2,4.6-4.2,7.1-6.1c0.6-0.4,1.9-0.6,2.4-0.3C289.1,56.9,289.4,57.9,290.1,59.4z"/>
		<path fill="#EF4A34" d="M234.4,22.5c-1.8,1.1-2.7,2.1-3.8,2.2c-0.8,0-1.7-1.1-2.5-1.8c1-0.6,2-1.5,3.1-1.8
			C231.8,21,232.7,21.8,234.4,22.5z"/>
		<path fill="#EF4A34" d="M306.2,22.9c1,1.1,2.2,2.1,2,2.2c-0.7,0.9-1.5,1.9-2.6,2.3c-0.6,0.2-1.6-1-2.4-1.5
			C304.1,25,304.9,24.2,306.2,22.9z"/>
		<path fill="#3F3F3F" d="M5.1,101.5c1.7,1.3,2,3.9,4.9,3.9c-0.8,0-1.6,0.1-2.4,0C4.1,105.1,3.7,104.5,5.1,101.5z"/>
		<path fill="#F48867" d="M38.9,70.9c-3.3,0.2-6.6,0.5-10.8,0.8c2.3-2,3.9-3.3,5.6-4.8c-0.3-0.2-0.8-0.5-1.9-1.4
			c3.6-1.4,6.7-2.8,10-3.8c3.4-1,6.8-1.1,9.6,0.7c-0.5,1.2-1,2.3-1.4,3.5c-0.4,0.6-0.9,1.1-1.3,1.7c0.2,0.2,0.3,0.3,0.5,0.5
			C45.8,69,42.3,69.9,38.9,70.9z"/>
		<path fill="#180A08" d="M73.4,43.7c-0.6,0.6-1.2,1.1-1.9,1.7c-1-0.5-2-1.1-3.1-1.6c-1.6,1.8-3.2,3.7-4.8,5.5
			c-0.4,0.2-0.8,0.4-1.2,0.6c-0.2-2.4-0.5-4.7-0.8-7.7c-2.7,2.9-3.8,5-2.3,7.9c1.2,2.5,1.9,5.1,2.9,7.7c-0.4,0.4-0.8,0.7-1.2,1.1
			c-0.4-1-0.8-2-1.2-3c-0.4-1.1-0.9-2.2-1.3-3.3c-2.3-4-2.7-7.8,1.8-10.9c1.1,0.6,2.3,1.2,3.7,1.9c1-0.6,2.6-1.7,4.4-2.4
			C71,40.4,71.9,42.8,73.4,43.7z"/>
		<path fill="#F39778" d="M59.9,56c0.4,1,0.8,2,1.2,3c1.2,3.8,2.4,7.7,3.6,11.7c-0.6,0-1.2,0.1-1.7,0.1c0.1-0.9,0.2-1.8,0.3-2.7
			c-0.2,0-0.5-0.1-0.7-0.1c-0.1,0.7-0.2,1.4-0.3,2.1c-0.2,0-0.3,0-0.5,0.1c-1.3-3.3-2.5-6.7-3.8-10c-0.1-1.2-0.3-2.4-0.4-3.6
			c0.2,0,0.3-0.1,0.5-0.1c0.4,0.7,0.9,1.5,1.6,2.7C59.8,57.6,59.9,56.8,59.9,56z"/>
		<path fill="#F5A88B" d="M59.9,56c-0.1,0.8-0.1,1.6-0.2,3c-0.7-1.2-1.2-2-1.6-2.7c-0.2,0-0.3,0.1-0.5,0.1c0.1,1.2,0.3,2.4,0.4,3.6
			c-1.1-3.6-2.3-7.1-3.6-11c1.7,1.5,2.9,2.6,4.2,3.6C59.1,53.9,59.5,54.9,59.9,56z"/>
		<path fill="#F69F7F" d="M38.9,70.9c3.4-1,6.9-2,10.3-2.9c-0.2-0.2-0.3-0.3-0.5-0.5c0.4-0.6,0.9-1.1,1.3-1.7
			c0.6,0.4,1.2,0.8,2.3,1.5C48.1,70.2,43.5,70.6,38.9,70.9z"/>
		<path fill="#F58E6E" d="M108.5,59.6c-5.3,2.8-11.3,3-17.1,3.3c-1.6,0.1-3.3-1.1-4.9-1.7c0-0.3,0-0.7-0.1-1
			c2.4-0.6,4.9-1.1,7.3-1.7C98.7,58.8,103.6,59.2,108.5,59.6z"/>
		<path fill="#FAAF91" d="M99.9,52.8c3.7-1.4,7.3-1.7,11.5,0.5c-1.5,1-2.6,1.7-3.8,2.5c0.7,0.9,1.5,1.7,2.1,2.6
			c0.1,0.2-0.4,0.8-0.7,1.2c-0.9-0.4-1.7-0.9-2.6-1.1c-2.4-0.6-4.8-1.1-7.2-1.7c0.6-0.2,1.2-0.4,1.8-0.6c2.9,0,5.6-0.4,7.5-3.4
			C105.7,52.8,102.8,52.8,99.9,52.8z"/>
		<path fill="#F49373" d="M99.9,52.8c2.9,0,5.8,0,8.8,0c-1.9,3-4.7,3.4-7.5,3.4c0.6-1.1,0.5-1.9-1.1-1.6c-1.2,0.2-2.5,0.4-4.1,0.7
			c0.5-0.6,0.7-0.9,1-1.3c-2.4,0.1-4.9-0.3-5.1,2.8c-0.4-0.4-0.7-0.9-1.1-1.3c1.1-0.7,2.2-1.6,3.5-2C96.1,53,98,53,99.9,52.8z"/>
		<path fill="#F58E6E" d="M91.9,56.7c0.2-3.2,2.7-2.7,5.1-2.8c-0.3,0.4-0.5,0.7-1,1.3c1.6-0.3,2.8-0.5,4.1-0.7
			c1.7-0.2,1.7,0.5,1.1,1.6c-0.6,0.2-1.2,0.4-1.8,0.6c-2.3,0-4.6,0-6.9,0C92.3,56.8,92.1,56.8,91.9,56.7z"/>
		<path fill="#F49373" d="M92.5,56.8c2.3,0,4.6,0,6.9,0c2.4,0.6,4.8,1.1,7.2,1.7c0.9,0.2,1.7,0.7,2.6,1.1c-0.2,0-0.4,0-0.6,0
			c-4.9-0.4-9.9-0.7-14.8-1.1C93.3,57.9,92.9,57.3,92.5,56.8z"/>
		<path fill="#F9B69B" d="M85.7,92c11.7-1.7,23.4-3.7,34.6-7.4c1.9-0.6,3.9-0.9,3.6-3.7c-0.1-0.8,1.9-1.8,2.9-2.7
			c0.3,0.1,0.6,0.3,0.9,0.4c-0.3,1.4-0.7,2.9-0.9,4.3c-0.5,2.9-0.9,5.9-1.2,8.8c-0.4,2.9-0.2,5.9-1.2,8.6c-0.8,2-3.4,3.4-4.7,5.3
			c-2.1,3.1-3.9,6.3-5.8,9.5c-0.3-0.1-0.6-0.3-0.9-0.4c1-2,2.1-3.9,3.1-5.9c0.6-1.2,1.3-2.4,1.5-3.6c0.1-0.8-0.4-2.2-1.1-2.5
			c-0.9-0.3-2.6-0.2-3.3,0.4c-5.8,5.3-11.6,10.7-15.2,17.6c-1.8,3.5-3.6,6.9-5.3,10.2c-3.7-8.3-9.7-15.7-16.8-22.2
			c-1.4-1.3-3.8-1.6-5.8-2.3c0.5,1.7,0.7,3.5,1.4,5.1c1.7,3.5,3.6,6.8,5.2,10.4c-6.4-3.9-10.8-10.3-19.1-11.7c0.4,2,0.8,3.8,1.3,6.1
			c-4.7-2.8-9.2-5-14-6.6c-0.2,0.3-0.4,0.6-0.6,0.8c3.2,4.2,6.4,8.4,9.6,12.5c-0.2,0.2-0.4,0.4-0.6,0.6c-3.2-2.6-6.4-5.2-9.7-7.6
			c-1.3-1-2.8-1.9-4.4-2.3c-0.9-0.2-2.4,0.7-3.1,1.5c-0.3,0.4,0.5,2,1.2,2.6c2,1.6,3.3,3.2,2.4,6.3c-1.2-1.3-2.2-2.3-3.2-3.3
			c-3.1-2.8-6.4-5.3-9.2-8.3c-4.6-4.9-7.7-10.6-8.5-17.5c2.7,0.2,4.8,0.1,6.6,2.3c1.8,2.2,4.8,1.2,7.2,0.8
			c10.7-1.5,21.4-3.4,32.1-4.7c4-0.5,3.5-2.9,3.8-5.5c2.7-0.3,5.3-0.6,8.1-0.9c0.4,1.5,0.8,2.9,1.2,4.3c-1.3,0.6-2.6,1.3-3.9,1.8
			c-2.4,0.8-4.9,1.4-7.4,2.3c-0.6,0.2-1,0.9-1.5,1.4c0.7,0.2,1.4,0.6,2,0.7c0.9,0,1.8-0.2,2.7-0.4c0.5,0.1,1,0.2,1.7,0.3
			c-0.8,0.6-1.3,1-1.8,1.4c-2.5,0.2-4.2,1.2-5.1,4.2c4.1-1,7.5-1.7,10.8-2.6c3.7-1,7.3-2.2,11-3.3c2.6-0.8,5.1-1.5,7.7-2.3
			c-1.4-0.2-2.7-0.5-4-0.5c-1.6,0-3.3,0.3-4.9,0.5c-0.8,0-1.6,0-2.5,0c0.2-0.5,0.2-1.1,0.6-1.3C84,92.9,84.9,92.5,85.7,92z"/>
		<path fill="#FEFEFE" d="M115.1,66.9c1.5,5,3,9.8,4.5,14.9c-1.6,0.4-3,0.7-4.4,1c-10.4,1.8-20.9,3.5-31.3,5.4
			c-2.8,0.5-3.7-0.2-3.7-2.7c0-3.5-0.5-7-0.7-10.5c-0.1-1.7,0.4-2.7,2.6-3.1c9.9-1.6,19.7-3.3,29.5-5
			C112.7,66.8,113.8,66.9,115.1,66.9z M101.3,79.1c0,0.4-0.1,0.9-0.1,1.3c1.1,0.8,2,2.1,3.2,2.3c2,0.5,3.4-0.9,3.6-2.6
			c0.3-2-1.4-3.1-3.2-3C103.6,77.3,102.5,78.5,101.3,79.1z"/>
		<path fill="#FEFEFE" d="M63.8,74.2c0.5,5,1,9.7,1.5,14.6c-12.4,2-24.5,3.9-37.1,5.9c-0.3-2.6-0.6-5-0.9-7.5
			c-0.8-7.1-0.8-7.1,6.8-8.4c8.8-1.5,17.7-3,26.5-4.4C61.5,74.3,62.3,74.3,63.8,74.2z M52.4,89.4c0.5,0,0.9,0.1,1.4,0.1
			c0.9-1,2.9-2.3,2.6-3c-0.5-1.3-2.1-2.3-3.3-3.5c-1,0.9-2.8,1.9-2.9,2.8C50.2,87,51.7,88.2,52.4,89.4z"/>
		<path fill="#F9B69B" d="M62.3,57.9c-0.9-2.6-1.6-5.3-2.9-7.7c-1.5-2.9-0.3-5,2.3-7.9c0.3,3,0.5,5.3,0.8,7.7
			c0.4-0.2,0.8-0.4,1.2-0.6c0.4,0.4,0.8,0.8,1.2,1.2c-0.1,1.1-0.2,2.1-0.4,3.2c0.3,0.2,0.7,0.3,1,0.5c2.3-2.4,4.5-4.8,6.8-7.1
			c0.4,0.3,0.8,0.5,0.9,0.6c1.2-1.4,2.3-2.7,3.4-4.1c-0.4,3.3-0.9,6.5-1.3,9.8c-0.9-0.1-1.9-0.1-2.8-0.2c-1.8,3.1-0.7,5.9,0.9,8.7
			c0.8,6.3-1.9,12.7,0.6,19c0.1,0.2,0,0.6,0,0.8c0,0.2,0,0.4,0,0.5c-1.5,0.3-3,0.6-4.9,1C69.1,74,64.7,66.2,62.3,57.9z"/>
		<path fill="#F48B6B" d="M69.7,97c-0.9,0.1-1.8,0.4-2.7,0.4c-0.7,0-1.4-0.4-2-0.7c0.5-0.5,0.9-1.2,1.5-1.4c2.4-0.8,4.9-1.4,7.4-2.3
			c1.4-0.5,2.6-1.2,3.9-1.8c0.8,0.4,1.6,0.9,2.4,1.3c0.1,1.6-0.9,2.2-2.5,2.5C75,95.5,72.4,96.3,69.7,97z"/>
		<path fill="#F38B6A" d="M75.2,53.3c0.4-3.3,0.9-6.5,1.3-9.8c0.1,2.7,0.5,5.4,0.4,8.1c-0.2,6.1-0.6,12.2-1,18.3
			c-0.1-0.2-0.2-0.4-0.3-0.6c-0.4-2.5-0.7-5-1.1-7.4C74.8,59,75,56.2,75.2,53.3z"/>
		<path fill="#F3A182" d="M72.2,47c-2.3,2.4-4.5,4.8-6.8,7.1c-0.3-0.2-0.7-0.3-1-0.5c0.1-1.1,0.2-2.1,0.4-3.2
			c1.5-0.8,3.2-1.6,4.6-2.6c0.2-0.1-0.9-1.6-1.5-2.7c0.1-0.2,0.4-0.8,0.6-1.4c1,0.5,2,1.1,3.1,1.6C71.8,46,72,46.5,72.2,47z"/>
		<path fill="#F59172" d="M69.7,97c2.6-0.7,5.3-1.5,7.9-2c1.7-0.3,2.6-0.8,2.5-2.5c1.8-0.2,3.7-0.4,5.5-0.5
			c-0.8,0.5-1.8,0.8-2.5,1.4c-0.3,0.3-0.4,0.9-0.6,1.3c-0.6,0.4-1.1,0.9-1.8,1.1c-2,0.5-4.1,0.8-6.1,1.3c-1.7,0.4-3.4,1-5.1,1.6
			c0.5-0.4,1-0.8,1.8-1.4C70.7,97.2,70.2,97.1,69.7,97z"/>
		<path fill="#EDB09B" d="M75.7,69.3c0.1,0.2,0.2,0.4,0.3,0.6c0.1,3.2,0.2,6.5,0.4,9.7c0.1,1.7-0.3,2.7-2.4,2.6c0-0.2,0-0.4,0-0.5
			c0.4-1,1.1-2,1.2-3C75.5,75.6,75.6,72.4,75.7,69.3z"/>
		<path fill="#EF9375" d="M68.5,43.8c-0.3,0.6-0.5,1.2-0.6,1.4c0.6,1.1,1.6,2.6,1.5,2.7c-1.4,1-3,1.8-4.6,2.6
			c-0.4-0.4-0.8-0.8-1.2-1.2C65.3,47.5,66.9,45.6,68.5,43.8z"/>
		<path fill="#F48B69" d="M69.7,98.7c1.7-0.5,3.4-1.1,5.1-1.6c2-0.5,4.1-0.8,6.1-1.3c0.6-0.2,1.2-0.7,1.8-1.1c0.8,0,1.6,0,2.5,0
			c1.1,0.1,2.1,0.2,3.1,0.3c-0.6,0.6-1.2,1.3-1.9,2c-3.6,1.1-7.3,2.3-11,3.3c-3.3,0.9-6.8,1.6-10.8,2.6
			C65.4,99.9,67.2,98.9,69.7,98.7z"/>
		<path fill="#F5A588" d="M86.3,97c0.6-0.7,1.3-1.3,1.9-2c-1-0.1-2-0.2-3.1-0.3c1.6-0.2,3.3-0.5,4.9-0.5c1.3,0,2.7,0.3,4,0.5
			C91.5,95.5,88.9,96.3,86.3,97z"/>
		<path fill="#0A0807" d="M101.3,79.1c1.2-0.7,2.3-1.8,3.6-1.9c1.8-0.1,3.5,1,3.2,3c-0.2,1.7-1.6,3-3.6,2.6
			c-1.2-0.3-2.2-1.5-3.2-2.3C101.2,80,101.3,79.6,101.3,79.1z"/>
		<path fill="#100D0C" d="M52.4,89.4c-0.8-1.2-2.2-2.4-2.2-3.5c0.1-1,1.8-1.9,2.9-2.8c1.2,1.1,2.8,2.1,3.3,3.5c0.2,0.7-1.7,2-2.6,3
			C53.3,89.5,52.9,89.4,52.4,89.4z"/>
		<path fill="#F7AA8D" d="M75.7,69.3c-0.2,3.1-0.3,6.3-0.5,9.4c-0.1,1-0.8,2-1.2,3c0-0.3,0.1-0.6,0-0.8c-2.5-6.3,0.2-12.7-0.6-19
			c0.4,0,0.8,0,1.2,0C75,64.3,75.4,66.8,75.7,69.3z"/>
		<path fill="#F59D7E" d="M74.6,61.8c-0.4,0-0.8,0-1.2,0c-1.7-2.8-2.8-5.6-0.9-8.7c0.9,0.1,1.9,0.1,2.8,0.2
			C75,56.2,74.8,59,74.6,61.8z"/>
	</g>
</g>
</svg>
