<?xml version="1.0" encoding="utf-8"?>
<!-- Generator: Adobe Illustrator 18.1.1, SVG Export Plug-In . SVG Version: 6.00 Build 0)  -->
<svg version="1.1" id="Camada_1" xmlns="http://www.w3.org/2000/svg" xmlns:xlink="http://www.w3.org/1999/xlink" x="0px" y="0px"
	 viewBox="0 0 225 216" enable-background="new 0 0 225 216" xml:space="preserve">
<g>
	<g>
		<path fill="#FCFCFC" d="M56.6,212.6c0.7,0.2,1.4,0.3,2.1,0.5c3.2,0.7,6.3,1.3,9.5,2c3.7,1.4,5.3,0,4.8-4.1
			c-0.2-1.9-0.8-3.7-1.3-5.5c-0.2-0.6-0.8-1.3-1.3-1.4c-4.8-1.4-9.6-2.8-14.5-4c-0.8-0.2-1.8,0.3-2.7,0.5c-0.8-0.4-1.5-0.9-2.3-1
			c-4.8-1-9.5-2-14.3-2.9c-3.9-0.8-4.9-0.4-5.2,3.5c-0.2,2.6-0.5,5.6,1.9,7.8c0.3,0.3,0.5,0.8,0.8,0.8c4.9,0.8,9.8,1.5,14.7,2.3
			C51.3,211.6,53.9,212.1,56.6,212.6z M141.8,178.4c-1.4,1.8-2.2,3.9-1,6.2c-0.6,2,1.1,1.8,2.1,2c6.2,1.4,12.5,2.6,18.8,3.9
			c0.9,0.2,1.8,0.5,2.7,0.7c3.5-0.2,6.9-0.4,10.4-0.6c1.7,0,3.4,0.3,5,0c1.5-0.2,1.4-1.4,0.4-2.2c-1-0.8-2.2-1.3-3.3-2
			c-2.5-1.6-5.1-3.1-7.6-4.7c-5.9-1.6-11.8-3.2-17.7-4.7c-1.5-0.4-3-0.4-4.5-0.6C144.7,175.7,143.1,176.7,141.8,178.4z M199.1,193.9
			c1.3,0.4,2.7,1.2,4,1.3c6.5,0.4,13,0.6,19.5,0.7c0.7,0,2-1.1,2.2-1.8c0.8-3.6-1.4-6.6-5-7.1c-7.1-0.9-14.3-1.7-21.5-2.5
			c-0.9,0-1.9,0-2.8,0c-2.2,0.4-4.5,0.6-6.7,1.2c-0.6,0.1-1.1,0.9-1.5,1.5c-0.1,0.2,0.6,1,1,1.2c3.3,1.7,6.7,3.4,10.1,5
			C198.7,193.6,198.9,193.8,199.1,193.9z M174.6,199.2c-7-0.1-14-0.2-21-0.2c-2.5,1.3-5,2.6-7.5,3.9c-2.3,0.9-4.6,1.9-7.3,2.9
			c2.6,2.8,5.1,3.2,7.9,2.5c2.8,0.6,5.6,1.1,8.5,1.7c1.2,0.3,2.4,0.7,3.7,0.8c6.2,0.5,12.4,1,18.6,1.4c1,0.1,2.8,0.6,2-1.7
			c0.6,0,1.2,0,1.8,0c0.7-3.4-2.2-9-5.4-10.7C175.5,199.6,175,199.3,174.6,199.2z M196.5,182.7c2.9,0.3,3.6-2.1,4-4.2
			c0.4-2.1,0.2-4.6-2.2-5.3c-4.2-1.2-8.6-2.1-12.9-2.7c-1.8-0.3-3.2,0.8-2.4,3.1c-6.1-1-12.3-2.1-18.4-3.1c-3.1-0.5-3.3-0.3-4.7,3.3
			c-1,2.5,0.4,3.8,2.2,4.4c2.5,0.9,5.1,1.3,7.7,1.6c4,0.6,8.1,1,12.1,1.4c0.8,0.1,1.7-0.1,2.6-0.1
			C188.5,181.6,192.5,182.3,196.5,182.7z"/>
		<path fill="#EE4633" d="M139.9,66.4c1.3,3,1.3,6.2-0.1,9.3c-0.3,1.1-3-0.2-2.1,2.1c-0.3,0.6-0.5,1.3-0.9,1.7c-1.1,1-2.3,1.8-1,3.6
			c0.4,0.6-0.4,2-0.7,3.1c-0.8-0.6-1.6-1.1-2.3-1.6c-0.4,1.1-0.6,2.4-1.2,3.5c-1.3,2.3-2.7,2.6-4.7,1.2c-0.3-1.1-0.6-2.2-1.1-4
			c-0.4,1.9-0.7,3.2-1,4.4c-0.2-0.1-0.6-0.3-0.7-0.3c-2.1,2-4.1,4-6.2,6c-1,1-2.1,2.1-3.1,3.2c-0.2,0.4-0.4,0.8-0.6,1.1
			c-0.8-1.1-1.7-2.2-2.5-3.2c0.3-0.7,0.7-1.3,0.9-2c0.6-1.6,0.5-2.7-1.7-2.2c-0.7,0.1-1.5-0.1-2.3-0.2c-0.7-0.6-1.4-1.3-2.1-1.9
			c0-0.3,0-0.7,0-1c0.5-1.4,1.2-2.7,1.4-4.2c0.4-2.1-1.7-1-2.5-1.6l0,0c-0.9-1.4-1.7-2.8-2.6-4.2c-0.7-0.9-1.4-1.7-2.1-2.6
			c0.2-1.1,0.3-2.1,0.5-3.2c-0.5-1.1-1-2.1-1.5-3.2c0.6-2.4,0.5-2.5-4-2.9c-0.2-1.1-0.5-2.3-0.7-3.4c0.7-0.7,1.4-1.4,2.1-2.1
			c0.7-1.2,1.4-2.4,2-3.6c2.2-3.9,2.1-4.5-1.6-8c-0.4,1.1-0.8,2-1.2,2.9C96,53.6,96,54,95.9,54c-3.4,1.9-2.4,5.2-2.7,8.1
			c-0.3,3-0.4,6.1-0.5,9.1c-0.3,0.1-0.5,0.3-0.8,0.4c-0.6-0.7-1.2-1.4-1.8-2.2c0.1-0.4,0.5-1,0.3-1.3c-0.7-1.2-1.6-2.4-2.4-3.6
			c-0.4-1-0.7-2-1.1-2.9c0.5-2.5,1.1-5,1.6-7.5c0.2-3.5,0.3-6.9,0.5-10.5c-1.2-0.4-1.2-0.4-2.8,2.3c0.1-0.9,0.1-1.8,0.2-2.7
			c0.3-1.4,0.5-2.8,0.9-4.4c-0.9,0.5-1.8,0.9-2.9,1.4c-0.4-1.1-0.6-1.8-0.9-2.6c-1,1.8-2,3.6-3,5.3c0,0-0.6-0.2-0.9-0.3
			c0.5-0.7,1.4-0.9,0.2-2.1c-1.3-1.4-1-3.5,0.3-5.2c0.1-0.1,0.3-0.1,0.5-0.2c0.5-0.3,1-0.5,1.6-0.8c2.3-1.4,4.6-2.8,6.9-4.1
			c0.8-0.5,1.6-0.8,2.4-1.6c-3-0.4-5.9-1.5-8.7,0.5c0-1.2,0-2.4,0-3.7c1.7-0.3,3.3-0.6,5-0.9c0-0.3-0.1-0.6-0.1-0.9
			c-2.3,0.3-4.7,0.6-7,0.9c3.9-4.1,6.8-3.7,11.4,1.1c1.9-2.1,3.9-4.3,5.9-6.4c1.4,0.6,3,1,4.3,1.7c1.8,1,3.5,2.3,5.2,3.5
			c0.5,1,1.1,2.1,1.6,3.1c1.7,2.1,3.5,4.2,5.2,6.3c0.8,4.9,1.2,5.8,4.4,8.5c-0.7-1.7-1.2-2.7-1.6-3.9c0.7,0,1.3,0,1.9,0
			c0.7,0.1,1.5,0.3,2.2,0.4c1,1.5,2.1,3,3.2,4.6c0.2,0,0.7-0.1,1.1-0.1c4.3,0.2,8.7-0.1,12.3,3c0,0.9,0,1.7,0,2.6
			c-1-0.9-1.9-1.8-2.9-2.8c-1.2,4.5,0.5,7.5,3.4,10c-0.6,0.4-1.3,0.7-1.9,1.1c-2.2-1.4-5.1-1.9-6.2-4.7c-0.2,0.3-0.5,0.7-1.1,1.5
			c-0.1-1-0.1-1.6-0.2-2.1c-0.1-1.9,0-3.9-0.5-5.7c-0.2-0.7-1.7-1.5-2.6-1.5c-1.7-0.1-3.3,0.4-5.3,1.2c1.1,0.8,2.1,1.5,3.2,2.3
			c-0.1,0.8-0.1,1.7-0.2,3.1c0.4,0.4,1.4,1.3,2.3,2.2c-0.7-0.1-1.5-0.3-2.1-0.4c-0.2,2.7-0.3,5.2-0.5,7.7c1.9-1.8,3.8-3.5,5.7-5.2
			c2.4-1.2,3.6,0.8,5.1,1.9c0.5,0.3,0.8,0.8,1.3,1.2c2.6,3,5.2,5.9,7.8,8.9C141.9,67.3,140.9,66.9,139.9,66.4z M113,80.9
			c-1.8,0.2-2.8,1.1-2.7,3.1c0.1,1-0.5,2-0.4,3c0.1,1.1,0.6,2.1,1,3.1c0.7-0.6,1.4-1.2,2-2c0.4-0.5,0.5-1.2,0.8-1.8
			c-0.5-0.2-0.9-0.4-1.4-0.6c0.3-0.8,0.5-1.6,0.7-2.3c1.4-1.7,1.7-5.8,0.7-7.5c-0.5-0.8-0.8-1.6-1.2-2.5c-0.3-0.3-0.9-0.6-0.9-0.8
			c0.4-2.2,0.8-4.4,1-6.8c-2.6,3.2-3.3,7.1-4.5,10.9c0.6,0.8,1.2,1.6,1.8,2.4c0.9,0.2,1.7,0.4,2.6,0.5
			C112.7,80.2,112.9,80.5,113,80.9z M112.4,52c-1.2-0.7-2.1-1.3-3-1.8c-0.1,1.3-0.1,2.5-0.2,3.8c0.3,0.1,0.7,0.1,1,0.2
			C110.7,53.6,111.3,53,112.4,52z M114.8,83.3c0.3,0.1,0.5,0.1,0.8,0.2c0.5-1.6,1.1-3.1,1.6-4.7c-0.4-0.1-0.9-0.2-1.3-0.4
			C115.5,80.1,115.2,81.7,114.8,83.3z"/>
		<path fill="#005C7D" d="M67,195.9c0.4-1.7,0.7-3.4,1.1-5.2c0.3,1.2,0.7,2.4,1,3.5c1.3,3.1,3.1,5.5,6.9,5.2
			c1.9,0.5,3.8,0.9,5.7,1.3c0.3-2.1,0.5-4,0.7-5.9c0.3,0,0.6-0.1,0.9-0.1c1,2.3,2,4.7,3,7c0.3-0.1,0.6-0.3,0.9-0.4
			c-0.3-1.3-0.7-2.6-0.8-3.9c0-0.7,0.6-1.4,0.9-2.2c0.5,0.5,1.2,0.9,1.5,1.5c0.7,1.6,1.2,3.2,1.9,4.8c0.2,0.4,0.8,0.6,1.5,1.1
			c-0.6-2.4-1.2-4.4-1.6-6.4c-0.1-0.4,0.4-0.9,0.8-1.8c1.2,2.5,2.2,4.7,3.4,6.8c0.4,0.8,1.4,1.6,2.2,1.7c5.2,0.9,10.4,1.7,15.6,2.5
			c-0.6-5.4-1.1-10.8-1.7-16.5c-3.6,0.8-6.9,1.7-10.3,2.2c-1.1,0.2-2.3-0.7-3.5-1.1c0.2,1.3-0.6,1.6-2.5,1.2
			c-5.4-1.3-10.8-2.4-16.3-3.4c-2.3-0.4-4.7-0.3-7-0.4c-0.2-0.5-0.4-1-0.6-1.6c5.1-1,9.9,0.4,14.8,1.4c3,0.6,6,1.5,9.3,2.4
			c0-1.1,0-1.9,0-2.7c0.1-4,0.2-8,0.4-12c0-2.4,0-4.9,0-7.3c0-6.3,0-12.6,0-18.9c0-0.7,0-1.4,0-2.1c0.5,0,1,0,1.6,0
			c6.9,0.2,13.9,0.4,20.8,0.5c1.1,0,2.2-0.3,3.3-0.5c0.2-0.2,0.4-0.3,0.5-0.5c1.7,4.5,3.5,9,5.2,13.4c0.7,2.1,1.3,4.3,2,6.4
			c0.2,0.8,0.2,1.7,0.5,2.5c2.2,7.4,4.5,14.7,6.7,22.1c1.1,3.8,2,7.8,3.3,12.5c-8.8-1.9-16.7-3.6-24.6-5.3c0.8-0.1,1.7-0.5,2.5-0.3
			c5.9,1.2,11.9,2.4,17.8,3.7c0.7,0.1,1.3,0.2,2.3,0.3c-1.6-4.8-3.1-9.3-4.6-13.8c-1.9,0.7-3.9,1.5-5.9,2.3c-1.5-0.9-3-1.9-5.1-3.1
			c-0.1,1.4-0.1,2.3-0.2,3.2c-1.3-0.2-2.6-0.2-3.9-0.5c-1.4-0.3-2.8-0.8-4.9-1.5c0.5,3.6,1,6.7,1.4,9.7c0.2,2.1,0.4,4.2,0.6,6.3
			c0.3,2.8-0.5,3.5-3.2,2.9c-5.2-1.1-10.3-2.3-15.6-2.8c-3.5-0.3-7.1-2.3-10.8-0.3c-0.3,0.2-1.1-0.4-1.6-0.6
			c-1.7-0.6-3.5-1.4-5.2-1.9c-3.4-1-6.8-1.8-10.2-2.7C67.8,197.9,67.4,196.9,67,195.9z M111.6,156.3c-0.3,0-0.5,0.1-0.8,0.1
			c0.3,2.3,0.5,4.7,0.8,7c0.1,3.1,0.2,6.2,0.3,9.3c0.4,4.8,0.8,9.6,1.2,14.6c2.4,0.4,4.8,0.8,7.8,1.3c-1.7-6.6-3.3-12.8-4.9-18.9
			c-0.8-2.3-1.7-4.6-2.5-6.9C112.9,160.7,112.2,158.5,111.6,156.3z"/>
		<path fill="#F7B699" d="M103.1,110.8c-2.2-1.1-4.5-2.1-6.7-3.3c-1.5-0.8-2.8-1.8-4.2-2.7c-0.9-1.5-1.7-3.1-2.6-4.6
			c-2-3.1-4.4-5.6-8.4-5.7c-2.3-0.7-4.5-1.4-6.8-2.1c-1.9-1.6-3.8-3.2-5.7-4.8c-3.6-7.2-1.8-14.5-1-22c1.5,0.2,2.9,0.3,4.2,0.5
			c0.1-0.2,0.1-0.4,0.2-0.6c-1.2-0.3-2.4-0.6-3.8-1c0.3-0.3,0.5-0.6,0.8-0.7c2.4-0.9,3.5-2.3,2.1-4.9c-0.2-0.4,0-1.1,0.1-1.6
			c1.5,1.5,3,3.1,4.8,4.9c1.9-2.2,3.8-4.3,5.6-6.5c0.4,1,0.7,2.1,1.1,3.1c0.9,2.9,1.8,5.9,2.7,8.8c-3.7,2-4,3.3-2.1,7.9
			c-1.2,2.4-2.2,4.3-3.2,6.2c0.4,1.9,0.7,3.9,1.2,5.8c0.1,0.3,0.9,0.6,1.3,0.5c0.5-0.2,1.1-0.7,1.1-1.2c0-1-0.3-2-0.4-3
			c0-0.7,0-1.4,0-2.3c0.8,0.5,1.4,0.8,2.5,1.5c0-1.9,0-3.5,0-5c0.2-1,0.3-2,0.5-2.9c0.6,0,1.2,0,1.9,0c-0.1,0.7-0.3,1.5-0.4,2.4
			c2.1-1.7,4-1.3,4.2,1.1c0.4,3,0.3,6.2,0.1,9.2c0,0.6-1.3,1.3-2.2,1.7c-0.6,0.4-1.4,0.5-2.4,0.8c1,0.8,1.5,1.2,2,1.6
			c-1.5,1.9,0.7,2.2,1.4,3.2c1.9,3,3.8,6.1,5.9,9c0.6,0.8,1.7,1.2,2.5,1.8c0.5-0.8,0.9-1.7,1.4-2.5c0.1-0.2,0.2-0.5,0.3-0.7
			c0.7,0.4,1.4,0.8,2.1,1.2c-1.4,0.5-2,1.2-1.3,2.8c0.6,1.2,0.9,2.5,1.3,3.8C103.1,110.7,103.1,110.7,103.1,110.8z M75,66.1
			c-0.7,0.5-0.8,2-1.2,3c0.8,0.3,1.7,0.8,2.5,0.7c2.1-0.3,3.9-1.3,4.8-3.8C78.9,64.7,76.8,64.8,75,66.1z M80.8,64
			c0.5-0.1,1.2-1,1.2-1.5c0-0.5-0.8-1.1-1.4-1.4c-0.2-0.1-0.8,0.7-1.3,1.1c-0.2,0.4-0.4,0.7-0.6,1.1C79.4,63.5,80.1,64,80.8,64z"/>
		<path fill="#EE4634" d="M76.3,6.6c1.7,0.4,2.9,0.7,4.1,1c0,1,0,1.9,0,2.8c-0.3,2.9-0.6,5.7-1,8.6c-0.1,0.5-0.9,0.9-1.3,1.3
			c-0.7-0.2-1.3-0.4-2-0.4c-3.2-0.4-6.7-0.2-8.7-3.6c-0.2-0.4-0.9-0.5-1.3-0.7c-1.2-0.8-2.5-1.7-3.7-2.5c-0.6-0.2-1.3-0.3-1.9-0.5
			c-0.2,0.7-0.7,1.6-0.4,2.1c0.7,1.5,1.7,2.8,2.7,4.1c-1.5-0.2-3-0.4-4.5-0.5c-4-0.7-8-1.3-12.1-2c-0.7-0.2-1.4-0.3-2-0.5
			c-0.5-0.7-1.1-1.3-1.6-2c0.8-0.6,2.1-1.1,2.4-1.9c0.3-0.8-0.5-1.9-0.8-3c2.4-1.2,2.5-1.7,0.3-3.8c1-0.9,2.1-1.8,3.1-2.7
			c-0.2-0.3-0.4-0.7-0.5-1c-6.1,1.5-12.3,3-18.3,4.5c-0.3,1.7-0.5,3.3-0.7,4.9c-2.3-1-4.5-1.9-6.8-2.9c0.9-0.7,1.6-1.7,2.6-2
			c4.3-1.3,8.7-2.4,13.1-3.4c3.4-0.8,6.9-2.4,10.1-2C58,1.7,69.1,3.8,80.1,5.6C79.1,5.9,78,6.2,76.3,6.6z M70.1,6
			c0.1-0.3,0.1-0.6,0.2-1c-2.6-0.4-5.2-0.8-7.8-1.2c0,0.3-0.1,0.5-0.1,0.8C64.9,5.1,67.5,5.5,70.1,6z"/>
		<path fill="#017B43" d="M105.8,112.7c-0.9-0.7-1.7-1.4-2.6-2.1c-0.1,0.1-0.1,0.2-0.1,0.3c-0.7-0.1-1.3,0-2-0.2
			c-4.3-1.4-8.5-3.1-12.9-4.2c-7.5-1.8-15.1-3.3-22.6-4.6c-1.8-0.3-3.1-0.7-4.5-1.9c-4.1-3.5-8.5-6.8-12.8-10.2
			c-0.2,0.5-0.7,1-0.7,1.5c-0.3,3.9-2.2,1.7-3.4,0.9c-2.1-1.4-4-3-6-4.6c0,0,0.1-0.4,0.2-0.9c-1.5,0.5-3.1,1-4.6,1.5
			c-0.3,0.3-0.6,0.5-1,0.8c4.4,3.2,8.6,6.2,12.9,9.3c0.5,0.3,1,0.7,1.5,1c2,1,4.1,1.9,6.1,3.1c2.9,1.7,5.7,3.5,9.3,3.8
			c1.5,0.1,3,1.3,4.5,2.1c3.3,1.6,6.6,3.3,9.9,4.9c0.3-0.3,0.6-0.7,0.9-0.7c3.6-0.1,7.2-0.3,10.9-0.2
			C94.4,112.2,100.1,112.5,105.8,112.7z"/>
		<path fill="#040505" d="M48.3,89.7c4.3,3.4,8.7,6.7,12.8,10.2c1.4,1.2,2.8,1.6,4.5,1.9c7.6,1.3,15.2,2.8,22.6,4.6
			c4.4,1,8.6,2.8,12.9,4.2c0.6,0.2,1.3,0.2,2,0.2c-2.2-1.1-4.5-2.1-6.7-3.3c-1.5-0.8-2.8-1.8-4.2-2.7c-0.7,0.2-1.5,0.6-2.2,0.4
			c-7-1.6-13.9-3.7-21-4.6c-3.8-0.5-6.3-2.1-8.8-4.5c-3.7-2.8-7.3-5.6-11-8.4c-2.4-1.7-4.7-3.4-7.1-5.1c0.2-0.4,0.4-0.7,0.6-1.1
			c2.4,0.6,4.7,1.3,7.1,1.9c1.5,0.4,3,0.8,5,1.3c0.5-1,1.1-2.2,1.7-3.4c-0.5-2.8-1-5.6-1.5-8.4c-0.2,0.5-0.3,0.9-0.5,1.4
			c0.3,2.6,0.5,5.2,0.8,7.8c-0.4,0.2-0.7,0.3-1.1,0.5c-0.6-0.6-1.5-1-1.9-1.8c-0.8-1.9-1.4-3.9-2-5.8c-1.4-3.5-1-4.4,2.6-5.2
			c-2.5-1-4.9-2-7.4-3.1c-3.3-0.7-6.5-1.5-9.8-2.2c-0.4,0.2-0.7,0.3-1.1,0.5c1.4,0.8,2.8,1.5,4.2,2.3c3.2,0.6,6.5,1.3,8.8,1.7
			c1.2,4.9,2.2,9.1,3.2,13.3c-2.9-0.7-6.1-1.5-9.4-2.3c0-1.4,0.1-2.7,0-3.9c-0.2-2.1-0.6-4.2-1-6.2c-0.2,1-0.6,2-0.6,2.9
			c0,4.1-2.3,8.7,2,12.1C44,86.6,46.1,88.1,48.3,89.7z"/>
		<path fill="#027E43" d="M95.3,146.7c0.5,0,1,0,1.6,0c1.4-0.5,2.8-1.5,4.2-1.5c6,0,12.1,0.2,18.1,0.5c0.6,0,1.2,0.7,1.8,1
			c0.2-0.2,0.4-0.3,0.5-0.5c0-0.5,0-1,0-1.5c-9.1-0.2-18.1-0.8-27.1-2.3c3.1-0.4,6.1-0.3,9.1-0.1c5.8,0.4,11.6,0.9,17.4,1.3
			c-0.3-1-0.7-2-1-3c-8.8,0.2-17.5-0.1-26.1-1.9c1.8-0.6,3.7-0.7,5.5-0.5c6.7,0.5,13.5,1.2,20.2,1.8c-0.4-0.9-0.7-1.7-1.1-2.6
			c-0.5-0.1-1-0.2-1.5-0.1c-2.8,0.5-5.6,1-8.4,1.5c0-0.2-0.1-0.4-0.1-0.7c2.1-0.3,4.1-0.6,6.2-0.9c-2.9-0.3-5.8-0.1-8.7,0
			c-0.7,0-1.5-0.6-2.3-0.9c-4.2-0.2-8.3-0.3-12.5-0.5C92.5,139.4,93.9,143.1,95.3,146.7z"/>
		<path fill="#F6B699" d="M66.1,15.4c-1.2-0.8-2.5-1.7-3.7-2.5c0,0.7-0.3,1.5,0,2.1c0.5,1,1.3,1.8,2,2.7c0.4,0.5,0.8,0.9,1.2,1.4
			c0.5,0.5,0.9,0.9,1.4,1.4c-0.3,0-0.6,0-0.9,0.1c-0.2,1.5-0.5,3.1-0.7,4.6c-0.1,0.7-0.3,1.4-0.4,2.1c-1.1,0.5-2.1,1-3.2,1.5
			c2.3,3.3,4.6,6.6,6.9,10c1.5-4.4,3.3-8.7,3.1-13.5c0-0.6,0-1.1,0-1.7c0-1,0-2,0-3.3c-1,0.3-1.6,0.6-2.5,0.8
			C68.2,19.2,67.2,17.3,66.1,15.4z"/>
		<path fill="#0E0304" d="M101.1,102.7c0.7,0.4,1.4,0.8,2.1,1.2c3.8-0.8,4.9-2.2,5.4-7.5c1.7,2.2,3.1,4.4,4.9,6.3
			c2.7,3,8,2.3,9.6-1.4c1.6-3.8,2.5-8,3.7-12c-0.3-1.1-0.6-2.2-1.1-4c-0.4,1.9-0.7,3.2-1,4.4c-1.2,3.1-2.5,6.2-3.7,9.3
			c-2.2,2.7-4.4,2.9-6.9,0.7c-0.8-1.1-1.7-2.1-2.5-3.2c-1-1.5-2.1-2.9-3.1-4.4c-0.7-0.6-1.4-1.3-2.1-1.9l0,0
			c0.2,0.8,0.5,1.7,0.5,2.5c0,2.6,1,5.6-2,7.4c-2.1-0.1-4.2-0.2-6.2-0.3C99.3,100.8,100.2,101.8,101.1,102.7z"/>
		<path fill="#027E44" d="M111.1,122.7c-0.5-1.2-1.1-2.4-1.6-3.6c-8.9-0.2-17.9-0.4-26.8-0.6c0.9,1.3,1.7,2.7,2.6,4
			c0.8-0.2,1.6-0.5,2.3-0.5C95.4,122.2,103.3,122.5,111.1,122.7z"/>
		<path fill="#027D43" d="M108.7,117.9c-0.7-1.5-1.4-3-2.1-4.5c-1.5,0.1-2.9,0.4-4.4,0.4c-8,0.1-15.9,0.1-23.9,0.1
			c0.9,1,1.8,2,2.7,3c0.8-0.2,1.7-0.5,2.5-0.4C91.9,116.9,100.3,117.4,108.7,117.9z"/>
		<path fill="#037E44" d="M103.6,136.3c0.8,0.3,1.5,0.9,2.3,0.9c2.9-0.1,5.8-0.3,8.7,0c-2.1,0.3-4.1,0.6-6.2,0.9
			c0,0.2,0.1,0.4,0.1,0.7c2.8-0.5,5.6-1,8.4-1.5c0.5-0.1,1,0.1,1.5,0.1c-0.9-2.2-1.8-4.5-2.8-6.7l-0.1,0.2c-0.4,0.3-0.8,0.8-1.2,0.8
			c-3.2,0.2-6.4,0.5-9.6,0.5c-5.1,0-10.2-0.2-15.2-0.3c0.2,0.8,0.5,1.6,0.7,2.3c9-0.4,17.8,0.7,26.7,1.4c0,0.3,0,0.5,0,0.8
			C112.5,136.3,108,136.3,103.6,136.3z"/>
		<path fill="#F27C4D" d="M118.8,38.5c0.7,0.1,1.5,0.3,2.2,0.4c-0.5-6-7.2-16.6-15.8-18.4c-1.4-0.3-2.8-1.1-4.2-1.4
			c-1-0.2-2.2,0-3.2,0c1.4,0.6,3,1,4.3,1.7c1.8,1,3.5,2.3,5.2,3.5c1,0.6,2.3,1,3.1,1.9c1.9,2,4,4.1,5.1,6.5
			C116.4,34.9,116.7,37.2,118.8,38.5z"/>
		<path fill="#110303" d="M80.5,10.3c-0.3,2.9-0.6,5.7-1,8.6c-0.1,0.5-0.9,0.9-1.3,1.4c-0.4,0.4-0.8,0.8-1.2,1.2
			c5.1,1,6.5,0.5,7.7-4.5C85.4,14.1,85,11,84.8,8c0-0.6-1.3-1.2-2-1.8C82,7.6,81.3,8.9,80.5,10.3z"/>
		<path fill="#0B090B" d="M11.2,74.7c0.5,0.5,1,1,1.5,1.4c2.7,0.4,5.3,0.7,8,1c1.8,0.2,3.4,0.4,3.9,2.6c0.1,0.6,1.4,0.9,2.2,1.3
			c0.4,0.2,0.9,0.2,1.2,0.4c1.4,1.2,2.7,2.4,4,3.6c0-1.7,0-3.3,0-5c-0.1,0-0.3,0-0.4-0.1c-0.2,0.6-0.4,1.3-0.6,1.8
			c-3.7-1.3-1.1-3.3-0.4-5.2c-2.2,0.2-2.8,3.7-6.1,1.9c1.2-1.4,2.1-3,3.4-3.7c1.4-0.7,3.3-0.5,5.8-0.9c-2.4-1.1-4.2-2-6.1-2.6
			c-1.8-0.6-2.4-1.5-1.8-3.3c-0.6,0.2-1.1,0.5-1.7,0.7c-1.8,3.5,1.7,3.2,2.4,3.7c-0.9,1.2-1.8,2.5-3.1,4.2c-0.8-0.8-1.8-1.7-2.8-2.6
			c-2.3,0.1-4.5,0.1-6.8,0.2c-0.7-0.2-1.4-0.5-2.1-0.7c-0.3,0.1-0.6,0.3-0.9,0.4C10.8,74.2,11,74.5,11.2,74.7z"/>
		<path fill="#058048" d="M71.8,25.2c0.3,4.8-1.5,9.1-3.1,13.5c1.9,2.6,3.7,5.1,5.6,7.7c-0.2-0.5-0.4-1-0.5-1.5c0-1.9,0-3.8,0-5.7
			c0.5-2.8,1.1-5.5,1.6-8.3C74.2,28.9,73,27.1,71.8,25.2z"/>
		<path fill="#028046" d="M113.7,127.3c-0.4-1.2-0.9-2.3-1.3-3.5c-1,0.1-2.1,0.3-3.1,0.3c-7.8-0.1-15.6-0.3-23.4-0.4
			c0.3,0.7,0.7,1.4,1,2.1c2.9,0.1,5.7,0.2,8.6,0.4C101.6,126.6,107.7,126.9,113.7,127.3z"/>
		<path fill="#028046" d="M115.6,130.6c-0.5-1-0.9-2-1.4-3c-0.9,0.3-1.8,0.8-2.7,0.8c-8-0.3-15.9-0.6-23.9-1c0.3,0.8,0.7,1.7,1,2.5
			c9,0.3,17.9,0.5,26.9,0.8L115.6,130.6z"/>
		<path fill="#040C06" d="M108.7,117.9c-8.4-0.5-16.8-1-25.2-1.4c-0.8,0-1.6,0.3-2.5,0.4c0.5,0.5,1.1,1,1.6,1.6
			c8.9,0.2,17.9,0.4,26.8,0.6C109.2,118.7,109,118.3,108.7,117.9z"/>
		<path fill="#030804" d="M86,123.8c7.8,0.1,15.6,0.3,23.4,0.4c1,0,2.1-0.2,3.1-0.3c-0.4-0.4-0.9-0.8-1.3-1.2
			c-7.8-0.2-15.7-0.4-23.5-0.6c-0.8,0-1.6,0.3-2.3,0.5C85.5,123,85.7,123.4,86,123.8z"/>
		<path fill="#080B0D" d="M29.5,63.1c-1.9-0.2-3.7-0.3-5.6-0.5c-2.7-0.3-5.4-0.7-8.1-1c0.1,0.3,0.1,0.7,0.2,1
			c3.6,0.7,7.3,1.2,10.9,2.1c1.5,0.4,2.7,1.5,4.1,2.3c-0.1,0.2-0.2,0.5-0.4,0.7c-0.9,0.1-1.9,0.1-2.8,0.2c0.5,0.4,0.9,1.1,1.5,1.3
			c2.1,0.7,4.2,1.3,6.4,2c-0.1-0.3-0.1-0.8-0.2-1.3c-1.5-1.7-3.1-3.5-4.6-5.2C30.5,64.2,30,63.7,29.5,63.1z"/>
		<path fill="#040905" d="M87.6,127.5c8,0.3,15.9,0.7,23.9,1c0.9,0,1.8-0.5,2.7-0.8c-0.2-0.1-0.3-0.2-0.5-0.3
			c-6.1-0.4-12.1-0.8-18.2-1.1c-2.9-0.2-5.7-0.2-8.6-0.4C87.2,126.4,87.4,126.9,87.6,127.5z"/>
		<path fill="#F38253" d="M137.6,46.4c0,0.9,0,1.7,0,2.6c-1-0.9-1.9-1.8-2.9-2.8c-1.2,4.5,0.5,7.5,3.4,10
			C141.8,53.5,141.6,50.6,137.6,46.4z"/>
		<path fill="#020503" d="M78.4,113.9c8,0,15.9,0,23.9-0.1c1.5,0,2.9-0.3,4.4-0.4c-0.3-0.2-0.6-0.5-0.8-0.7
			c-5.7-0.2-11.4-0.5-17.1-0.6c-3.6-0.1-7.2,0.1-10.9,0.2c-0.3,0-0.6,0.5-0.9,0.7C77.4,113.3,77.9,113.6,78.4,113.9z"/>
		<path fill="#180D0A" d="M75.4,30.8c-0.5,2.8-1.1,5.5-1.6,8.3c0.5,0.3,1.1,0.7,1.6,1c0.6-2.4,0.9-4.9,1.8-7.3
			c1.1-2.9,2.2-6.1,5.5-7.3c1.7-0.3,3.3-0.6,5-0.9c0-0.3-0.1-0.6-0.1-0.9c-2.3,0.3-4.7,0.6-7,0.9C78.9,26.6,77.1,28.7,75.4,30.8z"/>
		<path fill="#F27E4E" d="M137.6,77.8c-0.3,0.6-0.5,1.3-0.9,1.7c-1.1,1-2.3,1.8-1,3.6c0.4,0.6-0.4,2-0.7,3.1c0,1.2-0.6,2.8,1.5,2.9
			c1.7,0,3.1-0.9,3-2.6C139.1,83.6,138.2,80.7,137.6,77.8z"/>
		<path fill="#030402" d="M119.5,139.9c-6.7-0.6-13.5-1.2-20.2-1.8c-1.8-0.1-3.7,0-5.5,0.5c8.7,1.8,17.4,2.1,26.1,1.9
			C119.8,140.3,119.6,140.1,119.5,139.9z"/>
		<path fill="#030B06" d="M120.9,143.6c-5.8-0.4-11.6-0.9-17.4-1.3c-3-0.2-6.1-0.3-9.1,0.1c9,1.6,18,2.2,27.1,2.3
			c0.4-0.1,0.8-0.1,1.5-0.3C122.1,144.1,121.5,143.8,120.9,143.6z"/>
		<path fill="#F26642" d="M128.7,55.8c2.4-1.2,3.6,0.8,5.1,1.9c0.5,0.3,0.8,0.8,1.3,1.2c0.4-0.5,0.7-1,1.1-1.4
			c-2.2-1.4-5.1-1.9-6.2-4.7c-0.2,0.3-0.5,0.7-1.1,1.5c-0.1-1-0.1-1.6-0.2-2.1c-1.7-1.2-3.5-2.4-5.2-3.6c-0.1,0.8-0.1,1.7-0.2,3.1
			c0.4,0.4,1.4,1.3,2.3,2.2C126.6,54.4,127.7,55.1,128.7,55.8z"/>
		<path fill="#2B1D1C" d="M77,21.4c0.4-0.4,0.8-0.8,1.2-1.2c-0.7-0.2-1.3-0.4-2-0.4c-3.2-0.4-6.7-0.2-8.7-3.6
			c-0.2-0.4-0.9-0.5-1.3-0.7c1.1,1.9,2.1,3.8,3.2,5.7c0.8-0.3,1.5-0.5,2.5-0.8c0,1.3,0,2.3,0,3.3c0.4-0.8,0.8-1.5,1.3-2.4
			C74.3,21.2,75.6,21.3,77,21.4z"/>
		<path fill="#F27C53" d="M142.9,67.8c-1-0.4-2-0.9-3-1.4c1.3,3,1.3,6.2-0.1,9.3C143.1,74.2,144.2,71.5,142.9,67.8z"/>
		<path fill="#3F4647" d="M16.1,62.6c-0.1-0.3-0.1-0.7-0.2-1c-3.9,0.7-7.8,1.3-11.6,2c0.8,0.2,1.5,0.4,2.3,0.5c0.6,0,1.2,0,1.8,0.1
			c2.5-0.5,5.1-0.9,7.6-1.4L16.1,62.6z"/>
		<path fill="#354345" d="M10.7,74c0.3-0.1,0.6-0.3,0.9-0.4c-1.5-1.4-3-2.9-4.5-4.3c-0.9-0.5-1.8-1-2.7-1.5
			c-0.3,0.2-0.6,0.3-0.9,0.5C5.9,70.2,8.3,72.1,10.7,74z"/>
		<path fill="#11171A" d="M3.5,68.3c0.3-0.2,0.6-0.3,0.9-0.5c-0.5-0.6-1-1.1-2-2.2c1.6-0.6,2.8-1,4.1-1.5c-0.8-0.2-1.5-0.4-2.3-0.5
			c-1.2,0.6-2.4,1.1-4.2,2C1.6,66.8,2.5,67.6,3.5,68.3z"/>
		<path fill="#351918" d="M27.9,10.7c-2.3-1-4.5-1.9-6.8-2.9C21,7.9,21,8,21,8.1c0.6,0.8,1.2,1.6,1.7,2.4c1.4,0.4,2.7,0.9,4.1,1.3
			c0.5,0,1,0,1.4,0.1c0.4-0.2,0.7-0.3,1.1-0.5C28.9,11.2,28.4,10.9,27.9,10.7z"/>
		<path fill="#504946" d="M29.5,63.1c0.5,0.5,1,1,1.5,1.6c0.9,0.2,1.7,0.3,2.6,0.5c0.4,0,0.8,0,1.1-0.1c0.4-0.2,0.7-0.3,1.1-0.5
			c-1.3-0.7-2.5-1.6-3.8-2.1C31.3,62.3,30.3,62.9,29.5,63.1z"/>
		<path fill="#E95E48" d="M80.5,10.3c0.8-1.4,1.5-2.7,2.3-4.1C81.9,6,81,5.8,80.1,5.6c-1.1,0.3-2.1,0.5-3.8,0.9
			c1.7,0.4,2.9,0.7,4.1,1C80.5,8.5,80.5,9.4,80.5,10.3z"/>
		<path fill="#008943" d="M53,200.6c-0.8-0.4-1.5-0.9-2.3-1c-4.8-1-9.5-2-14.3-2.9c-3.9-0.8-4.9-0.4-5.2,3.5
			c-0.2,2.6-0.5,5.6,1.9,7.8c1.1-0.1,2.2-0.4,3.2-0.3c4.8,0.7,9.7,1.6,14.5,2.4c2.3,0.3,4.5,0.6,6.8,0.9c-1.8-1.6-2.1-3.4-0.7-5.3
			C55.2,204.2,51.6,204.3,53,200.6z"/>
		<path fill="#01A1C9" d="M198.4,184.5c7.2,0.8,14.3,1.6,21.5,2.5c3.6,0.5,5.8,3.5,5,7.1c-0.2,0.8-1.4,1.8-2.2,1.8
			c-6.5-0.1-13-0.3-19.5-0.7c-1.4-0.1-2.7-0.8-4-1.3C198.9,190.8,198.6,187.6,198.4,184.5z M211.1,192c2.7,0.7,5.4,1.4,8.1,2.1
			c0.1-0.3,0.2-0.6,0.3-1C218.6,191.5,214.6,190.6,211.1,192z"/>
		<path fill="#EE4634" d="M140.8,184.6c-0.6,2,1.1,1.8,2.1,2c6.2,1.4,12.5,2.6,18.8,3.9c0.9,0.2,1.8,0.5,2.7,0.7
			c-0.3-0.9-0.5-1.9-0.9-3.1c1.7,0.4,2.9,0.6,4.2,0.9c0.1-0.2,0.1-0.3,0.2-0.5c-1-0.9-1.9-1.7-2.9-2.6c0.1-0.2,0.2-0.4,0.2-0.6
			c1.6,0.3,3.3,0.7,4.9,1c-0.8-1.4-1.5-2.7-2.2-4.1c-6.7-1.5-13.5-3.1-20.2-4.6c-1.1,1.9-2.2,3.7-3.2,5.6
			C143.6,184.8,142.5,185.5,140.8,184.6z"/>
		<path fill="#FCFCFC" d="M114.6,198c0.8-0.1,1.7-0.5,2.5-0.3c5.9,1.2,11.9,2.4,17.8,3.7c0.7,0.1,1.3,0.2,2.3,0.3
			c-1.6-4.8-3.1-9.3-4.6-13.8c-1.9,0.7-3.9,1.5-5.9,2.3c-2.2,1.1-3.5-0.1-4.5-2c-0.3,0.8-0.5,1.4-0.7,2c-1.3-0.2-2.6-0.2-3.9-0.5
			c-1.4-0.3-2.8-0.8-4.9-1.5c0.5,3.6,1,6.7,1.4,9.7l0.2,0L114.6,198z"/>
		<path fill="#015D7E" d="M183.1,173.6c-6.1-1-12.3-2.1-18.4-3.1c-3.1-0.5-3.3-0.3-4.7,3.3c-1,2.5,0.4,3.8,2.2,4.4
			c2.5,0.9,5.1,1.3,7.7,1.6c4,0.6,8.1,1,12.1,1.4c0.8,0.1,1.7-0.1,2.6-0.1c0-0.1,0-0.2-0.1-0.4c-1.9-0.6-3.4-4.5-2.1-5.9
			c0.2-0.2,0.9,0,1.4,0.1c-0.1-0.4-0.2-0.7-0.3-1.1C183.2,173.8,183.1,173.7,183.1,173.6z"/>
		<path fill="#EE4A36" d="M183.1,173.6c0,0.1,0.1,0.2,0.3,0.3c2.7,0.6,5.4,1.2,8,1.8c1.9,1,4.6-0.9,5.8,2.2
			c-2.1-0.6-4.3-1.2-6.4-1.8c-2.2-0.3-4.4-0.6-6.7-0.9c0.1,1.8,0.2,3.7,0.3,5.5c0,0.1,0.1,0.2,0.1,0.4c4,0.5,8,1.2,12,1.6
			c2.9,0.3,3.6-2.1,4-4.2c0.4-2.1,0.2-4.6-2.2-5.3c-4.2-1.2-8.6-2.1-12.9-2.7C183.7,170.2,182.3,171.3,183.1,173.6z"/>
		<path fill="#03070A" d="M53,200.6c-1.4,3.7,2.1,3.6,3.9,5c-1.4,1.9-1.1,3.7,0.7,5.3c-0.4,0.6-0.7,1.1-1.1,1.7
			c0.7,0.2,1.4,0.3,2.1,0.5c1.1-0.2,2.1-0.3,3.2-0.5c-2.2-0.6-3.1-2.2-3-4.3c0.1-1.1,0.7-2.2,1.1-3.5c-1.4-0.9-3.4-2-5.3-3.2
			c0.1-0.3,0.3-0.5,0.4-0.8c4.3,1.4,8.6,2.8,12.2,4c0.1,2.4,0.1,4.3,0.4,6.2c0.1,1.1,0.7,2.1,1.1,3.1c-0.2,0.3-0.4,0.6-0.6,1
			c3.7,1.4,5.3,0,4.8-4.1c-0.2-1.9-0.8-3.7-1.3-5.5c-0.2-0.6-0.8-1.3-1.3-1.4c-4.8-1.4-9.6-2.8-14.5-4C54.9,199.9,54,200.4,53,200.6
			z"/>
		<path fill="#027C41" d="M155.2,210.1c1.2,0.3,2.4,0.7,3.7,0.8c6.2,0.5,12.4,1,18.6,1.4c1,0.1,2.8,0.6,2-1.7
			c-0.7-0.7-1.5-1.4-2.2-2.1c-1.9-0.1-3.8-0.3-5.6-0.4c-5.1-0.4-10.2-0.7-15.4-1.1C158,208.7,156.1,209.2,155.2,210.1z"/>
		<path fill="#F1895C" d="M155.2,210.1c0.9-0.9,2.8-1.4,1.1-3.2c-0.8-0.2-1.5-0.3-2.9-0.6c1.4-0.5,2.3-0.7,3.1-1
			c0-0.3,0.1-0.7,0.1-1c-1-0.4-1.9-0.8-3.4-1.5c1.1-0.6,1.7-0.9,2.3-1.2c-0.6-0.9-1.2-1.7-1.9-2.6c-2.5,1.3-5,2.6-7.5,3.9
			c0.2,1.8,0.4,3.6,0.7,5.5C149.6,208.9,152.4,209.5,155.2,210.1z"/>
		<path fill="#027E43" d="M153.6,199c0.6,0.9,1.2,1.7,1.9,2.6c3.3,0.3,6.7,0.7,10,1c3.1,0.3,6.2,0.7,9.2,1c0.4-1.3,0.7-2.5,1.1-3.8
			c-0.4-0.2-0.8-0.6-1.2-0.6C167.6,199.1,160.6,199.1,153.6,199z"/>
		<path fill="#F3895C" d="M167.9,182.3c0.7,1.3,1.4,2.6,2.2,4.1c-1.6-0.3-3.2-0.7-4.9-1c-0.1,0.2-0.2,0.4-0.2,0.6
			c1,0.9,1.9,1.7,2.9,2.6c-0.1,0.2-0.1,0.3-0.2,0.5c-1.2-0.3-2.5-0.6-4.2-0.9c0.4,1.3,0.6,2.2,0.9,3.1c3.5-0.2,6.9-0.4,10.4-0.6
			c-0.8-2.1-0.2-3.6,2.1-4.2c-2.5-1.6-5.1-3.1-7.6-4.7C168.8,181.9,168.3,182.1,167.9,182.3z"/>
		<path fill="#055E80" d="M175.9,199.9c-0.4,1.3-0.7,2.5-1.1,3.8c0.2,0.4,0.4,0.7,0.6,1.1c0.3,0.7,0.6,1.3,1,2
			c0.3,0.5,0.7,1.1,1,1.6c0.7,0.7,1.5,1.4,2.2,2.1c0.6,0,1.2,0,1.8,0C182,207.1,179.1,201.6,175.9,199.9z"/>
		<path fill="#F4885B" d="M195.6,184.5c-2.2,0.4-4.5,0.6-6.7,1.2c-0.6,0.1-1.1,0.9-1.5,1.5c-0.1,0.2,0.6,1,1,1.2
			c3.3,1.7,6.7,3.4,10.1,5c-0.5-1-0.9-2-1.5-3C196,188.6,194.5,186.9,195.6,184.5z"/>
		<path fill="#0D0808" d="M140.8,184.6c1.7,0.9,2.8,0.3,3.6-1.3c1-1.9,2.1-3.7,3.2-5.6c-0.2-0.4-0.4-0.8-0.6-1.2
			c-2.3-0.8-3.9,0.2-5.2,1.9C140.4,180.2,139.6,182.3,140.8,184.6z"/>
		<path fill="#097B44" d="M146.8,208.3c-0.2-1.8-0.4-3.6-0.7-5.5c-2.3,0.9-4.6,1.9-7.3,2.9C141.4,208.6,143.9,209,146.8,208.3z"/>
		<path fill="#461A19" d="M147,176.5c0.2,0.4,0.4,0.8,0.6,1.2c6.7,1.5,13.5,3.1,20.2,4.6c0.4-0.2,0.9-0.3,1.3-0.5
			c-5.9-1.6-11.8-3.2-17.7-4.7C150,176.7,148.5,176.7,147,176.5z"/>
		<path fill="#606054" d="M195.6,184.5c-1.1,2.3,0.4,4.1,1.4,5.9c0.5,1,1,2,1.5,3c0.2,0.1,0.4,0.3,0.7,0.4c-0.2-3.1-0.5-6.3-0.7-9.4
			C197.4,184.5,196.5,184.5,195.6,184.5z"/>
		<path fill="#ED4C38" d="M176.8,186.4c-2.2,0.6-2.9,2-2.1,4.2c1.7,0,3.4,0.3,5,0c1.5-0.2,1.4-1.4,0.4-2.2
			C179.1,187.6,177.9,187.1,176.8,186.4z"/>
		<path fill="#102316" d="M50.8,210.1c-4.8-0.8-9.6-1.7-14.5-2.4c-1-0.2-2.1,0.2-3.2,0.3c0.3,0.3,0.5,0.8,0.8,0.8
			c4.9,0.8,9.8,1.5,14.7,2.3C49.4,210.7,50.1,210.4,50.8,210.1z"/>
		<path fill="#242825" d="M50.8,210.1c-0.7,0.3-1.4,0.7-2.2,1c2.6,0.5,5.3,1.1,7.9,1.6c0.4-0.6,0.7-1.1,1.1-1.7
			C55.4,210.7,53.1,210.4,50.8,210.1z"/>
		<path fill="#242D31" d="M68.1,215.2c0.2-0.3,0.4-0.6,0.6-1c-2.3-0.5-4.6-1-6.9-1.5c-1.1,0.2-2.1,0.3-3.2,0.5
			C61.8,213.8,65,214.5,68.1,215.2z"/>
		<path fill="#F2784C" d="M86.3,75.2c0.6,0,1.2,0,1.9,0c2.6-1.5,4.1,0.1,5.5,2.1c0.8-0.4,1.7-0.7,2.2-1.3c1.3-1.7,2.4-3.7,3.6-5.5
			c0.6-2.4,0.5-2.5-4-2.9c-0.2-1.1-0.5-2.3-0.7-3.4c-1.1-3.4-0.7-6.4,1.6-8.4c-0.2,1.5-0.4,2.7-0.3,3.8c0,0.8,0.5,1.7,0.8,2.5
			c0.7-1.2,1.4-2.4,2-3.6c2.2-3.9,2.1-4.5-1.6-8c-0.4,1.1-0.8,2-1.2,2.9C96,53.6,96,54,95.9,54c-3.4,1.9-2.4,5.2-2.7,8.1
			c-0.3,3-0.4,6.1-0.5,9.1c-0.3,0.1-0.5,0.3-0.8,0.4c-0.6-0.7-1.2-1.4-1.8-2.2c-1.6-0.1-3.4-1.3-4.6,0.7
			C84.4,72,84.6,73.8,86.3,75.2z"/>
		<path fill="#F27E4E" d="M98.5,99.8c2.1,0.1,4.2,0.2,6.2,0.3c-2-4.5-1.6-7.1,1.5-9.9l0,0c0-0.3,0-0.7,0-1c-0.4-1.9-0.7-3.8-1.1-5.7
			l0,0c-3.1,1.3-6.2,2.5-8.3,5.2l0,0c-1.2,2.5-2.5,4.8,0.1,7.4C97.8,97,98,98.6,98.5,99.8z"/>
		<path fill="#F27D50" d="M86.4,43.3c0.3-1.4,0.5-2.8,0.9-4.4c-0.9,0.5-1.8,0.9-2.9,1.4c-0.4-1.1-0.6-1.8-0.9-2.6
			c-1,1.8-2,3.6-3,5.3c0,0-0.6-0.2-0.9-0.3c-0.3-0.7-0.6-1.5-0.9-2.5c-0.9,1.6-0.4,4.2-3.2,3.5c0,0.4,0,0.7,0,1.1
			c0.1,0.5,0.2,0.9,0.3,1.4c0.9,3.3,1.3,7,4.9,8.7c0.1-1.5,0.2-3.1,0.3-4.6c0.2,0,0.4,0,0.6,0c0.2,0.6,0.5,1.3,0.7,1.9
			c0.2-1.4,0.1-3,0.7-4.3C83.8,46.2,85.2,44.8,86.4,43.3z"/>
		<path fill="#EE5137" d="M75.5,43.7c2.8,0.7,2.3-2,3.2-3.5c0.4,1,0.7,1.8,0.9,2.5c0.5-0.7,1.4-0.9,0.2-2.1c-1.3-1.4-1-3.5,0.3-5.2
			c0.1-0.1,0.3-0.1,0.5-0.2c0.5-0.3,1-0.5,1.6-0.8c0.2-1.7,0.3-3.5,0.5-5.2c0-1.2,0-2.4,0-3.7c-3.4,1.3-4.4,4.4-5.5,7.3
			c-0.9,2.3-1.2,4.8-1.8,7.3C75.4,41.3,75.4,42.5,75.5,43.7z"/>
		<path fill="#EE5638" d="M102.6,79.3c-0.7-0.9-1.4-1.7-2.1-2.6c-1,0.5-2.1,1-3.1,1.5c-1.1,0.2-2.1,0.3-3.2,0.5
			c0.7,3.7,0.5,7.3-1.1,10.8c0,0.2,0,0.4,0.1,0.7c1.2-0.5,2.4-1,3.7-1.6l0,0c-1.1-1.1-0.9-2.1,0.2-3c1-0.8,2.1-1.5,3.1-2.3
			c0.3-0.2,0.7-0.8,0.6-1C100,80.6,101.2,79.9,102.6,79.3z"/>
		<path fill="#190A08" d="M86.3,75.2c-1.7-1.4-1.9-3.2-0.8-5c1.2-2,3-0.8,4.6-0.7c0.1-0.4,0.5-1,0.3-1.3c-0.7-1.2-1.6-2.4-2.4-3.6
			c-0.2,0.5-0.3,1-0.5,1.6c0.9,2.7-1.4,0.9-2,1.5c-3.7,2-4,3.3-2.1,7.9c-1.2,2.4-2.2,4.3-3.2,6.2c0.3,0.4,0.7,0.9,1,1.3
			c0.2-0.6,0.3-1.2,0.5-1.8c0.7-1.9,1.4-3.8,4.1-3.1C86,77.2,86.2,76.2,86.3,75.2z"/>
		<path fill="#EE5136" d="M86.4,43.3c-1.2,1.5-2.6,2.9-3.4,4.6c-0.6,1.2-0.5,2.8-0.7,4.3c0.3,0.9,0.6,1.8,0.9,2.7
			c0.6-1.9,1.2-3.8,1.8-5.7c0.2,0.1,0.5,0.1,0.7,0.2c0.9,1.6,1.8,3.2,2.7,4.9c0.2-3.5,0.3-6.9,0.5-10.5c-1.2-0.4-1.2-0.4-2.8,2.3
			C86.3,45.1,86.3,44.2,86.4,43.3z"/>
		<path fill="#F1774B" d="M88.5,54.2c-0.9-1.6-1.8-3.2-2.7-4.9c-0.2-0.1-0.5-0.1-0.7-0.2c-0.6,1.9-1.2,3.8-1.8,5.7
			c1.2,2.3,2.5,4.6,3.7,6.9C87.4,59.2,87.9,56.7,88.5,54.2z"/>
		<path fill="#EB5C3B" d="M120.9,99.1c1.2-3.1,2.5-6.2,3.7-9.3c-0.2-0.1-0.6-0.3-0.7-0.3c-2.1,2-4.1,4-6.2,6c-1,1-2.1,2.1-3.1,3.2
			C116.7,98.8,118.8,99,120.9,99.1z"/>
		<path fill="#F27B4D" d="M123.5,48.5c1.7,1.2,3.5,2.4,5.2,3.6c-0.1-1.9,0-3.9-0.5-5.7c-0.2-0.7-1.7-1.5-2.6-1.5
			c-1.7-0.1-3.3,0.4-5.3,1.2C121.4,46.9,122.4,47.7,123.5,48.5z"/>
		<path fill="#170907" d="M86.9,61.7c-1.2-2.3-2.5-4.6-3.7-6.9c-0.3-0.9-0.6-1.8-0.9-2.7c-0.2-0.6-0.5-1.3-0.7-1.9
			c-0.2,0-0.4,0-0.6,0c-0.1,1.5-0.2,3.1-0.3,4.6c0.3,0.3,0.6,0.6,0.9,0.9c0.4,1,0.7,2.1,1.1,3.1c1.6,2.4,3.1,4.9,4.7,7.3
			c0.2-0.5,0.3-1,0.5-1.6C87.6,63.7,87.2,62.7,86.9,61.7z"/>
		<path fill="#F27349" d="M82.7,29.1c-0.2,1.7-0.3,3.5-0.5,5.2c2.3-1.4,4.6-2.8,6.9-4.1c0.8-0.5,1.6-0.8,2.4-1.6
			C88.5,28.3,85.5,27.2,82.7,29.1z"/>
		<path fill="#ED5B3A" d="M118.8,38.5c-2.1-1.3-2.4-3.6-3.3-5.7c-1.1-2.5-3.3-4.5-5.1-6.5c-0.8-0.9-2-1.3-3.1-1.9
			c0.5,1,1.1,2.1,1.6,3.1c0.4-0.2,1-0.6,1.1-0.6c1.7,1.9,3.3,3.9,4.8,5.9c0.1,0.1-0.5,0.6-0.7,0.9c0.8,4.9,1.2,5.8,4.4,8.5
			c-0.7-1.7-1.2-2.7-1.6-3.9C117.5,38.5,118.2,38.5,118.8,38.5z"/>
		<path fill="#EF663D" d="M102.6,79.3c-1.4,0.6-2.6,1.3-1.8,3.2c0.1,0.2-0.3,0.7-0.6,1c-1,0.8-2.1,1.5-3.1,2.3
			c-1.1,0.9-1.3,1.9-0.2,3c2.2-2.7,5.3-3.9,8.3-5.2C104.3,82.1,103.5,80.7,102.6,79.3z"/>
		<path fill="#F16741" d="M112.5,73.6c-0.3-0.3-0.9-0.6-0.9-0.8c0.4-2.2,0.8-4.4,1-6.8c-2.6,3.2-3.3,7.1-4.5,10.9
			c0.6,0.8,1.2,1.6,1.8,2.4c0.9-1.6,1.7-3.1,2.6-4.7C112.5,74.3,112.5,73.9,112.5,73.6z"/>
		<path fill="#F37A4D" d="M113,80.9c-1.8,0.2-2.8,1.1-2.7,3.1c0.1,1-0.5,2-0.4,3c0.1,1.1,0.6,2.1,1,3.1c0.7-0.6,1.4-1.2,2-2
			c0.4-0.5,0.5-1.2,0.8-1.8c-0.5-0.2-0.9-0.4-1.4-0.6c0.3-0.8,0.5-1.6,0.7-2.3C113.1,82.6,113.1,81.8,113,80.9z"/>
		<path fill="#F27E4E" d="M128.7,55.8c-1-0.7-2.1-1.4-3.1-2.1c-0.7-0.1-1.5-0.3-2.1-0.4c-0.2,2.7-0.3,5.2-0.5,7.7
			C124.9,59.2,126.8,57.5,128.7,55.8z"/>
		<path fill="#EF6A42" d="M94.2,78.8c1.1-0.2,2.1-0.3,3.2-0.5c-0.6-2.3,0.5-3.6,3.6-4.7c-0.5-1.1-1-2.1-1.5-3.2
			c-1.2,1.8-2.3,3.8-3.6,5.5c-0.5,0.6-1.5,0.9-2.2,1.3C93.8,77.8,94,78.3,94.2,78.8z"/>
		<path fill="#E87C52" d="M120.9,99.1c-2.1-0.1-4.2-0.3-6.2-0.4c-0.2,0.4-0.4,0.8-0.6,1.1C116.5,102,118.7,101.8,120.9,99.1z"/>
		<path fill="#F0603C" d="M96.9,62.1c-0.3-0.8-0.8-1.6-0.8-2.5c-0.1-1.1,0.2-2.3,0.3-3.8c-2.3,2-2.8,4.9-1.6,8.4
			C95.5,63.5,96.2,62.8,96.9,62.1z"/>
		<path fill="#F47E50" d="M101,73.6c-3.1,1-4.2,2.4-3.6,4.7c1-0.5,2.1-1,3.1-1.5C100.7,75.7,100.8,74.6,101,73.6z"/>
		<path fill="#EC5C3D" d="M108.4,92.2c1,1.5,2.1,2.9,3.1,4.4c0.3-0.7,0.7-1.3,0.9-2c0.6-1.6,0.5-2.7-1.7-2.2
			C109.9,92.5,109.1,92.3,108.4,92.2z"/>
		<path fill="#F05438" d="M113,80.9c0,0.9,0,1.7,0,2.6c1.4-1.7,1.7-5.8,0.7-7.5c-0.5-0.8-0.8-1.6-1.2-2.5c0,0.3,0,0.7,0,1
			c0,1.7,0,3.5,0,5.2C112.7,80.2,112.9,80.5,113,80.9z"/>
		<path fill="#F27D50" d="M112.5,79.8c0-1.7,0-3.5,0-5.2c-0.9,1.6-1.7,3.1-2.6,4.7C110.8,79.5,111.7,79.6,112.5,79.8z"/>
		<path fill="#F6774E" d="M114.1,33.9c0.3-0.3,0.8-0.8,0.7-0.9c-1.6-2-3.2-4-4.8-5.9c-0.1-0.1-0.7,0.4-1.1,0.6
			C110.6,29.7,112.4,31.8,114.1,33.9z"/>
		<path fill="#F47149" d="M110.1,54.1c0.6-0.6,1.2-1.2,2.2-2.1c-1.2-0.7-2.1-1.3-3-1.8c-0.1,1.3-0.1,2.5-0.2,3.8
			C109.5,54,109.8,54.1,110.1,54.1z"/>
		<path fill="#EE5A3A" d="M105.2,83.5c0.4,1.9,0.7,3.8,1.1,5.7c0.5-1.4,1.2-2.7,1.4-4.2C108,82.9,106,84.1,105.2,83.5z"/>
		<path fill="#F05438" d="M115.9,78.5c-0.3,1.6-0.7,3.2-1,4.9c0.3,0.1,0.5,0.1,0.8,0.2c0.5-1.6,1.1-3.1,1.6-4.7
			C116.8,78.7,116.3,78.6,115.9,78.5z"/>
		<path fill="#FCFCFC" d="M76,199.5c1.9,0.5,3.8,0.9,5.7,1.3c0.3-2.1,0.5-4,0.7-5.9c0.3,0,0.6-0.1,0.9-0.1c1,2.3,2,4.7,3,7
			c0.3-0.1,0.6-0.3,0.9-0.4c-0.3-1.3-0.7-2.6-0.8-3.9c0-0.7,0.6-1.4,0.9-2.2c0.5,0.5,1.2,0.9,1.5,1.5c0.7,1.6,1.2,3.2,1.9,4.8
			c0.2,0.4,0.8,0.6,1.5,1.1c-0.6-2.4-1.2-4.4-1.6-6.4c-0.1-0.4,0.4-0.9,0.8-1.8c1.2,2.5,2.2,4.7,3.4,6.8c0.4,0.8,1.4,1.6,2.2,1.7
			c5.2,0.9,10.4,1.7,15.6,2.5c-0.6-5.4-1.1-10.8-1.7-16.5c-3.6,0.8-6.9,1.7-10.3,2.2c-1.1,0.2-2.3-0.7-3.5-1.1
			c0.2,1.3-0.6,1.6-2.5,1.2c-5.4-1.3-10.8-2.4-16.3-3.4c-2.3-0.4-4.7-0.3-7-0.4c-1.8,1.7-2.7,3.7-2.1,6.2c0.2,0.1,0.5,0.1,0.7,0.2
			c2.4,1,3.4,4.1,6.3,4.3C76.2,198.7,76.1,199.1,76,199.5z"/>
		<path fill="#024628" d="M120.9,146.7c-0.6-0.4-1.2-1-1.8-1c-6-0.2-12.1-0.5-18.1-0.5c-1.4,0-2.8,1-4.2,1.5
			c6.9,0.2,13.9,0.4,20.8,0.5C118.7,147.2,119.8,146.9,120.9,146.7z"/>
		<path fill="#0A7597" d="M70.8,186c-0.4,0-0.7,0-1.1-0.1c-1,0.5-2.1,1.1-3.1,1.6c-0.5,2.8-2,5.7,0.4,8.4c0.4-1.7,0.7-3.4,1.1-5.2
			c0.3,1.2,0.7,2.4,1,3.5c0-0.2,0.1-0.4,0.1-0.6c-0.6-2.5,0.3-4.5,2.1-6.2C71.1,187,71,186.5,70.8,186z"/>
		<path fill="#82C6D9" d="M69.2,193.7c0,0.2-0.1,0.4-0.1,0.6c1.3,3.1,3.1,5.5,6.9,5.2c0.1-0.4,0.1-0.8,0.2-1.2
			c-2.9-0.3-3.9-3.3-6.3-4.3C69.7,193.8,69.5,193.8,69.2,193.7z"/>
		<path fill="#187897" d="M121.5,190.2c0.2-0.6,0.4-1.2,0.7-2c1,1.9,2.3,3,4.5,2c-1.5-0.9-3-1.9-5.1-3.1
			C121.6,188.4,121.5,189.3,121.5,190.2z"/>
		<path fill="#288F6E" d="M47.1,99.3c0.6,0.7,1.1,1.3,1.7,2c2.1,1.3,4.2,2.8,6.4,3.9c1.6,0.8,3.4,1.2,5,1.7c2.3,0.4,4.6,0.8,6.8,1.2
			c-1.5-0.7-3-2-4.5-2.1c-3.6-0.2-6.4-2-9.3-3.8C51.2,101.2,49.1,100.3,47.1,99.3z"/>
		<path fill="#80C5DA" d="M55,73c0.5,2.8,1,5.6,1.5,8.4c2-4.1,0.8-8.8-2.6-10.4C54.3,71.7,54.7,72.4,55,73z"/>
		<path fill="#0E2125" d="M55,73c-0.3-0.7-0.7-1.4-1-2.1c-0.3-0.4-0.7-0.7-1-1.1c-3.6,0.8-4,1.7-2.6,5.2c0-1.4,0-2.8,0-4.2
			c0.3-0.1,0.6-0.2,0.8-0.4c1.1,1.3,2.2,2.6,3.3,3.9C54.7,74,54.9,73.5,55,73z"/>
		<path fill="#EF663D" d="M96.9,88.7c-1.2,0.5-2.4,1-3.7,1.6c1,2.4-1.3,3.3-2.2,4.8c1.9,3,3.8,6.1,5.9,9c0.6,0.8,1.7,1.2,2.5,1.8
			c0.5-0.8,0.9-1.7,1.4-2.5c0.1-0.2,0.2-0.5,0.3-0.7c-0.9-1-1.7-1.9-2.6-2.9C98,98.6,97.8,97,97,96.1C94.4,93.5,95.7,91.2,96.9,88.7
			z"/>
		<path fill="#15110F" d="M71.2,56.7c-1.6,1.2-1.6,1.2-1.3,5.4c-3.5,0.9-4,3.8-4.3,6.8c-0.4,3.7-1.2,7.4-1,11.1
			c0.2,3,1.7,5.8,2.6,8.7c0.5-0.4,1-0.8,1.5-1.1c-3.6-7.2-1.8-14.5-1-22c1.5,0.2,2.9,0.3,4.2,0.5c0.1-0.2,0.1-0.4,0.2-0.6
			c-1.2-0.3-2.4-0.6-3.8-1c0.3-0.3,0.5-0.6,0.8-0.7c2.4-0.9,3.5-2.3,2.1-4.9c-0.2-0.4,0-1.1,0.1-1.6C71.2,57.1,71.2,56.9,71.2,56.7z
			"/>
		<path fill="#110807" d="M94.2,78.8c-0.2-0.5-0.4-1-0.6-1.5c-1.3-2-2.8-3.6-5.5-2.1c-0.1,0.7-0.3,1.5-0.4,2.4
			c2.1-1.7,4-1.3,4.2,1.1c0.4,3,0.3,6.2,0.1,9.2c0,0.6-1.3,1.3-2.2,1.7c-0.6,0.4-1.4,0.5-2.4,0.8c1,0.8,1.5,1.2,2,1.6
			c1.2-0.8,2.4-1.5,3.5-2.3C94.7,86.1,94.9,82.5,94.2,78.8z"/>
		<path fill="#150E0F" d="M71.2,56.7c0,0.2,0,0.4,0,0.6c1.5,1.5,3,3.1,4.8,4.9c1.9-2.2,3.8-4.3,5.6-6.5c-0.3-0.3-0.6-0.6-0.9-0.9
			c-3.7-1.8-4-5.4-4.9-8.7c-0.1-0.4-0.2-0.9-0.3-1.4c-0.6,0-1.1,0-1.7,0c0.2,0.5,0.4,1,0.5,1.5c0.3,3.8,1.2,7.3,5.2,9.3
			c-1.1,1.4-2.1,2.9-3,4C74.6,58.6,72.9,57.7,71.2,56.7z"/>
		<path fill="#F17A53" d="M81,66c-2.2-1.3-4.3-1.2-6,0.1c-0.7,0.5-0.8,2-1.2,3c0.8,0.3,1.7,0.8,2.5,0.7C78.4,69.5,80.2,68.5,81,66z"
			/>
		<path fill="#EB6A41" d="M85.8,78.1c-2.7-0.7-3.4,1.2-4.1,3.1c-0.2,0.6-0.4,1.2-0.5,1.8c0.5,0.9,1,1.9,1.5,2.8
			c0.2-0.1,0.4-0.2,0.5-0.2c0-0.6,0.1-1.1,0.1-1.7c0-0.7,0-1.4,0-2.3c0.8,0.5,1.4,0.8,2.5,1.5C85.8,81.2,85.8,79.7,85.8,78.1z"/>
		<path fill="#25211F" d="M68.7,87.6c-0.5,0.4-1,0.8-1.5,1.1c1.1,2.3,2.5,4.2,5.1,4.8c0.7-0.4,1.4-0.7,2.1-1.1
			C72.5,90.8,70.6,89.2,68.7,87.6z"/>
		<path fill="#1A1616" d="M74.4,92.4c-0.7,0.4-1.4,0.7-2.1,1.1c3,0.7,6,1.4,9,2.2c0-0.4,0-0.8-0.1-1.2
			C78.9,93.8,76.7,93.1,74.4,92.4z"/>
		<path fill="#E06B44" d="M87.5,66.2c-1.6-2.4-3.1-4.9-4.7-7.3c0.9,2.9,1.8,5.9,2.7,8.8C86.1,67.2,88.4,68.9,87.5,66.2z"/>
		<path fill="#2E2521" d="M81.2,94.5c0,0.4,0,0.8,0.1,1.2c2.1,1.2,4.2,2.5,6.3,3.7c0.6,0.4,1.3,0.6,2,0.9
			C87.5,97.2,85.2,94.7,81.2,94.5z"/>
		<path fill="#E6734B" d="M83.3,84c0,0.6-0.1,1.1-0.1,1.7c-0.2,0.1-0.4,0.2-0.5,0.2c-0.5-0.9-1-1.9-1.5-2.8c-0.3-0.4-0.7-0.9-1-1.3
			c0.4,1.9,0.7,3.9,1.2,5.8c0.1,0.3,0.9,0.6,1.3,0.5c0.5-0.2,1.1-0.7,1.1-1.2C83.8,85.9,83.5,85,83.3,84z"/>
		<path fill="#E94332" d="M93.1,89.6c-1.2,0.8-2.4,1.5-3.5,2.3c-1.5,1.9,0.7,2.2,1.4,3.2c0.9-1.5,3.2-2.4,2.2-4.8
			C93.2,90.1,93.2,89.8,93.1,89.6z"/>
		<path fill="#241713" d="M78.7,63.2c0.7,0.3,1.4,0.9,2,0.8c0.5-0.1,1.2-1,1.2-1.5c0-0.5-0.8-1.1-1.4-1.4c-0.2-0.1-0.8,0.7-1.3,1.1
			C79.1,62.5,78.9,62.8,78.7,63.2z"/>
		<path fill="#FCFCFB" d="M27.9,10.7c0.5,0.2,1,0.5,1.5,0.7c0.9,0.2,1.8,0.5,2.8,0.7c4,1.1,8,2.3,12,3.4c-0.5-0.7-1.1-1.3-1.6-2
			c0.8-0.6,2.1-1.1,2.4-1.9c0.3-0.8-0.5-1.9-0.8-3c2.4-1.2,2.5-1.7,0.3-3.8c1-0.9,2.1-1.8,3.1-2.7c-0.2-0.3-0.4-0.7-0.5-1
			c-6.1,1.5-12.3,3-18.3,4.5C28.4,7.5,28.1,9.1,27.9,10.7z"/>
		<path fill="#352B28" d="M47.7,17.7c3.1,0.6,6.2,1.3,9.5,1.9c-0.7,2.9,0.2,5.5,2.5,7.5c0.2-0.2,0.3-0.3,0.5-0.5
			c-1.5-2-2.7-4-1.8-6.9c0.8,0.1,1.6,0.2,2.2,0.3c0.3,1.8,0.5,3.2,0.7,4.6c0.2-0.6,0.3-1.1,0.5-1.7c0-0.9,0.1-1.7,0.1-2.6l-0.2-0.1
			c-0.8-0.3-1.7-0.6-2.5-1c-0.4-0.2-0.7-0.7-1-1.1c-4-0.7-8-1.3-12.1-2C46.7,16.6,47.2,17.1,47.7,17.7z"/>
		<path fill="#3D3B3B" d="M47.7,17.7c-0.5-0.5-1-1-1.5-1.5c-0.7-0.2-1.4-0.3-2-0.5c-4-1.1-8-2.3-12-3.4c-0.9-0.3-1.8-0.5-2.8-0.7
			c-0.4,0.2-0.7,0.3-1.1,0.5C34.8,13.8,41.3,15.7,47.7,17.7z"/>
		<path fill="#4F2522" d="M64.4,17.7c-0.7-0.9-1.5-1.7-2-2.7c-0.3-0.6,0-1.4,0-2.1c-0.6-0.2-1.3-0.3-1.9-0.5
			c-0.2,0.7-0.7,1.6-0.4,2.1c0.7,1.5,1.7,2.8,2.7,4.1C63.3,18.3,63.8,18,64.4,17.7z"/>
		<path fill="#271512" d="M64.4,17.7c-0.5,0.3-1.1,0.6-1.6,0.9c-1.5-0.2-3-0.4-4.5-0.5c0.3,0.4,0.6,0.9,1,1.1c0.8,0.4,1.6,0.7,2.5,1
			c1.3-0.4,2.6-0.8,3.9-1.2C65.2,18.6,64.8,18.1,64.4,17.7z"/>
		<path fill="#F07254" d="M62.3,4.6c2.6,0.4,5.2,0.9,7.8,1.3c0.1-0.3,0.1-0.6,0.2-1c-2.6-0.4-5.2-0.8-7.8-1.2
			C62.4,4.1,62.3,4.4,62.3,4.6z"/>
		<path fill="#F7B69A" d="M34.7,65.1c-0.4,0-0.8,0-1.1,0.1c0.8,0.9,1.5,1.8,2.4,2.6c1.2,1,0.4,1.5-0.3,2.1c0.1,0.5,0.2,1,0.2,1.3
			c-2.2-0.7-4.3-1.3-6.4-2c-0.6-0.2-1-0.8-1.5-1.3c-0.7,0.1-1.4,0.1-2.1,0.2c-0.6,1.8-0.1,2.7,1.8,3.3c1.9,0.6,3.7,1.6,6.1,2.6
			c-2.4,0.3-4.3,0.1-5.8,0.9c-1.3,0.7-2.2,2.3-3.4,3.7c3.3,1.8,3.9-1.7,6.1-1.9c-0.6,1.8-3.3,3.8,0.4,5.2c0.2-0.6,0.4-1.2,0.6-1.8
			c0.1,0,0.3,0,0.4,0.1c0,1.7,0,3.3,0,5c0.5,1,1.1,2,1.6,3c1.5-0.5,3.1-1,4.6-1.5c1.2-0.5,2.4-1,3.6-1.5c-4.3-3.4-2-8-2-12.1
			c0-1,0.4-2,0.6-2.9c-0.5-0.8-1.1-1.7-1.6-2.5C37.5,66.7,36.1,65.9,34.7,65.1z"/>
		<path fill="#03834B" d="M41.9,85c-1.2,0.5-2.4,1-3.6,1.5c-0.1,0.5-0.2,0.9-0.2,0.9c2,1.5,4,3.2,6,4.6c1.2,0.8,3.2,3,3.4-0.9
			c0-0.5,0.5-1,0.7-1.5C46.1,88.1,44,86.6,41.9,85z"/>
		<path fill="#02A1C8" d="M38.8,67.5c0.5,0.8,1.1,1.7,1.6,2.5c0.3,2.1,0.7,4.2,1,6.2c0.1,1.3,0,2.6,0,3.9c3.3,0.8,6.5,1.6,9.4,2.3
			c-1-4.2-2-8.3-3.2-13.3C45.3,68.7,42.1,68.1,38.8,67.5z"/>
		<path fill="#049DC2" d="M54.5,74.5c-1.1-1.3-2.2-2.6-3.3-3.9c-0.3,0.1-0.6,0.2-0.8,0.4c0,1.4,0,2.8,0,4.2c0.7,2,1.2,4,2,5.8
			c0.3,0.7,1.2,1.2,1.9,1.8c0.4-0.2,0.7-0.3,1.1-0.5C55.1,79.6,54.8,77,54.5,74.5z"/>
		<path fill="#030502" d="M90.2,134.1c-1.7,1.7,0,1.5,0.9,1.7c4.2,0.2,8.3,0.3,12.5,0.5c4.4,0,8.8,0,13.2,0c0-0.3,0-0.5,0-0.8
			C108,134.8,99.1,133.7,90.2,134.1z"/>
		<path fill="#41332C" d="M65.6,19c-1.3,0.4-2.6,0.8-3.9,1.2c0,0,0.2,0.1,0.2,0.1c1,0,1.9,0,2.1,0c0.2,2.2,0.3,3.9,0.4,5.7
			c0.2,0.4,0.4,0.8,0.6,1.2c0.1-0.7,0.3-1.4,0.4-2.1c0.3-1.5,0.5-3.1,0.7-4.6c0.3,0,0.6,0,0.9-0.1C66.6,19.9,66.1,19.5,65.6,19z"/>
		<path fill="#2B211D" d="M65,27.2c-0.2-0.4-0.4-0.8-0.6-1.2c-0.9-1-1.8-2.1-2.7-3.1c-0.2,0.6-0.3,1.1-0.5,1.7
			c0.2,0.8,0.4,1.6,0.7,2.6c-0.7-0.3-1.2-0.4-1.7-0.6c-0.2,0.2-0.3,0.3-0.5,0.5c0.7,0.5,1.4,1.1,2.1,1.6C62.9,28.2,64,27.7,65,27.2z
			"/>
		<path fill="#EB4A35" d="M106.3,90.3c-3.2,2.7-3.6,5.4-1.5,9.9c3.1-1.8,2.1-4.7,2-7.4C106.7,92,106.4,91.1,106.3,90.3z"/>
		<path fill="#030503" d="M88.6,130c-1.3,1.4,0,1.5,0.9,1.8c5.1,0.1,10.2,0.3,15.2,0.3c3.2,0,6.4-0.3,9.6-0.5c0.4,0,0.8-0.5,1.2-0.8
			C106.5,130.5,97.6,130.2,88.6,130z"/>
		<path fill="#02A1C8" d="M25.8,68.1c0.7-0.1,1.4-0.1,2.1-0.2c0.9-0.1,1.9-0.1,2.8-0.2c0.1-0.2,0.2-0.5,0.4-0.7
			c-1.4-0.8-2.6-1.9-4.1-2.3c-3.6-0.9-7.2-1.4-10.9-2.1c0,0-0.2,0.2-0.2,0.2c-1.8,2.9-2.6,6.1-2,9.5c0.1,0.7-0.1,1.4-0.1,2.1
			c2.3-0.1,4.5-0.1,6.8-0.2c0.5-0.8,1.1-1.5,1.6-2.3c0.7-1,1.3-2,2-2.9C24.7,68.6,25.2,68.4,25.8,68.1z"/>
		<path fill="#FAFBFB" d="M13.7,74.3c0-0.7,0.2-1.4,0.1-2.1c-0.5-3.4,0.2-6.6,2-9.5c-2.5,0.5-5.1,0.9-7.6,1.4
			c-0.4,1.7-0.8,3.4-1.1,5.2c1.5,1.4,3,2.9,4.5,4.3C12.3,73.8,13,74.1,13.7,74.3z"/>
		<path fill="#14A1C7" d="M24.1,68.9c-0.7,1-1.3,2-2,2.9c-0.5,0.8-1.1,1.5-1.6,2.3c1,0.9,2,1.8,2.8,2.6c1.3-1.7,2.2-2.9,3.1-4.2
			C25.8,72,22.3,72.3,24.1,68.9z"/>
		<path fill="#1B241F" d="M73.8,44.8c0.6,0,1.1,0,1.7,0c0-0.4,0-0.7,0-1.1c0-1.2,0-2.4,0-3.7c-0.5-0.3-1.1-0.7-1.6-1
			C73.8,41,73.8,42.9,73.8,44.8z"/>
		<path fill="#5D787C" d="M35.6,69.9c0.8-0.6,1.6-1.1,0.3-2.1c-0.9-0.7-1.6-1.7-2.4-2.6c-0.9-0.2-1.7-0.3-2.6-0.5
			C32.5,66.4,34,68.2,35.6,69.9z"/>
		<path fill="#1CA1C6" d="M7.1,69.3c0.4-1.7,0.8-3.4,1.1-5.2c-0.6,0-1.2,0-1.8-0.1C5.2,64.5,4,65,2.4,65.6c1,1.1,1.5,1.7,2,2.2
			C5.3,68.3,6.2,68.8,7.1,69.3z"/>
		<path fill="#34AACF" d="M219.5,193.2c-0.9-1.7-5-2.6-8.4-1.2c2.7,0.7,5.4,1.4,8.1,2.1C219.3,193.8,219.4,193.5,219.5,193.2z"/>
		<path fill="#161D21" d="M184.4,180.7c-0.1-1.8-0.2-3.7-0.3-5.5c-0.2-0.1-0.3-0.2-0.5-0.3c-0.5,0-1.2-0.3-1.4-0.1
			C181.1,176.2,182.5,180.1,184.4,180.7z"/>
		<path fill="#F4E4DC" d="M183.7,174.9c0.2,0.1,0.3,0.2,0.5,0.3c2.2,0.3,4.4,0.6,6.7,0.9c0.2-0.1,0.4-0.3,0.6-0.4
			c-2.7-0.6-5.4-1.2-8-1.8C183.5,174.2,183.6,174.6,183.7,174.9z"/>
		<path fill="#F9D5C2" d="M191.4,175.6c-0.2,0.1-0.4,0.3-0.6,0.4c2.1,0.6,4.3,1.2,6.4,1.8C196,174.8,193.3,176.6,191.4,175.6z"/>
		<path fill="#025C7D" d="M61.8,212.7c2.3,0.5,4.6,1,6.9,1.5c-0.4-1-1-2.1-1.1-3.1c-0.3-1.9-0.3-3.8-0.4-6.2
			c-3.6-1.2-7.9-2.6-12.2-4c-0.1,0.3-0.3,0.5-0.4,0.8c2,1.2,3.9,2.3,5.3,3.2c-0.4,1.3-1,2.4-1.1,3.5
			C58.7,210.5,59.6,212.1,61.8,212.7z"/>
		<path fill="#034720" d="M177.3,208.4c-0.3-0.5-0.7-1.1-1-1.6c-6.6-0.5-13.2-1-19.7-1.5c-0.8,0.3-1.6,0.5-3.1,1
			c1.3,0.3,2.1,0.5,2.9,0.6c5.1,0.4,10.2,0.7,15.4,1.1C173.6,208.2,175.4,208.3,177.3,208.4z"/>
		<path fill="#03451E" d="M175.3,204.8c-0.2-0.4-0.4-0.7-0.6-1.1c-3.1-0.3-6.2-0.7-9.2-1c-3.3-0.4-6.7-0.7-10-1
			c-0.6,0.3-1.1,0.6-2.3,1.2c1.5,0.6,2.4,1,3.4,1.5c3.5,0,7.1,0,10.6,0.1C169.9,204.4,172.6,204.6,175.3,204.8z"/>
		<path fill="#037B42" d="M175.3,204.8c-2.7-0.2-5.4-0.4-8.1-0.4c-3.5-0.1-7.1-0.1-10.6-0.1c0,0.3-0.1,0.7-0.1,1
			c6.6,0.5,13.2,1,19.7,1.5C176,206.1,175.6,205.4,175.3,204.8z"/>
		<path fill="#D19E88" d="M60.2,26.5c0.5,0.2,0.9,0.3,1.7,0.6c-0.3-1-0.5-1.8-0.7-2.6c-0.2-1.4-0.4-2.9-0.7-4.6
			c-0.6-0.1-1.4-0.2-2.2-0.3C57.5,22.5,58.7,24.6,60.2,26.5z"/>
		<path fill="#E7AE97" d="M61.8,22.9c0.9,1,1.8,2.1,2.7,3.1c-0.1-1.7-0.3-3.5-0.4-5.7c-0.2,0-1.2,0-2.1,0
			C61.8,21.2,61.8,22,61.8,22.9z"/>
	</g>
</g>
</svg>
