<?xml version="1.0" encoding="utf-8"?>
<!-- Generator: Adobe Illustrator 18.1.1, SVG Export Plug-In . SVG Version: 6.00 Build 0)  -->
<svg version="1.1" id="Camada_1" xmlns="http://www.w3.org/2000/svg" xmlns:xlink="http://www.w3.org/1999/xlink" x="0px" y="0px"
	 viewBox="0 0 231 150" enable-background="new 0 0 231 150" xml:space="preserve">
<g>
	<g>
		<path fill="#FFFFFF" d="M119.7,100.9c0,1.2,0,2.3,0,3.4c0,0.2-0.1,0.4-0.1,0.7c-10.8,0-21.6,0-32.4,0c0-1.4,0-2.7,0-4.1
			c1.3-0.4,2.6-0.7,3.9-1.1c1.5-0.4,2.1-1.5,2.2-2.9c0.1-0.7,0.1-1.5,0.1-2.2c0-13,0-26,0-39c0-0.1,0-0.2,0-0.3
			c0-4.3-0.4-4.9-4.6-5.7c-1.4-0.3-1.8-0.9-1.7-2.2c0.1-0.8,0-1.6,0-2.4c0.4,0,0.8-0.1,1.1-0.1c10.7,0,21.5-0.1,32.2,0
			c5,0,9.9,0.8,14.5,2.9c5,2.3,7.9,6.3,8.7,11.7c0.7,5.3,0,10.2-3.2,14.7c-3.1,4.3-7.5,6.7-12.6,7.7c-3.8,0.7-7.5,0.7-11.3,0.1
			c-0.8-0.1-1.6-0.1-1.5-1.3c0.1-1-0.4-2.1,1.3-2.4c3.1-0.7,5.9-2,6.9-5.3c0.6-1.9,1-3.9,1-5.9c0-4.1,0-8.2-0.5-12.2
			c-0.5-4.6-3.9-6.7-8.4-5.8c-1.5,0.3-2.3,1-2.4,2.6c-0.1,0.6-0.1,1.3-0.1,1.9c0,13.8,0,27.6,0,41.4c0,0.5,0,0.9,0,1.4
			c0.1,2.1,0.7,3,2.8,3.6c0.7,0.2,1.3,0.3,2,0.5C118.3,100.6,118.9,100.8,119.7,100.9z M95.5,81.8c2.2,0,4.4,0,6.6,0
			c0-0.8,0-1.8,0-2.8c-0.8,0.6-4,0.8-6.4,0.3c0.3-0.4,0.5-1,0.8-1.1c1-0.3,2.1-0.4,2.8,0.8c0.1-0.6,0.2-1.2-0.1-1.6
			c-0.5-0.7-1.1-1.2-1.8-1.9c0.4-0.1,0.9-0.3,1.3-0.4c0.7-0.1,1.5,0.1,2.2-0.1c0.5-0.1,1.2-0.6,1.2-1c0-1.4-0.1-2.7-0.2-3.8
			c-1.7,0-3.3,0-4.9,0c0.1,0.9,0.1,1.5,0.2,1.9c1.2-0.1,2.1-0.2,3.1-0.1c0.3,0,0.7,0.4,1,0.6c-0.3,0.2-0.6,0.7-1,0.7
			c-1,0.1-2.1,0-3.4,0c0.4,1.5,0.3,2.6-1,3.5c-0.4,0.2-0.4,1.1-0.5,1.7C95.5,79.7,95.5,80.8,95.5,81.8z M94.9,67.2
			c0.1,0.9,0.2,1.6,0.2,2.1c0.7-0.1,1.2-0.3,1.8-0.4c1.1-0.1,2.1,0,3.2,0c1.8,0,2.2-0.4,2.2-2.2c0-1.1-0.2-2.4-1.5-2.7
			c-1-0.2-2.3-0.2-3.1,0.3c-0.6,0.4-0.5,1.8-0.7,2.7c0.1,0.1,0.3,0.1,0.4,0.2C96.7,67.2,95.9,67.2,94.9,67.2z M99.7,52.2
			c1.6,0,2.6-1.1,2.6-2.8c0-1.6-1.1-2.7-2.7-2.7c-1.6,0-2.6,1.1-2.6,2.8C97.1,51.2,98.2,52.2,99.7,52.2z M95.1,63c2.5,0,4.7,0,7,0
			c0-0.8,0-1.5,0-2c-2.4,0-4.7,0-7.1,0C95,61.9,95.1,62.5,95.1,63z M97.4,54.2c0.3-0.1,0.6-0.2,0.7-0.4c0.2-0.2,0.4-0.6,0.4-0.9
			c0-0.1-0.4-0.5-0.6-0.4c-0.3,0.1-0.6,0.4-0.8,0.7c-0.5,1.1,0.1,3,1.1,3.6c1,0.6,2.7,0.4,3.4-0.5c0.8-1,0.7-2.4-0.4-3.7
			c0.2,1.3,0.3,2.6-1.3,2.8C99,55.4,97.9,55.7,97.4,54.2z M102.1,57.8c-1.7,0-3.3,0-5,0c0.1,0.9,0.1,1.6,0.1,2c1.7,0,3.3,0,4.9,0
			C102.1,59.1,102.1,58.4,102.1,57.8z M96.7,59c0.1-0.2,0.3-0.5,0.4-0.7c-0.4-0.1-0.9-0.5-1.2-0.4c-0.4,0.1-0.8,0.5-0.9,0.9
			c-0.1,0.2,0.4,0.8,0.8,0.8C96,59.7,96.4,59.3,96.7,59z M96.1,73.8c0.1-0.1,0.2-0.2,0.3-0.3c-0.1-0.5-0.1-1-0.3-1.4
			c-0.1-0.2-0.6-0.2-0.9-0.3c0,0.3-0.1,0.6,0,0.8C95.5,73.1,95.8,73.4,96.1,73.8z"/>
		<path fill="#FFFFFF" d="M99.6,67.6c-0.5-0.4-1.6-0.7-1.6-1.1c0-1.2,1.1-0.9,1.9-1c0.3,0,0.6-0.1,0.8,0.1c0.4,0.3,0.7,0.6,1.1,1
			c-0.4,0.2-0.7,0.5-1.1,0.7c-0.3,0.1-0.6,0-1,0C99.8,67.3,99.7,67.5,99.6,67.6z"/>
		<path fill="#FFFFFF" d="M99.5,50.7c-0.7-0.4-1.9-0.8-1.9-1.2c0.1-1.3,1.3-0.8,2.1-0.9c0.5-0.1,1-0.1,1.4,0.1
			c0.4,0.1,0.6,0.5,0.9,0.8c-0.3,0.3-0.6,0.7-0.9,0.8c-0.4,0.2-0.9,0.1-1.4,0.1C99.6,50.5,99.5,50.6,99.5,50.7z"/>
	</g>
</g>
</svg>
