<?xml version="1.0" encoding="utf-8"?>
<!-- Generator: Adobe Illustrator 18.1.1, SVG Export Plug-In . SVG Version: 6.00 Build 0)  -->
<svg version="1.1" id="Camada_1" xmlns="http://www.w3.org/2000/svg" xmlns:xlink="http://www.w3.org/1999/xlink" x="0px" y="0px"
	 viewBox="0 0 208 51" enable-background="new 0 0 208 51" xml:space="preserve">
<g>
	<g>
		<path fill="#FFFFFF" d="M73.4,13.5c0.9-0.7,1.4-1.2,2-1.7c10.7-9.7,27.5-9.6,38,0.3c1.3,1.2,2.2,1.6,3.7,0.2
			c11.5-10.7,28.5-10.3,39.6,0.9c0.5,0.5,1,0.9,1.8,1.6c0.4-1.1,0.8-2,1.1-2.8c1.3-3.4,3-6.4,6.9-7.4c4.4-1.1,8.6,1.5,10.4,6.4
			c0.7,1.8,1,3.7,1.6,6c1.2-0.9,2.1-1.5,3-2.2c2-1.6,3.9-3.3,5.8-4.9c2.6-2.2,5.6-3.4,9-3.9c3-0.4,5.7,0.4,7.6,2.9
			c1.8,2.4,1.6,5.1,0.5,7.7c-1.5,3.4-4.2,5.6-7.2,7.5c-1.8,1.1-3.6,2.3-6,3.8c1.5,0.8,2.4,1.3,3.3,1.8c4.2,2,8.5,3.8,11.3,7.8
			c2.3,3.3,2.6,6.3,0.8,9.2c-1.6,2.6-5.1,4-8.7,3.1c-2.9-0.8-5.8-2-8.5-3.4c-3-1.6-5.7-3.6-8.5-5.4c-2.4-1.5-2.6-1.3-3.5,1.3
			c-0.7,1.9-1.6,3.8-2.8,5.3c-3.2,3.9-8.4,4.2-11.8,0.4c-1.9-2.1-3-4.9-4.7-7.6c-0.3,0.3-0.9,0.7-1.4,1.3c-10,11-28.5,11.6-39,1.3
			c-1.6-1.6-2.5-1.8-4.4-0.1c-10.1,9.1-24.4,10-35.2,2.4c-1.9-1.4-3.6-3.2-5.2-4.9c-1.1-1.2-1.8-1.4-2.8,0
			c-4.2,6.1-10.3,8.6-17.3,9.8c-4.9,0.8-9.4-0.5-13.5-3c-1.2-0.7-2.2-1-3.5-0.1C25.3,54.2,7.8,48.3,3,36.8C-1.4,26-0.8,15.5,6.1,5.9
			C7.5,4,9.6,2.5,11.7,1.5c4.2-2.2,8.7-0.4,10.5,4c1.6,3.7,1,7.5-0.3,11.2c-0.9,2.5-1.8,5-2.1,7.5c-0.4,3,0.3,5.9,3.1,7.7
			c0.7,0.4,1.7,0.3,2.5,0.5c0.1-0.8,0.4-1.6,0.2-2.3c-1.1-4.2,0-7.9,2.2-11.3c4.4-6.9,15.9-6.5,19.9,0.6c1.9,3.4,2.8,6.9,1.8,10.8
			c-0.2,0.7,0.1,1.5,0.2,2.2c0.8-0.1,1.7,0,2.3-0.4c2.7-1.7,3.5-4.5,3.2-7.4c-0.2-2.1-1.1-4.2-1.5-6.3c-0.6-3.1-1.6-6.3-1.7-9.4
			c-0.1-3.4,1.7-6.2,4.9-7.7c3.2-1.5,6-0.3,8.6,1.5c3,2.1,5.2,5,6.6,8.4C72.5,11.8,72.9,12.4,73.4,13.5z M87,27.3
			c0,4.3,2.9,7.1,7.2,7.2c4.2,0,7.5-3,7.5-7c0.1-4-3.4-7.4-7.5-7.4C90.2,20.1,87,23.3,87,27.3z M136.4,34.5c4.3,0,7.5-3.1,7.5-7.3
			c0-3.9-3.4-7.1-7.5-7.1c-4,0-7.4,3.3-7.3,7.2C129.1,31.5,132.2,34.5,136.4,34.5z"/>
	</g>
</g>
</svg>
