<?xml version="1.0" encoding="utf-8"?>
<!-- Generator: Adobe Illustrator 18.1.1, SVG Export Plug-In . SVG Version: 6.00 Build 0)  -->
<svg version="1.1" id="Camada_1" xmlns="http://www.w3.org/2000/svg" xmlns:xlink="http://www.w3.org/1999/xlink" x="0px" y="0px"
	 viewBox="0 0 231 150" enable-background="new 0 0 231 150" xml:space="preserve">
<g>
	<g>
		<path fill="#FFFFFF" d="M145.6,43.6c10.4,0.4,20.7,0.6,31,1.1c7.9,0.4,11.7,4.1,12.8,11.9c1.5,10.2,1.2,20.4,0.6,30.6
			c-0.2,3.3-0.7,6.7-1.6,9.8c-1.5,5.2-5.3,8.1-10.8,8.4c-19.9,1.4-39.7,1.1-59.6,0.3c-2.6-0.1-5.3-0.6-7.9-1.2
			c-3.5-0.8-5.8-3.2-7-6.5c-1.9-5.1-2.2-10.5-2.1-15.8c0.1-8.6,0.2-17.2,1-25.7c0.8-7.9,4.8-11.4,12.7-11.9
			C125.1,44.1,135.4,43.9,145.6,43.6z M152.1,91.4c1.1,0.9,1.8,1.6,2.7,2.1c3.3,2.2,7.1,0.7,7.2-3.2c0.3-7.3,0.3-14.7,0-22
			c-0.2-3.7-3.9-5.2-7.1-3.1c-0.9,0.6-1.7,1.3-3,2.3c0-4.5,0-8.6,0-12.7c-4.7-0.9-4.9-0.8-4.9,3.5c0,11,0,21.9,0,32.9
			c0,0.9,0.1,1.7,0.1,2.7c1.7,0,3.1,0,4.6,0C151.9,93.2,152,92.5,152.1,91.4z M136.9,65c0,3.7,0,7.2,0,10.6c0,3.6,0,7.3,0,10.9
			c0,1.7-1.9,3.6-3.4,3.5c-2.3-0.2-1.6-2-1.6-3.3c-0.1-6.5,0-12.9,0-19.4c0-0.8,0-1.6,0-2.3c-1.9,0-3.4,0-5,0c0,8.6-0.1,17,0.1,25.5
			c0.1,4.9,4.2,4.8,6.8,3.1c1-0.7,1.9-1.5,3.1-2.4c0.1,1.2,0.2,2,0.3,2.9c1.6,0,3.2,0,4.8,0c0-9.7,0-19.3,0-29.1
			C140.2,65,138.7,65,136.9,65z M182.8,80.2c-0.2-3.3-0.2-6.3-0.6-9.3c-0.5-4-3.3-6.4-7.3-6.4c-4.2-0.1-7.4,2-7.7,6.1
			c-0.4,6-0.3,12.1,0,18.2c0.1,2.8,2.2,4.6,4.9,5.5c6.3,2,11.4-2.8,10.2-9.8c-1.6,0-3.2,0-4.9,0c0,1,0.1,1.8,0,2.6
			c-0.2,1.6-0.7,2.9-2.6,3c-2,0.1-2.8-1.2-2.9-2.9c-0.1-2.2,0-4.4,0-6.9C175.5,80.2,179,80.2,182.8,80.2z M126.9,54.8
			c-6.2,0-12.1,0-18.1,0c0,1.8,0,3.4,0,5.1c2.1,0,4,0,6.2,0c0,11.5,0,22.8,0,34.1c2,0,3.7,0,5.6,0c0-11.4,0-22.7,0-34.2
			c2.3,0,4.2,0,6.3,0C126.9,58.1,126.9,56.5,126.9,54.8z"/>
		<path fill="#FFFFFF" d="M48.3,94.7c-0.8-7.1,0.9-14.1-1.3-20.8c-2.1-6.5-4.2-13.1-6.5-20c2.1,0,4.1-0.1,6,0.1c0.4,0,0.9,1,1.1,1.6
			c1,3.5,1.9,7,2.9,10.5c0.2,0.7,0.4,1.3,1.1,2c1-3.8,2.2-7.6,2.9-11.5c0.5-2.4,1.6-3.2,3.9-2.9c1,0.1,2,0,3.4,0
			c-0.3,1.2-0.5,2-0.8,2.9c-1.7,5.7-3.6,11.4-5.1,17.2c-0.8,2.8-1.1,5.8-1.3,8.7c-0.2,3.4,0,6.8-0.1,10.2c0,0.6-0.7,1.7-1.2,1.8
			C51.6,94.8,50,94.7,48.3,94.7z"/>
		<path fill="#FFFFFF" d="M90.9,64.3c5.9-0.4,5.9-0.4,5.9,5.1c0,7.4,0,14.8,0,22.3c0,3,0,3-3.1,3c-0.8,0-1.6,0-2.5,0
			c-0.1-1-0.2-1.7-0.4-2.6c-1.2,0.8-2.4,1.8-3.7,2.4c-3.4,1.5-6.3,0-6.3-3.6c-0.2-8.8-0.1-17.6-0.1-26.6c1.9,0,3.7,0,5.8,0
			c0,2,0,3.9,0,5.9c0,5.5-0.1,11,0.1,16.5c0,1,0.7,2,1.1,3c1.1-1,2.3-1.9,3.2-3c0.3-0.4,0.1-1.3,0.1-2C90.9,78,90.9,71.2,90.9,64.3z
			"/>
		<path fill="#FFFFFF" d="M77,79.5c-0.2,3.1-0.2,6.2-0.7,9.3c-0.7,4-4,6.4-8,6.3c-4.1-0.1-7.4-2.6-7.7-6.6c-0.4-6-0.4-12,0-17.9
			c0.3-4.3,3.5-6.7,7.7-6.8c4.3-0.1,7.2,2.3,8.1,6.7c0.1,0.6,0.3,1.2,0.3,1.7c0,2.4,0,4.9,0,7.3C76.8,79.5,76.9,79.5,77,79.5z
			 M70.9,79.4c0-2.4,0-4.7,0-7.1c0-1.6-0.5-3.2-2.4-3.2c-1.8,0-2.3,1.6-2.4,3.2c0,4.7-0.1,9.5,0,14.2c0,1.5,0.5,3.2,2.4,3.1
			c1.9,0,2.3-1.6,2.3-3.2C70.9,84.1,70.9,81.7,70.9,79.4z"/>
		<path fill="#FFFFFF" d="M151.9,79.4c0-2.5,0.1-5,0-7.5c-0.1-1.9,1-2.7,2.6-3c1.8-0.3,2.6,1,2.8,2.5c0.2,1.5,0.2,3,0.2,4.4
			c0,3.7,0.1,7.4-0.1,11.1c-0.1,2.5-1.4,3.5-3.3,3c-1.4-0.3-2.1-1.1-2.1-2.7C152,84.6,151.9,82,151.9,79.4z"/>
		<path fill="#FFFFFF" d="M177.4,76c-1.9,0-3.6,0-5.4,0c0-1.6-0.1-3.1,0-4.6c0.2-1.4,1-2.5,2.6-2.5c1.7,0,2.6,1,2.8,2.6
			C177.5,72.9,177.4,74.3,177.4,76z"/>
	</g>
</g>
<g opacity="0.8">
</g>
</svg>
