<?xml version="1.0" encoding="utf-8"?>
<!-- Generator: Adobe Illustrator 18.1.1, SVG Export Plug-In . SVG Version: 6.00 Build 0)  -->
<svg version="1.1" id="Camada_1" xmlns="http://www.w3.org/2000/svg" xmlns:xlink="http://www.w3.org/1999/xlink" x="0px" y="0px"
	 viewBox="0 0 370 410" enable-background="new 0 0 370 410" xml:space="preserve">
<g>
	<path fill="#040000" d="M92.7,0c33.5,0,67,0,100.4,0c0.5,5.4,1,10.8,1.5,16.1c-2.1,7.9-4,15.9-6.3,23.8c-2.3,7.9-8,10.2-15.1,6.1
		c-2.1-1.2-3.8-2.9-6.6-5c-1.8,4.6-3,9.2-5.4,13.1c-1.4,2.3-4.7,4.8-7.1,4.7c-2.8-0.2-6.4-2.5-7.8-5c-1.6-2.9-1.2-6.9-1.8-11
		c-2.7,2.4-4.9,5.1-7.8,6.7c-3.5,2-7.6,3-11.5,4.5c-0.9-3.4-2.3-6.7-2.5-10.1c-0.4-6.8-0.1-13.6-0.1-20.4
		c-4.3,10.5-7.2,21.2-10.7,31.7c-1,3-3.3,5.6-5.1,8.4c-3.7-4.5-7.3-9-11.1-13.4c-1.1-1.2-2.8-1.8-4.3-2.7c-5.1-3.5-3.2,1.6-4.1,3.3
		c-2.8,0-5.7,0-8.8,0c0.5,4.3,0.5,8.7,1.5,12.9c0.7,3.2,2.9,5.1,5.9,1.5c4.3,5.5,8.1,11.6,13,16.4c6.9,6.7,13.9,13.3,25,13
		c7.3-0.2,14.7,1.9,22,2.3c5.6,0.3,11.4,0.2,16.9-0.9c8.5-1.7,16.5-3,22.2,3.4c3.6-2.5,6.5-4.8,9.6-6.7c1.5-1,4-1,4.9-2.3
		c3.6-5.4,7.3-8.9,11.8-3.9c10.2-5.1,19.2-9.7,29.8-15c1.5-7,3.5-16.6,5.6-27c-12.8-2-4.3-12.3-7.1-20.4c-2.6,6.1-3.8,11.2-6.6,15.1
		c-1.8,2.4-6,4.2-9.1,4.1c-2,0-5.1-3.8-5.5-6.2c-0.6-3.4,0.7-7.2,1.4-10.8c1.6-8.8,3.2-17.6,4.8-26.4c19.1,0,38.3,0,57.4,0
		c0.4,1.1,0.8,2.2,1.3,3.4c7.4,20.5,15.6,40.8,22,61.6c5.2,16.9,8.1,34.4,12,51.7c1.1,7.7,2.2,15.5,3.3,23.2
		c-1.1,1.7-2.2,3.5-3.3,5.2c-3.7-1.7-7.5-3.4-11.2-5c-1.2-6.1-2.2-12.2-3.5-18.2c-1-4.6-2.2-9.1-3.8-13.5c-0.5-1.5-2.7-3.4-4-3.4
		c-7.9,0.3-11-2.4-11-10.5c0-3.9-0.1-7.8-0.2-11.8c0-1.4,0-2.8-0.1-4.2c1-11.9,7-23.7,0-38c-1.9,5.9-3.2,10-4.5,14.1
		c0.1,0.4,0,0.8-0.2,1.2c-2.4,0.5-5.8,2.2-6.9,1.2c-4.1-3.7-4.4,0.1-5.7,2.2c-7.9,20-20.5,36-39.6,47.2c-1.2-1.7-2.1-3-2.6-3.8
		c-3.5,2.3-6.4,5.1-9.9,6.4c-3.7,1.4-8,1.5-12,2.1c-2.2,0.8-4.7,2.7-6.4,2.1c-8.5-2.9-16.5-4.1-25.4-0.6c-5.9,2.4-12.7,2.4-19.1,3.5
		c-10.9-2.4-23-0.9-31.4-8.3c-16.9,4.3-20.3-11.8-27.9-17.3c-3.2,3.9-5.9,7.2-8.6,10.5c-3.7-3.2-7.5-6.4-11.1-9.6
		c-0.5,4.5-1,9.9-1.8,15.2c-0.9,5.6-2,11.1-9.8,11c-1.2-3.4-2.2-6.5-3.3-9.6c-0.8,16.9-0.9,33.3-0.8,49.7c0.1,7.1-2.9,11.6-10,13
		c-2.7-0.1-5.5-0.2-8.2-0.3c-0.6-5.8-1.3-11.6-1.9-17.6c-1.4,0.7-2.8,1.3-4.2,2c-0.7-1.2-1.4-2.5-2-3.7c2.7-1,5.4-2,8.1-2.9
		c2.1-8.5,4.8-17,5.9-25.6c0.4-3.4-2.8-7.3-4.4-11c0.8-9.4,1.3-18.9,2.5-28.3c3.2-23.7,9.5-46.2,28-63.1C77.3,14,84.1,7.8,90.9,1.6
		C91.5,1.1,92.1,0.5,92.7,0z M159.9,28.5c1.3-0.7,2.7-1.4,4-2.1c-2.8-4.3-5.5-8.5-8.3-12.8c-0.7,0.4-1.5,0.8-2.2,1.2
		C155.6,19.4,157.8,23.9,159.9,28.5z"/>
	<path fill="#F9B69A" d="M225,0c-1.6,8.8-3.2,17.6-4.8,26.4c-0.6,3.6-2,7.4-1.4,10.8c0.4,2.5,3.5,6.2,5.5,6.2
		c3.1,0.1,7.3-1.7,9.1-4.1c2.8-3.9,4-8.9,6.6-15.1c2.8,8.1-5.7,18.4,7.1,20.4c-2.2,10.4-4.2,20-5.6,27c-10.6,5.3-19.6,9.9-29.8,15
		c-4.5-5-8.2-1.5-11.8,3.9c-0.9,1.3-3.3,1.3-4.9,2.3c-3.1,2-6.1,4.2-9.6,6.7c-5.7-6.3-13.7-5-22.2-3.4c-5.5,1.1-11.3,1.2-16.9,0.9
		c-7.4-0.4-14.7-2.6-22-2.3c-11.1,0.4-18.1-6.3-25-13c-5-4.8-8.7-10.9-13-16.4c0.4-4.8,0.9-9.6,1.3-14.4c0.9-1.7-1.1-6.9,4.1-3.3
		c-0.2,1.8-0.4,3.6-0.5,5.4c-1.2,12,4.2,15.7,15.9,10.7c1.7-2.8,4.1-5.4,5.1-8.4c3.4-10.5,6.3-21.1,10.7-31.7
		c0,6.8-0.3,13.6,0.1,20.4c0.2,3.4,1.6,6.7,2.5,10.1c3.8-1.5,7.9-2.5,11.5-4.5c2.9-1.6,5.1-4.4,7.8-6.7c0.6,4.1,0.2,8.1,1.8,11
		c1.4,2.5,5,4.8,7.8,5c2.3,0.1,5.7-2.4,7.1-4.7c2.4-3.9,3.6-8.5,5.4-13.1c2.7,2.1,4.5,3.8,6.6,5c7,4,12.8,1.7,15.1-6.1
		c2.3-7.9,4.2-15.8,6.3-23.8c0.1,2.9-0.6,6.1,0.4,8.6c1.2,3.1,3.4,7.5,6,8.2c4.4,1.2,10.1,2.1,12.4-4.8c3.1-9.5,6.6-18.8,10-28.2
		C223.9,0,224.5,0,225,0z M189.9,82.8c10.2-4.4,20.5-8.7,30.7-13.1c-0.4-1-0.8-2.1-1.3-3.1c-11.5,4.3-23,8.6-34.6,12.9
		c-5.4,1.2-10.8,3.4-16.2,3.3c-12.9-0.3-25.7-1.5-38.6-2.7c-4.1-0.4-8.2-1.8-8.1,4.8C144.9,91.7,167.5,90.8,189.9,82.8z"/>
	<path fill="#050202" d="M223.4,0c-3.4,9.4-6.9,18.7-10,28.2c-2.3,6.8-8,6-12.4,4.8c-2.6-0.7-4.7-5-6-8.2c-1-2.5-0.3-5.7-0.4-8.6
		c-0.5-5.4-1-10.8-1.5-16.1C203.2,0,213.3,0,223.4,0z"/>
	<path fill="#F9B69A" d="M46.8,170.9c7.1-1.4,10.1-5.9,10-13c-0.1-16.4,0-32.8,0.8-49.7c1.1,3.1,2.2,6.2,3.3,9.6
		c7.8,0.1,9-5.4,9.8-11c0.8-5.3,1.3-10.8,1.8-15.2c3.7,3.2,7.4,6.4,11.1,9.6c2.7-3.3,5.4-6.6,8.6-10.5c7.6,5.5,11,21.6,27.9,17.3
		c8.5,7.3,20.5,5.8,31.4,8.3c1.6,0.5,3.2,1.1,4.8,1.6c-9.5,8.2-10.5,12.7-6.4,24.6c1.2,3.3,1.2,7,1.7,10.5c-0.6,0.6-1.1,1.2-1.7,1.8
		c-1.4-3.4-2.8-6.9-4.2-10.3c-1.1,0.4-2.2,0.8-3.3,1.2c2,6.2,3.9,12.4,5.9,18.7c2.7,8.1,5.1,16.4,8.1,24.4c1.4,3.7,4.1,6.9,6.2,10.3
		c-31.4,5.7-62.9,11.3-94.3,17c-5.6,1-9.1,4.1-9.4,10c-0.2,5-0.3,10-0.4,14.9c-0.1,3,0,6.1,0,9.3c-4.7,0-8.5,0-13.2,0
		c-0.9-5.4-1.7-10.6-2.5-15.8c-0.3-18.5-0.4-37-1-55.5C41.9,174.7,42.3,171.9,46.8,170.9z M129.5,180.3c1-0.6,2-1.2,3.1-1.7
		c1.7-1.3,3.5-2.6,5.3-4c-4.4-3.1-7.6-5.3-11.8-8.2c-6.5,2.2-14.3,4.9-22.2,7.5c-3.3,1.6-6.5,3.1-9.8,4.7c-3.7,1.8-10.5,1.1-7.3,8.8
		c0.3,0.7-1.7,2.4-2.8,3.4c-3.1,3-6.3,5.9-11.2,10.5c7.7-0.5,13.1-0.6,18.4-1.4c11.1-1.6,22.2-3.6,33.3-5.5
		c4.1-1.4,8.2-2.9,13.2-4.6C134.2,185.7,131.8,183,129.5,180.3z"/>
	<path fill="#F9B69A" d="M283.8,78.5c0,1.4,0,2.8,0.1,4.2c-0.5,8.3-1.6,16.6-1.4,24.8c0.2,6.6,4.9,6.5,9.7,4.4
		c1.5-0.6,2.7-1.7,4.6-2.9c0.6,6.1,0.2,11.6,1.8,16.5c1.6,5.2,5.2,9.7,7.9,14.5c3.7,1.7,7.5,3.4,11.2,5c3.6,19.8,7.2,39.5,10.8,59.3
		c-3.3,2.7-6.6,5.4-10.1,8.3c-2.8-9-4.7-16.9-7.9-24.3c-3.6-8.5-12.2-13.7-19.4-12.5c-29.3,4.9-58.6,10-87.3,14.9
		c0-15.1,0.3-30.1-0.1-45.2c-0.3-9.8-1.6-19.6-2.5-29.3c0.5-1.7,0.9-3.4,1.4-5.1c4-0.6,8.3-0.7,12-2.1c3.5-1.3,6.4-4,9.9-6.4
		c0.5,0.7,1.4,2.1,2.6,3.8c19.1-11.2,31.6-27.3,39.6-47.2c2.7,2.2,5.4,4.4,8.1,6.6c1.5-2.6,3-5.1,4.4-7.7c0.3-0.6,0.1-1.5,0.1-2.3
		c0.3-0.4,0.4-0.8,0.2-1.2c0.9,2.2,2.3,4.4,2.6,6.7C282.8,67,283.2,72.7,283.8,78.5z M277.6,156.2c2.5-2.4,5-4.7,7.6-7.1
		c-0.3-0.9-0.6-1.9-0.8-2.8c-7.6,0.6-15.1,1.3-22.7,1.9c-4.1,0.5-8.3,0.9-12.4,1.7c-5.9,1.1-13,0.2-15.4,8.4c4.5,2,8.9,3.9,13.3,5.9
		c-7.7,1.4-15.4,2.8-23.1,4.2c-0.1,1.4-0.1,2.7-0.2,4.1c4.7,1.5,9.6,4.7,14.1,4.2c12.2-1.2,24.3-3.9,36.4-6c2.7-1.1,5.3-2.1,8-3.2
		c0.8-1,2.4-2.6,2.2-2.8C282.4,161.7,280,159,277.6,156.2z"/>
	<path fill="#F9B69A" d="M32.4,154.9c1.4-0.6,2.7-1.3,4.2-2c0.7,6,1.3,11.8,1.9,17.6c-0.1,6.8-0.4,13.7-0.2,20.5
		c0.4,14.5,1,28.9,1.6,43.3c-1.2,5-1.5,10.5-3.7,15c-2,4-6.1,6.9-9.3,10.3c-2.6-3-6-5.5-7.7-9c-1.4-2.8-0.9-6.6-1.3-10
		c0.1-12.6,0.1-25.1,0.2-37.7c0.4-4.7,0.9-9.3,1.1-14C20,176.2,22.4,164.1,32.4,154.9z"/>
	<path fill="#F8B69A" d="M317.6,116.6c0.5,0,1.1,0,1.6,0.1c1.1,1,2.1,2,3.3,2.8c3.1,2.1,8.1,3.4,9.1,6.2c7.3,20.9,14,41.9,20.3,63.1
		c0.8,2.7-1.3,7-3.4,9.5c-3,3.5-7.2,5.9-12.7,10.1c-2-4.5-3.9-8.4-5.7-12.3c-3.1-18.8-6.2-37.5-9.3-56.3
		C319.8,132.1,318.7,124.4,317.6,116.6z"/>
	<path fill="#ECB198" d="M202.5,111.1c-0.5,1.7-0.9,3.4-1.4,5.1c-3.7,2.2-7.4,4.4-11.2,6.6c-4-2.6-6.2-9.2-12.5-6.5
		c-4.6,2-8.7,5.1-11.4,6.8c-3.8-2.1-6.7-3.7-9.6-5.4c-1.6-0.5-3.2-1.1-4.8-1.6c6.4-1.1,13.2-1.2,19.1-3.5c8.9-3.5,16.9-2.3,25.4,0.6
		C197.8,113.8,200.3,111.9,202.5,111.1z"/>
	<path fill="#332622" d="M306.4,140c-2.7-4.8-6.2-9.4-7.9-14.5c-1.6-4.9-1.2-10.4-1.8-16.5c-1.8,1.2-3.1,2.3-4.6,2.9
		c-4.8,2.1-9.6,2.2-9.7-4.4c-0.2-8.3,0.9-16.5,1.4-24.8c0.1,3.9,0.1,7.8,0.2,11.8c0,8.1,3.1,10.9,11,10.5c1.3-0.1,3.5,1.9,4,3.4
		c1.6,4.4,2.8,8.9,3.8,13.5C304.2,127.8,305.2,133.9,306.4,140z"/>
	<path fill="#41322E" d="M39.9,234.4c-0.5-14.4-1.2-28.9-1.6-43.3c-0.2-6.8,0.1-13.7,0.2-20.5c2.7,0.1,5.5,0.2,8.2,0.3
		c-4.5,1-4.9,3.8-4.7,8.1c0.6,18.5,0.7,37,1,55.5C41.9,234.4,40.9,234.4,39.9,234.4z"/>
	<path fill="#281C19" d="M320.9,139.8c3.1,18.8,6.2,37.5,9.3,56.3c-0.6,2.7-1.2,5.5-1.8,8.2c-3.6-19.8-7.2-39.5-10.8-59.3
		C318.7,143.3,319.8,141.6,320.9,139.8z"/>
	<path fill="#352F2D" d="M32.4,154.9c-10,9.2-12.5,21.3-13.3,34.1c-0.3,4.7-0.8,9.3-1.1,14c-1.2-3.9-2.3-7.8-3.5-11.7
		c2.4-10.8,4.4-21.8,7.6-32.4c0.9-3.1,5.4-5.1,8.2-7.7C31.1,152.4,31.8,153.7,32.4,154.9z"/>
	<path fill="#29211F" d="M283.8,78.5c-0.6-5.7-1-11.5-1.8-17.2c-0.3-2.3-1.7-4.5-2.6-6.7c1.3-4.1,2.6-8.1,4.5-14.1
		C290.8,54.8,284.8,66.6,283.8,78.5z"/>
	<path fill="#251B18" d="M107,63.8c-11.7,5-17.1,1.3-15.9-10.7c0.2-1.8,0.4-3.6,0.5-5.4c1.4,0.9,3.2,1.5,4.3,2.7
		C99.7,54.7,103.3,59.3,107,63.8z"/>
	<path fill="#373534" d="M38.5,148.3c0.5-12.2,1-24.4,1.5-36.6c1.6,3.7,4.8,7.6,4.4,11C43.3,131.3,40.6,139.7,38.5,148.3z"/>
	<path fill="#251C1A" d="M87.6,51c-0.4,4.8-0.9,9.6-1.3,14.4c-3,3.6-5.2,1.7-5.9-1.5c-1-4.2-1.1-8.6-1.5-12.9
		C81.9,51,84.7,51,87.6,51z"/>
	<path fill="#352621" d="M279.1,55.8c0,0.8,0.3,1.7-0.1,2.3c-1.4,2.6-2.9,5.1-4.4,7.7c-2.7-2.2-5.4-4.4-8.1-6.6
		c1.3-2.1,1.6-6,5.7-2.2C273.3,57.9,276.8,56.2,279.1,55.8z"/>
	<path fill="#1C1614" d="M159.9,28.5c-2.2-4.6-4.3-9.1-6.5-13.7c0.7-0.4,1.5-0.8,2.2-1.2c2.8,4.3,5.5,8.5,8.3,12.8
		C162.6,27.1,161.3,27.8,159.9,28.5z"/>
	<path fill="#3F2F2A" d="M189.9,82.8c-22.4,7.9-45,8.8-68,2.2c0-6.7,4-5.2,8.1-4.8c12.8,1.2,25.7,2.4,38.6,2.7
		c5.4,0.1,10.8-2.1,16.2-3.3C186.5,80.6,188.2,81.7,189.9,82.8z"/>
	<path fill="#533D34" d="M189.9,82.8c-1.7-1.1-3.4-2.2-5.1-3.3c11.5-4.3,23-8.6,34.6-12.9c0.4,1,0.8,2.1,1.3,3.1
		C210.4,74.1,200.2,78.5,189.9,82.8z"/>
	<path fill="#040000" d="M328.4,204.4c0.6-2.7,1.2-5.5,1.8-8.2c1.8,3.9,3.6,7.9,5.7,12.3c5.5-4.2,9.7-6.6,12.7-10.1
		c2.1-2.4,4.2-6.8,3.4-9.5c-6.3-21.2-13-42.3-20.3-63.1c-1-2.8-6-4.1-9.1-6.2c-1.2-0.8-2.2-1.9-3.3-2.8c11.6-1.1,15.9,0.4,19.8,11.3
		c7.5,20.9,14.8,41.9,20.2,63.4c1.8,7.1,7.2,7,10.7,11.2c-6,2.5-11.9,4.9-18.5,7.7c6.2,2.8,11.1,4.4,15.3,7.1
		c1.8,1.1,2.9,4.4,2.9,6.8c0,1.2-2.8,2.9-4.6,3.6c-4.8,1.7-12,1.6-14.1,4.8c-5,7.8-8.7,16.9-10.9,26c-2.1,8.6-1.3,17.9-2.3,26.9
		c-3.1,26.6-12.7,50.5-29.5,71.5c-10,12.5-23.2,20.6-37.8,26.1c-19.8,7.5-39.5,15.5-59.9,20.7c-34.1,8.7-68.8,8.2-103.2,0.2
		C85,398.6,71,382.4,58.6,364.5c-10-14.5-15.1-30.6-17.3-48c-1.1-9-3.7-18.6-15.5-20.2c-7.5,0.1-8.4-7.4-12.7-10.9
		c-2.2-1.5-4.2-3.2-6.5-4.4c-8.5-4.4-8.9-8-0.8-13.4c-6.2-10-3-18.2,5.4-25.2c2.2-0.5,4.4-1,6.6-1.5c0.4,3.4-0.1,7.2,1.3,10
		c1.7,3.4,5,6,7.7,9c3.2-3.4,7.3-6.3,9.3-10.3c2.3-4.5,2.6-9.9,3.7-15c1,0,2.1,0,3.1,0.1c0.8,5.2,1.6,10.3,2.5,15.8
		c4.6,0,8.5,0,13.2,0c0-3.3,0-6.3,0-9.3c0.1-5,0.2-10,0.4-14.9c0.3-5.9,3.8-9,9.4-10c31.4-5.7,62.9-11.3,94.3-17
		c1.5-0.1,2.9-0.2,4.5-0.3c-3.2-11.2-6.2-22-9.3-32.8c1-1.1,2.1-2.1,3.1-3.2c6.2,23.4,17.6,45.3,17.7,71.4c4.8-1.1,8.7-2,12.7-2.9
		c1.6-0.5,3.2-1,4.8-1.5c0.5-2.1,1.4-4.3,1.3-6.4c-0.2-8.9-0.7-17.8-1-26.7c0.9-17.2,2-34.3,2.5-51.5c0.2-7.5-0.6-15.1-1-22.6
		c-2.9,3.8-5.9,7.6-8.9,11.4c-0.2-0.2-1.3-0.9-2.4-1.6c-0.6-1.5-1.1-3-1.7-4.6c1.6-1.6,3.2-3.2,4.8-4.8c3.7-2.2,7.4-4.4,11.2-6.6
		c0.9,9.8,2.2,19.5,2.5,29.3c0.4,15.1,0.1,30.1,0.1,45.2c28.7-4.9,58-10,87.3-14.9c7.2-1.2,15.8,4,19.4,12.5
		c3.2,7.4,5,15.3,7.9,24.3C321.8,209.7,325.1,207.1,328.4,204.4z M207.5,260.1c-2-1.2-4.1-2.5-6.1-3.7c-1-3.9-2-7.8-3.1-12
		c-7.3,0.9-14.1,1.7-21,2.5c-0.8,7.1,0.6,14-9.8,15.4c-27.8,3.8-55.4,9-83.1,13.3c-6.3,1-14.2,3.7-18.7-2.3
		c-4.6-6.2-10.1-5.8-16.2-6.4c0,2.9-0.5,5.4,0.1,7.6c4.6,16.2,10.4,31.8,23.3,43.7c6.6,6.1,13,12.5,19.3,18.9
		c3.4,3.4,6.5,7.2,10.5,11.5c2.6-9-1.3-13.7-6.7-18.1c-1.7-1.4-3.6-5-2.9-6.1c1.5-2.3,4.8-5.2,6.8-4.8c4.4,0.9,8.9,3,12.4,5.8
		c8.3,6.6,16,13.9,24,20.9c0.6-0.6,1.2-1.1,1.8-1.7c-7.8-11.4-15.6-22.8-23.4-34.3c0.5-0.6,1-1.2,1.4-1.7
		c12.6,4,23.9,10.7,36.3,18.4c-1.3-6.1-2.3-11.4-3.5-17c21.4,3.5,32.8,22.1,49.3,32.7c-0.4-2.2-1.1-3.8-1.9-5.4
		c-4.8-9.4-9.9-18.7-14.3-28.2c-1.3-2.8-0.9-6.5-1.3-9.7c3.4,0.5,7.4,0.1,10.1,1.8c4.6,3,8.8,6.9,12.3,11.2
		c14.4,17.4,29,34.7,36.9,57.2c1.4-3.9,2.3-7,3.5-9.9c10.3-26,26.3-48.2,46.7-67.2c2.6-2.4,7-3.8,10.6-3.7c1.2,0,2.4,5.7,3.6,8.8
		c-4.2,8.3-8.4,16.5-12.7,24.8c0.9,0.5,1.9,0.9,2.8,1.4c3.8-7.5,7.6-15,11.5-22.6c5.9-5.6,8.4-13.4,15.1-19.1
		c4.7-4,2.8-15.8,3.9-24.1c1-8.2,1.8-16.4,3-24.6c0.6-4.2,1.8-8.3,2.8-12.4c-0.7-0.4-1.4-0.8-2.1-1.3c-2.8,2.4-8.3,5.1-8,7.3
		c1,9.7-6.5,9.7-12,11.7c-28.2,10.1-57.6,15.2-87.1,19.9C217,259.1,212.2,259.6,207.5,260.1z M297.9,188.1c-3.7,0-6.7-0.4-9.5,0.1
		c-25.2,4.6-50.3,9.6-75.6,13.9c-6,1-7.5,4.1-7.2,9.1c0.6,9.8,1.7,19.6,1.8,29.4c0.1,7,2.6,8.7,9.2,7.4c22.3-4.5,44.6-8.7,66.9-12.9
		c8.5-1.6,17-3,26.1-4.6C305.6,216,301.8,202.3,297.9,188.1z M165.1,209.1c-3.6,0-5.8-0.3-7.8,0c-23.9,4.3-47.9,8.5-71.8,13
		c-17.2,3.2-17.1,3.4-15.2,21.1c0.3,2.9,0.7,5.8,1,8.7c0.6,4.8,1.2,9.7,1.8,14.4c32.6-5.7,64-11.1,95.9-16.6
		C167.7,235.7,166.4,222.4,165.1,209.1z"/>
	<path fill="#2E2827" d="M17.8,240.7c-2.2,0.5-4.4,1-6.6,1.5c0.6-15,1.1-30,1.8-45.1c0.1-2,1-3.9,1.6-5.9c1.2,3.9,2.3,7.8,3.5,11.7
		C18,215.5,17.9,228.1,17.8,240.7z"/>
	<path fill="#424242" d="M13.1,285.3c4.3,3.6,5.2,11,12.7,10.9c-2.1,0-4.2,0.3-6.3,0.1C10.6,295.3,9.6,293.6,13.1,285.3z"/>
	<path fill="#F48867" d="M124.5,194.5c-11.1,1.9-22.1,3.9-33.3,5.5c-5.3,0.8-10.8,0.8-18.4,1.4c4.9-4.6,8.1-7.5,11.2-10.5
		c1.1-1.1,3.1-2.8,2.8-3.4c-3.2-7.7,3.6-7,7.3-8.8c3.2-1.6,6.5-3.2,9.8-4.7c6-0.6,12-1.4,18.1-1.5c1.7,0,3.5,2,6.7,3.9
		c2.8-0.7,2.8-0.7,3.9,2.3c-1,0.6-2,1.2-3.1,1.7c-0.5,1.1-1.6,2.3-1.4,3.2C129.1,187.9,129.6,192,124.5,194.5z"/>
	<path fill="#190A08" d="M189.9,122.8c-1.6,1.6-3.2,3.2-4.8,4.8c-5.7-7.4-7-7.4-12.9,0.4c-2.6,3.5-5,7.1-7.5,10.6
		c-1,0.6-2.1,1.2-3,1.7c-0.6-6.8-1.2-13.2-1.8-19.6c-6.8,6-10,11.9-6.2,20.2c3.2,6.9,5,14.4,7.4,21.7c-1,1.1-2.1,2.1-3.1,3.2
		c-2.1-4.3-4.2-8.7-6.3-13c-0.5-3.5-0.6-7.2-1.7-10.5c-4.1-11.8-3.1-16.3,6.4-24.6c2.9,1.6,5.9,3.3,9.6,5.4
		c2.7-1.6,6.8-4.8,11.4-6.8C183.7,113.6,186,120.2,189.9,122.8z"/>
	<path fill="#F39A7B" d="M151.8,152.8c2.1,4.3,4.2,8.7,6.3,13c3,10.8,6.1,21.5,9.3,32.8c-1.6,0.1-3,0.2-4.5,0.3
		c-2.1-3.4-4.8-6.6-6.2-10.3c-3.1-8-5.5-16.2-8.1-24.4c0.5-3.2,1.1-6.4,1.6-9.6C150.7,154,151.2,153.4,151.8,152.8z"/>
	<path fill="#F9AB8E" d="M132.5,178.5c-1.1-2.9-1.1-2.9-3.9-2.3c-3.3-2-5-4-6.7-3.9c-6,0.1-12,0.9-18.1,1.5
		c7.8-2.7,15.7-5.3,22.2-7.5c4.2,2.9,7.4,5.2,11.8,8.2C136,175.9,134.3,177.2,132.5,178.5z"/>
	<path fill="#F9AB8E" d="M124.5,194.5c5-2.5,4.6-6.5,3.5-11c-0.2-0.9,0.9-2.1,1.4-3.2c2.4,2.7,4.7,5.4,8.3,9.6
		C132.8,191.6,128.7,193,124.5,194.5z"/>
	<path fill="#F4A78A" d="M150.1,154.6c-0.5,3.2-1.1,6.4-1.6,9.6c-2-6.2-3.9-12.4-5.9-18.7c1.1-0.4,2.2-0.8,3.3-1.2
		C147.3,147.8,148.7,151.2,150.1,154.6z"/>
	<path fill="#F48F6F" d="M247.2,164.2c-4.4-1.9-8.7-3.9-13.3-5.9c2.4-8.2,9.4-7.3,15.4-8.4c4.1-0.7,8.2-1.1,12.4-1.7
		c-0.8,1.6-1.7,3.2-2.5,4.8c4,0,8.4-0.2,12.9,0.1c0.9,0.1,1.6,1.9,2.4,3c-5.5,1.2-11,2.3-16.4,3.5c0,0.7,0,1.4,0.1,2
		c2.2,0.3,4.4,0.4,6.5,1c6,1.5,11.9,3.1,17.8,4.7c-2.7,1.1-5.3,2.1-8,3.2c-1.2-1.6-2.2-4.4-3.6-4.6
		C263,165.1,255.1,164.7,247.2,164.2z"/>
	<path fill="#F48E6E" d="M247.2,164.2c7.9,0.6,15.8,0.9,23.6,1.9c1.4,0.2,2.4,3,3.6,4.6c-12.1,2.1-24.2,4.8-36.4,6
		c-4.5,0.4-9.4-2.7-14.1-4.2c0.1-1.4,0.1-2.7,0.2-4.1C231.8,166.9,239.5,165.5,247.2,164.2z"/>
	<path fill="#F6A081" d="M274.4,156.2c-0.8-1-1.5-2.9-2.4-3c-4.4-0.3-8.9-0.1-12.9-0.1c0.8-1.6,1.7-3.2,2.5-4.8
		c7.6-0.6,15.1-1.3,22.7-1.9c0.3,0.9,0.6,1.9,0.8,2.8c-2.5,2.4-5,4.7-7.6,7.1C276.5,156.2,275.4,156.2,274.4,156.2z"/>
	<path fill="#FAAF91" d="M274.4,156.2c1.1,0,2.1,0,3.2,0c2.4,2.8,4.8,5.5,7,8.4c0.2,0.2-1.4,1.8-2.2,2.8c-5.9-1.6-11.9-3.3-17.8-4.7
		c-2.1-0.5-4.4-0.6-6.5-1c0-0.7,0-1.4-0.1-2C263.4,158.5,268.9,157.3,274.4,156.2z"/>
	<path fill="#F9B69A" d="M304.5,297.6c-1.2-3.1-2.4-8.8-3.6-8.8c-3.6,0-8,1.3-10.6,3.7c-20.5,18.9-36.4,41.1-46.7,67.2
		c-1.2,2.9-2.1,6-3.5,9.9c-7.9-22.4-22.5-39.8-36.9-57.2c-3.5-4.2-7.7-8.2-12.3-11.2c-2.6-1.7-6.7-1.3-10.1-1.8
		c0.4,3.3,0,6.9,1.3,9.7c4.4,9.6,9.5,18.8,14.3,28.2c0.8,1.6,1.6,3.2,1.9,5.4c-16.5-10.6-27.9-29.3-49.3-32.7
		c1.1,5.6,2.2,10.8,3.5,17c-12.3-7.7-23.7-14.4-36.3-18.4c-0.5,0.6-1,1.2-1.4,1.7c7.8,11.4,15.6,22.8,23.4,34.3
		c-0.6,0.6-1.2,1.1-1.8,1.7c-8-7-15.7-14.3-24-20.9c-3.5-2.8-8.1-4.9-12.4-5.8c-2-0.4-5.4,2.6-6.8,4.8c-0.7,1,1.2,4.7,2.9,6.1
		c5.3,4.5,9.3,9.1,6.7,18.1c-3.9-4.4-7.1-8.1-10.5-11.5c-6.3-6.4-12.7-12.8-19.3-18.9c-12.9-11.9-18.6-27.5-23.3-43.7
		c-0.6-2.2-0.1-4.7-0.1-7.6c6.1,0.5,11.6,0.2,16.2,6.4c4.5,6,12.4,3.3,18.7,2.3c27.7-4.3,55.3-9.5,83.1-13.3
		c10.4-1.4,9-8.3,9.8-15.4c6.9-0.8,13.6-1.6,21-2.5c1.1,4.1,2.1,8,3.1,12c-9.9,3.8-19.9,7.5-29.8,11.5c-1.4,0.6-2.3,2.4-3.4,3.6
		c1.7,0.7,3.4,1.9,5.2,2c2.3,0.1,4.7-0.6,7-1c1,1.1,2.1,2.2,3.1,3.3c-6.3,1.7-12.9,2.9-16.6,12.4c20.6-2.6,38.2-10.3,56.4-15.7
		c4.8-1.9,9.6-3.7,14.4-5.6c-2.9-1.6-5.6-1.7-8.3-2c-5.2-0.6-10.4-1.2-15.5-1.9c2.6-1.5,5.2-3,7.8-4.5c29.5-4.7,58.8-9.8,87.1-19.9
		c5.5-2,12.9-1.9,12-11.7c-0.2-2.1,5.2-4.8,8-7.3c0.7,0.4,1.4,0.8,2.1,1.3c-0.9,4.1-2.2,8.2-2.8,12.4c-1.2,8.2-2,16.4-3,24.6
		c-1,8.3,0.8,20.1-3.9,24.1c-6.7,5.7-9.2,13.6-15.1,19.1C305.6,300,305.1,298.8,304.5,297.6z"/>
	<path fill="#FEFEFE" d="M297.9,188.1c3.9,14.2,7.7,27.9,11.8,42.4c-9.1,1.6-17.7,3-26.1,4.6c-22.3,4.2-44.6,8.4-66.9,12.9
		c-6.6,1.3-9.1-0.5-9.2-7.4c-0.1-9.8-1.2-19.6-1.8-29.4c-0.3-5.1,1.3-8.1,7.2-9.1c25.2-4.4,50.4-9.3,75.6-13.9
		C291.2,187.6,294.2,188.1,297.9,188.1z"/>
	<path fill="#FEFEFE" d="M165.1,209.1c1.3,13.3,2.6,26.6,3.9,40.6c-31.8,5.5-63.2,11-95.9,16.6c-0.6-4.7-1.2-9.6-1.8-14.4
		c-0.4-2.9-0.7-5.8-1-8.7c-1.9-17.7-2-17.8,15.2-21.1c23.9-4.5,47.9-8.7,71.8-13C159.4,208.8,161.5,209.1,165.1,209.1z"/>
	<path fill="#F9B69A" d="M161.2,162.6c-2.4-7.3-4.2-14.8-7.4-21.7c-3.8-8.2-0.6-14.1,6.2-20.2c0.6,6.4,1.1,12.7,1.8,19.6
		c0.9-0.5,2-1.1,3-1.7c1,1.1,2,2.2,2.9,3.3c-0.3,3-0.6,6-0.9,8.9c0.6,0.3,1.2,0.6,1.8,0.9c4-3.8,8-7.6,12-11.5
		c2.2-2.7,4.3-5.4,6.5-8.2c1.1,0.7,2.2,1.5,2.4,1.6c3-3.8,5.9-7.6,8.9-11.4c-0.1,4.5,0.3,9.1-0.3,13.5c-0.5,4.2-2,8.3-3.1,12.4
		c-2.6-0.2-5.3-0.4-9.9-0.8c0.7,6.4,1.3,12.4,1.9,18.3c1.1,8.5,2.7,16.9,3.1,25.4c0.4,8.3-0.7,16.7-0.5,25.1
		c0.1,4.9,1.4,9.9,2.2,14.8c-3.9,0.9-7.9,1.8-12.7,2.9C178.7,208,167.3,186,161.2,162.6z"/>
	<path fill="#F6A98B" d="M191.5,231.1c-0.8-4.9-2.1-9.8-2.2-14.8c-0.2-8.4,0.9-16.8,0.5-25.1c-0.4-8.5-2-16.9-3.1-25.4l0,0
		c2.1,2.1,4.2,4.3,6.4,6.4c0.9,7.5,1.9,15,2.8,22.5c0.1,11.6,0.3,23.3,0.4,34.9C194.7,230.1,193.1,230.6,191.5,231.1z"/>
	<path fill="#F38868" d="M180.4,272.5c-2.3,0.4-4.7,1.1-7,1c-1.8-0.1-3.5-1.3-5.2-2c1.1-1.2,2-3,3.4-3.6c9.9-4,19.8-7.7,29.8-11.5
		c2,1.2,4.1,2.5,6.1,3.7c-2.2,2.1-4,5-6.6,6C194.2,268.7,187.2,270.4,180.4,272.5z"/>
	<path fill="#F19879" d="M186.8,132.1c-2.2,2.7-4.3,5.4-6.5,8.2c-4.3,0.5-8.5,1.1-12.8,1.6c-1-1.1-2-2.2-2.9-3.3
		c2.5-3.5,4.9-7.2,7.5-10.6c5.9-7.8,7.3-7.8,12.9-0.4C185.7,129.1,186.3,130.6,186.8,132.1z"/>
	<path fill="#F38B6A" d="M195.9,194.7c-0.9-7.5-1.9-15-2.8-22.5c0-3.7,0-7.5,0-11.2c0.5-4.2,1.1-8.5,1.6-12.7
		c1.1-4.1,2.6-8.2,3.1-12.4c0.6-4.4,0.2-9,0.3-13.5c0.4,7.6,1.2,15.1,1,22.6c-0.5,17.2-1.6,34.4-2.5,51.5
		C196.4,195.9,196.2,195.3,195.9,194.7z"/>
	<path fill="#F59172" d="M180.4,272.5c6.9-2.1,13.9-3.8,20.5-6.4c2.6-1,4.4-4,6.6-6c4.8-0.5,9.5-1,14.3-1.5c-2.6,1.5-5.2,3-7.8,4.5
		c-1,0.6-2,1.3-2.9,2c1,0.9,1.9,1.9,2.9,2.8c-10.1,2.6-20.2,5.3-30.3,7.9C182.5,274.7,181.4,273.6,180.4,272.5z"/>
	<path fill="#E9B49E" d="M304.5,297.6c0.5,1.2,1.1,2.4,1.6,3.6c-3.8,7.5-7.6,15-11.5,22.6c-0.9-0.5-1.9-0.9-2.8-1.4
		C296.1,314.2,300.3,305.9,304.5,297.6z"/>
	<path fill="#EDAF9B" d="M195.9,194.7c0.2,0.6,0.4,1.2,0.7,1.8c0.4,8.9,0.8,17.8,1,26.7c0,2.1-0.8,4.3-1.3,6.4
		C196.2,218,196.1,206.3,195.9,194.7z"/>
	<path fill="#F38866" d="M183.5,275.8c10.1-2.6,20.2-5.3,30.3-7.9c3.8,0,7.6,0,12.2,0c-1.2,2.2-2,3.4-2.7,4.7
		c-18.2,5.4-35.8,13.1-56.4,15.7C170.7,278.7,177.3,277.5,183.5,275.8z"/>
	<path fill="#F4A386" d="M223.4,272.5c0.7-1.3,1.5-2.5,2.7-4.7c-4.6,0-8.4,0-12.2,0c-1-0.9-1.9-1.9-2.9-2.8c1-0.7,2-1.3,2.9-2
		c5.2,0.6,10.4,1.3,15.5,1.9c2.7,0.3,5.5,0.5,8.3,2C233,268.8,228.2,270.7,223.4,272.5z"/>
	<path fill="#F6A787" d="M167.6,141.9c4.3-0.5,8.5-1.1,12.8-1.6c-4,3.8-8,7.6-12,11.5c-0.6-0.3-1.2-0.6-1.8-0.9
		C167,147.8,167.3,144.9,167.6,141.9z"/>
	<path fill="#F6A98B" d="M194.7,148.3c-0.5,4.2-1.1,8.5-1.6,12.7c-1.1-3.5-2.2-6.9-3.2-10.4c-1,0.1-2.1,0.2-3.1,0.2c0,5,0,10,0,15
		l0,0c-0.6-6-1.2-12-1.9-18.3C189.4,147.8,192.1,148,194.7,148.3z"/>
	<path fill="#F4997A" d="M186.7,165.8c0-5,0-10,0-15c1-0.1,2.1-0.2,3.1-0.2c1.1,3.5,2.2,6.9,3.2,10.4c0,3.7,0,7.5,0,11.2
		C191,170.1,188.9,167.9,186.7,165.8z"/>
</g>
</svg>
