<?xml version="1.0" encoding="utf-8"?>
<!-- Generator: Adobe Illustrator 18.1.1, SVG Export Plug-In . SVG Version: 6.00 Build 0)  -->
<svg version="1.1" id="Camada_1" xmlns="http://www.w3.org/2000/svg" xmlns:xlink="http://www.w3.org/1999/xlink" x="0px" y="0px"
	 viewBox="0 0 387 50" enable-background="new 0 0 387 50" xml:space="preserve">
<g>
	<path d="M21.5,0.8c5.5,0,9.8,2.7,12.5,5.7l-3.3,3.7C28.3,7.6,25.4,6,21.6,6C12.8,6,7,13.1,7,24.5c0,11.6,5.5,18.8,14.3,18.8
		c4.3,0,7.6-1.8,10.5-5.1l3.3,3.6c-3.6,4.2-8.1,6.7-13.9,6.7C9.6,48.4,1,39.6,1,24.6C1,9.9,9.7,0.8,21.5,0.8z"/>
	<path d="M38.6,24.4c0-14.7,8.1-23.6,19.7-23.6c11.5,0,19.6,9,19.6,23.6c0,14.8-8.1,24-19.6,24C46.7,48.4,38.6,39.2,38.6,24.4z
		 M71.8,24.4C71.8,13,66.4,6,58.3,6C50,6,44.6,13,44.6,24.4c0,11.5,5.4,18.9,13.7,18.9C66.4,43.3,71.8,35.9,71.8,24.4z"/>
	<path d="M105.2,0.8c5.5,0,9.8,2.7,12.5,5.7l-3.3,3.7C112,7.6,109.1,6,105.3,6c-8.8,0-14.6,7.1-14.6,18.6c0,11.6,5.5,18.8,14.3,18.8
		c4.3,0,7.6-1.8,10.5-5.1l3.3,3.6c-3.6,4.2-8.1,6.7-13.9,6.7c-11.6,0-20.2-8.8-20.2-23.8C84.7,9.9,93.5,0.8,105.2,0.8z"/>
	<path d="M127,1.7h5.9v19.3h21.4V1.7h5.8v45.9h-5.8V26h-21.4v21.6H127V1.7z"/>
	<path d="M172.3,1.7h5.9v45.9h-5.9V1.7z"/>
	<path d="M190.3,1.7h5.9v41h20v5h-25.9V1.7z"/>
	<path d="M245.2,33.6h-16.7l-4.4,14h-6l15.5-45.9h6.6l15.5,45.9h-6.2L245.2,33.6z M243.8,28.9l-2.2-7c-1.6-5.1-3.1-10.2-4.5-15.5
		h-0.3c-1.5,5.3-2.9,10.4-4.6,15.5l-2.2,7H243.8z"/>
	<path d="M261.9,1.7h6l16.7,28.8l5,9.5h0.3c-0.3-4.6-0.8-9.8-0.8-14.6V1.7h5.5v45.9h-6L272,18.7l-5-9.5h-0.3
		c0.3,4.6,0.7,9.5,0.7,14.4v24h-5.5V1.7z"/>
	<path d="M306.8,1.7h11.5c14.1,0,21.7,8.2,21.7,22.8c0,14.6-7.6,23.2-21.4,23.2h-11.8V1.7z M317.9,42.8c10.8,0,16.1-6.8,16.1-18.4
		c0-11.6-5.3-18-16.1-18h-5.2v36.4H317.9z"/>
	<path d="M347,24.4c0-14.7,8.1-23.6,19.7-23.6c11.5,0,19.6,9,19.6,23.6c0,14.8-8.1,24-19.6,24C355.1,48.4,347,39.2,347,24.4z
		 M380.3,24.4C380.3,13,374.9,6,366.7,6C358.4,6,353,13,353,24.4c0,11.5,5.4,18.9,13.7,18.9C374.9,43.3,380.3,35.9,380.3,24.4z"/>
</g>
</svg>
