<?xml version="1.0" encoding="utf-8"?>
<!-- Generator: Adobe Illustrator 18.1.1, SVG Export Plug-In . SVG Version: 6.00 Build 0)  -->
<svg version="1.1" id="Camada_1" xmlns="http://www.w3.org/2000/svg" xmlns:xlink="http://www.w3.org/1999/xlink" x="0px" y="0px"
	 viewBox="0 0 76 76" enable-background="new 0 0 76 76" xml:space="preserve">
<g>
	<g>
		<path d="M73.9,49.1c-0.7,1.8-1.2,3.3-1.9,4.8c-2.2,4.7-5.3,8.8-9.1,12.2c-2.4,2.2-5.2,3.9-8.1,5.4c-3.1,1.6-6.3,2.6-9.7,3.3
			c-1,0.2-2,0.3-3,0.4c-1.7,0.1-3.4,0.4-5.1,0.3c-4.5-0.2-8.9-1-13.1-2.9c-2.3-1-4.6-2.2-6.8-3.6c-1.5-0.9-2.8-2.2-4.1-3.4
			c-0.8-0.7-1.6-1.5-2.3-2.2C7.5,60.1,5,56.3,3.5,52c-0.9-2.4-1.6-5-2.3-7.5c-0.3-1-0.2-2.1-0.3-3.1c-0.1-0.9-0.2-1.9-0.3-2.8
			c0-0.3-0.1-0.6,0-0.9c0.5-4.1,0.8-8.2,2.3-12.1c1.4-3.6,3-7,5.4-10c1.4-1.7,2.8-3.4,4.3-5c2.1-2.1,4.6-3.8,7.2-5.2
			C22.3,3.9,25,2.8,27.8,2c4.5-1.3,9.2-1.7,13.8-1.3c5.5,0.5,10.7,2.2,15.5,5c2,1.2,3.8,2.8,5.7,4.2c2,1.5,3.7,3.5,5.1,5.5
			c1.3,1.8,2.4,3.7,3.5,5.7c0.9,1.7,1.6,3.5,2.2,5.3c1.3,3.7,2,7.5,1.9,11.5c-0.1,3.1,0.3,2.8-2.8,2.8c-14.9,0-29.8,0-44.7,0
			c-0.4,0-0.8,0-1.2,0c-0.9,0-1.3,0.4-1.2,1.2c0.2,2,0.4,4.1,0.6,6.1c0.3,2,0.5,4.1,1,6c0.9,4.1,2.1,8.1,4.5,11.5
			c1.9,2.7,4.5,4.2,7.9,4.2c6.2,0,11.7-1.9,16.6-5.4c1.7-1.2,3.4-2.5,4.9-4c1.5-1.5,2.8-3.3,4-5.1c1.1-1.8,2-3.7,2.9-5.6
			c0.3-0.7,0.6-1.3,1.5-1.2C70.8,48.6,72.2,48.9,73.9,49.1z M38.2,35.4c3.7,0,7.4,0,11,0c1.4,0,1.7-0.4,1.5-1.8
			c-0.3-1.7-0.4-3.4-0.6-5.1c-0.2-1.8-0.3-3.6-0.8-5.4c-0.8-3-1.7-5.9-2.7-8.8c-0.9-2.5-2.3-4.9-4.4-6.6c-1.6-1.4-3.5-2.2-5.7-1.5
			c-2,0.7-3.5,2.1-4.6,3.9c-2.1,3.2-3.6,6.7-4.4,10.5c-0.5,2.3-0.9,4.7-1.2,7.1c-0.3,2.1-0.5,4.2-0.7,6.4c-0.1,1.3,0.1,1.5,1.5,1.5
			C30.8,35.4,34.5,35.4,38.2,35.4z M49.7,8.3c0.2,0.6,0.4,1,0.6,1.4c0.3,0.5,0.6,1,0.8,1.5c1.7,4.1,3.1,8.3,3.7,12.7
			c0.5,3.4,0.9,6.8,1.3,10.2c0.1,1,0.6,1.4,1.6,1.3c0.7-0.1,1.4-0.1,2.1-0.1c2.8,0,5.6,0,8.4,0c1.3,0,1.6-0.3,1.7-1.6
			c0-0.3,0-0.6-0.1-1c-0.5-2.7-1.1-5.2-2.3-7.7c-1.4-3-3-5.8-5.3-8.2c-1.9-2-4-3.8-6.2-5.5C54.3,10,52.3,8.8,49.7,8.3z M13.1,35.4
			C13.1,35.4,13.1,35.4,13.1,35.4c1.9,0,3.9,0,5.8,0c0.8,0,1.2-0.3,1.3-1.2c0.3-3.2,0.5-6.5,1-9.7c0.5-2.9,1.2-5.8,2.1-8.6
			c0.7-2.1,1.7-4.1,2.5-6.2C26,9.3,26,8.9,26,8.5c-0.4,0-0.9-0.1-1.3,0.1c-3,1.6-5.9,3.5-8.5,5.8c-2.9,2.7-5.2,5.8-7,9.3
			C7.7,27,6.7,30.4,6.2,33.9c-0.1,1,0.1,1.4,1.2,1.4C9.4,35.4,11.2,35.4,13.1,35.4z M13.2,40.7C13.2,40.7,13.2,40.7,13.2,40.7
			c-1.9,0-3.9,0-5.8,0c-1,0-1.3,0.4-1.1,1.4c0.2,0.8,0.4,1.6,0.5,2.4c0.5,3.6,2,6.9,3.9,9.9c1.9,3.2,4.4,6,7.3,8.4
			c2.2,1.8,4.6,3.2,7.2,4.4c0.2,0.1,0.5,0,0.8,0c0-0.3,0-0.5-0.1-0.8c-1.1-2.9-2.6-5.8-3.4-8.8c-1.4-5-2.3-10.2-2.3-15.5
			c0-1.3-0.2-1.5-1.5-1.5C16.9,40.7,15.1,40.7,13.2,40.7z"/>
	</g>
</g>
<g opacity="0.8">
</g>
</svg>
