<?xml version="1.0" encoding="utf-8"?>
<!-- Generator: Adobe Illustrator 18.1.1, SVG Export Plug-In . SVG Version: 6.00 Build 0)  -->
<svg version="1.1" id="Camada_1" xmlns="http://www.w3.org/2000/svg" xmlns:xlink="http://www.w3.org/1999/xlink" x="0px" y="0px"
	 viewBox="0 0 225 60" enable-background="new 0 0 225 60" xml:space="preserve">
<path d="M225,54.1c0.1-8.6-0.2-17.2-1-25.7c0-0.4-0.1-0.7-0.1-1.1c-0.4-7.6-0.8-15.2-1.3-22.8c0.2,0,0.5,0,0.7,0
	c1.1-0.1,1.1-1.8,0-1.7c-0.3,0-0.7,0-1,0.1c-0.4-0.4-1-0.4-1.3,0.1c-0.2,0-0.5,0-0.7,0c0-0.1,0-0.3,0-0.4c0.8-0.2,0.8-1.6-0.1-1.7
	c0-0.2,0-0.4,0-0.6c0-0.5-0.6-0.4-0.7,0c0,0.2,0,0.4,0,0.6c-36.2,1.1-72.5,1.7-108.8,1.8C74.1,2.7,37.7,1.4,1.2,1.1
	c-0.8,0-0.8,1.1-0.1,1.3C-0.2,11,0,20.1,0.1,28.8c0.1,8.7-0.1,18.3,2,26.8c0,0.1,0.1,0.2,0.2,0.1c0,0.3,0,0.6,0,0.8
	c0,0.2,0.2,0.4,0.4,0.4c0,0.2,0.2,0.5,0.5,0.5c36.2,2,72.8,1.5,109.1,1.8c36.4,0.3,72.7,0.4,109.1,0.3c1.1,0,1.1-1.7,0-1.7
	c-24.6,0.1-49.3,0-73.9-0.1c25-0.6,50-1.5,75-2.4c0.2,1.5,0.5,2.9,0.8,4.4c0,0.2,0.3,0.3,0.5,0.2c0.2,0.2,0.5,0.2,0.6-0.1
	c0.1-0.4,0.1-0.8,0.2-1.2c0.3-0.1,0.5-0.3,0.5-0.7c0-1.1,0.1-2.2,0.1-3.2C225,54.5,225,54.3,225,54.1z M2.2,43.6
	c-0.2-3.1-0.4-6.3-0.5-9.4C1.8,36.1,2,38,2.2,39.9C2.2,41.1,2.2,42.3,2.2,43.6z M220.9,4.7c0,0.7,0.1,1.4,0.1,2.1
	c-0.2,0.1-0.3,0.3-0.3,0.6c0,0.1,0,0.1,0,0.2c-0.1-1-0.2-1.9-0.3-2.9C220.5,4.7,220.7,4.7,220.9,4.7z M220.9,18.2
	c0.1,5.4,0.4,10.9,0.6,16.3c-0.1-1.4-0.3-2.8-0.4-4.3c-0.5-5.7-0.7-11.4-1.1-17.2C220.4,14.8,220.6,16.5,220.9,18.2z M217.7,2.7
	c0,0.1,0,0.3,0,0.4c-34,2-68,1.8-102,1.3C149.7,4.4,183.7,3.8,217.7,2.7z M3.4,2.5C8.8,2.8,14.3,3,19.7,3.3
	C14.2,3.4,8.8,3.6,3.4,4.1C3.4,3.6,3.4,3.1,3.4,2.5z M3.2,56.3c0,0-0.1,0-0.1,0c0-0.2,0-0.4,0-0.6c0,0,0,0,0,0
	c2.1,0.2,4.2,0.4,6.3,0.5C7.3,56.3,5.2,56.3,3.2,56.3z M113.6,56.7C76.7,57.1,40,55.8,3.1,54.5C3.3,47,3.4,39.4,3.5,31.8
	C3.6,23.6,4.2,15.2,3.5,7c0-0.2-0.1-0.3-0.3-0.4c0-0.4,0-0.8,0.1-1.3C21.1,5.8,39,4.9,56.9,5.1c18.5,0.2,37,0.6,55.5,0.9
	c35.1,0.6,70.2,0.9,105.3-1.2c-0.1,9.1,1.2,18.3,2,27.3c0.7,7.1,1.3,14.3,2.4,21.4C185.9,55,149.8,56.2,113.6,56.7z M223.4,53.5
	c-0.2-2.4-0.4-4.9-0.7-7.3c0.1,0,0.2-0.1,0.2-0.3c0.1-2.5,0.1-5.1,0.1-7.6c0.1,1.1,0.1,2.1,0.2,3.2
	C223.4,45.5,223.4,49.5,223.4,53.5C223.4,53.5,223.4,53.5,223.4,53.5z"/>
</svg>
