<?xml version="1.0" encoding="utf-8"?>
<!-- Generator: Adobe Illustrator 18.1.1, SVG Export Plug-In . SVG Version: 6.00 Build 0)  -->
<svg version="1.1" id="Camada_1" xmlns="http://www.w3.org/2000/svg" xmlns:xlink="http://www.w3.org/1999/xlink" x="0px" y="0px"
	 viewBox="0 0 250 240" enable-background="new 0 0 250 240" xml:space="preserve">
<g>
	<g>
		<path fill="#FCFCFC" d="M195.9,234.8c5.4-0.8,10.9-1.7,16.3-2.5c0.3-0.1,0.6-0.6,0.9-0.9c2.6-2.4,2.3-5.8,2.1-8.7
			c-0.3-4.3-1.4-4.7-5.7-3.9c-5.3,1-10.6,2.1-15.9,3.2c-0.9,0.2-1.7,0.8-2.6,1.1c-1-0.2-2.1-0.8-3-0.5c-5.4,1.4-10.7,2.9-16.1,4.5
			c-0.6,0.2-1.3,0.9-1.5,1.6c-0.6,2-1.2,4.1-1.5,6.2c-0.6,4.6,1.2,6.1,5.3,4.5c3.5-0.8,7-1.5,10.5-2.3c0.8-0.2,1.5-0.4,2.3-0.6
			C190.1,236,193,235.4,195.9,234.8z M86.7,196.3c-1.7,0.2-3.4,0.3-5,0.7c-6.6,1.7-13.1,3.5-19.7,5.2c-2.8,1.7-5.6,3.5-8.5,5.2
			c-1.2,0.7-2.5,1.3-3.6,2.2c-1.1,0.9-1.3,2.2,0.4,2.4c1.8,0.3,3.7,0,5.5,0c3.9,0.2,7.7,0.5,11.6,0.7c1-0.3,2-0.6,3-0.8
			c7-1.5,13.9-2.8,20.9-4.4c1.1-0.2,2.9-0.1,2.3-2.3c1.4-2.6,0.4-4.9-1.1-6.9C91,196.5,89.2,195.4,86.7,196.3z M29.5,215.2
			c3.7-1.9,7.5-3.7,11.2-5.6c0.5-0.3,1.2-1.1,1.1-1.3c-0.4-0.7-1-1.6-1.6-1.7c-2.4-0.6-5-0.9-7.4-1.3c-1,0-2.1,0-3.1,0
			c-8,0.9-15.9,1.8-23.9,2.8c-4,0.5-6.4,3.9-5.6,7.9c0.2,0.8,1.6,2,2.4,2c7.2-0.1,14.5-0.4,21.7-0.8c1.5-0.1,3-0.9,4.5-1.4
			C29,215.5,29.2,215.4,29.5,215.2z M54.6,222.3c-3.6,1.9-6.8,8.1-6,11.9c0.6,0,1.3,0,2,0c-0.9,2.5,1.1,2,2.2,1.9
			c6.9-0.4,13.8-0.9,20.7-1.5c1.4-0.1,2.7-0.6,4.1-0.9c3.1-0.6,6.3-1.3,9.4-1.9c3.1,0.7,5.9,0.3,8.8-2.8c-2.9-1.2-5.5-2.2-8.1-3.3
			c-2.8-1.4-5.6-2.9-8.4-4.3c-7.8,0.1-15.5,0.2-23.3,0.3C55.5,221.7,55,222.1,54.6,222.3z M45,201.4c1,0.1,1.9,0.2,2.9,0.1
			c4.5-0.5,9-0.9,13.5-1.5c2.9-0.4,5.8-0.9,8.6-1.8c2-0.7,3.6-2.1,2.4-5c-1.6-3.9-1.8-4.2-5.2-3.6c-6.8,1.2-13.7,2.3-20.5,3.5
			c0.9-2.5-0.7-3.7-2.7-3.4c-4.8,0.7-9.7,1.7-14.3,3c-2.7,0.8-2.9,3.5-2.4,5.9c0.5,2.4,1.3,5,4.5,4.7C36.1,202.7,40.6,202,45,201.4z
			"/>
		<path fill="#EE4633" d="M91.3,75.2c2.9-3.3,5.8-6.6,8.6-9.9c0.5-0.5,0.9-1,1.4-1.3c1.7-1.2,3-3.5,5.7-2.1c2.1,1.9,4.2,3.8,6.4,5.8
			c-0.2-2.8-0.4-5.6-0.5-8.6c-0.7,0.1-1.5,0.3-2.3,0.5c1-1,2.1-2,2.6-2.4c-0.1-1.6-0.2-2.5-0.2-3.4c1.2-0.9,2.4-1.7,3.6-2.6
			c-2.2-1-4.1-1.5-5.9-1.4c-1,0.1-2.7,0.9-2.9,1.7c-0.5,2-0.4,4.2-0.6,6.3c-0.1,0.6-0.1,1.3-0.2,2.4c-0.6-0.9-1-1.4-1.2-1.7
			c-1.3,3.1-4.5,3.7-6.9,5.2c-0.7-0.4-1.4-0.8-2.2-1.2c3.2-2.8,5.2-6.1,3.8-11.2c-1.1,1.1-2.1,2-3.2,3.1c0-1,0-2,0-2.9
			c4-3.4,8.9-3.1,13.6-3.3c0.5,0,0.9,0.1,1.2,0.1c1.3-1.8,2.4-3.5,3.6-5.1c0.8-0.2,1.6-0.3,2.5-0.5c0.7,0,1.4,0,2.2,0
			c-0.5,1.2-1,2.4-1.8,4.3c3.5-3.1,4-4.1,4.9-9.5c1.9-2.3,3.9-4.7,5.8-7c0.6-1.2,1.2-2.3,1.8-3.5c1.9-1.3,3.8-2.8,5.8-3.9
			c1.5-0.8,3.2-1.3,4.7-1.9c2.2,2.4,4.4,4.8,6.5,7.2c5-5.4,8.3-5.8,12.6-1.2c-2.6-0.3-5.2-0.7-7.8-1c-0.1,0.3-0.1,0.7-0.2,1
			c1.9,0.3,3.7,0.7,5.6,1c0,1.4,0,2.7,0,4.1c-3.1-2.1-6.4-0.9-9.7-0.5c0.8,0.9,1.7,1.3,2.6,1.8c2.6,1.5,5.1,3.1,7.7,4.6
			c0.6,0.3,1.2,0.6,1.7,0.9c0.2,0.1,0.5,0.1,0.6,0.3c1.5,1.9,1.8,4.2,0.4,5.8c-1.3,1.4-0.3,1.7,0.2,2.4c-0.3,0.1-0.9,0.4-1,0.3
			c-1.1-1.9-2.2-3.9-3.3-5.9c-0.3,0.9-0.6,1.7-1,2.9c-1.2-0.6-2.2-1.1-3.3-1.6c0.3,1.8,0.7,3.3,1,4.9c0.1,1,0.2,2,0.2,3
			c-1.8-3-1.8-3-3.1-2.6c0.2,4,0.4,7.9,0.5,11.7c0.6,2.8,1.2,5.6,1.8,8.3c-0.4,1.1-0.8,2.2-1.2,3.3c-0.9,1.3-1.9,2.6-2.7,4
			c-0.2,0.3,0.2,0.9,0.4,1.4c-0.7,0.8-1.3,1.6-2,2.4c-0.3-0.2-0.6-0.3-0.9-0.5c-0.2-3.4-0.3-6.8-0.6-10.1c-0.3-3.2,0.8-6.9-3-9
			c-0.2-0.1-0.2-0.5-0.2-0.7c-0.4-1-0.8-2-1.3-3.2c-4.2,4-4.3,4.6-1.8,9c0.8,1.3,1.5,2.7,2.3,4c0.8,0.8,1.6,1.5,2.3,2.3
			c-0.3,1.3-0.5,2.6-0.8,3.8c-5,0.4-5.1,0.5-4.4,3.2c-0.6,1.2-1.1,2.3-1.7,3.5c0.2,1.2,0.3,2.3,0.5,3.5c-0.8,1-1.5,1.9-2.3,2.9
			c-1,1.6-1.9,3.1-2.9,4.7l0,0c-0.9,0.7-3.2-0.6-2.8,1.7c0.3,1.6,1,3.1,1.6,4.6c0,0.4,0,0.8,0,1.2c-0.8,0.7-1.6,1.4-2.4,2.1
			c-0.8,0.1-1.7,0.3-2.5,0.2c-2.5-0.5-2.6,0.7-1.9,2.5c0.3,0.8,0.7,1.5,1,2.2c-0.9,1.2-1.9,2.4-2.8,3.6c-0.2-0.4-0.5-0.8-0.7-1.3
			c-1.1-1.2-2.3-2.4-3.4-3.5c-2.3-2.3-4.6-4.5-6.9-6.7c-0.1-0.1-0.5,0.2-0.7,0.3c-0.3-1.4-0.6-2.8-1.1-4.9c-0.6,2-0.9,3.2-1.2,4.4
			c-2.3,1.6-3.8,1.2-5.2-1.3c-0.7-1.2-1-2.7-1.4-3.9c-0.8,0.5-1.7,1.2-2.6,1.8c-0.3-1.2-1.2-2.8-0.8-3.5c1.4-2.1,0-2.9-1.2-4.1
			c-0.5-0.5-0.7-1.2-1-1.9c0.9-2.5-2-1.1-2.4-2.3c-1.6-3.5-1.6-7.1-0.2-10.4C93.4,74.2,92.3,74.7,91.3,75.2z M125,88.6
			c1-0.2,1.9-0.4,2.9-0.6c0.7-0.9,1.3-1.8,2-2.7c-1.3-4.2-2.2-8.6-5-12.1c0.1,2.6,0.7,5.1,1.1,7.5c0,0.2-0.6,0.6-1,0.8
			c-0.4,0.9-0.8,1.9-1.3,2.7c-1.2,1.9-0.8,6.5,0.7,8.3c0.3,0.8,0.5,1.6,0.8,2.6c-0.5,0.2-1,0.4-1.5,0.6c0.3,0.7,0.4,1.5,0.9,2
			c0.6,0.8,1.5,1.5,2.2,2.2c0.4-1.2,1-2.3,1.1-3.5c0.1-1.1-0.6-2.3-0.5-3.4c0.1-2.2-0.9-3.2-2.9-3.5C124.6,89.4,124.8,89,125,88.6z
			 M127.6,60c0.4-0.1,0.7-0.1,1.1-0.2c-0.1-1.4-0.1-2.8-0.2-4.2c-1,0.6-2.1,1.2-3.4,2C126.3,58.7,127,59.3,127.6,60z M121.2,87.1
			c-0.5,0.1-1,0.3-1.5,0.4c0.6,1.7,1.2,3.5,1.8,5.2c0.3-0.1,0.6-0.1,0.8-0.2C122,90.7,121.6,88.9,121.2,87.1z"/>
		<path fill="#005C7D" d="M174.3,221.3c-3.8,1-7.6,1.9-11.4,3c-2,0.6-3.9,1.4-5.8,2.1c-0.6,0.2-1.4,0.8-1.8,0.6c-4.1-2.2-8,0-12,0.4
			c-5.8,0.5-11.6,2-17.3,3.1c-2.9,0.6-3.8-0.1-3.5-3.3c0.2-2.3,0.5-4.7,0.7-7c0.5-3.4,1-6.9,1.6-10.8c-2.3,0.7-3.9,1.3-5.4,1.6
			c-1.4,0.3-2.9,0.4-4.3,0.5c-0.1-1-0.1-2-0.2-3.5c-2.2,1.4-3.9,2.4-5.6,3.5c-2.2-0.9-4.5-1.7-6.6-2.6c-1.6,5-3.3,10.1-5.1,15.4
			c1.1-0.2,1.8-0.2,2.6-0.4c6.6-1.4,13.2-2.8,19.8-4.1c0.9-0.2,1.8,0.2,2.8,0.3c-8.8,1.9-17.6,3.8-27.3,5.9c1.4-5.3,2.4-9.7,3.6-14
			c2.4-8.2,5-16.4,7.5-24.6c0.3-0.9,0.4-1.9,0.5-2.8c0.7-2.4,1.5-4.8,2.2-7.1c1.9-5,3.9-10,5.8-15c0.2,0.2,0.4,0.3,0.6,0.5
			c1.2,0.2,2.4,0.6,3.7,0.5c7.7-0.1,15.4-0.4,23.1-0.5c0.6,0,1.2,0,1.7,0c0,0.8,0,1.5,0,2.3c0,7,0,14,0,21.1c0,2.7,0,5.4,0,8.1
			c0.1,4.5,0.3,8.9,0.4,13.4c0,0.9,0,1.8,0,3c3.7-1,6.9-2,10.3-2.7c5.4-1.1,10.8-2.7,16.5-1.5c-0.2,0.6-0.4,1.2-0.7,1.7
			c-2.6,0.1-5.2,0-7.8,0.4c-6.1,1.1-12.1,2.3-18.1,3.8c-2.1,0.5-2.9,0.2-2.8-1.3c-1.3,0.4-2.7,1.4-3.9,1.2
			c-3.8-0.6-7.5-1.6-11.4-2.5c-0.7,6.4-1.3,12.4-1.9,18.4c5.8-0.9,11.6-1.8,17.3-2.8c0.9-0.2,2-1.1,2.5-1.9c1.3-2.3,2.4-4.7,3.7-7.5
			c0.5,1,1,1.6,0.9,2c-0.5,2.2-1.1,4.4-1.8,7.1c0.8-0.6,1.5-0.8,1.7-1.2c0.8-1.7,1.3-3.6,2.1-5.3c0.3-0.7,1.1-1.1,1.6-1.6
			c0.4,0.8,1.1,1.6,1,2.4c-0.1,1.5-0.5,2.9-0.8,4.4c0.3,0.1,0.6,0.3,1,0.4c1.1-2.6,2.2-5.2,3.3-7.8c0.3,0,0.7,0.1,1,0.1
			c0.3,2.1,0.5,4.1,0.8,6.5c2.1-0.5,4.2-1,6.3-1.5c4.3,0.4,6.2-2.3,7.7-5.7c0.4-1.3,0.7-2.6,1.1-3.9c0.4,2,0.8,3.9,1.2,5.8
			C175.1,219.1,174.7,220.2,174.3,221.3z M123.9,181.1c-0.9,2.6-1.8,5.1-2.8,7.7c-1.8,6.8-3.5,13.7-5.4,21.1c3.3-0.6,6-1,8.7-1.5
			c0.5-5.6,0.9-10.9,1.4-16.3c0.1-3.5,0.2-6.9,0.3-10.4c0.3-2.6,0.6-5.2,0.9-7.8c-0.3,0-0.6-0.1-0.9-0.1
			C125.3,176.3,124.6,178.7,123.9,181.1z"/>
		<path fill="#F7B699" d="M135.3,122.9c0.5-1.4,0.8-2.9,1.4-4.3c0.8-1.7,0.2-2.6-1.4-3.1c0.8-0.5,1.6-0.9,2.4-1.4
			c0.1,0.3,0.2,0.5,0.4,0.8c0.5,0.9,1,1.9,1.5,2.8c0.9-0.7,2.2-1.2,2.8-2c2.3-3.3,4.4-6.7,6.5-10.1c0.7-1.1,3.2-1.4,1.5-3.5
			c0.6-0.4,1.2-0.9,2.3-1.8c-1.1-0.4-2-0.5-2.7-0.9c-0.9-0.5-2.4-1.2-2.4-1.9c-0.2-3.4-0.2-6.9,0.2-10.3c0.3-2.6,2.4-3.1,4.7-1.2
			c-0.2-1-0.3-1.8-0.5-2.6c0.7,0,1.4,0,2.1,0.1c0.2,1.1,0.4,2.2,0.6,3.3c0,1.7,0,3.5,0,5.6c1.3-0.8,1.9-1.2,2.8-1.7
			c0,1.1,0,1.8,0,2.6c-0.2,1.1-0.5,2.2-0.5,3.3c0,0.5,0.7,1.1,1.2,1.3c0.4,0.1,1.3-0.2,1.4-0.5c0.5-2.1,0.9-4.3,1.3-6.5
			c-1.1-2.1-2.2-4.2-3.6-6.9c2.1-5.1,1.8-6.6-2.3-8.8c1-3.3,2-6.5,3-9.8c0.4-1.2,0.8-2.3,1.2-3.5c2,2.4,4.1,4.7,6.3,7.2
			c2-2.1,3.7-3.8,5.3-5.5c0,0.6,0.3,1.4,0.1,1.8c-1.6,2.9-0.3,4.4,2.4,5.4c0.3,0.1,0.5,0.5,0.9,0.7c-1.5,0.4-2.9,0.7-4.2,1.1
			c0.1,0.2,0.1,0.4,0.2,0.7c1.5-0.2,3-0.4,4.7-0.6c0.9,8.3,2.9,16.5-1.1,24.5c-2.1,1.8-4.2,3.6-6.3,5.4c-2.5,0.8-5,1.6-7.5,2.4
			c-4.4,0.2-7.1,3-9.3,6.4c-1,1.7-1.9,3.4-2.9,5.2c-1.6,1-3.1,2.1-4.7,3c-2.4,1.3-5,2.5-7.5,3.7C135.4,123.1,135.4,123,135.3,122.9z
			 M160,73.2c0.9,2.8,2.9,3.8,5.3,4.2c0.9,0.1,1.9-0.5,2.8-0.8c-0.4-1.2-0.5-2.8-1.4-3.4C164.7,71.8,162.4,71.8,160,73.2z
			 M162.5,70.1c-0.2-0.4-0.4-0.8-0.6-1.2c-0.5-0.4-1.2-1.3-1.4-1.2c-0.7,0.3-1.5,1-1.6,1.6c0,0.5,0.8,1.6,1.3,1.7
			C161,71,161.8,70.4,162.5,70.1z"/>
		<path fill="#EE4634" d="M161,6c12.3-2,24.5-4.4,36.9-5.9c3.6-0.4,7.5,1.3,11.3,2.2c4.9,1.2,9.7,2.4,14.6,3.8
			c1.1,0.3,1.9,1.5,2.9,2.3c-2.5,1.1-5,2.1-7.5,3.2c-0.3-1.8-0.5-3.6-0.8-5.4c-6.8-1.7-13.6-3.3-20.4-5c-0.2,0.4-0.4,0.7-0.6,1.1
			c1.2,1,2.3,2,3.5,3c-2.4,2.4-2.3,2.9,0.4,4.2c-0.4,1.2-1.2,2.4-0.9,3.3c0.3,0.9,1.7,1.4,2.6,2.1c-0.6,0.7-1.2,1.5-1.8,2.2
			c-0.8,0.2-1.5,0.4-2.3,0.6c-4.5,0.7-8.9,1.5-13.4,2.2c-1.7,0.2-3.3,0.4-5,0.6c1-1.5,2.1-3,2.9-4.6c0.3-0.6-0.3-1.5-0.5-2.3
			c-0.7,0.2-1.4,0.4-2.1,0.6c-1.4,0.9-2.7,1.9-4.1,2.8c-0.5,0.3-1.2,0.4-1.5,0.8c-2.2,3.9-6.1,3.6-9.7,4.1c-0.7,0.1-1.5,0.3-2.2,0.5
			c-0.5-0.5-1.4-0.9-1.5-1.5c-0.5-3.2-0.8-6.4-1.1-9.5c0-1,0-2,0-3.1c1.4-0.3,2.7-0.6,4.6-1.1C163.3,6.5,162.1,6.2,161,6z
			 M180.8,4.8c0-0.3-0.1-0.6-0.1-0.9c-2.9,0.4-5.8,0.9-8.6,1.3c0.1,0.4,0.1,0.7,0.2,1.1C175,5.8,177.9,5.3,180.8,4.8z"/>
		<path fill="#017B43" d="M132.4,125.2c1-0.8,1.9-1.6,2.9-2.4c0.1,0.1,0.1,0.2,0.1,0.3c0.7-0.1,1.5,0,2.2-0.3
			c4.8-1.5,9.4-3.5,14.3-4.6c8.3-2,16.7-3.6,25.2-5.1c2-0.4,3.5-0.8,5.1-2.2c4.6-3.9,9.5-7.6,14.2-11.4c0.3,0.6,0.8,1.1,0.8,1.7
			c0.3,4.3,2.4,1.9,3.8,1c2.3-1.6,4.5-3.4,6.7-5.1c0,0-0.1-0.5-0.2-1c1.7,0.6,3.4,1.1,5.1,1.7c0.4,0.3,0.7,0.6,1.1,0.9
			c-4.9,3.5-9.6,6.9-14.3,10.4c-0.6,0.4-1.1,0.8-1.7,1.1c-2.2,1.1-4.6,2.1-6.7,3.4c-3.3,1.9-6.4,4-10.4,4.2c-1.7,0.1-3.3,1.5-5,2.3
			c-3.7,1.8-7.3,3.7-11,5.5c-0.3-0.3-0.7-0.8-1-0.8c-4-0.1-8-0.3-12.1-0.3C145.1,124.7,138.8,125,132.4,125.2z"/>
		<path fill="#040505" d="M196.4,99.6c-4.8,3.8-9.6,7.4-14.2,11.4c-1.6,1.4-3.1,1.8-5.1,2.2c-8.4,1.5-16.8,3.1-25.2,5.1
			c-4.9,1.2-9.5,3.1-14.3,4.6c-0.7,0.2-1.4,0.2-2.2,0.3c2.5-1.2,5-2.4,7.5-3.7c1.6-0.9,3.1-2,4.7-3c0.8,0.2,1.7,0.6,2.4,0.5
			c7.8-1.7,15.5-4.1,23.3-5.2c4.2-0.6,7-2.4,9.8-5c4.1-3.1,8.1-6.2,12.2-9.3c2.6-1.9,5.3-3.8,7.9-5.7c-0.2-0.4-0.4-0.8-0.7-1.2
			c-2.6,0.7-5.2,1.4-7.8,2.2c-1.7,0.4-3.4,0.9-5.6,1.4c-0.5-1.1-1.2-2.4-1.9-3.8c0.6-3.1,1.1-6.2,1.7-9.3c0.2,0.5,0.3,1,0.5,1.6
			c-0.3,2.9-0.6,5.8-0.8,8.6c0.4,0.2,0.8,0.4,1.2,0.6c0.7-0.6,1.7-1.2,2.1-2c0.9-2.1,1.5-4.3,2.2-6.5c1.6-4,1.1-4.9-2.9-5.8
			c2.7-1.1,5.5-2.3,8.2-3.4c3.6-0.8,7.3-1.6,10.9-2.5c0.4,0.2,0.8,0.4,1.2,0.6c-1.5,0.9-3.1,1.7-4.6,2.6c-3.6,0.7-7.2,1.4-9.7,1.9
			c-1.3,5.5-2.5,10.1-3.6,14.8c3.2-0.8,6.7-1.7,10.4-2.6c0-1.5-0.1-3,0-4.4c0.3-2.3,0.7-4.6,1.1-7c0.2,1.1,0.7,2.2,0.7,3.3
			c0,4.6,2.5,9.7-2.2,13.5C201.1,96.1,198.7,97.9,196.4,99.6z"/>
		<path fill="#027E43" d="M144.1,163.1c-0.6,0-1.2,0-1.7,0c-1.6-0.6-3.1-1.6-4.7-1.6c-6.7,0-13.4,0.3-20.1,0.5c-0.7,0-1.3,0.7-2,1.1
			c-0.2-0.2-0.4-0.3-0.6-0.5c0-0.6,0-1.1,0-1.7c10.1-0.2,20.1-0.9,30.1-2.6c-3.4-0.5-6.8-0.3-10.2-0.1c-6.4,0.4-12.9,0.9-19.3,1.4
			c0.4-1.1,0.7-2.2,1.1-3.3c9.7,0.2,19.4-0.1,29-2.2c-2-0.6-4.1-0.8-6.2-0.6c-7.5,0.6-15,1.3-22.5,2c0.4-0.9,0.8-1.9,1.2-2.8
			c0.5-0.1,1.1-0.2,1.6-0.2c3.1,0.5,6.2,1.1,9.4,1.7c0-0.2,0.1-0.5,0.1-0.7c-2.3-0.3-4.6-0.6-6.9-1c3.2-0.4,6.4-0.1,9.6,0
			c0.8,0,1.7-0.6,2.5-1c4.6-0.2,9.3-0.4,13.9-0.6C147.2,155,145.7,159.1,144.1,163.1z"/>
		<path fill="#F6B699" d="M176.5,16.8c1.4-0.9,2.7-1.9,4.1-2.8c0,0.8,0.3,1.7,0,2.4c-0.5,1.1-1.4,2-2.2,3c-0.5,0.5-0.9,1-1.4,1.5
			c-0.5,0.5-1.1,1-1.6,1.5c0.3,0,0.6,0,1,0.1c0.3,1.7,0.5,3.4,0.8,5.1c0.1,0.8,0.3,1.6,0.5,2.3c1.2,0.6,2.4,1.1,3.5,1.7
			c-2.6,3.7-5.1,7.4-7.7,11.1c-1.7-4.9-3.7-9.7-3.4-15c0-0.6,0-1.3,0-1.9c0-1.1,0-2.2,0-3.7c1.1,0.4,1.8,0.6,2.7,0.9
			C174.2,21,175.3,18.9,176.5,16.8z"/>
		<path fill="#0E0304" d="M137.7,114.1c-0.8,0.5-1.6,0.9-2.4,1.4c-4.3-0.9-5.4-2.5-6-8.4c-1.8,2.4-3.5,4.9-5.4,7
			c-3,3.3-8.9,2.6-10.6-1.6c-1.8-4.3-2.8-8.9-4.1-13.4c0.3-1.2,0.7-2.4,1.2-4.4c0.5,2.1,0.8,3.5,1.1,4.9c1.4,3.5,2.7,6.9,4.1,10.4
			c2.5,3,4.8,3.2,7.7,0.8c0.9-1.2,1.9-2.4,2.8-3.6c1.1-1.6,2.3-3.3,3.4-4.9c0.8-0.7,1.6-1.4,2.4-2.1l0,0c-0.2,0.9-0.5,1.9-0.5,2.8
			c-0.1,2.9-1.1,6.2,2.2,8.2c2.3-0.1,4.6-0.2,6.9-0.3C139.6,112,138.7,113.1,137.7,114.1z"/>
		<path fill="#027E44" d="M126.5,136.3c0.6-1.3,1.2-2.7,1.8-4c9.9-0.2,19.9-0.4,29.8-0.6c-1,1.5-1.9,3-2.9,4.5
			c-0.9-0.2-1.7-0.6-2.6-0.5C144,135.9,135.2,136.1,126.5,136.3z"/>
		<path fill="#027D43" d="M129.2,131c0.8-1.7,1.6-3.3,2.3-5c1.6,0.2,3.2,0.4,4.8,0.5c8.8,0.1,17.7,0.1,26.5,0.1c-1,1.1-2,2.2-3,3.4
			c-0.9-0.2-1.8-0.5-2.7-0.5C147.8,130,138.5,130.5,129.2,131z"/>
		<path fill="#037E44" d="M134.8,151.5c-0.8,0.3-1.7,1-2.5,1c-3.2-0.1-6.4-0.3-9.6,0c2.3,0.3,4.6,0.6,6.9,1c0,0.2-0.1,0.5-0.1,0.7
			c-3.1-0.6-6.2-1.2-9.4-1.7c-0.5-0.1-1.1,0.1-1.6,0.2c1-2.5,2-5,3.1-7.5l0.1,0.2c0.4,0.3,0.9,0.9,1.3,0.9c3.5,0.3,7.1,0.6,10.6,0.6
			c5.6,0,11.3-0.2,16.9-0.4c-0.3,0.9-0.5,1.7-0.8,2.6c-10-0.5-19.8,0.8-29.7,1.6c0,0.3,0,0.6,0,0.9
			C125.1,151.5,129.9,151.5,134.8,151.5z"/>
		<path fill="#F27C4D" d="M118,42.6c-0.8,0.2-1.6,0.3-2.5,0.5c0.6-6.7,8-18.5,17.5-20.5c1.6-0.3,3.1-1.2,4.7-1.5
			c1.1-0.2,2.4,0,3.6,0c-1.6,0.6-3.3,1.1-4.7,1.9c-2,1.2-3.8,2.6-5.8,3.9c-1.1,0.7-2.5,1.2-3.4,2.1c-2.1,2.3-4.5,4.5-5.7,7.3
			C120.6,38.6,120.3,41.1,118,42.6z"/>
		<path fill="#110303" d="M160.6,11.1c0.4,3.2,0.7,6.4,1.1,9.5c0.1,0.6,1,1,1.5,1.5c0.4,0.4,0.9,0.9,1.3,1.3c-5.7,1.1-7.2,0.5-8.6-5
			c-0.8-3.1-0.4-6.6-0.2-9.9c0-0.7,1.5-1.3,2.3-2C158.9,8.1,159.7,9.6,160.6,11.1z"/>
		<path fill="#0B090B" d="M237.6,82.9c-0.5,0.5-1.1,1.1-1.6,1.6c-3,0.4-5.9,0.8-8.9,1.2c-2,0.2-3.8,0.4-4.3,2.9
			c-0.1,0.6-1.6,1-2.5,1.4c-0.4,0.2-1,0.2-1.4,0.5c-1.5,1.3-2.9,2.6-4.4,4c0-1.9,0-3.7,0-5.6c0.1,0,0.3-0.1,0.4-0.1
			c0.2,0.7,0.5,1.4,0.7,2.1c4.1-1.5,1.2-3.7,0.5-5.8c2.5,0.3,3.1,4.1,6.8,2.1c-1.4-1.6-2.3-3.4-3.8-4.1c-1.6-0.8-3.7-0.6-6.4-1
			c2.6-1.2,4.6-2.3,6.8-2.9c2-0.6,2.7-1.7,2-3.7c0.6,0.3,1.2,0.5,1.9,0.8c2,3.9-1.9,3.5-2.6,4.1c1,1.4,2,2.8,3.4,4.7
			c0.9-0.9,2-1.9,3.1-2.9c2.5,0.1,5,0.2,7.6,0.2c0.8-0.3,1.6-0.6,2.4-0.8c0.4,0.2,0.7,0.3,1.1,0.5C238,82.4,237.8,82.6,237.6,82.9z"
			/>
		<path fill="#058048" d="M170.2,27.7c-0.3,5.3,1.7,10.1,3.4,15c-2.1,2.9-4.1,5.7-6.2,8.6c0.2-0.6,0.4-1.1,0.6-1.7
			c0-2.1,0-4.3,0-6.4c-0.6-3.1-1.2-6.2-1.8-9.2C167.6,31.9,168.9,29.8,170.2,27.7z"/>
		<path fill="#028046" d="M123.6,141.5c0.5-1.3,0.9-2.6,1.4-3.9c1.1,0.1,2.3,0.3,3.4,0.3c8.7-0.1,17.3-0.3,26-0.5
			c-0.4,0.8-0.7,1.5-1.1,2.3c-3.2,0.1-6.4,0.2-9.5,0.4C137.1,140.7,130.4,141.1,123.6,141.5z"/>
		<path fill="#028046" d="M121.5,145.1c0.5-1.1,1-2.2,1.6-3.3c1,0.3,2,0.9,3,0.9c8.8-0.3,17.7-0.7,26.5-1.1
			c-0.4,0.9-0.7,1.8-1.1,2.8c-9.9,0.3-19.9,0.6-29.8,0.9L121.5,145.1z"/>
		<path fill="#040C06" d="M129.2,131c9.3-0.5,18.7-1.1,28-1.6c0.9,0,1.8,0.3,2.7,0.5c-0.6,0.6-1.2,1.2-1.8,1.7
			c-9.9,0.2-19.8,0.4-29.8,0.6C128.6,131.9,128.9,131.5,129.2,131z"/>
		<path fill="#030804" d="M154.5,137.6c-8.7,0.2-17.3,0.3-26,0.5c-1.1,0-2.3-0.2-3.4-0.3c0.5-0.4,1-0.9,1.5-1.3
			c8.7-0.2,17.4-0.5,26.2-0.7c0.9,0,1.7,0.4,2.6,0.5C155,136.7,154.7,137.1,154.5,137.6z"/>
		<path fill="#080B0D" d="M217.3,70c2.1-0.2,4.1-0.3,6.2-0.6c3-0.4,6-0.8,9-1.2c-0.1,0.4-0.2,0.7-0.2,1.1c-4,0.8-8.1,1.4-12.1,2.4
			c-1.6,0.4-3,1.7-4.5,2.6c0.1,0.3,0.3,0.5,0.4,0.8c1,0.1,2.1,0.2,3.1,0.2c-0.6,0.5-1,1.2-1.7,1.4c-2.3,0.8-4.7,1.5-7.1,2.2
			c0.1-0.4,0.2-0.9,0.3-1.5c1.7-1.9,3.4-3.9,5.1-5.8C216.1,71.2,216.7,70.6,217.3,70z"/>
		<path fill="#040905" d="M152.6,141.7c-8.8,0.4-17.7,0.8-26.5,1.1c-1,0-2-0.6-3-0.9c0.2-0.1,0.4-0.2,0.5-0.3
			c6.7-0.4,13.5-0.9,20.2-1.3c3.2-0.2,6.4-0.3,9.5-0.4C153.1,140.5,152.9,141.1,152.6,141.7z"/>
		<path fill="#F38253" d="M97.1,51.4c0,1,0,1.9,0,2.9c1.1-1,2.1-2,3.2-3.1c1.4,5.1-0.6,8.4-3.8,11.2C92.5,59.3,92.7,56.1,97.1,51.4z
			"/>
		<path fill="#020503" d="M162.9,126.6c-8.8,0-17.7-0.1-26.5-0.1c-1.6,0-3.2-0.3-4.8-0.5c0.3-0.3,0.6-0.5,0.9-0.8
			c6.3-0.2,12.7-0.6,19-0.7c4-0.1,8,0.1,12.1,0.3c0.4,0,0.7,0.5,1,0.8C164,125.9,163.4,126.3,162.9,126.6z"/>
		<path fill="#180D0A" d="M166.2,34c0.6,3.1,1.2,6.2,1.8,9.2c-0.6,0.4-1.2,0.7-1.8,1.1c-0.6-2.7-1-5.5-2-8.1
			c-1.2-3.2-2.4-6.7-6.1-8.2c-1.9-0.3-3.7-0.7-5.6-1c0.1-0.3,0.1-0.7,0.2-1c2.6,0.3,5.2,0.7,7.8,1C162.4,29.3,164.3,31.7,166.2,34z"
			/>
		<path fill="#F27E4E" d="M97.1,86.4c0.3,0.6,0.5,1.4,1,1.9c1.2,1.2,2.5,2,1.2,4.1c-0.4,0.7,0.5,2.3,0.8,3.5c0,1.4,0.6,3.1-1.7,3.2
			c-1.9,0-3.5-1-3.3-2.9C95.4,92.8,96.4,89.6,97.1,86.4z"/>
		<path fill="#030402" d="M117.2,155.5c7.5-0.7,15-1.4,22.5-2c2-0.2,4.1,0,6.2,0.6c-9.6,2-19.3,2.4-29,2.2
			C116.9,156,117.1,155.8,117.2,155.5z"/>
		<path fill="#030B06" d="M115.7,159.6c6.4-0.5,12.9-1,19.3-1.4c3.4-0.2,6.7-0.3,10.2,0.1c-10,1.8-20,2.4-30.1,2.6
			c-0.4-0.1-0.9-0.2-1.7-0.3C114.3,160.2,115,159.9,115.7,159.6z"/>
		<path fill="#F26642" d="M107,61.8c-2.7-1.4-4,0.9-5.7,2.1c-0.5,0.4-0.9,0.9-1.4,1.3c-0.4-0.5-0.8-1.1-1.2-1.6
			c2.4-1.5,5.6-2.1,6.9-5.2c0.2,0.3,0.6,0.8,1.2,1.7c0.1-1.1,0.2-1.8,0.2-2.4c1.9-1.4,3.9-2.7,5.8-4.1c0.1,0.9,0.1,1.8,0.2,3.4
			c-0.5,0.4-1.5,1.4-2.6,2.4C109.3,60.3,108.1,61.1,107,61.8z"/>
		<path fill="#2B1D1C" d="M164.5,23.5c-0.4-0.4-0.9-0.9-1.3-1.3c0.7-0.2,1.5-0.4,2.2-0.5c3.6-0.4,7.5-0.2,9.7-4.1
			c0.2-0.4,1-0.5,1.5-0.8c-1.2,2.1-2.4,4.2-3.5,6.3c-0.9-0.3-1.6-0.6-2.7-0.9c0,1.4,0,2.6,0,3.7c-0.5-0.8-0.9-1.7-1.5-2.7
			C167.5,23.3,166,23.4,164.5,23.5z"/>
		<path fill="#F27C53" d="M91.3,75.2c1.1-0.5,2.2-1,3.3-1.5c-1.4,3.3-1.4,6.9,0.2,10.4C91,82.3,89.8,79.3,91.3,75.2z"/>
		<path fill="#3F4647" d="M232.2,69.4c0.1-0.4,0.2-0.7,0.2-1.1c4.3,0.7,8.6,1.5,12.9,2.2c-0.8,0.2-1.7,0.4-2.5,0.6
			c-0.7,0-1.3,0-2,0.1c-2.8-0.5-5.7-1-8.5-1.6L232.2,69.4z"/>
		<path fill="#354345" d="M238.2,82.1c-0.4-0.2-0.7-0.3-1.1-0.5c1.7-1.6,3.3-3.2,5-4.8c1-0.6,2-1.1,3-1.7c0.3,0.2,0.7,0.4,1,0.6
			C243.5,77.9,240.8,80,238.2,82.1z"/>
		<path fill="#11171A" d="M246.1,75.8c-0.3-0.2-0.7-0.4-1-0.6c0.6-0.6,1.1-1.3,2.2-2.5c-1.7-0.6-3.1-1.1-4.6-1.7
			c0.8-0.2,1.7-0.4,2.5-0.6c1.3,0.6,2.7,1.3,4.7,2.2C248.2,74.1,247.2,75,246.1,75.8z"/>
		<path fill="#351918" d="M219,11.6c2.5-1.1,5-2.1,7.5-3.2c0.1,0.1,0.1,0.2,0.1,0.4c-0.6,0.9-1.3,1.8-1.9,2.7c-1.5,0.5-3,1-4.6,1.5
			c-0.5,0-1.1,0-1.6,0.1c-0.4-0.2-0.8-0.4-1.2-0.6C217.9,12.1,218.5,11.8,219,11.6z"/>
		<path fill="#504946" d="M217.3,70c-0.6,0.6-1.1,1.2-1.7,1.7c-1,0.2-1.9,0.4-2.9,0.6c-0.4,0-0.8-0.1-1.3-0.1
			c-0.4-0.2-0.8-0.4-1.2-0.6c1.4-0.8,2.7-1.8,4.3-2.3C215.3,69.1,216.3,69.8,217.3,70z"/>
		<path fill="#E95E48" d="M160.6,11.1c-0.8-1.5-1.7-3-2.5-4.6c1-0.2,2-0.4,3-0.6c1.2,0.3,2.3,0.6,4.2,1c-1.9,0.5-3.2,0.8-4.6,1.1
			C160.6,9.1,160.6,10.1,160.6,11.1z"/>
		<path fill="#008943" d="M191.1,223.2c0.9-0.4,1.7-0.9,2.6-1.1c5.3-1.1,10.6-2.2,15.9-3.2c4.4-0.8,5.4-0.4,5.7,3.9
			c0.2,2.9,0.5,6.3-2.1,8.7c-1.2-0.1-2.4-0.5-3.6-0.3c-5.4,0.8-10.7,1.7-16.1,2.6c-2.5,0.3-5,0.7-7.6,1c2-1.8,2.3-3.8,0.7-5.9
			C188.7,227.2,192.7,227.3,191.1,223.2z"/>
		<path fill="#01A1C9" d="M28.8,215.7c-1.5,0.5-3,1.3-4.5,1.4c-7.2,0.4-14.5,0.7-21.7,0.8c-0.8,0-2.2-1.2-2.4-2
			c-0.8-4,1.5-7.4,5.6-7.9c7.9-1,15.9-1.8,23.9-2.8C29.3,208.7,29,212.2,28.8,215.7z M6.1,214.9c0.1,0.4,0.2,0.7,0.3,1.1
			c3-0.8,6-1.6,9-2.4C11.6,212,7.1,213,6.1,214.9z"/>
		<path fill="#EE4634" d="M93.5,205.3c0.6,2.2-1.2,2-2.3,2.3c-6.9,1.5-13.9,2.9-20.9,4.4c-1,0.2-2,0.5-3,0.8c0.3-1,0.6-2.1,1-3.5
			c-1.9,0.4-3.2,0.7-4.6,1c-0.1-0.2-0.2-0.3-0.2-0.5c1.1-1,2.1-1.9,3.2-2.9c-0.1-0.2-0.2-0.5-0.3-0.7c-1.8,0.4-3.7,0.8-5.4,1.1
			c0.8-1.6,1.6-3,2.4-4.5c7.5-1.7,15-3.4,22.5-5.1c1.2,2.1,2.4,4.1,3.6,6.2C90.5,205.6,91.7,206.3,93.5,205.3z"/>
		<path fill="#FCFCFC" d="M122.7,220.2c-0.9-0.1-1.9-0.5-2.8-0.3c-6.6,1.3-13.2,2.7-19.8,4.1c-0.7,0.2-1.5,0.2-2.6,0.4
			c1.8-5.3,3.4-10.4,5.1-15.4c2.1,0.8,4.4,1.7,6.6,2.6c2.4,1.2,3.9-0.1,5-2.2c0.3,0.9,0.6,1.6,0.8,2.3c1.4-0.2,2.9-0.2,4.3-0.5
			c1.6-0.4,3.1-0.9,5.4-1.6c-0.6,4-1.1,7.4-1.6,10.8l-0.2,0L122.7,220.2z"/>
		<path fill="#015D7E" d="M46.6,193.1c6.8-1.2,13.7-2.3,20.5-3.5c3.4-0.6,3.6-0.3,5.2,3.6c1.2,2.8-0.4,4.2-2.4,5
			c-2.7,1-5.7,1.4-8.6,1.8c-4.5,0.6-9,1.1-13.5,1.5c-0.9,0.1-1.9-0.1-2.9-0.1c0-0.1,0-0.3,0.1-0.4c2.1-0.7,3.7-5,2.4-6.5
			c-0.2-0.2-1,0-1.6,0.1c0.1-0.4,0.2-0.8,0.4-1.2C46.4,193.3,46.5,193.2,46.6,193.1z"/>
		<path fill="#EE4A36" d="M46.6,193.1c0,0.2-0.1,0.3-0.3,0.3c-3,0.7-6,1.3-8.9,2c-2.1,1.1-5.1-1-6.5,2.5c2.4-0.7,4.7-1.3,7.1-2
			c2.5-0.3,4.9-0.7,7.4-1c-0.1,2.1-0.2,4.1-0.3,6.2c0,0.1-0.1,0.3-0.1,0.4c-4.5,0.6-8.9,1.3-13.4,1.8c-3.2,0.3-4-2.3-4.5-4.7
			c-0.5-2.3-0.3-5.1,2.4-5.9c4.7-1.4,9.5-2.3,14.3-3C45.9,189.3,47.4,190.5,46.6,193.1z"/>
		<path fill="#03070A" d="M191.1,223.2c1.6,4.1-2.4,4-4.4,5.6c1.6,2.1,1.3,4.2-0.7,5.9c0.4,0.6,0.8,1.2,1.2,1.9
			c-0.8,0.2-1.5,0.4-2.3,0.6c-1.2-0.2-2.3-0.3-3.5-0.5c2.4-0.7,3.5-2.4,3.3-4.8c-0.1-1.2-0.7-2.4-1.2-3.9c1.6-1,3.8-2.3,5.9-3.6
			c-0.1-0.3-0.3-0.6-0.4-0.9c-4.8,1.6-9.6,3.1-13.6,4.5c-0.1,2.7-0.1,4.8-0.4,6.9c-0.2,1.2-0.8,2.3-1.2,3.5c0.2,0.4,0.4,0.7,0.6,1.1
			c-4.1,1.6-5.9,0-5.3-4.5c0.3-2.1,0.9-4.1,1.5-6.2c0.2-0.6,0.9-1.4,1.5-1.6c5.3-1.6,10.7-3.1,16.1-4.5
			C189,222.4,190.1,223,191.1,223.2z"/>
		<path fill="#027C41" d="M77.5,233.7c-1.4,0.3-2.7,0.8-4.1,0.9c-6.9,0.6-13.8,1.1-20.7,1.5c-1.1,0.1-3.1,0.6-2.2-1.9
			c0.8-0.8,1.6-1.6,2.4-2.4c2.1-0.1,4.2-0.3,6.3-0.4c5.7-0.4,11.4-0.8,17.1-1.2C74.4,232.2,76.5,232.8,77.5,233.7z"/>
		<path fill="#F1895C" d="M77.5,233.7c-1-1-3.1-1.5-1.2-3.5c0.9-0.2,1.7-0.4,3.2-0.7c-1.6-0.5-2.5-0.8-3.4-1.1
			c0-0.4-0.1-0.8-0.1-1.2c1.1-0.5,2.1-0.9,3.7-1.6c-1.2-0.6-1.9-1-2.5-1.3c0.7-1,1.4-1.9,2.1-2.9c2.8,1.4,5.6,2.9,8.4,4.3
			c-0.2,2-0.5,4.1-0.7,6.1C83.8,232.4,80.7,233.1,77.5,233.7z"/>
		<path fill="#027E43" d="M79.3,221.4c-0.7,1-1.4,1.9-2.1,2.9c-3.7,0.4-7.4,0.8-11.1,1.2c-3.4,0.4-6.8,0.7-10.3,1.1
			c-0.4-1.4-0.8-2.8-1.2-4.2c0.5-0.2,0.9-0.7,1.4-0.7C63.7,221.5,71.5,221.5,79.3,221.4z"/>
		<path fill="#F3895C" d="M63.5,202.7c-0.8,1.5-1.6,2.9-2.4,4.5c1.8-0.4,3.6-0.8,5.4-1.1c0.1,0.2,0.2,0.5,0.3,0.7
			c-1.1,1-2.1,1.9-3.2,2.9c0.1,0.2,0.2,0.3,0.2,0.5c1.4-0.3,2.8-0.6,4.6-1c-0.4,1.4-0.7,2.5-1,3.5c-3.9-0.2-7.7-0.5-11.6-0.7
			c0.8-2.4,0.2-4-2.3-4.6c2.8-1.7,5.6-3.5,8.5-5.2C62.5,202.4,63,202.6,63.5,202.7z"/>
		<path fill="#055E80" d="M54.6,222.3c0.4,1.4,0.8,2.8,1.2,4.2c-0.2,0.4-0.4,0.8-0.6,1.2c-0.4,0.7-0.7,1.5-1.1,2.2
			c-0.4,0.6-0.8,1.2-1.2,1.8c-0.8,0.8-1.6,1.6-2.4,2.4c-0.7,0-1.3,0-2,0C47.8,230.5,51,224.2,54.6,222.3z"/>
		<path fill="#F4885B" d="M32.7,205.3c2.5,0.4,5,0.7,7.4,1.3c0.7,0.2,1.3,1,1.6,1.7c0.1,0.2-0.6,1.1-1.1,1.3
			c-3.7,1.9-7.4,3.8-11.2,5.6c0.5-1.1,1-2.3,1.6-3.3C32.3,209.8,33.9,207.9,32.7,205.3z"/>
		<path fill="#0D0808" d="M93.5,205.3c-1.9,1-3.1,0.3-4-1.4c-1.1-2.1-2.4-4.2-3.6-6.2c0.2-0.4,0.5-0.9,0.7-1.3
			c2.5-0.9,4.4,0.2,5.8,2.1C94,200.5,94.9,202.7,93.5,205.3z"/>
		<path fill="#097B44" d="M86.9,231.8c0.2-2,0.5-4.1,0.7-6.1c2.6,1,5.2,2.1,8.1,3.3C92.9,232.1,90.1,232.5,86.9,231.8z"/>
		<path fill="#461A19" d="M86.7,196.3c-0.2,0.4-0.5,0.9-0.7,1.3c-7.5,1.7-15,3.4-22.5,5.1c-0.5-0.2-1-0.4-1.5-0.5
			c6.6-1.7,13.1-3.5,19.7-5.2C83.3,196.6,85,196.5,86.7,196.3z"/>
		<path fill="#606054" d="M32.7,205.3c1.2,2.6-0.4,4.6-1.6,6.6c-0.6,1.1-1.1,2.2-1.6,3.3c-0.2,0.2-0.5,0.3-0.7,0.5
			c0.3-3.5,0.5-7,0.8-10.5C30.6,205.2,31.7,205.2,32.7,205.3z"/>
		<path fill="#ED4C38" d="M53.5,207.4c2.5,0.7,3.2,2.3,2.3,4.6c-1.9,0-3.7,0.3-5.5,0c-1.7-0.3-1.5-1.5-0.4-2.4
			C51,208.7,52.3,208.1,53.5,207.4z"/>
		<path fill="#102316" d="M193.5,233.7c5.4-0.9,10.7-1.8,16.1-2.6c1.1-0.2,2.4,0.2,3.6,0.3c-0.3,0.3-0.6,0.9-0.9,0.9
			c-5.4,0.9-10.9,1.7-16.3,2.5C195.1,234.4,194.3,234.1,193.5,233.7z"/>
		<path fill="#242825" d="M193.5,233.7c0.8,0.4,1.6,0.7,2.4,1.1c-2.9,0.6-5.9,1.2-8.8,1.8c-0.4-0.6-0.8-1.2-1.2-1.9
			C188.5,234.4,191,234,193.5,233.7z"/>
		<path fill="#242D31" d="M174.3,239.4c-0.2-0.4-0.4-0.7-0.6-1.1c2.5-0.6,5.1-1.1,7.6-1.7c1.2,0.2,2.3,0.3,3.5,0.5
			C181.3,237.9,177.8,238.6,174.3,239.4z"/>
		<path fill="#F2784C" d="M154.1,83.5c-0.7,0-1.4,0-2.1-0.1c-2.9-1.6-4.6,0.1-6.1,2.3c-0.8-0.5-1.9-0.8-2.5-1.5
			c-1.5-1.9-2.7-4.1-4-6.1c-0.7-2.7-0.6-2.7,4.4-3.2c0.3-1.2,0.5-2.5,0.8-3.8c1.3-3.8,0.8-7.1-1.8-9.3c0.2,1.7,0.5,3,0.4,4.2
			c-0.1,0.9-0.6,1.8-0.9,2.8c-0.8-1.3-1.5-2.6-2.3-4c-2.5-4.4-2.4-5,1.8-9c0.5,1.2,0.9,2.2,1.3,3.2c0.1,0.2,0.1,0.6,0.2,0.7
			c3.7,2.1,2.6,5.8,3,9c0.3,3.4,0.4,6.8,0.6,10.1c0.3,0.2,0.6,0.3,0.9,0.5c0.7-0.8,1.3-1.6,2-2.4c1.8-0.1,3.8-1.4,5.1,0.8
			C156.2,79.9,156,81.9,154.1,83.5z"/>
		<path fill="#F27E4E" d="M140.6,110.9c-2.3,0.1-4.6,0.2-6.9,0.3c2.3-5,1.8-8-1.7-11l0,0c0-0.4,0-0.8,0-1.2c0.4-2.1,0.8-4.3,1.2-6.4
			l0,0c3.4,1.4,6.8,2.8,9.3,5.8l0,0c1.3,2.7,2.7,5.4-0.1,8.2C141.3,107.7,141.1,109.5,140.6,110.9z"/>
		<path fill="#F27D50" d="M154,47.9c-0.3-1.5-0.6-3.1-1-4.9c1,0.5,2,1,3.3,1.6c0.4-1.2,0.7-2,1-2.9c1.1,2.1,2.2,4,3.3,5.9
			c0,0.1,0.6-0.2,1-0.3c0.3-0.8,0.6-1.7,1-2.8c1,1.7,0.4,4.7,3.5,3.9c0,0.4,0,0.8,0,1.2c-0.1,0.5-0.2,1-0.4,1.5
			c-1,3.7-1.4,7.8-5.5,9.7c-0.1-1.7-0.2-3.4-0.3-5.2c-0.2,0-0.4,0-0.6,0c-0.3,0.7-0.5,1.4-0.8,2.1c-0.2-1.6-0.1-3.4-0.8-4.7
			C156.9,51.2,155.3,49.6,154,47.9z"/>
		<path fill="#EE5137" d="M166.2,48.4c-3.1,0.8-2.6-2.2-3.5-3.9c-0.4,1.2-0.7,2-1,2.8c-0.5-0.7-1.6-1-0.2-2.4
			c1.5-1.6,1.1-3.9-0.4-5.8c-0.1-0.1-0.4-0.2-0.6-0.3c-0.6-0.3-1.2-0.6-1.7-0.9c-0.2-1.9-0.4-3.9-0.6-5.8c0-1.4,0-2.7,0-4.1
			c3.7,1.4,4.9,4.9,6.1,8.2c1,2.6,1.3,5.4,2,8.1C166.2,45.7,166.2,47.1,166.2,48.4z"/>
		<path fill="#EE5638" d="M136,88c0.8-1,1.5-1.9,2.3-2.9c1.2,0.6,2.3,1.1,3.5,1.7c1.2,0.2,2.3,0.4,3.5,0.6
			c-0.8,4.1-0.6,8.2,1.2,12.1c0,0.3-0.1,0.5-0.1,0.8c-1.4-0.6-2.7-1.2-4.1-1.7l0,0c1.2-1.2,1-2.3-0.3-3.3c-1.1-0.9-2.4-1.6-3.5-2.5
			c-0.3-0.2-0.8-0.8-0.7-1.1C138.9,89.5,137.6,88.7,136,88z"/>
		<path fill="#190A08" d="M154.1,83.5c1.9-1.6,2.1-3.6,0.9-5.6c-1.3-2.2-3.3-0.9-5.1-0.8c-0.1-0.5-0.5-1.1-0.4-1.4
			c0.8-1.4,1.8-2.7,2.7-4c0.2,0.6,0.4,1.2,0.5,1.8c-1,3,1.5,1,2.3,1.6c4.1,2.2,4.4,3.7,2.3,8.8c1.4,2.7,2.5,4.8,3.6,6.9
			c-0.4,0.5-0.8,1-1.1,1.4c-0.2-0.7-0.4-1.4-0.6-2c-0.8-2.2-1.6-4.2-4.6-3.5C154.5,85.6,154.3,84.6,154.1,83.5z"/>
		<path fill="#EE5136" d="M154,47.9c1.3,1.7,2.9,3.2,3.8,5.1c0.7,1.4,0.5,3.1,0.8,4.7c-0.3,1-0.7,2-1,3c-0.7-2.1-1.4-4.2-2.1-6.3
			c-0.3,0.1-0.5,0.1-0.8,0.2c-1,1.8-2,3.6-3,5.4c-0.2-3.9-0.3-7.7-0.5-11.7c1.3-0.4,1.3-0.4,3.1,2.6C154.1,49.9,154.1,48.9,154,47.9
			z"/>
		<path fill="#F1774B" d="M151.7,60.1c1-1.8,2-3.6,3-5.4c0.3-0.1,0.5-0.1,0.8-0.2c0.7,2.1,1.4,4.2,2.1,6.3c-1.4,2.5-2.7,5.1-4.1,7.6
			C152.9,65.7,152.3,62.9,151.7,60.1z"/>
		<path fill="#EB5C3B" d="M115.7,110.1c-1.4-3.5-2.7-6.9-4.1-10.4c0.3-0.1,0.7-0.4,0.7-0.3c2.3,2.2,4.6,4.5,6.9,6.7
			c1.2,1.2,2.3,2.3,3.4,3.5C120.3,109.8,118,109.9,115.7,110.1z"/>
		<path fill="#F27B4D" d="M112.8,53.7c-1.9,1.4-3.9,2.7-5.8,4.1c0.1-2.1,0-4.3,0.6-6.3c0.2-0.8,1.9-1.7,2.9-1.7
			c1.8-0.1,3.7,0.4,5.9,1.4C115.1,52,114,52.8,112.8,53.7z"/>
		<path fill="#170907" d="M153.5,68.5c1.4-2.5,2.7-5.1,4.1-7.6c0.3-1,0.7-2,1-3c0.3-0.7,0.5-1.4,0.8-2.1c0.2,0,0.4,0,0.6,0
			c0.1,1.7,0.2,3.4,0.3,5.2c-0.3,0.3-0.7,0.7-1,1c-0.4,1.2-0.8,2.3-1.2,3.5c-1.7,2.7-3.5,5.4-5.2,8.2c-0.2-0.6-0.4-1.2-0.5-1.8
			C152.7,70.6,153.1,69.5,153.5,68.5z"/>
		<path fill="#F27349" d="M158.1,32.1c0.2,1.9,0.4,3.9,0.6,5.8c-2.6-1.5-5.1-3.1-7.7-4.6c-0.9-0.5-1.8-0.9-2.6-1.8
			C151.7,31.2,155,30,158.1,32.1z"/>
		<path fill="#ED5B3A" d="M118,42.6c2.4-1.5,2.7-4,3.7-6.3c1.2-2.7,3.6-5,5.7-7.3c0.9-0.9,2.3-1.4,3.4-2.1c-0.6,1.2-1.2,2.3-1.8,3.5
			c-0.4-0.2-1.2-0.7-1.2-0.6c-1.8,2.2-3.6,4.4-5.4,6.6c-0.1,0.1,0.5,0.7,0.8,1c-0.9,5.4-1.4,6.4-4.9,9.5c0.8-1.9,1.3-3,1.8-4.3
			C119.4,42.6,118.7,42.6,118,42.6z"/>
		<path fill="#EF663D" d="M136,88c1.6,0.7,2.9,1.5,2,3.6c-0.1,0.2,0.3,0.8,0.7,1.1c1.1,0.9,2.4,1.6,3.5,2.5c1.3,1,1.5,2.1,0.3,3.3
			c-2.4-3-5.9-4.4-9.3-5.8C134.1,91.2,135,89.6,136,88z"/>
		<path fill="#F16741" d="M125,81.6c0.3-0.3,1-0.6,1-0.8c-0.4-2.5-0.9-4.9-1.1-7.5c2.8,3.5,3.7,7.9,5,12.1c-0.7,0.9-1.3,1.8-2,2.7
			c-1-1.7-1.9-3.5-2.9-5.2C125,82.4,125,82,125,81.6z"/>
		<path fill="#F37A4D" d="M124.4,89.8c2,0.3,3.1,1.2,2.9,3.5c-0.1,1.1,0.6,2.3,0.5,3.4c-0.1,1.2-0.7,2.3-1.1,3.5
			c-0.8-0.7-1.6-1.4-2.2-2.2c-0.4-0.6-0.6-1.4-0.9-2c0.6-0.2,1.1-0.4,1.5-0.6c-0.3-0.9-0.6-1.8-0.8-2.6
			C124.4,91.7,124.4,90.8,124.4,89.8z"/>
		<path fill="#F27E4E" d="M107,61.8c1.2-0.8,2.3-1.6,3.5-2.3c0.8-0.2,1.6-0.3,2.3-0.5c0.2,3,0.4,5.8,0.5,8.6
			C111.2,65.7,109.1,63.8,107,61.8z"/>
		<path fill="#EF6A42" d="M145.3,87.5c-1.2-0.2-2.3-0.4-3.5-0.6c0.6-2.5-0.5-4.1-4-5.2c0.6-1.2,1.1-2.3,1.7-3.5
			c1.3,2.1,2.5,4.2,4,6.1c0.5,0.7,1.6,1,2.5,1.5C145.7,86.3,145.5,86.9,145.3,87.5z"/>
		<path fill="#E87C52" d="M115.7,110.1c2.3-0.2,4.6-0.3,6.9-0.5c0.2,0.4,0.5,0.8,0.7,1.3C120.5,113.3,118.1,113.1,115.7,110.1z"/>
		<path fill="#F0603C" d="M142.4,68.8c0.3-0.9,0.8-1.8,0.9-2.8c0.1-1.3-0.2-2.5-0.4-4.2c2.6,2.2,3.1,5.5,1.8,9.3
			C143.9,70.4,143.2,69.6,142.4,68.8z"/>
		<path fill="#F47E50" d="M137.8,81.7c3.5,1.2,4.7,2.7,4,5.2c-1.2-0.6-2.3-1.1-3.5-1.7C138.1,84,138,82.8,137.8,81.7z"/>
		<path fill="#EC5C3D" d="M129.6,102.4c-1.1,1.6-2.3,3.3-3.4,4.9c-0.4-0.7-0.8-1.4-1-2.2c-0.6-1.8-0.5-3,1.9-2.5
			C127.8,102.7,128.7,102.5,129.6,102.4z"/>
		<path fill="#F05438" d="M124.4,89.8c0,1,0,1.9,0,2.9c-1.5-1.9-1.9-6.5-0.7-8.3c0.5-0.9,0.9-1.8,1.3-2.7c0,0.4,0,0.8,0,1.2
			c0,1.9,0,3.9,0,5.8C124.8,89,124.6,89.4,124.4,89.8z"/>
		<path fill="#F27D50" d="M125,88.6c0-1.9,0-3.9,0-5.8c1,1.7,1.9,3.5,2.9,5.2C126.9,88.2,125.9,88.4,125,88.6z"/>
		<path fill="#F6774E" d="M123.2,37.4c-0.3-0.4-0.9-0.9-0.8-1c1.7-2.2,3.5-4.5,5.4-6.6c0.1-0.1,0.8,0.4,1.2,0.6
			C127.1,32.7,125.2,35.1,123.2,37.4z"/>
		<path fill="#F47149" d="M127.6,60c-0.7-0.6-1.3-1.3-2.5-2.4c1.3-0.8,2.4-1.4,3.4-2c0.1,1.4,0.1,2.8,0.2,4.2
			C128.4,59.9,128,59.9,127.6,60z"/>
		<path fill="#EE5A3A" d="M133.1,92.7c-0.4,2.1-0.8,4.3-1.2,6.4c-0.5-1.5-1.3-3.1-1.6-4.6C129.9,92.1,132.2,93.4,133.1,92.7z"/>
		<path fill="#F05438" d="M121.2,87.1c0.4,1.8,0.8,3.6,1.2,5.4c-0.3,0.1-0.6,0.1-0.8,0.2c-0.6-1.7-1.2-3.5-1.8-5.2
			C120.2,87.4,120.7,87.2,121.2,87.1z"/>
		<path fill="#FCFCFC" d="M165.5,221.9c-2.1,0.5-4.3,1-6.3,1.5c-0.3-2.4-0.6-4.4-0.8-6.5c-0.3,0-0.7-0.1-1-0.1
			c-1.1,2.6-2.2,5.2-3.3,7.8c-0.3-0.1-0.6-0.3-1-0.4c0.3-1.5,0.8-2.9,0.8-4.4c0-0.8-0.7-1.6-1-2.4c-0.6,0.5-1.3,1-1.6,1.6
			c-0.8,1.7-1.3,3.6-2.1,5.3c-0.2,0.4-0.9,0.6-1.7,1.2c0.7-2.7,1.3-4.9,1.8-7.1c0.1-0.4-0.4-1-0.9-2c-1.4,2.8-2.4,5.2-3.7,7.5
			c-0.5,0.9-1.5,1.8-2.5,1.9c-5.8,1-11.6,1.9-17.3,2.8c0.6-6,1.2-12,1.9-18.4c4,0.9,7.7,1.9,11.4,2.5c1.2,0.2,2.6-0.8,3.9-1.2
			c-0.2,1.5,0.7,1.8,2.8,1.3c6-1.5,12-2.7,18.1-3.8c2.5-0.5,5.2-0.3,7.8-0.4c2,1.9,3,4.1,2.3,6.9c-0.3,0.1-0.6,0.1-0.8,0.2
			c-2.6,1.1-3.7,4.5-7,4.8C165.4,221,165.4,221.5,165.5,221.9z"/>
		<path fill="#024628" d="M115.6,163.2c0.7-0.4,1.3-1.1,2-1.1c6.7-0.3,13.4-0.5,20.1-0.5c1.6,0,3.1,1.1,4.7,1.6
			c-7.7,0.2-15.4,0.4-23.1,0.5C118.1,163.7,116.9,163.3,115.6,163.2z"/>
		<path fill="#0A7597" d="M171.4,206.9c0.4,0,0.8,0,1.2-0.1c1.2,0.6,2.3,1.2,3.5,1.8c0.5,3.1,2.3,6.3-0.5,9.3
			c-0.4-1.9-0.8-3.8-1.2-5.8c-0.4,1.4-0.7,2.7-1.1,3.9c0-0.2-0.1-0.4-0.1-0.7c0.7-2.8-0.3-5-2.3-6.9
			C170.9,208.1,171.2,207.5,171.4,206.9z"/>
		<path fill="#82C6D9" d="M173.1,215.5c0,0.2,0.1,0.4,0.1,0.7c-1.4,3.4-3.4,6.1-7.7,5.7c-0.1-0.4-0.2-0.9-0.2-1.3
			c3.2-0.3,4.3-3.7,7-4.8C172.5,215.6,172.8,215.6,173.1,215.5z"/>
		<path fill="#187897" d="M115,211.6c-0.2-0.7-0.5-1.4-0.8-2.3c-1.1,2.1-2.6,3.4-5,2.2c1.7-1,3.4-2.1,5.6-3.5
			C114.9,209.6,115,210.6,115,211.6z"/>
		<path fill="#288F6E" d="M197.7,110.3c-0.6,0.7-1.2,1.5-1.9,2.2c-2.3,1.5-4.6,3.1-7.1,4.4c-1.7,0.9-3.7,1.3-5.6,1.9
			c-2.5,0.5-5.1,0.9-7.6,1.4c1.7-0.8,3.3-2.2,5-2.3c4-0.2,7.1-2.3,10.4-4.2C193.1,112.4,195.4,111.4,197.7,110.3z"/>
		<path fill="#80C5DA" d="M188.9,81.1c-0.6,3.1-1.1,6.2-1.7,9.3c-2.2-4.5-0.9-9.8,2.9-11.6C189.7,79.5,189.3,80.3,188.9,81.1z"/>
		<path fill="#0E2125" d="M188.9,81.1c0.4-0.8,0.8-1.5,1.2-2.3c0.4-0.4,0.7-0.8,1.1-1.2c4,0.9,4.4,1.9,2.9,5.8c0-1.6,0-3.1,0-4.7
			c-0.3-0.1-0.6-0.3-0.9-0.4c-1.2,1.4-2.5,2.9-3.7,4.3C189.2,82.1,189.1,81.6,188.9,81.1z"/>
		<path fill="#EF663D" d="M142.4,98.5c1.4,0.6,2.7,1.2,4.1,1.7c-1.1,2.7,1.5,3.6,2.5,5.4c-2.2,3.4-4.2,6.8-6.5,10.1
			c-0.6,0.9-1.8,1.4-2.8,2c-0.5-0.9-1-1.9-1.5-2.8c-0.1-0.3-0.2-0.5-0.4-0.8c1-1.1,1.9-2.2,2.9-3.2c0.5-1.4,0.7-3.2,1.7-4.2
			C145.1,103.9,143.7,101.3,142.4,98.5z"/>
		<path fill="#15110F" d="M170.9,62.8c1.8,1.3,1.8,1.3,1.4,6.1c3.8,1,4.4,4.2,4.8,7.5c0.5,4.1,1.3,8.3,1.1,12.3
			c-0.2,3.3-1.8,6.5-2.8,9.7c-0.6-0.4-1.1-0.8-1.7-1.3c4-8,2-16.2,1.1-24.5c-1.7,0.2-3.2,0.4-4.7,0.6c-0.1-0.2-0.1-0.4-0.2-0.7
			c1.3-0.4,2.7-0.7,4.2-1.1c-0.3-0.3-0.5-0.6-0.9-0.7c-2.7-1-3.9-2.5-2.4-5.4c0.2-0.5-0.1-1.2-0.1-1.8
			C170.9,63.3,170.9,63.1,170.9,62.8z"/>
		<path fill="#110807" d="M145.3,87.5c0.2-0.6,0.4-1.1,0.6-1.7c1.5-2.2,3.1-4,6.1-2.3c0.1,0.8,0.3,1.7,0.5,2.6
			c-2.3-1.9-4.4-1.4-4.7,1.2c-0.4,3.4-0.4,6.9-0.2,10.3c0,0.7,1.5,1.4,2.4,1.9c0.7,0.4,1.6,0.5,2.7,0.9c-1.1,0.9-1.7,1.3-2.3,1.8
			c-1.3-0.9-2.6-1.7-3.9-2.6C144.8,95.6,144.5,91.6,145.3,87.5z"/>
		<path fill="#150E0F" d="M170.9,62.8c0,0.2,0,0.5-0.1,0.7c-1.7,1.7-3.3,3.4-5.3,5.5c-2.2-2.5-4.2-4.8-6.3-7.2c0.3-0.3,0.7-0.7,1-1
			c4.1-2,4.5-6,5.5-9.7c0.1-0.5,0.3-1,0.4-1.5c0.6,0,1.3,0,1.9,0c-0.2,0.6-0.4,1.1-0.6,1.7c-0.3,4.3-1.3,8.1-5.8,10.4
			c1.2,1.6,2.4,3.2,3.3,4.5C167.1,65,169,63.9,170.9,62.8z"/>
		<path fill="#F17A53" d="M160,73.2c2.4-1.4,4.7-1.4,6.7,0.1c0.8,0.6,0.9,2.2,1.4,3.4c-0.9,0.3-1.9,0.9-2.8,0.8
			C162.9,77.1,160.9,76,160,73.2z"/>
		<path fill="#EB6A41" d="M154.6,86.7c3-0.7,3.8,1.3,4.6,3.5c0.2,0.7,0.4,1.4,0.6,2c-0.5,1-1.1,2.1-1.6,3.1
			c-0.2-0.1-0.4-0.2-0.6-0.3c0-0.6-0.1-1.3-0.1-1.9c0-0.8,0-1.5,0-2.6c-0.9,0.5-1.6,0.9-2.8,1.7C154.6,90.2,154.6,88.5,154.6,86.7z"
			/>
		<path fill="#25211F" d="M173.7,97.2c0.6,0.4,1.1,0.8,1.7,1.3c-1.2,2.5-2.8,4.7-5.7,5.3c-0.8-0.4-1.6-0.8-2.4-1.2
			C169.5,100.8,171.6,99,173.7,97.2z"/>
		<path fill="#1A1616" d="M167.3,102.6c0.8,0.4,1.6,0.8,2.4,1.2c-3.3,0.8-6.6,1.6-10,2.4c0-0.4,0-0.9,0.1-1.3
			C162.3,104.2,164.8,103.4,167.3,102.6z"/>
		<path fill="#E06B44" d="M152.8,73.5c1.7-2.7,3.5-5.4,5.2-8.2c-1,3.3-2,6.5-3,9.8C154.3,74.5,151.8,76.5,152.8,73.5z"/>
		<path fill="#2E2521" d="M159.8,105c0,0.4,0,0.9-0.1,1.3c-2.3,1.4-4.6,2.8-7,4.1c-0.7,0.4-1.5,0.7-2.2,1
			C152.7,107.9,155.4,105.1,159.8,105z"/>
		<path fill="#E6734B" d="M157.4,93.2c0,0.6,0.1,1.3,0.1,1.9c0.2,0.1,0.4,0.2,0.6,0.3c0.5-1,1.1-2.1,1.6-3.1c0.4-0.5,0.8-1,1.1-1.4
			c-0.4,2.2-0.8,4.3-1.3,6.5c-0.1,0.3-1,0.6-1.4,0.5c-0.5-0.2-1.2-0.8-1.2-1.3C156.9,95.4,157.3,94.3,157.4,93.2z"/>
		<path fill="#E94332" d="M146.5,99.5c1.3,0.9,2.6,1.7,3.9,2.6c1.7,2.1-0.8,2.4-1.5,3.5c-1-1.7-3.6-2.7-2.5-5.4
			C146.5,100,146.5,99.8,146.5,99.5z"/>
		<path fill="#241713" d="M162.5,70.1c-0.8,0.3-1.6,1-2.3,0.9c-0.6-0.1-1.4-1.1-1.3-1.7c0.1-0.6,0.9-1.3,1.6-1.6
			c0.2-0.1,0.9,0.8,1.4,1.2C162.1,69.3,162.3,69.7,162.5,70.1z"/>
		<path fill="#FCFCFB" d="M219,11.6c-0.6,0.3-1.1,0.6-1.7,0.8c-1,0.3-2,0.5-3.1,0.8c-4.4,1.3-8.9,2.6-13.3,3.8
			c0.6-0.7,1.2-1.5,1.8-2.2c-0.9-0.7-2.3-1.2-2.6-2.1c-0.3-0.9,0.6-2.1,0.9-3.3c-2.7-1.4-2.7-1.9-0.4-4.2c-1.1-1-2.3-2-3.5-3
			c0.2-0.4,0.4-0.7,0.6-1.1c6.8,1.7,13.6,3.4,20.4,5C218.5,8,218.8,9.8,219,11.6z"/>
		<path fill="#352B28" d="M197,19.3c-3.4,0.7-6.9,1.4-10.5,2.1c0.7,3.2-0.2,6.1-2.8,8.3c-0.2-0.2-0.4-0.4-0.5-0.6
			c1.6-2.2,3-4.5,2-7.7c-0.9,0.1-1.8,0.2-2.4,0.3c-0.3,2-0.5,3.6-0.7,5.2c-0.2-0.6-0.4-1.3-0.6-1.9c0-1-0.1-1.9-0.1-2.9l0.2-0.1
			c0.9-0.4,1.9-0.7,2.7-1.1c0.5-0.3,0.8-0.8,1.1-1.2c4.5-0.7,8.9-1.5,13.4-2.2C198.1,18.2,197.5,18.8,197,19.3z"/>
		<path fill="#3D3B3B" d="M197,19.3c0.6-0.6,1.1-1.1,1.7-1.7c0.8-0.2,1.5-0.4,2.3-0.6c4.4-1.3,8.9-2.6,13.3-3.8c1-0.3,2-0.5,3.1-0.8
			c0.4,0.2,0.8,0.4,1.2,0.6C211.4,15.1,204.2,17.2,197,19.3z"/>
		<path fill="#4F2522" d="M178.5,19.4c0.7-1,1.7-1.9,2.2-3c0.3-0.6,0-1.6,0-2.4c0.7-0.2,1.4-0.4,2.1-0.6c0.2,0.8,0.7,1.8,0.5,2.3
			c-0.8,1.6-1.9,3.1-3,4.6C179.7,20,179.1,19.7,178.5,19.4z"/>
		<path fill="#271512" d="M178.5,19.4c0.6,0.3,1.2,0.7,1.8,1c1.7-0.2,3.3-0.4,5-0.6c-0.4,0.4-0.7,1-1.1,1.2
			c-0.9,0.5-1.8,0.8-2.8,1.1c-1.4-0.4-2.9-0.9-4.3-1.3C177.6,20.4,178,19.9,178.5,19.4z"/>
		<path fill="#F07254" d="M180.8,4.8c-2.9,0.5-5.7,1-8.6,1.5C172.1,6,172,5.6,172,5.2c2.9-0.4,5.8-0.9,8.6-1.3
			C180.7,4.2,180.7,4.5,180.8,4.8z"/>
		<path fill="#F7B69A" d="M211.5,72.3c0.4,0,0.8,0.1,1.3,0.1c-0.9,1-1.6,2.1-2.6,2.9c-1.4,1.1-0.5,1.7,0.4,2.3
			c-0.1,0.5-0.2,1.1-0.3,1.5c2.5-0.8,4.8-1.4,7.1-2.2c0.6-0.2,1.1-0.9,1.7-1.4c0.8,0.1,1.5,0.2,2.3,0.2c0.7,2,0.1,3-2,3.7
			c-2.1,0.7-4.1,1.8-6.8,2.9c2.7,0.3,4.8,0.2,6.4,1c1.5,0.7,2.4,2.5,3.8,4.1c-3.7,2-4.3-1.9-6.8-2.1c0.7,2.1,3.6,4.3-0.5,5.8
			c-0.2-0.6-0.5-1.3-0.7-2.1c-0.1,0-0.3,0.1-0.4,0.1c0,1.9,0,3.7,0,5.6c-0.6,1.1-1.2,2.2-1.8,3.4c-1.7-0.6-3.4-1.1-5.1-1.7
			c-1.4-0.6-2.7-1.1-4.1-1.7c4.8-3.8,2.2-8.9,2.2-13.5c0-1.1-0.4-2.2-0.7-3.3c0.6-0.9,1.2-1.9,1.8-2.8
			C208.4,74,209.9,73.1,211.5,72.3z"/>
		<path fill="#03834B" d="M203.4,94.4c1.4,0.6,2.7,1.1,4.1,1.7c0.1,0.5,0.2,1,0.2,1c-2.2,1.7-4.4,3.5-6.7,5.1
			c-1.4,0.9-3.5,3.4-3.8-1c0-0.6-0.5-1.1-0.8-1.7C198.7,97.9,201.1,96.1,203.4,94.4z"/>
		<path fill="#02A1C8" d="M206.8,74.8c-0.6,0.9-1.2,1.9-1.8,2.8c-0.4,2.3-0.8,4.6-1.1,7c-0.2,1.4,0,2.9,0,4.4
			c-3.7,0.9-7.2,1.8-10.4,2.6c1.1-4.6,2.3-9.3,3.6-14.8C199.6,76.2,203.2,75.5,206.8,74.8z"/>
		<path fill="#049DC2" d="M189.4,82.6c1.2-1.4,2.5-2.9,3.7-4.3c0.3,0.1,0.6,0.3,0.9,0.4c0,1.6,0,3.1,0,4.7c-0.7,2.2-1.3,4.4-2.2,6.5
			c-0.3,0.8-1.4,1.3-2.1,2c-0.4-0.2-0.8-0.4-1.2-0.6C188.8,88.4,189.1,85.5,189.4,82.6z"/>
		<path fill="#030502" d="M149.8,149.1c1.9,1.9,0,1.6-1.1,1.9c-4.6,0.2-9.3,0.4-13.9,0.6c-4.9,0-9.8,0-14.7,0c0-0.3,0-0.6,0-0.9
			C130,149.8,139.8,148.6,149.8,149.1z"/>
		<path fill="#41332C" d="M177.1,20.9c1.4,0.4,2.9,0.9,4.3,1.3c0,0-0.2,0.1-0.2,0.1c-1.1,0-2.1,0-2.4,0c-0.2,2.4-0.3,4.4-0.5,6.3
			c-0.2,0.4-0.4,0.9-0.7,1.3c-0.2-0.8-0.3-1.5-0.5-2.3c-0.3-1.7-0.5-3.4-0.8-5.1c-0.3,0-0.6,0-1-0.1C176,21.9,176.6,21.4,177.1,20.9
			z"/>
		<path fill="#2B211D" d="M177.8,29.9c0.2-0.4,0.4-0.9,0.7-1.3c1-1.1,2-2.3,3-3.4c0.2,0.6,0.4,1.3,0.6,1.9c-0.2,0.9-0.4,1.8-0.7,2.9
			c0.8-0.3,1.3-0.5,1.9-0.7c0.2,0.2,0.4,0.4,0.5,0.6c-0.8,0.6-1.6,1.2-2.3,1.8C180.1,31.1,178.9,30.5,177.8,29.9z"/>
		<path fill="#EB4A35" d="M131.9,100.3c3.5,3,4,6,1.7,11c-3.4-2-2.3-5.3-2.3-8.2C131.4,102.1,131.7,101.2,131.9,100.3z"/>
		<path fill="#030503" d="M151.5,144.5c1.4,1.5,0,1.6-0.9,2c-5.6,0.1-11.3,0.4-16.9,0.4c-3.5,0-7.1-0.3-10.6-0.6
			c-0.5,0-0.9-0.6-1.3-0.9C131.6,145.1,141.6,144.8,151.5,144.5z"/>
		<path fill="#02A1C8" d="M221.4,75.6c-0.8-0.1-1.5-0.2-2.3-0.2c-1-0.1-2.1-0.2-3.1-0.2c-0.1-0.3-0.3-0.5-0.4-0.8
			c1.5-0.9,2.9-2.2,4.5-2.6c4-1,8-1.6,12.1-2.4c0,0,0.2,0.2,0.2,0.2c2.1,3.3,2.9,6.8,2.3,10.6c-0.1,0.7,0.1,1.5,0.1,2.3
			c-2.5-0.1-5-0.2-7.6-0.2c-0.6-0.9-1.2-1.7-1.8-2.6c-0.7-1.1-1.5-2.2-2.2-3.3C222.6,76.1,222,75.9,221.4,75.6z"/>
		<path fill="#FAFBFB" d="M234.7,82.5c0-0.8-0.2-1.6-0.1-2.3c0.6-3.8-0.2-7.4-2.3-10.6c2.8,0.5,5.7,1,8.5,1.6
			c0.4,1.9,0.8,3.8,1.3,5.7c-1.7,1.6-3.3,3.2-5,4.8C236.3,81.9,235.5,82.2,234.7,82.5z"/>
		<path fill="#14A1C7" d="M223.2,76.4c0.7,1.1,1.4,2.2,2.2,3.3c0.6,0.9,1.2,1.7,1.8,2.6c-1.1,1-2.2,2-3.1,2.9
			c-1.4-1.9-2.4-3.3-3.4-4.7C221.3,79.9,225.3,80.3,223.2,76.4z"/>
		<path fill="#1B241F" d="M168,49.6c-0.6,0-1.3,0-1.9,0c0-0.4,0-0.8,0-1.2c0-1.4,0-2.7,0-4.1c0.6-0.4,1.2-0.7,1.8-1.1
			C168,45.4,168,47.5,168,49.6z"/>
		<path fill="#5D787C" d="M210.5,77.5c-0.9-0.7-1.8-1.2-0.4-2.3c1-0.8,1.8-1.9,2.6-2.9c1-0.2,1.9-0.4,2.9-0.6
			C213.9,73.7,212.2,75.6,210.5,77.5z"/>
		<path fill="#1CA1C6" d="M242.1,76.9c-0.4-1.9-0.8-3.8-1.3-5.7c0.7,0,1.3,0,2-0.1c1.4,0.5,2.8,1,4.6,1.7c-1.1,1.2-1.7,1.9-2.2,2.5
			C244.1,75.8,243.1,76.3,242.1,76.9z"/>
		<path fill="#34AACF" d="M6.1,214.9c1-1.9,5.5-2.9,9.4-1.3c-3,0.8-6,1.6-9,2.4C6.3,215.6,6.2,215.3,6.1,214.9z"/>
		<path fill="#161D21" d="M45.1,201c0.1-2.1,0.2-4.1,0.3-6.2c0.2-0.1,0.3-0.2,0.5-0.3c0.5,0,1.4-0.3,1.6-0.1
			C48.8,196,47.2,200.3,45.1,201z"/>
		<path fill="#F4E4DC" d="M45.9,194.5c-0.2,0.1-0.3,0.2-0.5,0.3c-2.5,0.3-4.9,0.7-7.4,1c-0.2-0.2-0.4-0.3-0.7-0.5c3-0.7,6-1.3,8.9-2
			C46.1,193.8,46,194.1,45.9,194.5z"/>
		<path fill="#F9D5C2" d="M37.3,195.3c0.2,0.2,0.4,0.3,0.7,0.5c-2.4,0.7-4.7,1.3-7.1,2C32.2,194.4,35.3,196.4,37.3,195.3z"/>
		<path fill="#025C7D" d="M181.3,236.6c-2.5,0.6-5.1,1.1-7.6,1.7c0.4-1.2,1.1-2.3,1.2-3.5c0.3-2.1,0.3-4.2,0.4-6.9
			c4-1.3,8.8-2.9,13.6-4.5c0.1,0.3,0.3,0.6,0.4,0.9c-2.2,1.3-4.3,2.6-5.9,3.6c0.5,1.5,1.1,2.7,1.2,3.9
			C184.8,234.2,183.7,235.9,181.3,236.6z"/>
		<path fill="#034720" d="M53,231.9c0.4-0.6,0.8-1.2,1.2-1.8c7.3-0.6,14.6-1.1,21.9-1.7c0.9,0.3,1.8,0.6,3.4,1.1
			c-1.5,0.3-2.3,0.5-3.2,0.7c-5.7,0.4-11.4,0.8-17.1,1.2C57.1,231.6,55.1,231.7,53,231.9z"/>
		<path fill="#03451E" d="M55.2,227.8c0.2-0.4,0.4-0.8,0.6-1.2c3.4-0.4,6.8-0.7,10.3-1.1c3.7-0.4,7.4-0.8,11.1-1.2
			c0.6,0.3,1.3,0.6,2.5,1.3c-1.6,0.7-2.7,1.2-3.7,1.6c-3.9,0-7.8,0-11.8,0.1C61.2,227.4,58.2,227.6,55.2,227.8z"/>
		<path fill="#037B42" d="M55.2,227.8c3-0.2,6-0.4,9-0.5c3.9-0.1,7.8-0.1,11.8-0.1c0,0.4,0.1,0.8,0.1,1.2
			c-7.3,0.6-14.6,1.1-21.9,1.7C54.5,229.3,54.8,228.6,55.2,227.8z"/>
		<path fill="#D19E88" d="M183.1,29.2c-0.5,0.2-1,0.4-1.9,0.7c0.3-1.1,0.5-2,0.7-2.9c0.2-1.6,0.5-3.2,0.7-5.2
			c0.6-0.1,1.5-0.2,2.4-0.3C186.1,24.8,184.7,27,183.1,29.2z"/>
		<path fill="#E7AE97" d="M181.4,25.2c-1,1.1-2,2.3-3,3.4c0.1-1.9,0.3-3.9,0.5-6.3c0.2,0,1.3,0,2.4,0
			C181.3,23.2,181.3,24.2,181.4,25.2z"/>
	</g>
</g>
</svg>
