<?xml version="1.0" encoding="utf-8"?>
<!-- Generator: Adobe Illustrator 18.1.1, SVG Export Plug-In . SVG Version: 6.00 Build 0)  -->
<svg version="1.1" id="Camada_1" xmlns="http://www.w3.org/2000/svg" xmlns:xlink="http://www.w3.org/1999/xlink" x="0px" y="0px"
	 viewBox="0 0 295 98" enable-background="new 0 0 295 98" xml:space="preserve">
<g>
	<g>
		<g>
			<g>
				<defs>
					<path id="SVGID_1_" d="M12.8,2.6c1.6,0.4,2.8,0.8,3.7,1c0.9,0.3,1.6,0.5,2.1,0.7c0.5,0.2,0.8,0.4,1,0.5
						c0.1,0.1,0.2,0.3,0.1,0.5c-0.1,0.4,0,0.8,0.3,1c0.3,0.3,0.9,0.6,1.8,1c1,0.4,1.6,0.8,1.8,1c0.2,0.3,0.1,0.7-0.3,1.3
						c-0.3,0.5-0.7,0.8-1.1,1c-0.5,0.1-1.3,0.2-2.4,0.1c-1.2-0.1-3.1-0.4-5.7-1.1c-1.1-0.3-1.8-0.3-2.2-0.2
						c-0.4,0.2-0.8,0.8-1.3,1.9c-0.5,1-1.4,2.8-2.8,5.3c-1.4,2.5-2.1,3.9-2.2,4.1c-0.2,0.3-0.3,0.5-0.4,0.6c-0.1,0-0.4,0-0.7,0
						c-0.3-0.1-0.6,0-1,0.1c-0.3,0.1-0.5,0.1-0.6,0.1c-0.1,0-0.2-0.1-0.3-0.2c-0.1-0.1-0.2-0.2-0.3-0.5c-0.2-0.3-0.4-0.5-0.6-0.8
						c-0.3-0.3-0.5-0.7-0.5-1.1c0-0.4,0.2-1,0.5-1.7c0.3-0.7,0.7-1.4,1.1-2.1c0.4-0.7,1-1.7,1.7-3C5.3,10.9,6,9.7,6.5,8.6
						c0.5-1,0.8-1.7,0.9-2c0.1-0.3,0-0.5-0.1-0.9C7.1,5.5,6.8,5.1,6.4,4.8C6,4.5,5.7,4.3,5.4,4.1C5.1,3.8,4.9,3.6,4.7,3.2
						C4.6,2.8,4.7,2.4,4.9,1.9C5.2,1.3,5.5,1,5.9,1c0.4-0.1,1.1,0,2.2,0.4C9.7,1.8,11.3,2.2,12.8,2.6z"/>
				</defs>
				<clipPath id="SVGID_2_">
					<use xlink:href="#SVGID_1_"  overflow="visible"/>
				</clipPath>
				<g clip-path="url(#SVGID_2_)">
					
						<rect x="16.3" y="-29.3" transform="matrix(-0.9914 0.131 -0.131 -0.9914 60.3602 -32.6055)" fill="none" width="30" height="30"/>
					
						<rect x="16.3" y="-29.3" transform="matrix(0.9914 -0.131 0.131 0.9914 2.1456 3.9721)" fill="#EF4A34" width="30" height="30"/>
				</g>
				<g clip-path="url(#SVGID_2_)">
					
						<rect x="20.2" y="0.4" transform="matrix(-0.9914 0.131 -0.131 -0.9914 72.0863 26.1054)" fill="none" width="30" height="30"/>
					
						<rect x="20.2" y="0.4" transform="matrix(0.9914 -0.131 0.131 0.9914 -1.7179 4.7437)" fill="#EF4A34" width="30" height="30"/>
				</g>
				<g clip-path="url(#SVGID_2_)">
					
						<rect x="-13.5" y="-25.4" transform="matrix(-0.9914 0.131 -0.131 -0.9914 1.6492 -20.8791)" fill="none" width="30" height="30"/>
					
						<rect x="-13.5" y="-25.4" transform="matrix(0.9914 -0.131 0.131 0.9914 1.374 0.1085)" fill="#EF4A34" width="30" height="30"/>
				</g>
				<g clip-path="url(#SVGID_2_)">
					
						<rect x="-9.6" y="4.4" transform="matrix(-0.9914 0.131 -0.131 -0.9914 13.3756 37.8318)" fill="none" width="30" height="30"/>
					
						<rect x="-9.6" y="4.4" transform="matrix(0.9914 -0.131 0.131 0.9914 -2.4896 0.8802)" fill="#EF4A34" width="30" height="30"/>
				</g>
			</g>
		</g>
		<g>
			<g>
				<defs>
					<path id="SVGID_3_" d="M31.8,15.2c-0.2-0.1-0.4-0.1-0.6,0c-0.2,0.1-0.5,0.1-0.9-0.1c-0.4-0.1-0.7-0.2-1-0.1
						c-0.3,0.1-0.4,0.3-0.4,0.5c0,0.2,0.6,0.5,1.6,0.8c0.9,0.3,1.4,0.5,1.6,0.8c0.2,0.2,0.1,0.7-0.1,1.4c-0.2,0.6-0.5,1-1,1.2
						c-0.4,0.2-1.1,0.3-1.9,0.3c-0.9-0.1-1.5,0-1.8,0.2c-0.3,0.2-0.6,0.7-0.9,1.5c-0.3,0.8-0.4,1.4-0.3,1.7c0.1,0.3,0.4,0.4,1,0.3
						c3-0.7,4.7-0.9,5-0.8c0.2,0.1,0.2,0.3,0.1,0.5c-0.1,0.4-0.1,0.7,0.1,1c0.1,0.2,0.1,0.4,0.1,0.7c-0.1,0.3-0.2,0.8-0.6,1.6
						c-0.3,0.6-0.5,1.2-0.8,1.9c-0.5,0.2-1,0.3-1.5,0.5c-0.5,0.1-0.9,0.3-1.3,0.4c-0.4,0.1-0.8,0.2-1.1,0.2
						c-0.3,0.1-0.6,0.1-0.9,0.1c-0.3,0-0.5,0-0.7,0c-0.2,0-0.4-0.1-0.6-0.1c-0.2-0.1-0.4-0.1-0.5-0.1c-0.1,0-0.2-0.1-0.4-0.2
						c-0.2-0.1-0.3-0.1-0.3-0.1c-0.9-0.4-1.8-1-2.6-1.8c-0.8-0.8-1.3-1.4-1.5-2.1c-0.1-0.4-0.2-1.2,0-2.4c0.1-1.2,0.3-2,0.5-2.4
						c0.2-0.5,0.9-1.7,2.1-3.6c1.2-1.9,2-3.2,2.5-3.9c0.6-0.8,1.1-1.3,1.5-1.7c0.4-0.4,1-0.7,1.6-0.9c0.5-0.2,0.9-0.2,1.2-0.2
						c0.3,0,1,0.3,2.1,0.7c1.4,0.5,2.3,0.7,2.7,0.7c0.4,0,1,0.1,1.7,0.3c0.7,0.3,1.2,0.5,1.3,0.8c0.2,0.2,0.2,0.7,0.1,1.2
						c-0.1,0.7-0.4,1.1-0.7,1.3c-0.3,0.2-1,0.2-2,0.2C32.7,15.4,32,15.3,31.8,15.2z"/>
				</defs>
				<clipPath id="SVGID_4_">
					<use xlink:href="#SVGID_3_"  overflow="visible"/>
				</clipPath>
				<g clip-path="url(#SVGID_4_)">
					
						<rect x="20.2" y="0.4" transform="matrix(-0.9914 0.131 -0.131 -0.9914 72.0863 26.1054)" fill="none" width="30" height="30"/>
					
						<rect x="20.2" y="0.4" transform="matrix(0.9914 -0.131 0.131 0.9914 -1.7179 4.7437)" fill="#EF4A34" width="30" height="30"/>
				</g>
				<g clip-path="url(#SVGID_4_)">
					
						<rect x="-9.6" y="4.4" transform="matrix(-0.9914 0.131 -0.131 -0.9914 13.3756 37.8318)" fill="none" width="30" height="30"/>
					
						<rect x="-9.6" y="4.4" transform="matrix(0.9914 -0.131 0.131 0.9914 -2.4896 0.8802)" fill="#EF4A34" width="30" height="30"/>
				</g>
			</g>
		</g>
		<g>
			<g>
				<defs>
					<path id="SVGID_5_" d="M51.6,15.9c0.8-0.2,1.3-0.3,1.4-0.3c0.2,0,0.3,0.1,0.5,0.4c0.2,0.3,0.3,0.9,0.1,1.8
						c-0.1,0.9-0.5,1.9-0.9,3c-0.5,1-0.9,1.7-1.3,2.3c-0.4,0.5-1.1,1.1-2,1.8c-1.1,0.8-1.7,1.4-1.9,1.8c-0.2,0.4-0.2,1.1,0,2.1
						c0.2,0.6,0.2,1,0.1,1.3c0,0.1,0,0.5,0.1,1c0.1,0.5,0.1,1.2-0.1,2.1c-0.1,0.7-0.3,1.2-0.4,1.4c-0.1,0.2-0.4,0.4-0.9,0.6
						c-0.8,0.4-1.5,0.4-2.1,0c-0.6-0.3-1.2-1.1-2-2.4c-0.3-0.6-0.7-1.2-1-1.8c-0.3,0.2-0.7,0.4-1,0.5c-0.5,0.2-0.8,0.4-1.1,0.6
						c-0.3,0.2-0.6,0.4-1.1,0.7c-0.5,0.3-1,0.6-1.6,1c-0.6,0.4-1,0.6-1.3,0.6c-0.3,0-0.6,0-1-0.1c-0.4-0.1-0.7-0.3-0.9-0.6
						c-0.2-0.2-0.5-0.7-0.8-1.5c-0.4-0.9-0.6-1.6-0.7-2.1c0-0.5,0.1-0.9,0.4-1.3c0.3-0.4,0.9-1.1,1.9-1.9c1.5-1.3,2.4-2,2.8-2.1
						c0.3-0.1,0.8-0.5,1.5-1.1c0.7-0.6,1.1-1.1,1.2-1.3c0.1-0.2,0-0.5-0.1-1.2c-0.1-0.6-0.3-1.4-0.5-2.2c-0.2-0.9-0.4-1.5-0.4-1.9
						c-0.1-0.6-0.1-0.9-0.1-1.1c0-0.1,0.2-0.3,0.5-0.4c0.4-0.2,0.6-0.5,0.6-0.8c0-0.4,0.2-0.7,0.5-0.8c0.3-0.1,0.8,0,1.5,0.3
						c1.6,0.5,2.7,1.7,3.5,3.3c0.2,0.4,0.4,0.9,0.6,1.3c0.4-0.2,0.8-0.4,1.2-0.6c0.2-0.1,0.9-0.5,2-1.2C50,16.5,50.9,16.1,51.6,15.9
						z"/>
				</defs>
				<clipPath id="SVGID_6_">
					<use xlink:href="#SVGID_5_"  overflow="visible"/>
				</clipPath>
				<g clip-path="url(#SVGID_6_)">
					
						<rect x="49.9" y="-3.5" transform="matrix(-0.9914 0.131 -0.131 -0.9914 130.7973 14.3792)" fill="none" width="30" height="30"/>
					
						<rect x="49.9" y="-3.5" transform="matrix(0.9914 -0.131 0.131 0.9914 -0.9462 8.6073)" fill="#EF4A34" width="30" height="30"/>
				</g>
				<g clip-path="url(#SVGID_6_)">
					
						<rect x="53.9" y="26.2" transform="matrix(-0.9914 0.131 -0.131 -0.9914 142.5237 73.0902)" fill="none" width="30" height="30"/>
					
						<rect x="53.9" y="26.2" transform="matrix(0.9914 -0.131 0.131 0.9914 -4.8098 9.379)" fill="#EF4A34" width="30" height="30"/>
				</g>
				<g clip-path="url(#SVGID_6_)">
					
						<rect x="20.2" y="0.4" transform="matrix(-0.9914 0.131 -0.131 -0.9914 72.0863 26.1054)" fill="none" width="30" height="30"/>
					
						<rect x="20.2" y="0.4" transform="matrix(0.9914 -0.131 0.131 0.9914 -1.7179 4.7437)" fill="#EF4A34" width="30" height="30"/>
				</g>
				<g clip-path="url(#SVGID_6_)">
					
						<rect x="24.1" y="30.2" transform="matrix(-0.9914 0.131 -0.131 -0.9914 83.8127 84.8163)" fill="none" width="30" height="30"/>
					
						<rect x="24.1" y="30.2" transform="matrix(0.9914 -0.131 0.131 0.9914 -5.5815 5.5154)" fill="#EF4A34" width="30" height="30"/>
				</g>
			</g>
		</g>
		<g>
			<g>
				<defs>
					<path id="SVGID_7_" d="M56.7,20.4c1.1,0.2,2.4,0.3,3.9,0.5c1.5,0.1,2.6,0.3,3.4,0.3c0.8,0.1,1.6,0.2,2.4,0.3
						c0.8,0.1,1.4,0.2,1.7,0.4c0.3,0.2,0.5,0.4,0.5,0.6c0,0.5,0.1,0.8,0.4,1c0.3,0.2,0.9,0.4,1.9,0.7c1.2,0.3,1.9,0.5,2.1,0.8
						c0.2,0.3,0.2,0.7-0.1,1.4c-0.2,0.6-0.6,1-1.1,1.3c-0.4,0.2-1.3,0.3-2.7,0.5c-1.4,0.1-2.3,0.1-2.8,0c-0.3-0.1-0.5-0.1-0.8,0
						c-0.3,0.1-0.9,0.1-1.9-0.1c-1.1-0.2-1.8-0.2-2-0.1c-0.2,0.1-0.8,1.7-1.7,4.7c-1.2,3.7-2,6-2.3,6.9c-0.4,0.9-0.7,1.3-1,1.3
						c-0.3,0-0.5,0-0.8,0.1c-0.2,0.1-0.4,0.2-0.6,0.2c-0.1,0.1-0.3,0.1-0.5,0.1c-0.2,0-0.3-0.1-0.5-0.3c-0.2-0.2-0.4-0.5-0.7-0.7
						c-0.3-0.2-0.5-0.4-0.6-0.7c-0.1-0.2-0.2-0.6-0.2-1c0-0.8,0.7-3,2-6.5c1.3-3.6,2-5.6,1.9-6.1c0-0.4-0.3-0.8-0.7-1.2
						c-0.5-0.4-1-0.7-1.5-0.9c-0.7-0.2-1-0.7-1-1.5c0-0.8,0.3-1.4,0.9-1.8C54.6,20.3,55.4,20.2,56.7,20.4z"/>
				</defs>
				<clipPath id="SVGID_8_">
					<use xlink:href="#SVGID_7_"  overflow="visible"/>
				</clipPath>
				<g clip-path="url(#SVGID_8_)">
					
						<rect x="49.9" y="-3.5" transform="matrix(-0.9914 0.131 -0.131 -0.9914 130.7973 14.3792)" fill="none" width="30" height="30"/>
					
						<rect x="49.9" y="-3.5" transform="matrix(0.9914 -0.131 0.131 0.9914 -0.9462 8.6073)" fill="#EF4A34" width="30" height="30"/>
				</g>
				<g clip-path="url(#SVGID_8_)">
					
						<rect x="53.9" y="26.2" transform="matrix(-0.9914 0.131 -0.131 -0.9914 142.5237 73.0902)" fill="none" width="30" height="30"/>
					
						<rect x="53.9" y="26.2" transform="matrix(0.9914 -0.131 0.131 0.9914 -4.8098 9.379)" fill="#EF4A34" width="30" height="30"/>
				</g>
				<g clip-path="url(#SVGID_8_)">
					
						<rect x="24.1" y="30.2" transform="matrix(-0.9914 0.131 -0.131 -0.9914 83.8127 84.8163)" fill="none" width="30" height="30"/>
					
						<rect x="24.1" y="30.2" transform="matrix(0.9914 -0.131 0.131 0.9914 -5.5815 5.5154)" fill="#EF4A34" width="30" height="30"/>
				</g>
			</g>
		</g>
		<g>
			<g>
				<defs>
					<path id="SVGID_9_" d="M81.6,26c1,0.1,2.1,0.6,3.3,1.4c1.4,1,2.5,2.7,3.3,5.1c0.3,1,0.5,1.6,0.5,2c0,0.4-0.1,1.2-0.3,2.3
						c-0.2,1-0.4,1.7-0.5,2.2c-0.2,0.4-0.5,1-0.9,1.7c-0.6,0.9-1.4,1.7-2.3,2.4c-0.9,0.7-1.8,1.1-2.6,1.3c-1.8,0.3-3.3,0.4-4.5,0.2
						c-1.2-0.2-2.3-0.6-3.3-1.3c-2-1.4-2.9-3.6-2.7-6.6c0.1-1.1,0.2-2,0.5-2.7c0.3-0.7,0.8-1.5,1.4-2.3c0.4-0.5,1-1,1.8-1.5
						c0.8-0.5,1.5-0.9,1.9-0.9c0.3-0.1,0.6-0.2,0.6-0.3c0.1-0.1,0.1-0.4,0.2-0.8c0-0.9,0.3-1.5,0.9-1.8C79.3,26,80.2,25.9,81.6,26z
						 M82.4,34.6c0.1-0.8,0.1-1.4,0-1.8c-0.1-0.4-0.2-0.7-0.4-0.8c-0.2-0.1-0.4-0.2-0.7-0.3c-0.3-0.1-0.6-0.1-0.9,0
						c-0.3,0.1-0.6,0.2-1,0.5c-0.9,0.6-1.6,1.3-2.1,2.1c-0.5,0.8-0.8,1.6-0.9,2.3c-0.1,0.7,0,1.3,0.1,1.9c0.2,0.6,0.4,0.9,0.7,1.1
						c0.3,0.2,0.8,0.2,1.4,0c0.6-0.2,1.1-0.5,1.4-0.8c1.1-1.2,1.8-2.1,2-2.5C82.1,36,82.3,35.4,82.4,34.6z"/>
				</defs>
				<clipPath id="SVGID_10_">
					<use xlink:href="#SVGID_9_"  overflow="visible"/>
				</clipPath>
				<g clip-path="url(#SVGID_10_)">
					
						<rect x="83.6" y="22.3" transform="matrix(-0.9914 0.131 -0.131 -0.9914 201.2344 61.3639)" fill="none" width="30" height="30"/>
					
						<rect x="83.6" y="22.3" transform="matrix(0.9914 -0.131 0.131 0.9914 -4.0381 13.2425)" fill="#EF4A34" width="30" height="30"/>
				</g>
				<g clip-path="url(#SVGID_10_)">
					
						<rect x="53.9" y="26.2" transform="matrix(-0.9914 0.131 -0.131 -0.9914 142.5237 73.0902)" fill="none" width="30" height="30"/>
					
						<rect x="53.9" y="26.2" transform="matrix(0.9914 -0.131 0.131 0.9914 -4.8098 9.379)" fill="#EF4A34" width="30" height="30"/>
				</g>
				<g clip-path="url(#SVGID_10_)">
					
						<rect x="53.9" y="26.2" transform="matrix(-0.9914 0.131 -0.131 -0.9914 142.5237 73.0902)" fill="none" width="30" height="30"/>
					
						<rect x="53.9" y="26.2" transform="matrix(0.9914 -0.131 0.131 0.9914 -4.8098 9.379)" fill="#EF4A34" width="30" height="30"/>
				</g>
			</g>
		</g>
		<g>
			<path d="M114.9,35.7c0.3-0.8,0.6-1.4,0.9-1.9c0.3-0.5,0.6-0.9,0.8-1.1c0.2-0.2,0.4-0.4,0.6-0.5c0.2-0.1,0.3-0.1,0.5-0.1
				c0.4,0,0.8,0.3,1.4,0.9c0.6,0.6,1,1.2,1.3,1.9c0.3,0.5,0.4,1.1,0.4,1.8c0,0.7-0.1,1.3-0.3,1.8c-0.2,0.6-0.4,1.4-0.7,2.5
				c-0.3,1.1-0.6,2.1-0.8,2.9c-0.4,2.1-1.1,3.7-1.9,4.9c-0.8,1.2-1.9,2.2-3.3,3c-2.3,1.2-4.4,1.6-6.5,1.1c-0.8-0.2-1.5-0.5-1.9-0.8
				c-0.5-0.4-0.9-1-1.4-1.8c-0.4-0.7-0.6-1.3-0.5-2c0-0.6,0.3-1.4,0.7-2.4c0.4-0.8,0.9-1.5,1.5-2c0.6-0.5,1.1-0.7,1.7-0.6
				c0.5,0.1,0.9,0.3,1.1,0.6c0.2,0.3,0.3,0.9,0.3,1.7c0,0.8,0.1,1.3,0.4,1.4c0.3,0.1,0.8-0.2,1.7-0.8c0.4-0.3,0.8-0.6,1.2-0.9
				c0.1-0.8,0.3-1.6,0.4-2.3c0.1-0.8,0.3-1.4,0.4-1.8c0.1-0.4,0.2-0.7,0.3-0.7c0.1-0.1,0.1-0.2,0.2-0.3c0.1-0.1,0.1-0.3,0.1-0.5
				c0-0.4,0.2-0.9,0.5-1.6C114.2,37.3,114.5,36.5,114.9,35.7z"/>
		</g>
		<g>
			<path d="M129.6,32.2c1-0.1,2.2,0.2,3.4,0.9c1.5,0.7,2.8,2.3,4,4.6c0.4,0.9,0.7,1.5,0.8,1.9c0.1,0.4,0.1,1.2,0.1,2.3
				c0,1-0.1,1.8-0.2,2.2c-0.1,0.5-0.3,1.1-0.7,1.8c-0.5,1-1.1,1.9-1.9,2.7c-0.8,0.8-1.6,1.4-2.4,1.6c-1.7,0.6-3.2,0.9-4.4,0.9
				c-1.2,0-2.4-0.2-3.5-0.7c-2.2-1.1-3.4-3.1-3.7-6.1c-0.1-1.1-0.1-2,0.1-2.8c0.2-0.8,0.5-1.6,1-2.5c0.3-0.5,0.8-1.1,1.6-1.8
				c0.7-0.7,1.3-1.1,1.8-1.2c0.3-0.1,0.5-0.2,0.6-0.4c0.1-0.1,0.1-0.4,0-0.8c-0.1-0.9,0.1-1.5,0.6-2
				C127.3,32.5,128.3,32.2,129.6,32.2z M131.7,40.6c0-0.8-0.1-1.4-0.3-1.8c-0.1-0.4-0.3-0.6-0.5-0.7c-0.2-0.1-0.4-0.1-0.8-0.1
				c-0.3,0-0.6,0-0.9,0.1c-0.3,0.1-0.6,0.3-0.9,0.7c-0.8,0.7-1.4,1.5-1.8,2.4c-0.4,0.9-0.6,1.7-0.5,2.4c0,0.7,0.2,1.3,0.4,1.9
				c0.2,0.5,0.5,0.9,0.9,1c0.3,0.1,0.8,0.1,1.3-0.2c0.6-0.3,1-0.6,1.3-1c0.9-1.4,1.4-2.3,1.6-2.7C131.6,42,131.7,41.4,131.7,40.6z"
				/>
		</g>
		<g>
			<path d="M147.9,32.6c0.3-0.3,0.6-0.5,0.9-0.6c0.3-0.1,0.5-0.1,0.7,0c0.2,0.1,0.4,0.2,0.6,0.3c0.2,0.1,0.5,0.2,0.7,0.2
				c0.3,0,0.8,0.5,1.6,1.5c0.8,1,1.4,1.9,1.9,2.9c0.1,0.2,0.3,1,0.7,2.4c0.4,1.4,0.7,2.4,1,3c0.2,0.4,0.4,0.7,0.4,1
				c0,0.2,0.1,0.4,0,0.6c0,0.1,0.1,0.5,0.2,1.1c0.2,0.6,0.5,1.5,0.9,2.5c0.6,1.4,0.9,2.3,1,2.7c0.1,0.4,0.1,0.7-0.1,0.8
				c-0.3,0.3-0.4,0.7-0.4,1.2c0,0.5-0.1,0.8-0.3,1c-0.5,0.4-1.4,0.3-2.7-0.4c-1.3-0.7-2.1-1.5-2.4-2.4c-0.2-0.6-0.4-1-0.5-1
				c-0.1-0.1-1-0.1-2.8-0.2c-1.7,0-2.7,0-2.8,0.3c-0.1,0.2-0.3,0.8-0.8,1.6c-0.5,1-1.1,1.5-1.7,1.6c-0.6,0.1-1.4-0.2-2.5-0.9
				c-0.9-0.5-1.4-1-1.5-1.3c-0.1-0.3,0-0.9,0.3-1.8c0.1-0.5,0.2-0.8,0.1-1.1c0-0.2-0.2-0.7-0.6-1.4c-0.5-0.9-0.9-1.6-1.1-1.8
				c-0.2-0.3-0.1-0.6,0.3-0.9c0.4-0.3,1-0.4,1.7-0.4c0.5,0,0.9,0,1.1-0.2c0.2-0.1,0.4-0.5,0.8-1.2c0.3-0.5,0.5-0.9,0.7-1.3
				c0.2-0.4,0.3-0.6,0.3-0.8c0-0.1,0.1-0.3,0.2-0.5c0.1-0.2,0.3-0.4,0.5-0.7c0.4-0.5,0.6-0.9,0.6-1.1c0-0.1,0-0.2,0.1-0.3
				c0-0.1,0.1-0.1,0.2-0.2c0.1-0.1,0.2-0.2,0.4-0.5c0.2-0.2,0.4-0.6,0.6-1c0.5-0.9,0.8-1.5,1-1.9C147.2,33.4,147.5,33,147.9,32.6z
				 M149.9,42.2c-0.2-0.5-0.4-0.8-0.6-0.8c-0.2,0-0.4,0.3-0.6,0.8c-0.2,0.5-0.3,0.8-0.2,1.1c0.1,0.3,0.4,0.4,0.8,0.4
				c0.4,0,0.7-0.1,0.8-0.4C150.2,43,150.2,42.6,149.9,42.2z"/>
		</g>
		<g>
			<path d="M166.2,32c1-0.2,2.2,0,3.5,0.5c1.6,0.6,3.1,1.9,4.5,4.1c0.5,0.8,0.9,1.5,1,1.8c0.1,0.4,0.3,1.1,0.4,2.3
				c0.1,1,0.1,1.8,0.1,2.2c0,0.5-0.2,1.1-0.5,1.9c-0.4,1-0.9,2-1.6,2.9c-0.7,0.9-1.4,1.6-2.2,1.9c-1.6,0.8-3.1,1.2-4.3,1.4
				c-1.2,0.2-2.4,0-3.5-0.3c-2.3-0.8-3.7-2.7-4.3-5.6c-0.2-1.1-0.3-2-0.2-2.8c0.1-0.8,0.3-1.7,0.7-2.6c0.2-0.6,0.7-1.2,1.3-2
				c0.6-0.7,1.2-1.2,1.6-1.4c0.3-0.2,0.5-0.3,0.5-0.4c0.1-0.1,0-0.4-0.1-0.8c-0.2-0.9-0.1-1.5,0.4-2C164,32.6,164.9,32.2,166.2,32z
				 M169.2,40.1c-0.1-0.8-0.3-1.4-0.5-1.8c-0.2-0.4-0.4-0.6-0.5-0.6c-0.2-0.1-0.4-0.1-0.8-0.1c-0.3,0-0.6,0.1-0.9,0.2
				c-0.2,0.1-0.5,0.4-0.8,0.8c-0.7,0.8-1.2,1.7-1.5,2.6c-0.3,0.9-0.4,1.7-0.3,2.4c0.1,0.7,0.3,1.3,0.6,1.8c0.3,0.5,0.6,0.8,1,0.9
				c0.3,0.1,0.8,0,1.3-0.4c0.5-0.3,0.9-0.7,1.1-1.2c0.7-1.5,1.1-2.4,1.3-2.9C169.3,41.5,169.3,40.9,169.2,40.1z"/>
		</g>
		<g>
			<path d="M196.9,28c0.6-0.5,1.2-0.7,1.8-0.5c0.6,0.2,1.2,0.7,1.9,1.3c0.6,0.7,1.2,1.4,1.7,2.1c0.5,0.7,0.9,1.4,1.3,2
				c0.4,0.6,0.7,0.8,0.8,0.8c0.2,0,0.3-0.4,0.5-1.2c0.2-0.7,0.3-1.5,0.5-2.4c0.2-0.9,0.5-1.7,1-2.5c0.5-0.8,1.1-1.3,1.9-1.4
				c0,0,0,0,0.1,0c0.4-0.1,0.7,0,0.8,0.1c0.2,0.2,0.6,0.8,1.2,1.9c0.1,0.1,0.1,0.2,0.1,0.2c0.4,0.6,0.7,1.1,0.9,1.4
				c0.2,0.3,0.3,0.4,0.4,0.5c0.1,0,0.3,0.4,0.6,1c0.4,0.6,0.9,1.5,1.6,2.8c0.3,0.5,0.5,0.9,0.7,1.2c0.2,0.3,0.4,0.5,0.5,0.6
				c0.1,0.1,0.2,0.1,0.2,0.2c0,0.1,0.1,0.1,0.1,0.2c0,0.2,0.6,1,1.8,2.4c1,1.2,1.6,2.1,1.8,2.6c0.2,0.5,0.2,1-0.2,1.4
				c-0.3,0.3-0.7,0.5-1.3,0.7c-0.6,0.1-1.1,0.2-1.6,0.1c-0.5-0.1-1.5-0.8-2.9-2c-1.4-1.2-2.2-2-2.3-2.4c-0.1-0.3-0.2-0.5-0.4-0.5
				c-0.3-0.1-0.5,0.1-0.7,0.5c-0.2,0.4-0.4,1-0.6,1.7c-0.2,0.7-0.4,1.4-0.7,2.2c-0.3,0.7-0.6,1.4-1,2c-0.4,0.6-1,0.9-1.5,1
				c-0.7,0.1-1.5-0.1-2.3-0.8c-0.8-0.7-1.4-1.5-1.8-2.5c-0.2-0.6-0.4-1-0.7-1.4c-0.3-0.4-0.6-0.5-0.8-0.5c-0.1,0-0.2,0.2-0.3,0.5
				c-0.1,0.3-0.3,0.8-0.5,1.3c-0.2,0.6-0.4,1.1-0.7,1.5c-0.4,0.6-0.6,1.1-0.7,1.5c-0.1,0.4-0.4,0.9-0.9,1.5c-0.5,0.6-1,0.9-1.5,1.1
				c-0.5,0.2-1.1,0.2-1.6,0.1c-0.5-0.1-0.9-0.3-1.1-0.6c-0.2-0.3-0.2-0.7-0.1-1.2c0.1-0.5,0.3-1.1,0.6-1.9c0.3-0.7,0.4-1.3,0.5-1.7
				c0-0.2,0.1-0.4,0.2-0.5c0.1-0.1,0.1-0.3,0.2-0.5c0.1-0.2,0.2-0.7,0.4-1.5c0.2-0.8,0.4-1.8,0.6-3.1c0.4-1.9,0.6-3.4,0.7-4.3
				c0.1-0.9,0.2-2.1,0.2-3.5C196.4,28.7,196.6,28.3,196.9,28z"/>
		</g>
		<g>
			<path d="M219.9,26.9c0.2-0.5,0.5-0.8,0.8-0.8c0.3,0,0.8,0.2,1.3,0.6c0.6,0.5,1.1,1.1,1.4,1.6c0.3,0.5,0.6,1.2,0.8,1.9
				c0.3,1.3,0.5,2.9,0.6,4.6c0.1,1.7,0.2,3.3,0.4,4.6c0.2,1.5,0.3,2.4,0.3,2.7c0,0.4-0.2,0.6-0.4,0.8c-0.4,0.3-1,0.4-1.9,0.4
				c-0.9,0-1.6-0.1-2.1-0.3c-0.3-0.2-0.5-0.4-0.6-0.6c-0.1-0.2-0.3-0.8-0.4-1.5c-0.1-0.6-0.2-1.1-0.3-1.4c0-0.3,0-0.6,0-0.8
				c0-0.2,0-0.5,0-1.1c0-0.6-0.1-1.3-0.2-2.2c-0.1-1.4-0.2-2.4-0.1-2.9c0.1-0.5,0.1-1,0-1.4C219.2,29.3,219.4,27.9,219.9,26.9z"/>
		</g>
		<g>
			<path d="M225.8,28.8c0.2-0.8,0.5-1.5,0.7-2.2c0.3-0.7,0.5-1.3,0.8-1.8c0.3-0.5,0.6-0.9,0.8-1.3c0.3-0.4,0.6-0.7,0.9-1
				c0.4-0.3,0.6-0.5,0.9-0.7c0.2-0.2,0.5-0.3,0.9-0.5c0.4-0.1,0.6-0.2,0.8-0.3c0.1-0.1,0.6-0.2,1.2-0.3c1.5-0.4,2.6-0.6,3.2-0.6
				c0.6,0.1,1.2,0.4,1.7,1c0.4,0.4,0.6,0.7,0.6,0.8c0,0.2,0,0.4-0.1,0.7c-0.2,0.4-0.4,0.8-0.8,1.2c-0.4,0.4-0.9,0.6-1.4,0.8
				c-0.6,0.2-1.3,0.6-2.2,1.3c-0.6,0.5-1,0.9-1.2,1.2c-0.2,0.3-0.3,0.8-0.5,1.6c-0.3,1.4-0.3,2.7,0,3.9c0.3,1.2,1,2.1,1.9,2.8
				c1.5,1.1,2.8,1,3.7-0.2c0.4-0.5,0.6-1,0.6-1.3c0-0.3-0.2-0.5-0.6-0.6c-0.5,0-1.2-0.3-2.2-1c-0.9-0.6-1.2-1.1-0.8-1.5
				c0.1-0.1,1.4-0.6,3.8-1.3c1.2-0.5,2.2-0.8,2.8-0.9c0.7-0.1,1.1-0.2,1.3-0.1c0.2,0.1,0.5,0.3,0.7,0.6c0.2,0.2,0.3,0.5,0.3,1
				c0,0.4,0,1,0,1.7c0,0.7,0,1.3,0.1,1.9c0.1,0.9,0.1,1.5,0,2.1c-0.1,0.5-0.4,1.2-1,2c-0.6,0.9-1.1,1.5-1.4,1.8
				c-0.4,0.3-1.1,0.7-2.1,1.2c-1.4,0.7-2.7,1-3.9,1c-1.2,0-2.6-0.4-4.2-1.1c-1.4-0.6-2.4-1.3-3-1.9c-0.6-0.7-1.3-1.7-1.9-3.1
				C225.4,33.3,225.2,31,225.8,28.8z"/>
		</g>
		<g>
			<path d="M243.1,21.8c-0.2-0.8-0.3-1.6-0.2-2.3c0.1-0.7,0.2-1.3,0.4-1.7c0.2-0.4,0.5-0.7,0.7-1c0.2-0.2,0.4-0.4,0.6-0.4
				c0.3-0.1,1,0.1,1.8,0.5c0.9,0.4,1.4,0.9,1.7,1.3c0.6,1,1.1,2.6,1.5,4.8c0.5,2.3,0.8,3.6,1,4c0.3,0.5,0.7,1,1.3,1.5
				c0.6,0.5,1,0.7,1.2,0.6c0.7-0.2,1.2-1,1.5-2.3c0.3-1.3,0.2-2.7-0.1-4.2c-0.2-0.9-0.4-1.7-0.4-2.3c0-0.7-0.1-1.3-0.3-1.9
				c-0.3-0.9-0.4-1.8-0.3-2.7c0.1-1,0.3-1.6,0.4-2c0.2-0.3,0.5-0.6,1-0.8c0.5-0.2,0.8-0.2,1.2-0.1c0.3,0.1,0.9,0.5,1.8,1.2
				c0.4,0.4,0.9,0.9,1.5,1.8c0.6,0.8,0.9,1.5,1.2,2.1c0.1,0.4,0.3,0.9,0.5,1.7c0.2,0.8,0.4,1.8,0.7,3.2c0.3,1.4,0.5,2.4,0.6,3
				c0.1,0.6-0.1,1.6-0.7,3c-0.6,1.3-1.2,2.4-2,3.1c-1,0.9-2.5,1.9-4.6,2.7c-2.1,0.8-3.6,1.2-4.6,1c-0.2,0-0.5-0.1-0.8-0.1
				c-0.3,0-0.5-0.1-0.7-0.1c-0.1,0-0.3-0.1-0.5-0.1c-0.2-0.1-0.4-0.2-0.6-0.3c-0.2-0.1-0.4-0.3-0.6-0.5c-0.2-0.2-0.5-0.5-0.8-0.8
				c-0.7-0.9-1.4-2.2-2-4c-0.7-1.8-1-3.2-1.1-4.4C243.5,24.1,243.3,22.9,243.1,21.8z"/>
		</g>
		<g>
			<path d="M268.8,12c-0.2,0.1-0.3,0.2-0.4,0.4c-0.1,0.2-0.3,0.4-0.7,0.5c-0.4,0.1-0.6,0.4-0.8,0.7c-0.2,0.3-0.1,0.5,0.1,0.6
				c0.2,0.1,0.7,0,1.7-0.5c0.9-0.4,1.4-0.6,1.7-0.5c0.3,0.1,0.6,0.4,0.9,1.1c0.2,0.6,0.3,1.1,0.1,1.5c-0.2,0.4-0.6,0.9-1.2,1.5
				c-0.7,0.6-1.1,1-1.2,1.4c-0.1,0.3,0,0.9,0.4,1.8c0.3,0.8,0.6,1.3,0.9,1.5c0.3,0.1,0.6,0,0.9-0.5c1.8-2.6,2.8-3.9,3.1-4
				c0.2,0,0.3,0.1,0.4,0.3c0.2,0.4,0.4,0.6,0.7,0.7c0.2,0,0.4,0.2,0.5,0.5c0.2,0.3,0.4,0.8,0.6,1.5c0.2,0.6,0.5,1.3,0.7,1.9
				c-0.2,0.5-0.5,0.9-0.7,1.4c-0.2,0.4-0.5,0.8-0.7,1.2c-0.2,0.4-0.5,0.7-0.7,0.9c-0.2,0.3-0.4,0.5-0.6,0.7
				c-0.2,0.2-0.4,0.4-0.6,0.5c-0.1,0.1-0.3,0.2-0.5,0.3c-0.2,0.1-0.4,0.2-0.4,0.2c-0.1,0-0.2,0.1-0.4,0.1c-0.2,0.1-0.3,0.1-0.3,0.1
				c-1,0.3-2,0.5-3.1,0.5c-1.1,0-1.9-0.2-2.5-0.5c-0.4-0.2-0.9-0.8-1.6-1.7c-0.7-0.9-1.1-1.6-1.3-2.1c-0.2-0.5-0.5-1.8-0.9-4.1
				c-0.5-2.2-0.7-3.7-0.8-4.5c-0.1-1-0.1-1.7-0.1-2.3c0.1-0.6,0.2-1.1,0.5-1.7c0.2-0.4,0.5-0.7,0.7-0.9c0.3-0.2,0.9-0.5,2-0.9
				c1.4-0.6,2.2-1,2.5-1.3c0.3-0.3,0.8-0.6,1.5-0.9c0.7-0.3,1.2-0.4,1.5-0.4c0.3,0.1,0.6,0.3,0.9,0.9c0.4,0.6,0.5,1.1,0.4,1.4
				c-0.1,0.3-0.5,0.8-1.3,1.5C269.7,11.4,269.1,11.9,268.8,12z"/>
		</g>
		<g>
			<path d="M277.9,2.7c0.1-0.2,0.1-0.3,0.2-0.3c0.1,0,0.3,0,0.5,0.1c0.2,0.1,0.4,0.2,0.6,0.3c0.2,0.1,0.4,0.2,0.6,0.2
				c0.2,0.1,0.4,0.1,0.5,0c0.2-0.1,0.3,0,0.4,0.1c0.1,0.1,0.2,0.4,0.3,0.8c0.2,0.8,0.4,1.5,0.7,2.1c0.2,0.5,0.3,1.1,0.5,1.8
				c0.2,0.7,0.3,1.3,0.4,1.8c0.1,0.5,0.2,0.7,0.2,0.8c0.1,0.1,0.4,1,0.8,2.8c0.2,0.9,0.4,1.8,0.6,2.8c0.3,0.1,0.6,0.1,0.9,0.2
				c0.4,0.1,0.7,0.1,1.1,0c0.3-0.1,0.9-0.3,1.8-0.7c1.2-0.5,2.3-1,3.4-1.3c1.1-0.3,1.7-0.4,2-0.2c0.1,0,0.2,0.1,0.2,0.2
				c0.1,0.1,0.1,0.2,0.1,0.3c0,0.1,0,0.3,0,0.4c0,0.1,0,0.4,0,0.7c0,0.3,0,0.6,0,0.8c0,0.6-0.2,1.3-0.7,1.9c-0.5,0.6-1.1,1-1.8,1.2
				c-0.7,0.2-2.3,0.9-4.8,2c-1,0.4-1.7,0.7-2.1,0.9c-0.4,0.1-0.8,0.3-1.2,0.5c-0.4,0.2-0.8,0.2-1.1,0.2c-0.3,0-0.6-0.1-0.8-0.1
				c-0.3-0.1-0.7-0.2-1.2-0.3c-0.8-0.2-1.2-0.5-1.4-0.8c-0.1-0.3,0-0.7,0.4-1.3c0.5-0.7,0.8-1.3,0.8-1.8c0-0.5-0.2-1.3-0.5-2.2
				c-0.4-1-0.6-1.8-0.7-2.6c-0.1-0.6-0.3-1.6-0.7-2.9c-0.4-1.4-0.7-2.3-0.9-2.6c-0.5-1-0.7-2.1-0.6-3.1c0.1-1.1,0.4-1.7,1-2
				C277.6,3.1,277.8,2.9,277.9,2.7z"/>
		</g>
		<g>
			<path d="M86,68.9c1.8,0,3.2,0.1,4.2,0.1c1,0,1.8,0.1,2.4,0.1c0.6,0.1,1,0.2,1.2,0.3c0.2,0.1,0.3,0.3,0.3,0.4
				c0.1,0.4,0.3,0.7,0.7,0.9c0.4,0.2,1.2,0.4,2.3,0.5c1.2,0.2,2,0.4,2.2,0.6c0.3,0.2,0.3,0.7,0.1,1.3c-0.2,0.6-0.5,1-0.9,1.2
				c-0.5,0.2-1.3,0.5-2.5,0.7c-1.3,0.2-3.4,0.4-6.4,0.4c-1.2,0-2,0.1-2.3,0.4c-0.3,0.3-0.6,1-0.8,2.1c-0.2,1.1-0.6,3.1-1.3,5.9
				c-0.7,2.8-1.1,4.3-1.1,4.5c-0.1,0.4-0.2,0.6-0.3,0.7c-0.1,0.1-0.4,0.1-0.7,0.1c-0.3,0-0.7,0.1-1,0.3c-0.3,0.1-0.5,0.2-0.6,0.2
				c-0.1,0-0.2,0-0.3-0.1c-0.1-0.1-0.2-0.2-0.5-0.4c-0.3-0.2-0.6-0.4-0.9-0.6c-0.4-0.2-0.7-0.5-0.8-1c-0.1-0.4-0.1-1,0-1.8
				c0.1-0.8,0.3-1.5,0.5-2.3c0.2-0.8,0.5-1.9,0.9-3.3c0.4-1.4,0.7-2.8,0.9-4c0.2-1.1,0.3-1.9,0.3-2.1c0-0.3-0.1-0.5-0.4-0.8
				c-0.3-0.3-0.7-0.5-1.2-0.7c-0.5-0.2-1-0.4-1.3-0.5c-0.4-0.1-0.7-0.4-1-0.7c-0.3-0.3-0.3-0.8-0.2-1.3c0.1-0.6,0.4-1,0.8-1.1
				c0.4-0.2,1.2-0.2,2.5-0.2C82.4,68.8,84.2,68.8,86,68.9z"/>
		</g>
		<g>
			<path d="M110.7,72.9c0.4-0.3,0.8-0.5,1.1-0.5c0.3,0,0.6,0,0.7,0.1c0.2,0.1,0.4,0.3,0.6,0.4c0.3,0.2,0.5,0.2,0.7,0.3
				c0.3,0.1,0.9,0.6,1.6,1.7c0.8,1.1,1.4,2.1,1.8,3.1c0.1,0.2,0.3,1,0.5,2.5c0.2,1.5,0.5,2.5,0.8,3.1c0.2,0.4,0.3,0.8,0.4,1
				c0,0.2,0,0.4,0,0.6c0,0.1,0,0.5,0.1,1.2c0.1,0.6,0.4,1.5,0.8,2.6c0.5,1.5,0.8,2.4,0.8,2.8c0.1,0.4,0,0.7-0.2,0.8
				c-0.3,0.3-0.5,0.6-0.6,1.1c0,0.5-0.2,0.8-0.5,0.9c-0.6,0.4-1.6,0.1-3-0.7c-1.4-0.9-2.2-1.7-2.4-2.7c-0.2-0.6-0.3-1-0.5-1.1
				c-0.1-0.1-1.1-0.2-3.1-0.5c-1.9-0.2-3-0.3-3.2-0.1c-0.1,0.2-0.5,0.7-1,1.5c-0.7,0.9-1.4,1.4-2,1.4c-0.6,0-1.6-0.4-2.7-1.2
				c-0.9-0.6-1.4-1.1-1.5-1.5c-0.1-0.3,0.1-0.9,0.5-1.8c0.2-0.5,0.3-0.8,0.3-1.1c0-0.2-0.2-0.7-0.5-1.4c-0.5-1-0.8-1.7-1-2
				c-0.2-0.3-0.1-0.6,0.4-0.8c0.5-0.2,1.2-0.3,1.9-0.2c0.6,0.1,1,0.1,1.2-0.1c0.2-0.1,0.5-0.5,1-1.1c0.4-0.5,0.7-0.9,0.9-1.2
				c0.2-0.3,0.4-0.6,0.4-0.7c0.1-0.1,0.2-0.3,0.3-0.5c0.1-0.2,0.4-0.4,0.6-0.6c0.5-0.5,0.8-0.8,0.8-1c0-0.1,0-0.2,0.1-0.3
				c0-0.1,0.1-0.1,0.2-0.2c0.1-0.1,0.2-0.2,0.5-0.4c0.2-0.2,0.5-0.5,0.7-0.9c0.6-0.8,1.1-1.4,1.4-1.8
				C109.9,73.5,110.2,73.2,110.7,72.9z M112,82.6c-0.2-0.6-0.4-0.8-0.6-0.9c-0.2,0-0.5,0.2-0.8,0.7c-0.3,0.4-0.4,0.8-0.3,1.1
				c0.1,0.3,0.4,0.4,0.9,0.5c0.4,0,0.8-0.1,0.9-0.3C112.2,83.5,112.2,83.1,112,82.6z"/>
		</g>
		<g>
			<path d="M134.8,85c0,0.1-0.5,1-1.5,2.6c-1,1.6-1.5,2.5-1.5,2.7c0,0.5-0.4,1.5-1.2,2.8c-0.2,0.3-0.3,0.5-0.5,0.6
				c-0.2,0.1-0.5,0.1-1,0.1c-0.7,0-1.2-0.1-1.6-0.4c-0.4-0.2-0.7-0.6-1-1.2c-0.5-0.8-1-2.2-1.5-4c-0.5-1.8-0.8-3-0.7-3.7
				c0-0.7-0.3-2.1-0.9-4c-0.6-1.9-0.9-3.2-0.9-3.8c0-0.3,0.3-0.9,1-1.6c0.6-0.7,1.2-1.2,1.6-1.3c0.3-0.1,0.8-0.2,1.4-0.2
				c0.7,0,1.4,0.5,2,1.4c0.6,0.9,0.9,2,1.1,3.3c0.1,1.5,0.4,2.1,0.9,2c0.2-0.1,0.5-0.3,0.7-0.8c0.4-0.6,1.2-1.5,2.6-2.8
				c1.1-1.1,2-1.8,2.7-2.1c0.6-0.3,1.4-0.3,2.2-0.1c0.5,0.1,0.9,0.3,1.1,0.4c0.3,0.2,0.4,0.4,0.4,0.6c0,0.3,0,0.5-0.1,0.8
				c-0.1,0.3-0.3,0.6-0.6,1.1c-0.3,0.4-0.6,0.9-0.9,1.3c-0.3,0.4-0.7,1-1.2,1.7c-0.5,0.7-0.9,1.4-1.3,2c-0.2,0.3-0.4,0.7-0.6,1
				c-0.2,0.3-0.3,0.5-0.4,0.7c-0.1,0.1-0.2,0.3-0.3,0.4c-0.1,0.1-0.1,0.2-0.2,0.3C134.8,84.9,134.8,85,134.8,85z"/>
		</g>
		<g>
			<path d="M151.4,74.6c0.4-0.3,0.7-0.5,1-0.6c0.3-0.1,0.6-0.1,0.7,0c0.2,0.1,0.4,0.2,0.7,0.3c0.3,0.1,0.5,0.2,0.7,0.2
				c0.3,0,0.9,0.5,1.8,1.5c0.9,1,1.6,1.9,2.1,2.9c0.1,0.2,0.4,1,0.8,2.4c0.4,1.4,0.8,2.4,1.1,3c0.3,0.4,0.4,0.7,0.5,1
				c0.1,0.2,0.1,0.4,0,0.6c0,0.1,0.1,0.5,0.3,1.1c0.2,0.6,0.5,1.5,1,2.5c0.7,1.4,1,2.3,1.1,2.7c0.1,0.4,0.1,0.7-0.1,0.8
				c-0.3,0.3-0.4,0.7-0.4,1.2c0,0.5-0.1,0.8-0.3,1c-0.6,0.4-1.6,0.3-3.1-0.4c-1.4-0.7-2.3-1.5-2.7-2.4c-0.2-0.6-0.4-1-0.6-1
				c-0.1-0.1-1.2-0.1-3.1-0.1c-2,0-3,0.1-3.2,0.3c-0.1,0.2-0.4,0.8-0.8,1.6c-0.6,1-1.2,1.6-1.9,1.7c-0.6,0.1-1.6-0.2-2.9-0.9
				c-1-0.5-1.5-1-1.7-1.3c-0.1-0.3,0-0.9,0.3-1.8c0.1-0.5,0.2-0.8,0.1-1.1c-0.1-0.2-0.3-0.7-0.7-1.4c-0.6-0.9-1-1.6-1.3-1.8
				c-0.3-0.3-0.1-0.6,0.4-0.9c0.5-0.3,1.1-0.4,1.9-0.4c0.6,0,1-0.1,1.2-0.2c0.2-0.1,0.5-0.5,0.8-1.2c0.3-0.5,0.6-0.9,0.7-1.3
				c0.2-0.4,0.3-0.6,0.4-0.8c0.1-0.1,0.1-0.3,0.3-0.5c0.1-0.2,0.3-0.4,0.6-0.7c0.4-0.5,0.7-0.9,0.7-1.1c0-0.1,0-0.2,0.1-0.3
				c0-0.1,0.1-0.1,0.2-0.2c0.1-0.1,0.2-0.2,0.4-0.5c0.2-0.2,0.4-0.6,0.6-1c0.5-0.9,0.9-1.6,1.2-1.9C150.7,75.3,151,75,151.4,74.6z
				 M153.9,84.1c-0.3-0.5-0.5-0.8-0.7-0.8c-0.2,0-0.5,0.3-0.7,0.8c-0.2,0.5-0.3,0.8-0.2,1.1c0.1,0.3,0.4,0.4,0.9,0.4
				c0.5,0,0.7-0.1,0.9-0.4C154.2,84.9,154.1,84.6,153.9,84.1z"/>
		</g>
		<g>
			<path d="M169.1,73c0.2-0.4,0.7-0.2,1.3,0.5c0.3,0.3,0.5,0.5,0.7,0.6c0.2,0.1,0.4,0.1,0.7,0c0.9-0.3,1.9-0.4,2.9-0.5
				c1-0.1,1.9-0.1,2.5-0.1c0.8,0.1,1.5,0.3,2.3,0.7c0.8,0.4,1.4,0.8,1.9,1.4c0.4,0.4,0.6,1.1,0.8,2.1c0.2,1,0.1,1.8-0.1,2.4
				c-0.2,0.5-0.8,1.2-1.8,2.2c-1,1-1.8,1.6-2.4,1.9c-0.7,0.3-1.1,0.6-1.3,0.9c-0.1,0.3-0.1,0.8,0.2,1.5c0.7,1.6,1.8,3,3.3,4.3
				c1.5,1.3,3.2,2.1,5,2.5c0.5,0.1,0.8,0.2,0.9,0.3c0.1,0.1,0.1,0.3,0.1,0.7c0,0.5-0.2,0.9-0.4,1.2c-0.2,0.3-0.7,0.6-1.3,0.8
				c-1.3,0.6-2.9,0.6-4.9,0.1c-0.8-0.2-2-0.8-3.6-2c-1.6-1.1-2.7-2.1-3.3-3c-0.7-0.9-1.1-1.3-1.3-1.4c-0.1,0-0.3,0.2-0.4,0.7
				c-0.1,0.5-0.2,1-0.2,1.6c0,0.5-0.2,1-0.4,1.3c-0.2,0.3-0.6,0.5-1,0.5c-0.5,0-1,0.4-1.4,1c-0.2,0.3-0.5,0.6-0.7,0.9
				c-0.9-0.4-1.8-0.8-2.7-1.3c0-0.5,0-1-0.1-1.4c0-0.6,0-1.2,0.1-1.8c0.1-0.6,0.2-1.1,0.3-1.6c0.1-0.5,0.3-1.3,0.6-2.4
				c0.3-1.1,0.5-2.2,0.7-3.3c0.1-0.4,0.3-1.1,0.5-2c0.3-0.9,0.4-1.6,0.5-2.3c0.1-0.6,0.1-1.2,0-1.7c-0.1-0.2-0.2-0.4-0.1-0.7
				c0.1-0.3,0.1-0.5,0.2-0.6c0.1-0.1,0.2-0.4,0.4-0.9c0.2-0.5,0.4-1.1,0.6-1.7C168.7,73.8,169,73.1,169.1,73z M176.2,78.4
				c-0.1-0.2-0.7-0.2-1.6-0.1c-1.9,0.1-2.8,1-2.5,2.5c0.1,0.7,0.3,1.1,0.5,1.1c0.4,0.1,1.2-0.4,2.3-1.5
				C175.9,79.3,176.4,78.6,176.2,78.4z"/>
		</g>
		<g>
			<path d="M195,74.9c-0.2,0-0.4,0.1-0.6,0.3c-0.2,0.2-0.5,0.3-0.9,0.4c-0.4,0.1-0.8,0.2-1.1,0.5c-0.3,0.2-0.3,0.5-0.1,0.6
				c0.2,0.2,0.8,0.1,2-0.1c1-0.2,1.7-0.3,2-0.1c0.3,0.1,0.5,0.6,0.6,1.3c0.1,0.6,0,1.1-0.3,1.5c-0.3,0.4-0.9,0.8-1.7,1.1
				c-0.9,0.4-1.5,0.7-1.7,1c-0.2,0.3-0.2,0.9-0.1,1.8c0.1,0.9,0.3,1.4,0.5,1.6c0.2,0.2,0.6,0.1,1.1-0.2c2.6-2.1,4.1-3.1,4.5-3.1
				c0.2,0,0.3,0.1,0.4,0.4c0.1,0.4,0.2,0.7,0.5,0.8c0.2,0.1,0.3,0.3,0.4,0.6c0.1,0.3,0.2,0.9,0.2,1.6c0.1,0.7,0.1,1.4,0.2,2
				c-0.4,0.4-0.8,0.8-1.2,1.2c-0.4,0.4-0.8,0.7-1.1,1c-0.4,0.3-0.7,0.5-1,0.8c-0.3,0.2-0.6,0.4-0.9,0.5c-0.3,0.1-0.5,0.3-0.7,0.3
				c-0.2,0.1-0.4,0.1-0.7,0.2c-0.3,0.1-0.4,0.1-0.5,0.1c-0.1,0-0.2,0-0.4,0c-0.2,0-0.3,0-0.3,0c-1.1,0.1-2.3,0-3.5-0.3
				c-1.2-0.3-2-0.6-2.5-1.1c-0.3-0.3-0.8-1-1.3-2c-0.5-1.1-0.7-1.9-0.8-2.4c0-0.5,0-1.9,0.2-4.2c0.2-2.3,0.3-3.8,0.4-4.6
				c0.2-1,0.4-1.7,0.6-2.2c0.2-0.5,0.6-1,1.1-1.6c0.4-0.4,0.7-0.6,1.1-0.7c0.3-0.1,1.2-0.2,2.5-0.4c1.6-0.2,2.6-0.5,3-0.7
				c0.4-0.2,1-0.4,1.9-0.5c0.8-0.1,1.4-0.1,1.7,0c0.3,0.1,0.5,0.5,0.7,1.1c0.2,0.7,0.2,1.2,0,1.5c-0.2,0.3-0.8,0.7-1.8,1.1
				C196,74.6,195.3,74.8,195,74.9z"/>
		</g>
		<g>
			<path d="M208.8,67.7c0.3-0.2,1-0.3,2-0.4c1.4-0.2,2.4,0.1,3.2,0.8c0.7,0.7,1,1.7,0.8,2.9c-0.1,0.7-0.4,1.4-0.9,2.1
				c-0.4,0.7-0.9,1.1-1.2,1.1c-0.4,0.1-0.8-0.1-1.1-0.4c-0.3-0.4-0.5-0.8-0.5-1.2c0.1-0.5-0.1-0.7-0.3-0.7c-0.2,0-0.4,0.2-0.6,0.5
				c-0.1,0.3-0.3,0.8-0.4,1.6c-0.1,0.5-0.1,0.9,0,1.1c0.1,0.2,0.2,0.4,0.5,0.7c0.3,0.3,0.7,0.4,1.2,0.5c0.5,0.1,0.9,0.1,1.4,0.1
				c0.4,0,0.9,0.1,1.3,0.2c0.5,0.1,0.9,0.5,1.4,1c0.4,0.6,0.9,1.3,1.2,2.4c0.4,1.1,0.6,2,0.5,2.7c-0.1,0.7-0.4,1.6-1.1,2.7
				c-0.7,1.1-2.1,2-4.1,2.7c-2,0.6-4.1,0.8-6.1,0.5c-2-0.3-3.2-0.8-3.6-1.5c-0.4-0.7,0-1.4,1.3-2.2c0.7-0.5,1.3-0.7,1.7-0.7
				c0.4,0,1.1,0.2,2,0.7c0.9,0.5,1.7,0.7,2.2,0.6c0.5,0,0.9-0.3,1.3-0.8c0.3-0.5,0.5-0.9,0.6-1.3c0-0.4,0-0.9-0.3-1.5
				c-0.2-0.5-0.4-0.8-0.6-0.9c-0.2-0.1-0.8-0.3-1.7-0.5c-1.9-0.5-3.4-1.2-4.3-2.1c-0.9-0.9-1.3-2-1.1-3.3c0.1-0.7,0.3-1.5,0.6-2.3
				c0.3-0.9,0.6-1.6,1-2.2c0.2-0.4,0.7-0.9,1.5-1.5C207.6,68.3,208.3,67.9,208.8,67.7z"/>
		</g>
	</g>
	<g>
		<path d="M144.8,26.8c0-0.4,0.1-0.7,0.2-0.9c0.1-0.2,0.2-0.4,0.3-0.6s0.4-0.3,0.8-0.3c0.3,0,0.8-0.1,1.3-0.1c0.5,0,1.2,0,2.1,0.1
			c3.8,0.4,5.9,0.9,6.3,1.4c0.3,0.4,0,1-1,1.9l-1.1,1l-1.8-0.1c-4.3-0.3-6.7-0.6-7-1C144.7,28.1,144.7,27.6,144.8,26.8z"/>
	</g>
</g>
</svg>
