<?xml version="1.0" encoding="utf-8"?>
<!-- Generator: Adobe Illustrator 18.1.1, SVG Export Plug-In . SVG Version: 6.00 Build 0)  -->
<svg version="1.1" id="Camada_1" xmlns="http://www.w3.org/2000/svg" xmlns:xlink="http://www.w3.org/1999/xlink" x="0px" y="0px"
	 viewBox="0 0 428 280" enable-background="new 0 0 428 280" xml:space="preserve">
<g>
	<path fill="#ED4A34" d="M132.6,220.2c4.9-8.2,9.3-16.2,14.2-23.8c2.8-4.3,6.5-7.8,12.6-7.3c5.9,0.5,9.2,3.2,9.4,9.1
		c0.2,7.4,0.2,14.7,0.2,22.1c0,16.5,0,33.1,0,50.3c-1.5,0.2-3.9,0.7-6.2,0.6c-5.1-0.2-7.5-2.3-7.3-8c0.6-18.8,0.6-37.7,0.8-56.5
		c0-1.1-0.3-2.2-0.6-4.7c-7.2,11.3-13.2,21.6-15.6,33.6c-1.8,8.6-4,17.1-5.4,25.8c-0.6,3.5-1.2,6.3-5.2,5.5c-3.8-0.7-8.3-1-8.6-6.6
		c-0.6-11.4-1.3-22.9-2.1-34.3c-0.3-4.8-1-9.6-2.9-14.7c-1.3,4.3-2.8,8.5-3.8,12.8c-3.5,14.3-6.8,28.6-10.1,43
		c-0.8,3.6-2.8,5.1-6.3,5.4c-4.4,0.4-6.9-0.7-5.6-5.8c6.4-24.5,12.6-49,19.1-73.5c1.4-5.5,5.6-7,10.9-6.8c5.1,0.2,7.3,3.5,8.1,7.7
		C129.9,202.8,131.1,211.4,132.6,220.2z"/>
	<path fill="#ED4A34" d="M16.5,128.5c5.5-1,10.5-2.3,15.5-2.7c3.9-0.4,4.6-2,4.5-5.5c-0.5-9.2-0.7-18.4-0.8-27.6
		c0-2.7-0.6-6.2,3.8-6.2c3.9,0,6.6,1.6,7.1,5.9c1.7,13.8,3.7,27.6,5.1,41.5c1,9.5,1.2,19.2,1.7,28.8c0.1,2.2,0,4.5-0.3,6.7
		c-0.5,3.9-6.7,9.5-9.3,7.8c-2.4-1.5-4.6-5.2-4.9-8.1c-0.9-10-0.9-20-1.3-30.1c-0.1-1.8-0.3-3.6-0.5-5.2c-0.6-0.2-0.9-0.3-1-0.2
		c-5.6,1.1-12.8,0.6-16.3,4c-2.6,2.5-0.6,10-0.5,15.3c0.1,6.1,0.3,12.3,0.7,18.4c0.4,6.4-3.6,7.1-8.6,7.4c-5.3,0.3-8.1-1.3-8.3-7
		c-0.9-25.4-1.9-50.7-2.8-76.1c-0.1-2.9-0.6-6.7,4.4-6.2c4.1,0.4,7.5,1.3,7.9,6.6c0.7,9.6,1.8,19.1,2.8,28.7
		C15.5,125.6,16,126.8,16.5,128.5z"/>
	<path fill="#ED4A34" d="M221.2,127.4c12.4,4.8,18.4,14.7,24.7,24c4.9,7.2,3.8,9.7-3.5,14.3c-1.5,1-3.1,1.9-5.1,3
		c-4.2-7.3-8.2-14.6-12.7-21.6c-1.9-3.1-4.8-5.6-7.3-8.2c-3.3-3.5-6.9-2.3-10.7-1c-4.2,1.4-3.2,4.7-3.2,7.6
		c-0.1,5.1,0.2,10.2,0.2,15.4c0,4.3-5.4,8.8-8.5,6.7c-1.7-1.1-3.2-4-3.2-6.2c-0.2-8.8-0.7-17.7,0.7-26.3
		c2.4-15.4,1.5-31.5,10.3-45.6C210,78,230,75.6,238.8,86c1.7,2,2.2,6.2,1.4,8.9C236.8,107,230.7,117.7,221.2,127.4z M206.5,122.3
		c7.8-7.7,13.3-16.8,16.8-27c0.8-2.2-0.9-5.3-1.4-8c-2.5,1.2-5.7,1.7-7.3,3.7C207,99.8,206.3,110.9,206.5,122.3z"/>
	<path fill="#ED4A34" d="M306.9,279.7c-11.2,0.2-15.2-4.8-13.9-15.6c2.2-19.1,4-38.3,5.5-57.4c0.4-5.6,2.1-7.1,7.6-5.8
		c5.1,1.2,10.4,2,15.7,2.2c14.7,0.6,23.2,16.2,22.2,29.5c-0.6,7.9-2.2,15.8-4.2,23.5C336.5,268.1,320.3,279.4,306.9,279.7z
		 M309,207.9c0,20.7,0,40.9,0,62.1c7.1-3.7,10.6-9.2,13.3-15.1c5.9-12.6,9.2-25.5,0.4-38.3C319.6,212.1,315.9,207.9,309,207.9z"/>
	<path fill="#ED4A34" d="M118.5,132.3c1.8,13.1-1.7,24.9-11,34.1c-2.7,2.7-7.9,3.1-12.1,4.3c-1.1,0.3-2.4-0.2-3.6-0.1
		c-15.5,1-22.2-3.1-26.7-18.3c-4.5-15-3.9-30,4.9-43.6c1.7-2.6,5-5.1,7.9-5.7c6.3-1.2,13-1.9,19.4-1.3c14.1,1.4,21.7,10.8,21.3,25
		C118.4,128.6,118.5,130.5,118.5,132.3z M76.3,133c1.5,13.3,3.8,20.5,9,26.1c3,3.3,6.2,3.7,8.6,0c3.9-5.9,7.9-12,10.5-18.5
		c4.9-12.6-5.2-25.9-13.2-29.9c-4.3-2.1-7.7-1.5-9.3,3.2C79.7,120.1,78.1,126.6,76.3,133z"/>
	<path fill="#ED4A34" d="M412.9,233.6c-2.1,7.1-3.5,14.6-6.5,21.3c-5.2,11.6-22.2,14.6-31.3,13c-19.6-3.6-28.4-15.7-25.9-35.6
		c0.6-4.5,1.2-9,2.4-13.3c3.7-13.4,12.7-18.6,28.4-16.3c2.4,0.4,4.8,0.8,7.3,1.2C402.9,206.4,411.9,217.3,412.9,233.6z M363.6,238.2
		c-0.2,11.5,2.7,18.1,7.6,19.9c6.1,2.2,11.4,0,15.8-4.1c9.5-8.8,10.2-26.5,1.7-36.4c-3.8-4.4-8.1-6.9-14.3-5.1
		c-5.5,1.6-7.1,5.8-8.1,10.5C365.1,229.1,364.2,235.1,363.6,238.2z"/>
	<path fill="#ED4A34" d="M156.7,126c7.5,7.7,14.8,15,21.9,22.5c3.1,3.2,5.8,6.8,1.3,11c-2.5,2.3-10.1,1.6-12.7-1.5
		c-3-3.6-5.2-7.9-8.4-11.3c-3.4-3.8-7.1-7.5-11.3-10.2c-5.9-3.8-9.4-1.5-9.4,5.5c0,5.9-0.1,11.9-0.2,17.8c-0.1,4.4-2.5,7.3-6.7,8.4
		c-3.3,0.9-5.9,0-5.6-4.1c1.3-18.4,1.6-36.9,4.4-55.1c2.8-18.5,17.7-28.1,34.6-24.9c7.8,1.4,10.2,5.2,9.3,13
		c-1.1,10.5-7.6,17.8-13.9,25.4C158.7,124,157.3,125.4,156.7,126z M138.2,124.4c11.9-5.2,17.6-13.8,21.9-23.3
		c1.3-2.8,0.8-6.5,1.1-9.7c-3.7,0.3-7.5,0.3-11.1,1.1c-1.5,0.3-2.8,2.3-3.9,3.7C140.2,104.1,140.4,113.6,138.2,124.4z"/>
	<path fill="#ED4A34" d="M247.2,216.8c-3.1,13.7-6.5,27.3-9.2,41.1c-0.9,4.4-2.5,6.2-6.8,5.6c-4.8-0.6-3.9-4.1-3.1-7
		c4.1-15,8.4-29.9,12.8-44.8c0.8-2.8,1.7-6.3,3.7-7.8c5.7-4.2,11.9-2.8,14.6,3.8c4,9.4,6.8,19.3,10.2,29.3c0.5-1.7,1.2-3.9,1.7-6.1
		c2-9.2,3.6-18.5,6-27.6c0.7-2.6,3.5-5.8,5.9-6.3c3.1-0.7,6.6,5.5,5.9,9.2c-3.2,16.6-6.3,33.3-9.6,49.9c-1.9,9.9-8.2,13-17,8.2
		c-2.1-1.2-3.9-4.1-4.5-6.6c-2.9-12.6-5.3-25.3-7.8-37.9c-0.2-0.9-0.4-1.8-0.7-2.8C248.8,217,248,216.9,247.2,216.8z"/>
	<path fill="#ED4A34" d="M353.4,138.6c5.8-0.7,10.5-1.6,15.2-1.8c2.5-0.1,5.3,0.5,7.7,1.5c1.4,0.6,2.7,2.6,2.9,4.1
		c0.1,0.9-1.8,2.7-3.1,3.1c-7.2,2.1-14.5,3.8-22.3,5.8c0,6.6,0.1,13.8,0,20.9c0,3.9,1.8,5,5.4,4.5c4.8-0.7,9.7-1.3,14.6-1.3
		c1.5,0,3.1,1.9,4.7,3c-1.3,1.3-2.5,3.4-4.1,3.7c-7,1.4-14,3-21.1,3.2c-8.2,0.3-14.4-6.2-14.4-14.4c0-19.9,0.2-39.8,0.7-59.7
		c0.1-2.1,2.3-5.4,4.2-6.1c6.9-2.5,14.1-4.3,21.2-6c2.3-0.6,5.3-1,7.2,0c2.7,1.3,4.7,3.9,7,6c-2,1.4-3.9,3.2-6.2,4.1
		c-3,1.2-6.3,1.7-9.5,2.5c-10.1,2.6-10.1,2.6-10.1,13.3C353.4,129.2,353.4,133.7,353.4,138.6z"/>
	<path fill="#ED4A34" d="M197.1,196.3c-1.7,9.8-3.5,19-4.9,28.2c-0.8,5.2-1.4,10.6-1.2,15.8c0.1,3.1,1.5,6.4,3.3,9
		c3.3,4.7,7.2,4.4,9-1c2.6-8.1,4.2-16.6,6-24.9c1.2-5.6,1.6-11.4,3.3-16.8c0.8-2.6,3.5-5.4,6-6.5c5.1-2.1,7.2-0.1,6.5,5.4
		c-1.9,13.4-3.8,26.7-6.1,40.1c-1.6,9.1-8.5,15-17.7,16.1c-9.1,1.1-16.7-3.4-20.9-11.9c-5.4-10.8-2.3-21.7-1.2-32.6
		c0.5-4.5,1.4-8.9,2.1-13.3c1.2-7.9,3.3-9.4,11.3-8.4C193.6,195.5,194.5,195.8,197.1,196.3z"/>
	<path fill="#ED4A34" d="M306.6,152.6c3.7-12.2,7-22.7,10-33.2c1.2-4.2,1.6-9.1,7.2-8.9c5.2,0.2,8.5,6.9,7,12.9
		c-0.6,2.6-1.3,5.2-2.2,7.6c-4.3,11.7-8.5,23.4-13.2,34.9c-1.8,4.4-2.9,10.2-10.2,9.3c-8.1-1.1-11.5-3.5-12.7-11.4
		c-2.3-15.1-4.3-30.3-6.4-45.5c-0.2-1.6-0.6-3.5,0-4.9c1.1-2.6,2.8-4.9,4.3-7.3c2.3,2,6,3.6,6.6,6.1c3.3,12,5.7,24.2,8.4,36.4
		C305.6,149.3,305.8,150,306.6,152.6z"/>
	<path fill="#ED4A34" d="M427,174c2.2,7.4-0.1,11.6-7.6,12.1c-5.9,0.4-11.9,0.1-17.7-0.8c-7.9-1.4-12.1-6.6-12.3-14.6
		c-0.6-22.6,0.3-45,4.2-67.3c0.8-4.8,3.7-5.8,6.7-3.3c2.9,2.4,5.8,6.2,6.3,9.7c1.4,9.9,1.5,19.9,2.1,29.9c0.6,10,1.1,20,1.7,30
		c0.5,8.7,1.6,9.6,10.1,7.5C422.8,176.5,424.8,175.1,427,174z"/>
	<path fill="#ED4A34" d="M254.9,21.5c-9.6,1.4-12.1,3.4-13.2,11.3c-0.9,6-1,12.2-1.1,18.3c0,3.4-0.2,6.7-4.4,6.2
		c-3.6-0.5-6.7-2.1-6.5-7.2c0.3-8.6-0.2-17.2-0.5-25.8c0-1.4-0.7-2.7-1.1-4c-9.1,2-10.2,3.4-10.3,12.1c-0.1,8.4-0.5,16.7-0.7,25.1
		c-0.1,3.9-2.7,5.3-5.6,4.7c-1.8-0.4-4.4-3.3-4.4-5c0.4-14.5,1.2-28.9,2.4-43.4c0.1-1.7,3-4.3,4.8-4.5c2.7-0.4,5,1.5,4.3,5.1
		c-0.2,0.7,0.2,1.6,0.3,2.7c7.1-1.3,14.7-5,19.4,2.9c5.8-1.2,11.2-3,16.8-3.3c7-0.4,10.5,2.8,10.9,9.6c0.5,8.6,0.4,17.2,0.4,25.8
		c0,1.6-0.4,3.6-1.4,4.6c-1.6,1.5-3.8,3.3-5.7,3.2c-1.3-0.1-3.4-3-3.5-4.8c-0.4-7.3-0.1-14.7-0.2-22.1
		C255.3,29.1,255.1,25.3,254.9,21.5z"/>
	<path fill="#ED4933" d="M38.7,213.4c-0.6-5.7-0.7-11.5-1.8-17c-0.8-3.8,0.8-6,3.8-6.2c1.7-0.1,4.7,2.6,5,4.3
		c1.4,8,1.8,16.3,3.1,24.3c0.6,3.5,2.5,6.9,3.8,10.3c0.6-0.2,1.1-0.3,1.7-0.5c0-1.4,0.1-2.9,0-4.3c-1.1-9.1,3.2-16,9.9-21.2
		c4.5-3.5,11.5-3.7,14.7,0.4c3.2,4.1,4.8,10.9,4.2,16.3c-1.3,13.2-9.2,17.1-22.2,14.2c-6.1-1.4-12.9-2.5-18.7,3.1
		c-4.9,4.7-15,4-19.9-0.6c-5.3-4.9-2.5-17.3,4.7-20.2C30.3,214.9,34.1,214.5,38.7,213.4z M76.1,215.9c-0.5-6.5-3.1-9.7-6.7-8
		c-5.7,2.7-8,14.9-3.7,19.6c2.8,3.1,5.6,3.6,7.3-1C74.3,223,75.1,219.4,76.1,215.9z M41.2,225.8c-1.7-2.2-3.1-5.8-5.2-6.2
		c-4-0.9-8.7,5-8.6,9.2c0.1,4.1,2.6,6.2,6.3,5.7C38,234,40.5,231.2,41.2,225.8z"/>
	<path fill="#ED4A33" d="M16.1,46.5c0-0.2,0-0.4,0-0.6c0.6-17.7,3.4-19,15.1-21.2c12.9-2.4,21.3,6,24.2,16.4
		c2.1,7.4,3.2,15.2,3.7,23c0.6,9.8-4.9,15.7-14.7,17.1C30.2,83.1,21,77,17.9,62.9c-1.2-5.4-1.5-10.9-2.2-16.4
		C15.9,46.5,16,46.5,16.1,46.5z M47.9,59.6c0.4-0.1,0.8-0.3,1.3-0.4c-2.3-7.8-3.9-15.8-7.1-23.2c-1.1-2.7-5.7-5.4-8.5-5.3
		c-2.5,0.1-6.4,4-6.8,6.6c-1.8,11.8,0.4,23.3,5.8,33.9c1.1,2.2,5.3,4,7.9,3.7c2.3-0.2,5.1-3.2,6.1-5.7
		C47.8,66.4,47.5,62.8,47.9,59.6z"/>
	<path fill="#ED4A34" d="M253.6,164.7c2-17,4-34.1,6.2-51.1c0.6-4.7,1.4-9.8,8.3-8.9c6.5,0.8,6.7,5.3,6.3,10.5
		c-1.4,18.9-2.5,37.8-4,56.7c-0.3,3.5-0.2,8.2-6.3,7.7c-6.4-0.5-9.1-2.6-9.6-8.7c-0.2-2,0-4.1,0-6.1
		C254.1,164.8,253.8,164.8,253.6,164.7z"/>
	<path fill="#ED4934" d="M146.5,60.8c-6.2,7.8-13.5,9.6-22.2,6.5c-7.2-2.6-10.2-9.2-5.2-14.9c6.3-7.2,14.1-13.2,21.2-19.8
		c0.5,0.4,1,0.9,1.4,1.3c0-0.8,0.2-1.7,0-2.4c-1-3-2.1-6-3.1-9.1c-2.7,1.6-5.8,2.7-8,4.8c-3.3,3.1-6,2.5-9.2,0.4
		c2.7-7.4,8.6-11.5,15.8-11.1c6.7,0.4,11.9,4.9,13.3,12.2c1.4,7.4,2.3,14.9,3.7,22.3c0.5,2.5,2.1,4.9,2.6,7.4c0.4,2.3,0,4.8-0.1,7.1
		c-2.2-0.6-4.4-0.9-6.5-1.8C149,63.4,148.1,62.2,146.5,60.8z M142.1,43.9c-0.6-0.3-1.2-0.7-1.8-1c-3.9,5.3-7.9,10.4-11.5,15.9
		c-0.7,1,0.3,3.3,0.9,4.9c0.1,0.3,2.3,0.3,3.3-0.2C138.7,60.5,143.3,50.3,142.1,43.9z"/>
	<path fill="#ED4A34" d="M290,29.5c0.2-1.1,0.4-1.5,0.3-1.8c-0.9-9.6-1-11.5-10.5-5.5c-1.5,0.9-3.7,0.8-6,1.3
		c3-7.3,9.7-10.7,18.3-9.9c6,0.6,9.2,3.5,9.8,11.3c0.7,8.7,0.5,17.6,0.5,26.4c0,2.6-0.2,5.2-0.3,8c-0.1,0.1-0.4,0.6-0.8,0.6
		c-5.7,0.3-11.1,1-16.8,2.6c-10.4,3-17.4-4.8-14.5-15.2C272.8,37.3,278,29.6,290,29.5z M290.3,36.6c-7.7,4-11.8,14.4-8.5,20.9
		C289.5,51.8,291.7,46.5,290.3,36.6z"/>
	<path fill="#ED4A34" d="M84.1,34.5c-0.6-15.1,11.6-24.1,23.3-19.7c6.1,2.3,9.1,7.7,7.7,14.1c-1.9,9.4-5.8,17.5-15.4,21.3
		c-3.4,1.4-3.9,3.6-3,6.9c1,3.5,1.4,7.3,2.7,10.7c1.2,3.1,1.1,5.4-2.3,6.2c-3.5,0.8-7.4,1-8.4-3.6c-1.2-5.8-2-11.7-2.7-17.6
		C85.2,46,84.6,39,84.1,34.5z M95.2,45.3c6.8-5.8,12.1-10.7,10.4-18.9c-0.5-2.4-2.7-4.4-4.1-6.6c-2.2,1.9-4.7,3.6-6.6,5.7
		c-0.8,0.9-0.9,2.7-0.8,4.1C94.2,34.4,94.7,39.2,95.2,45.3z"/>
	<path fill="#ED4934" d="M331.3,58.2c1.4,0.6,2,0.7,2.4,1.1c3.4,3.7,7,6,11.2,1.3c3.3-3.7,2.7-10.9-1.3-14.6
		c-1.5-1.3-3.4-2.2-5.2-3.1c-5.7-2.9-7.9-7.9-6.4-14.2c2.2-9.1,5.2-12.1,12.7-11.6c5.5,0.4,11.5,1,13.8,7.2c0.7,1.8-0.4,5.6-1.9,6.5
		c-1.5,0.9-4.7-0.3-6.7-1.4c-2.2-1.2-3.9-3.2-5.9-4.9c-1,2.8-3,5.7-2.8,8.4c0.2,2.4,2.2,6.1,4.3,6.7c7,2.4,11.8,6.3,13.5,13.6
		c1.4,5.9-3,12.6-9.3,14.5c-8.6,2.5-16.6,0.1-18.6-5.8C330.8,60.9,331.2,59.9,331.3,58.2z"/>
	<path fill="#ED4A34" d="M179.9,58.6c-1.6,1.1-3.4,3-5.5,3.5c-3.4,0.8-7.3,0.7-8.4-3.9c-0.7-3-1.2-6.1-1.3-9.1
		c-0.3-10.2-0.5-20.4-0.3-30.7c0-1.5,2.5-4.5,3.3-4.3c2.3,0.5,5.8,2,6.1,3.5C176.2,30.8,177.9,44,179.9,58.6z"/>
	<path fill="#EE4B35" d="M312.3,19c9.3-0.8,10.5,0.3,10.5,7.9c-0.1,10.8,0.1,21.6-0.4,32.4c-0.1,1.7-3.1,4.6-4.5,4.5
		c-2.5-0.2-7-2.3-7-3.6C310.8,46.3,311.7,32.6,312.3,19z"/>
	<path fill="#ED4B35" d="M287,81.1c0.2,6.1-6.8,16.8-12.9,17.8c-2.8,0.5-6.3-1.7-8.8-3.6c-0.7-0.5,0.3-4.9,1.7-6.4
		c3.8-4.1,8.1-8,12.6-11.4C283.5,74.6,286.8,76.5,287,81.1z"/>
	<path fill="#ED5241" d="M176.7,2.9c-3.4,2.6-5.2,5-7.2,5.2c-1.6,0.2-3.6-2.3-5.4-3.6c2-1.5,3.8-3.5,6-4.2
		C171.4-0.1,173.3,1.5,176.7,2.9z"/>
	<path fill="#EC4C3A" d="M320.5,4.1c2,2.5,4.1,4.6,3.8,5c-1.4,1.9-3.2,4.1-5.2,4.8c-1.1,0.4-3.2-2.2-4.8-3.4
		C316,8.6,317.8,6.8,320.5,4.1z"/>
</g>
</svg>
